<?xml version="1.0" encoding="utf-8"?>
<!-- Generator: Adobe Illustrator 23.1.0, SVG Export Plug-In . SVG Version: 6.00 Build 0)  -->
<svg version="1.1" xmlns="http://www.w3.org/2000/svg" xmlns:xlink="http://www.w3.org/1999/xlink" x="0px" y="0px"
	 viewBox="0 0 960 1080" style="enable-background:new 0 0 960 1080;" xml:space="preserve">
<style type="text/css">
	.st0{fill:#F3E7D9;}
	.st1{fill:none;stroke:#1D2538;stroke-width:2;stroke-miterlimit:10;}
	.st2{fill:none;stroke:#3E4C6F;stroke-width:2;stroke-miterlimit:10;}
	.st3{fill:none;stroke:#992C29;stroke-width:2;stroke-miterlimit:10;}
	.st4{fill:#C94039;}
	.st5{fill:#992C29;}
	.st6{fill:#EE5D4F;}
	.st7{fill:#3E4C6F;}
	.st8{fill:#1D2538;}
	.st9{fill:#121721;}
	.st10{fill:#48598B;}
	.st11{fill:#273252;}
	.st12{fill:#FEED7F;stroke:#FFACFF;stroke-miterlimit:10;}
	.st13{fill:none;stroke:#FFACFF;stroke-miterlimit:10;}
	.st14{fill:#F5894E;}
	.st15{fill:#CC6D3D;}
	.st16{fill:#F7BC4B;}
	.st17{fill:#CE9436;}
	.st18{fill:none;stroke:#992C29;stroke-width:3;stroke-miterlimit:10;}
	.st19{fill:#29ABE2;}
	.st20{fill:#A96443;}
	.st21{fill:#7A462F;}
	.st22{fill:#BB83C3;}
	.st23{opacity:0.7;fill:#856792;}
	.st24{fill:none;stroke:#1D2538;stroke-miterlimit:10;}
	.st25{fill:#856792;}
	.st26{fill:none;stroke:#4B3355;stroke-miterlimit:10;}
	.st27{fill:none;stroke:#4B3355;stroke-width:0.5;stroke-miterlimit:10;}
	.st28{fill:#4B3355;}
	.st29{fill:none;stroke:#1689CB;stroke-miterlimit:10;}
	.st30{fill:#34283A;}
	.st31{fill:none;stroke:#34283A;stroke-linecap:round;stroke-linejoin:round;stroke-miterlimit:10;}
</style>
<g id="clouds">
	<path class="st0" d="M420.75,433.17c78.12-32.76,340.12-116.74,420.85-151.2s77.17-139.12,5.27-156.03s-98.19,23.63-98.19,23.63
		s-12.92-73.9-67.16-77.05c-54.23-3.15-101.63,52.37-80.35,135.34c0,0-7.84-25-48.39-26.49c-40.55-1.49-93.91,36.7-117.67,91.81
		c-23.76,55.11-2.86,79.49,11.32,85.46c0,0-69.81,18.91-104.98,53.74S342.63,465.93,420.75,433.17z"/>
	<path class="st0" d="M128.66,386.7c11.87-5.94,137.72-74.8,201.83-115.16s104.48-61.74,97.35-85.48s-5.94-46.3-61.74-20.18
		c0,0-40.37-52.24-111.6-9.5s-23.75,131.79-23.75,131.79s-29.68-5.94-59.36,15.43c-29.68,21.37-32.06,32.06-26.12,40.37
		c5.94,8.31,14.25,5.94,14.25,5.94s-34.43,23.75-42.74,34.43C108.48,395.01,116.79,392.63,128.66,386.7z"/>
</g>
<g id="bot">
	<path class="st1" d="M205.35,534.19c0,0-19.11,36.24,7.58,38.87c26.68,2.64,28.33-29.65,28.33-29.65"/>
	<path class="st2" d="M215.73,524.96c0,0-9.07,16.25,9.89,35.21c15.03,15.03,35.82-12.4,35.82-12.4"/>
	<path class="st3" d="M213.17,537.81c0,0-11.26,36.24,4.47,38.87s16.7-29.65,16.7-29.65"/>
	<polygon class="st4" points="157.59,793.1 138.81,640.92 298.9,640.92 324.6,804.96 	"/>
	<polygon class="st5" points="157.59,793.1 291.29,706.54 298.9,640.92 324.6,804.96 	"/>
	<g>
		<polygon class="st5" points="375.99,604.35 298.9,640.92 324.35,804.96 401.68,719.97 		"/>
		<polygon class="st6" points="139.8,640.92 266.29,603.36 375.99,604.35 298.9,640.92 		"/>
	</g>
	<path class="st7" d="M287.78,622.93c-25.85-1.92-76.93,5.74-76.93,5.74s-0.2,1.49,0,2.42c0.62,2.76,20.98,4.22,39.26,4.15
		c17.34-0.07,42.16-5.3,45.73-9c0.83-0.86,0.39-3.56,0.39-3.56S290.95,623.17,287.78,622.93z"/>
	<path class="st8" d="M287.78,620.63c-25.85-1.92-50.22,0.16-70.16,4.97c-19.94,4.81,8.12,7.43,32.5,7.34
		S313.63,622.54,287.78,620.63z"/>
	<polygon class="st9" points="221.7,538.25 245.54,627.41 252.46,627.76 258.03,624.85 230.06,529 	"/>
	<g>
		<path class="st10" d="M242.58,549.01c0,0-2.96,13.84,2.96,25.69c5.93,11.86,9.88,11.86,34.59,7.91
			c24.71-3.95,37.22-9.88,47.43-14.82c7.32-3.54-0.99-29.98-5.93-30.64C305.82,530.23,242.58,549.01,242.58,549.01z"/>
		<path class="st8" d="M236.83,529.13c0,0-2.96,13.84,2.96,25.69c5.93,11.86,9.88,11.86,34.59,7.91
			c24.71-3.95,37.22-9.88,47.43-14.82c7.32-3.54-0.99-29.98-5.93-30.64C300.08,510.35,236.83,529.13,236.83,529.13z"/>
		<path class="st10" d="M241.59,562.85c0,0-5.93-10.87-15.81-13.84c-9.88-2.96-26.02-0.66-30.64-0.99s-14.82-14.82-21.74-33.6
			c-6.92-18.78-9.88-35.58,11.86-44.47c21.74-8.89,70.16-21.74,91.91-21.74c21.74,0,21.74,12.85,26.68,23.72
			s21.74,57.32,23.72,62.26c1.98,4.94-4.28,9.55-29.65,17.79C265.09,562.63,241.59,562.85,241.59,562.85z"/>
		<path class="st7" d="M222.69,492.55c-3.53-7.66-9.73-23.3,10.6-31.81s23.27-12.37,43.6-12.37s18.25,6.84,22.87,17.25
			c4.62,10.41,20.33,54.9,22.18,59.63C323.79,529.98,226.23,500.21,222.69,492.55z"/>
		<g>
			
				<ellipse transform="matrix(0.9017 -0.4324 0.4324 0.9017 -197.0515 159.3251)" class="st11" cx="251.8" cy="512.94" rx="10.21" ry="21.25"/>
			
				<ellipse transform="matrix(0.9017 -0.4324 0.4324 0.9017 -197.5765 158.6635)" class="st9" cx="250.08" cy="513.76" rx="8.31" ry="17.28"/>
		</g>
		<g>
			
				<ellipse transform="matrix(0.9017 -0.4324 0.4324 0.9017 -186.0677 176.6136)" class="st11" cx="295.3" cy="497.43" rx="9.51" ry="19.78"/>
			
				<ellipse transform="matrix(0.9017 -0.4324 0.4324 0.9017 -186.5565 175.9976)" class="st9" cx="293.71" cy="498.2" rx="7.73" ry="16.09"/>
		</g>
		
			<ellipse transform="matrix(0.9435 -0.3313 0.3313 0.9435 -172.8246 110.7605)" class="st8" cx="238.48" cy="562.32" rx="9.31" ry="12.3"/>
		
			<ellipse transform="matrix(0.9435 -0.3313 0.3313 0.9435 -173.1111 110.0391)" class="st11" cx="236.22" cy="562.8" rx="9.31" ry="12.3"/>
	</g>
</g>
<g id="light">
	<g>
		<line class="st12" x1="244.06" y1="477.86" x2="303.35" y2="365.2"/>
		<line class="st12" x1="269.26" y1="538.63" x2="413.05" y2="562.35"/>
		<path class="st13" d="M264.81,405.22c0,0,32.61,5.93,42.99,28.16"/>
		<line class="st13" x1="278.15" y1="513.43" x2="344.46" y2="488.6"/>
		<path class="st13" d="M375.14,471.72c0,0,16.89,72.69-18.42,106.94"/>
	</g>
</g>
<g id="right_arm">
	<g>
		<path class="st14" d="M537.54,447.47c0,0-27.23,6.9-32.37,37.68c-1.89,11.34-3.95,44.98-7.38,67.1
			c-5.45,35.19-10.28,69.12-12.66,79.91c-3.75,17.03-7.12,30.58,14.02,38.54c21.91,8.25,30.53-1.89,41.33-27.87
			c11.1-26.7,30.74-91.49,32.74-114.85C575.3,503.9,571.48,450.74,537.54,447.47z"/>
		<path class="st15" d="M537.75,449.4c-8.29-0.06-16.62,4.35-17.01,17.41c-0.9,29.78,8.82,87.88,9.88,107.17
			c1.78,32.31-44.51,92.19-31.46,96.74c22.1,7.71,30.53-1.89,41.33-27.87c11.1-26.7,30.74-91.49,32.74-114.85
			C575.3,503.9,546.04,449.45,537.75,449.4z"/>
	</g>
</g>
<g id="torso">
	<path class="st8" d="M578.76,658.18c0,0-4.94,105.14-3.82,111.15c1.12,6.01,107.59,37.76,107.59,37.76s94.12-10.05,104.57-10.89
		c10.45-0.85,12.61-77.93,3.97-106.67C782.43,660.78,578.76,658.18,578.76,658.18z"/>
	<path class="st16" d="M743.86,426.45c-21.46-17.08-45.79-24.09-109.71-13.76c-76.47,12.36-98.8,30.19-107.13,36.87
		c-8.35,6.7,14.74,85.32,27.36,113.88c12.56,28.4,15.41,79,15.41,79s0.91,59.18,0.15,71.45c-0.76,12.26,212.69,0.39,221.39-4.99
		c8.68-5.36-0.56-98.6-7-122.76C777.65,561.13,763.46,442.05,743.86,426.45z"/>
	<path class="st17" d="M684.22,531.45c0,0-17.48,26.2-38.77,58.79c-8.9,13.62,29.42,69.85,29.42,69.85l40.84,56.69
		c45.84-2.24,73.25-5.67,76.8-7.86c8.68-5.36-2.78-96.9-7.52-123.43c-5.93-33.23-7.95-127.68-39.56-161.41
		c-18.75-20.01-49.49-25.63-113.41-15.3c-76.47,12.36-96.68,34.1-105.01,40.79"/>
	<path class="st15" d="M585.64,427.15c0,0-21.99,5.16-17.93,13.97c4.07,8.81,14.79,26.91,47.69,29.18
		c32.9,2.27,64.87-45.14,55.81-56.24C662.15,402.96,585.64,427.15,585.64,427.15z"/>
	<g>
		<path class="st18" d="M583.95,423.11c-24.77,29.1,20.65,117.45,38.56,111.56c15.03-4.94,44.12-88.48,33.26-117.01
			c-2.08-5.46-8.72-11.69-14.11-12.18"/>
		
			<ellipse transform="matrix(0.9922 -0.125 0.125 0.9922 -62.9298 81.9986)" class="st19" cx="622.07" cy="542.56" rx="6.59" ry="10.07"/>
	</g>
	<path class="st15" d="M577.07,406.88c0,0,10.02,31.77,16.52,43.36c7.46,13.3,32.84,11.39,32.84,11.39s23.74-11.43,25.35-27.59
		l-9.73-72.22L577.07,406.88z"/>
</g>
<g id="table">
	<g>
		<g>
			<path class="st14" d="M185.73,812.65c0,0-81.17,22.07-78,66.38s23.99,79,201.14,109.42c274.05,47.07,611.04-59.22,613.74-134.74
				c0.65-18.26,6.38-38.58-37.64-50.64C658.85,741.11,290.73,804.57,185.73,812.65z"/>
			<path class="st20" d="M176.98,789.29c0,0-50.46,27.4-65.08,62.46c-15.88,38.07,10.49,85.19,189.56,116.09
				c344,59.36,786.09-121.42,557.5-184.35S283.12,781.09,176.98,789.29z"/>
		</g>
		<path class="st21" d="M116.82,842.33l218.77,92.08l216.63,34.93l10.05-8.82l4.75-30.86l122.24-7.12l126.99-64.09l28.48-35.6
			l55.78-22.55c0,0-19.38-14.24-65.67-21.36c-43.51-6.69-715.15,59.14-715.15,59.14L116.82,842.33z"/>
		<polygon class="st21" points="849.88,898.8 859.37,909.88 858.58,892.47 815.86,886.93 		"/>
		<polygon class="st21" points="897.35,868.74 812.69,846.58 814.27,841.84 901.31,863.99 902.89,882.98 		"/>
		<polygon class="st21" points="854.63,867.95 816.65,861.62 838.8,868.74 870.45,876.65 		"/>
		<polygon class="st21" points="790.54,892.47 757.31,884.56 714.58,876.65 751.77,890.89 		"/>
		<path class="st21" d="M904.47,848.16c0,0-25.32-7.91-34.81-10.29c-9.49-2.37-20.57,0-20.57,0L904.47,848.16z"/>
		<polygon class="st21" points="682.93,953.4 690.85,966.85 699.55,949.44 615.68,933.62 		"/>
		<path class="st21" d="M712.21,940.74l-40.35-9.49C671.86,931.24,670.27,940.74,712.21,940.74z"/>
		<polygon class="st21" points="406.01,979.51 218.1,930.85 178.14,900.38 227.59,923.73 		"/>
		<polygon class="st21" points="507.29,977.13 325.31,940.74 436.08,971.59 		"/>
		<polygon class="st21" points="250.14,916.6 183.68,878.63 132.65,860.82 183.68,885.75 		"/>
	</g>
</g>
<g id="paper">
	<path class="st22" d="M29.45,803.51c0,0,188.6-33.72,201.09-34.97c12.49-1.25,14.99-1.25,14.99-1.25l87.43-78.69
		c0,0,158.62,36.22,162.37,36.22s31.23,16.24,31.23,16.24l123.65,1.25l57.45,14.99c0,0,151.13-11.24,156.13-11.24
		s56.21,12.49,62.45,13.74l-101.17,52.46l-27.48,38.72l-104.92,67.45l-334.74,12.49L29.45,803.51z"/>
	<path class="st23" d="M330.21,919.68l-5.3-76.26l-37.98-59.34l45.1-95.34c0,0,159.55,36.08,163.3,36.08s31.23,16.24,31.23,16.24
		l123.65,1.25l57.45,14.99c0,0,151.13-11.24,156.13-11.24s-32.42,19.76-26.17,21.01l-46.29,36.79l-27.3,37.98l-248.04,80.7
		l29.43-104.13L431.48,921.26l-73.55,9.64L330.21,919.68z"/>
	<g>
		<g>
			<polygon class="st25" points="268.27,777.29 289.35,784.89 310.4,792.58 352.44,808.12 394.4,823.87 415.35,831.83 
				436.27,839.88 415.18,832.29 394.13,824.59 352.09,809.05 310.14,793.3 289.18,785.34 			"/>
		</g>
		<g>
			<path class="st25" d="M523.89,751.6c-3.78,6.69-7.65,13.33-11.53,19.96l-11.76,19.82l-11.96,19.71l-6.05,9.81l-6.14,9.76
				l5.72-10.01l5.81-9.95l11.76-19.82l11.96-19.7C515.73,764.62,519.76,758.08,523.89,751.6z"/>
		</g>
		<g>
			<polygon class="st25" points="790.05,842.84 752.17,843.42 714.29,843.84 638.53,844.65 562.76,844.49 524.88,844.4 487,844.16 
				524.88,843.93 562.76,843.83 638.53,843.67 714.29,843.16 752.17,842.92 			"/>
		</g>
		<g>
			<path class="st26" d="M331.19,769.06c-8.52,5.68-24.61,17.73-24.61,17.73s-35.7,15.53-40.88,31.57
				c-5.06,15.69,0.85,22.28,11.46,31.07c19.28,15.97,42.74,12.52,54.64,9.96c12.28-2.64,23.43-9.96,40.23-23.79
				c10.07-8.3-19.55-13.03-20.26-20.26c17.16-15.29,38.66-26.45,32.12-31.13C377.35,779.53,335.14,766.42,331.19,769.06z"/>
			
				<ellipse transform="matrix(0.8487 -0.5289 0.5289 0.8487 -368.7747 289.4654)" class="st26" cx="321.46" cy="789.17" rx="15.42" ry="5.62"/>
			<path class="st26" d="M335.14,768.73c0,0,7.58-10.54,15.81-13.18c8.24-2.64,40.02,2.47,45.29,10.38
				c5.27,7.91-12.85,17.29-12.85,17.29s-17.91-6.79-27.67-9.88C346.09,770.99,335.14,768.73,335.14,768.73z"/>
			<path class="st26" d="M357.21,809.9c0,0,29.65,10.87,43.48-11.86c13.84-22.73-11.86-19.76-11.86-19.76"/>
			<path class="st26" d="M369.07,801.01c0,0,8.89,24.71,26.68,13.84s-6.92-34.59-6.92-34.59"/>
		</g>
		<g>
			<path class="st26" d="M644.78,877.1c0,0-20.75,14.82-66.21,14.82c-45.46,0-66.75-7.53-54.35-26.68
				c10.87-16.8,17.79-28.66,27.67-38.54c9.88-9.88,25.69-4.94,31.62-15.81c5.93-10.87,7.91-21.74,48.42-21.74
				c40.52,0,31.62,7.91,26.68,19.76s29.65,7.91,17.79,27.67C666.54,853.04,644.78,877.1,644.78,877.1z"/>
			<path class="st26" d="M575.85,833.41c3.75-0.09,4.54,4.29,1.57,10.32c-3.31,6.72-10.04,13.03-14.74,13.39
				c-4.8,0.36-4.86-5.66-0.52-12.67C566.04,838.18,572.04,833.5,575.85,833.41z"/>
			<path class="st26" d="M635.47,837.03c3.75-0.09,4.54,4.29,1.57,10.32c-3.31,6.72-10.04,13.03-14.74,13.39
				c-4.8,0.36-4.86-5.66-0.52-12.67C625.67,841.81,631.66,837.12,635.47,837.03z"/>
			<line class="st27" x1="644.78" y1="867.22" x2="692.22" y2="866.23"/>
		</g>
		<g>
			<path class="st26" d="M671.47,779.27l15.15,2.96l17.13-2.64c0,0,16.14,3.95,21.08,3.95c2.23,0,15.81-2.64,15.81-2.64
				s20.56,0.87,22.73,0.33c3.95-0.99,16.8-4.94,20.75-4.94c3.95,0,13.84,0.99,16.8,0.99c2.96,0,5.93-0.99,5.93-0.99"/>
			<polyline class="st26" points="795.98,789.15 786.1,787.17 779.18,787.17 762.38,790.14 744.6,791.13 727.8,791.13 
				721.87,792.11 			"/>
			<polygon class="st28" points="734.71,809.9 683.16,809.52 689.65,802.38 740.73,802.03 			"/>
			<polygon class="st28" points="749.42,810.49 738.43,810.44 744.62,802.52 754.01,802.76 			"/>
		</g>
		<g>
			<polygon class="st28" points="676.08,906.39 624.53,906.01 632.99,898.57 684.07,898.22 			"/>
			<polygon class="st28" points="691.56,876.44 676.57,876.36 685.04,868.92 699.55,868.27 			"/>
			<polygon class="st28" points="710.67,876.44 695.68,876.36 704.14,868.92 718.66,868.27 			"/>
		</g>
		<polygon class="st28" points="514.34,861.29 498.2,860.63 504.13,854.37 519.94,854.7 		"/>
		<g>
			<g>
				<g>
					<path class="st8" d="M194.48,843.5c-4.31-1.88-8.57-3.89-12.79-5.97c-2.1-1.06-4.19-2.15-6.25-3.3
						c-2.04-1.19-4.11-2.31-5.95-3.95l0.02,0.02c-1.01-0.8-2.15-1.48-3.33-2.08c-1.18-0.59-2.42-1.12-3.65-1.57l-0.02-0.01
						l-0.02-0.01l-5.69-2.7l-5.67-2.75l0.04,0.02c-4.91-1.84-9.81-3.7-14.68-5.64c-2.43-0.99-4.87-1.97-7.25-3.09
						c-2.37-1.14-4.74-2.25-6.99-3.65l0.05,0.02c-1.74-0.49-3.49-0.98-5.23-1.5c1.78,0.36,3.54,0.75,5.31,1.14l0.02,0l0.04,0.02
						c2.29,1.21,4.69,2.28,7.09,3.32c2.39,1.04,4.82,2.01,7.27,2.95c4.87,1.91,9.78,3.75,14.69,5.56l0.02,0.01l0.02,0.01l5.7,2.69
						l5.67,2.74l-0.04-0.02c1.29,0.49,2.52,1.04,3.74,1.67c1.2,0.64,2.4,1.33,3.45,2.26l0,0l0.02,0.02
						c1.64,1.54,3.72,2.74,5.71,3.95c2.02,1.19,4.08,2.32,6.16,3.42C186.06,839.31,190.27,841.41,194.48,843.5z"/>
				</g>
				<g>
					<path class="st8" d="M133.46,797.71c0.61,0.47,1.03,1.14,1.61,1.63c0.56,0.52,1.21,0.92,1.93,1.17
						c0.71,0.25,1.46,0.4,2.21,0.46c0.38,0.03,0.76,0.03,1.14,0.05c0.38,0.02,0.82,0.04,1.18,0.32c0.18,0.13,0.32,0.35,0.37,0.56
						c0.06,0.2,0.09,0.38,0.14,0.55c0.11,0.33,0.34,0.59,0.62,0.81c0.58,0.43,1.27,0.79,1.94,1.14l2.05,1.04
						c0.7,0.34,1.35,0.76,2.04,1.03c2.81,1.17,5.69,2.25,8.55,3.34c2.85,1.1,5.72,2.2,8.59,3.24c0.72,0.26,1.44,0.52,2.15,0.75
						c0.38,0.12,0.67,0.23,1.01,0.26c0.34,0.04,0.67,0.01,1.08-0.01c0.41-0.03,0.94,0.04,1.36,0.26c0.41,0.22,0.74,0.5,1.03,0.78
						c0.3,0.3,0.59,0.65,0.78,1.05c0.2,0.39,0.31,0.81,0.44,1.04c0.2,0.45,0.92,0.64,1.63,0.78c0.83,0.15,1.58,0.5,2.27,0.83
						c1.4,0.7,2.72,1.49,4.03,2.31c2.61,1.62,5.15,3.39,7.69,5.03l8.4,3.54l0.02,0.01l0.01,0.01l3.18,1.92
						c0.53,0.34,1.05,0.63,1.63,0.86c0.57,0.24,1.15,0.46,1.73,0.66c-0.6-0.15-1.2-0.31-1.79-0.51c-0.59-0.19-1.17-0.46-1.71-0.76
						l-3.3-1.72l0.03,0.01l-4.3-1.61l-2.15-0.8l-1.08-0.39l-0.53-0.2l-0.13-0.04c-0.06-0.02-0.16-0.07-0.19-0.09l-0.27-0.16
						c-2.62-1.66-5.12-3.39-7.73-4.98c-1.3-0.79-2.61-1.57-3.96-2.23c-0.68-0.32-1.35-0.63-2.03-0.74c-0.39-0.07-0.8-0.16-1.21-0.32
						c-0.4-0.15-0.88-0.47-1.11-0.93c-0.24-0.44-0.31-0.78-0.47-1.07c-0.15-0.29-0.35-0.54-0.59-0.79
						c-0.25-0.25-0.52-0.47-0.78-0.61c-0.27-0.14-0.51-0.18-0.87-0.16c-0.35,0.01-0.79,0.05-1.22,0c-0.43-0.04-0.86-0.2-1.21-0.32
						c-0.74-0.25-1.46-0.51-2.18-0.78c-5.75-2.16-11.44-4.42-17.05-6.93c-0.73-0.32-1.37-0.75-2.04-1.09
						c-0.67-0.36-1.36-0.71-2.03-1.09c-0.67-0.39-1.34-0.75-1.97-1.25c-0.31-0.26-0.59-0.6-0.72-1.01
						c-0.12-0.41-0.11-0.77-0.37-0.96c-0.25-0.21-0.62-0.26-0.99-0.29c-0.38-0.03-0.76-0.04-1.15-0.08
						c-0.77-0.08-1.53-0.26-2.26-0.54c-0.73-0.28-1.39-0.73-1.93-1.27C134.43,798.89,134.05,798.2,133.46,797.71z"/>
				</g>
				<g>
					<path class="st8" d="M217.38,822.26c-1.07-0.18-2.13-0.46-3.16-0.82c-1.03-0.37-2.05-0.8-2.99-1.39
						c-0.92-0.62-1.8-1.17-2.78-1.6c-0.96-0.43-2-0.78-3-0.97l0.07,0.01c-0.92,0-1.81-0.09-2.73-0.41
						c-0.23-0.09-0.46-0.19-0.68-0.34c-0.21-0.14-0.37-0.28-0.55-0.43c-0.35-0.3-0.67-0.63-0.97-0.92
						c-0.59-0.58-1.29-1.03-2.03-1.45c-0.73-0.41-1.53-0.83-2.24-1.03c-0.1-0.02-0.13-0.02-0.21-0.03l-0.33,0l-0.68-0.03
						c-0.45-0.03-0.9-0.08-1.35-0.16c-0.89-0.15-1.78-0.42-2.6-0.76c-1.64-0.66-3.23-1.38-4.82-2.12l-0.1-0.05l-0.06-0.08
						l-2.16-3.01l0.14,0.11l-14.73-6.34l-7.35-3.2c-2.45-1.07-4.93-2.07-7.27-3.38c2.38,1.23,4.89,2.14,7.36,3.17l7.43,3.02
						l14.83,6.1l0.08,0.03l0.06,0.08l2.29,2.91l-0.16-0.13c1.59,0.71,3.19,1.41,4.8,2.03c0.8,0.31,1.59,0.54,2.43,0.67
						c0.41,0.07,0.83,0.11,1.25,0.13l0.63,0.02l0.32,0c0.14,0,0.32,0.03,0.44,0.06c0.97,0.28,1.71,0.72,2.5,1.17
						c0.76,0.45,1.54,0.97,2.19,1.62c0.33,0.32,0.61,0.63,0.92,0.9c0.15,0.13,0.32,0.27,0.47,0.38c0.13,0.1,0.31,0.18,0.48,0.25
						c0.73,0.28,1.6,0.37,2.42,0.41l0.06,0l0.01,0c1.12,0.27,2.14,0.67,3.14,1.17c0.99,0.48,1.93,1.14,2.78,1.77
						C213.26,820.83,215.29,821.66,217.38,822.26z"/>
				</g>
			</g>
			<line class="st27" x1="259.38" y1="790.14" x2="277.16" y2="798.04"/>
			<line class="st27" x1="315.7" y1="748.63" x2="346.34" y2="761.48"/>
			<line class="st27" x1="340.41" y1="868.21" x2="384.88" y2="837.57"/>
			<polygon class="st28" points="360.83,873.81 349.96,868.54 356.29,864.36 366.76,868.87 			"/>
			<polygon class="st28" points="207.99,858.33 197.12,853.06 203.45,848.88 213.92,853.39 			"/>
			<polygon class="st28" points="244.22,874.8 211.28,859.97 217.61,855.8 250.15,869.86 			"/>
			<polygon class="st28" points="260.03,801.67 249.16,796.4 255.49,792.22 265.96,796.73 			"/>
			<polygon class="st28" points="486.01,766.42 447.87,753.22 452.91,747.55 490.47,760.12 			"/>
			<polygon class="st28" points="327.89,750.94 317.02,745.67 323.35,740.5 333.82,745.01 			"/>
			<polygon class="st28" points="375.66,868.87 358.86,861.29 365.19,857.12 381.59,863.93 			"/>
		</g>
	</g>
</g>
<g id="ruler">
	<g>
		<path class="st11" d="M572.17,792.7h-19.89L311.73,952.21v3.82l254.9,18.33l23.56-182.91L572.17,792.7z M537.36,925.09
			l-110.02-4.97l127.14-113.87l15.41-2.52L537.36,925.09z"/>
		<path class="st19" d="M576.48,784.21h-21.08l-243.76,168l255.62,17.13l28.33-186.45L576.48,784.21z M539.58,924.54l-116.61-5.27
			l132.42-116.61l16.33-2.67L539.58,924.54z"/>
		<g>
			<line class="st29" x1="398.43" y1="892.91" x2="430.55" y2="892.91"/>
			<line class="st29" x1="419.18" y1="878.09" x2="446.03" y2="878.09"/>
			<line class="st29" x1="436.97" y1="866.23" x2="458.22" y2="866.23"/>
			<line class="st29" x1="454.76" y1="853.88" x2="476.01" y2="853.88"/>
			<line class="st29" x1="473.04" y1="841.03" x2="494.29" y2="841.03"/>
			<line class="st29" x1="491.32" y1="828.68" x2="509.61" y2="828.68"/>
			<line class="st29" x1="509.61" y1="816.33" x2="523.44" y2="816.33"/>
		</g>
		<g>
			<line class="st29" x1="385.09" y1="940.02" x2="365" y2="955.83"/>
			<line class="st29" x1="412.1" y1="941.01" x2="392.01" y2="956.82"/>
			<line class="st29" x1="436.15" y1="942.66" x2="416.05" y2="958.47"/>
			<line class="st29" x1="460.2" y1="943.97" x2="444.05" y2="959.78"/>
			<line class="st29" x1="484.9" y1="945.95" x2="469.75" y2="961.76"/>
			<line class="st29" x1="512.9" y1="947.93" x2="498.74" y2="963.74"/>
		</g>
	</g>
</g>
<g id="right_forearm">
	<g>
		<path class="st14" d="M475.28,773.41c0,0-8.1,13.17-19.71,20.89c-17.72,11.78-47.67,2.37-29.14-35.65
			c10.66-21.87,39.98-82.37,47.4-101.01c7.1-17.83,13.78-22.27,28.41-18.72c14.7,3.56,30.76,16.4,27.67,37.42
			C526.7,698.21,475.28,773.41,475.28,773.41z"/>
		<path class="st15" d="M475.28,773.41c0,0-8.1,13.17-19.71,20.89c-17.72,11.78,15.45-38.46,19.73-56.33
			c9.69-40.43,22.76-95.52,32.25-93.94s25.44,11.28,22.35,32.31C526.7,698.21,475.28,773.41,475.28,773.41z"/>
	</g>
</g>
<g id="right_palm">
	<path class="st14" d="M449.3,778.54c4.82,0,13.18,19.23,7.39,37.58c-5.79,18.36-18.89,16.24-29.17,17.7
		c-10.29,1.46-23.63-2.19-23.63-2.19s-11.15-2.54-19.83-7.79c-6-3.63-3.31-8.72-4.48-15.75c-0.73-4.38,0.58-12.66,2.63-16.32
		C387.82,781.8,444.47,778.54,449.3,778.54z"/>
	<path class="st15" d="M398,814.16c0,0,3.14-12.28,5.38-14.76c2.24-2.48,24.69,1.71,27.52,2.02s1.93,20.29-0.29,26.96
		C428.38,835.05,401.64,823.88,398,814.16z"/>
	<g>
		<path class="st14" d="M387.7,833.74c0,0-0.59,7.05,2.94,9.84s11.21,5.81,11.21,5.81s10.06,0.42,10.29-2.38
			c0.22-2.62-1.63-5.19-4.42-6.04C402.16,839.27,387.7,833.74,387.7,833.74z"/>
		<path class="st15" d="M387.57,829.73c0,0-0.59,7.05,2.94,9.84s11.21,5.81,11.21,5.81s10.06,0.42,10.29-2.38
			c0.22-2.62-1.63-5.19-4.42-6.04C402.03,835.26,387.57,829.73,387.57,829.73z"/>
		<path class="st14" d="M385.44,824.99c0,0-2.72,6.53,0.95,10.24c3.67,3.7,12.5,8.88,12.5,8.88s12.56,3.41,13.63,0.82
			c1.01-2.43-0.6-5.43-3.87-7.07C402.11,834.57,385.44,824.99,385.44,824.99z"/>
		<path class="st15" d="M386.38,823.24c0,0-2.46,1.98,1.21,5.69c3.67,3.7,7.54,8.38,10.95,11.06c3.41,2.69,7.9,5.74,8.98,3.15
			c1.01-2.43,1.95-4.06-1.32-5.7C399.66,834.16,386.38,823.24,386.38,823.24z"/>
	</g>
</g>
<g id="pencil">
	<g>
		<path class="st7" d="M419.11,695.49L407.6,854.25c0,0,9.93,5.13,16.24,0.36l12.95-157.15
			C436.79,697.46,429.6,690.71,419.11,695.49z"/>
		<path class="st11" d="M423.84,854.61l12.95-157.15c0,0-3.58-3.36-9.37-3.66c-1.1-0.06-11.72,158.32-11.72,158.32
			S419.07,856.67,423.84,854.61z"/>
		<polygon class="st14" points="423.84,854.61 415.99,873.35 407.6,854.25 411.64,854.92 415.72,852.03 419.59,854.69 		"/>
		<polygon class="st8" points="413.96,869.11 417.78,869.11 416.29,874 415.93,873.98 		"/>
	</g>
</g>
<g id="right_thumb">
	<g>
		<path class="st14" d="M383.78,805.05c-6.29-4.14-7.2,4.07-6.39,9.77c0.41,2.88,7.35,12.87,15.91,18.89
			c3.36,2.37,5.36,4.7,9.95,8.13c5.57,4.17,9.33-7.23,4.06-13.86C399.16,817.72,390.07,809.19,383.78,805.05z"/>
		<path class="st14" d="M397.59,792.43c-3.52-1.56-8.2-6.76-13.49,4.98s4.18,12.12,9.09,16.95c6.73,6.61,13.72,20.62,19.08,15.52
			c5.35-5.1,3.03-15.3-0.07-20.21C406.86,801.19,399.82,793.42,397.59,792.43z"/>
		<path class="st15" d="M383.48,805.24c0,0,6.31,6.8,13,12.5c3.5,3.48,12.01,13.37,12.01,13.37s-11.16-10.09-12.93-12.35
			C392.17,815.57,387.82,811.17,383.48,805.24z"/>
	</g>
	<g>
		<path class="st15" d="M454.72,819.3c0,0-10.13,10.56-17.6,11.14c-5.43,0.42-0.38,6.19-10.85,9.87
			c-10.47,3.68-12.81-2.22-12.31-5.73c0.5-3.51,7.03-12.2,16.44-23.62C438.81,800.74,466.8,804.31,454.72,819.3z"/>
		<path class="st14" d="M455.65,819.28c0,0-10.13,10.56-17.6,11.14c-5.43,0.42-0.38,6.19-10.85,9.87
			c-10.47,3.68-12.81-2.22-12.31-5.73c0.5-3.51,9.35-15.38,17.59-25.74C440.72,798.45,467.73,804.29,455.65,819.28z"/>
	</g>
</g>
<g id="left_arm">
	<g>
		<path class="st15" d="M719.28,638.17c-29.38-6.67-33.62-28.41-28.7-61.66c5.06-34.14,0.74-53.11-1.6-77.2
			c-2.39-24.56-14.52-79.45,19.7-86.62c34.25-7.17,51.23,41.63,51.48,79.72c0.24,36.99,0.29,37.03-0.64,73.17
			C758.63,600.71,748.38,644.77,719.28,638.17z"/>
		<path class="st14" d="M688.67,597.05c2.42-30.61,2.66-73.65,0.31-97.74c-2.39-24.56-14.52-79.45,19.7-86.62
			c26.98-5.65,22.64,4.93,22.51,36.69c-0.04,8.55,12.53,37.81,12.66,45.89c0.57,36.99-9.9,39.24-10.45,75.3
			C732.88,605.63,685.84,632.96,688.67,597.05z"/>
	</g>
	<g>
		<path class="st15" d="M632.32,778.99c-20.02,0.3-27.05-13.12-19.49-36.81c8.12-25.44,34.84-74.95,55.59-104.27
			c16.97-23.98,42.16-57.95,65.6-42.06c22.39,15.18,16.15,43.64-10.56,81.06C699.1,711.06,652.22,778.68,632.32,778.99z"/>
		<path class="st14" d="M624.55,749.04c-4.74,1.95-19.27,16.82-11.71-6.86c8.12-25.44,34.84-74.95,55.59-104.27
			c16.97-23.98,35.73-57.26,59.61-41.35c22.82,15.2-14.68,51.83-39.55,88.62C665.78,718.77,629.31,747.08,624.55,749.04z"/>
	</g>
</g>
<g id="left_hand">
	<g>
		<path class="st14" d="M623.19,747.59c-11.03-5.52-29.86,12.34-42.83,14.66c-10.88,1.95-19.92,7.78-23.9,12.18
			c-3.98,4.4-9.39,13.08-15.16,15.11c-5.4,1.9-10.19,13.51,0.29,15.72c10.48,2.2,15.55-2.2,24.42-9.91s13.29-5.61,13.29-5.61
			s2.8,8.49,2.97,14.47c0.18,5.98,2.16,13.1,0.97,37.23c-0.43,8.64,8.99,9.91,12.98,5.5c3.98-4.4,6.21-16.18,6.21-16.18
			s0.92,8.44,1.19,11.08c0.26,2.64-0.46,11.21,8.24,11.34c9.63,0.26,11.21-27.69,11.21-27.69l1.85,6.86c0,0,2.69,13.05,5.54,14.77
			c2.85,1.72,3.94,1.34,6.2,0.79c4.52-1.1,4.24-15.27,4.24-15.27c-0.61,10.04,9.7,16.26,12.85-12.11
			c0.41-3.66-1.06-13.21-1.78-15.41s1.49-28.63-2.28-38.54S634.22,753.1,623.19,747.59z"/>
		<path class="st15" d="M653.74,820.52c1.63-3.3-1.06-13.21-1.78-15.41s1.49-28.63-2.28-38.54s-7.38-6.5-18.41-12.01
			c-11.03-5.52,1.44,35.28,1.44,35.28L653.74,820.52z"/>
		<path class="st15" d="M601.48,834.83c0,0,2.66-12.47,2.78-21.77c0.11-9.29-2.82-10.79-2.82-10.79S601.71,824.66,601.48,834.83z"/>
		<path class="st15" d="M620.62,843.64c0,0,1.02-25.38,0.6-31.47c-0.42-6.1,0-8.31,0-8.31S626.16,815.92,620.62,843.64z"/>
		<path class="st15" d="M641.21,831.65c0,0,4.94-15.97,0.37-22.94l-0.7,23.92"/>
	</g>
</g>
<g id="head">
	<g>
		<g>
			<path class="st7" d="M647.08,351.27c-11.56,53.42-23.49,34.83-23.49,34.83c-69.87,20.16-108.89,1.68-113.08-48.55
				c-6.08-51.77,3.53-67.32,54.15-77.46C635.15,245.96,657.38,303.69,647.08,351.27z"/>
			<path class="st8" d="M658.41,334.93c-1.05,38.77-18.46,42.99-18.46,42.99c-13.76-5.44-87.83-45.16-100.16-74.83
				c-10.64-25.59-7.94-46,40.92-50.43c25.41-2.3,49.73,5.77,61.88,17.92C652.87,280.87,657.14,315.31,658.41,334.93z"/>
		</g>
		<g>
			<path class="st15" d="M557.2,301.44c0,0-34.47,10.9-39.63,18.59c-5.16,7.69,1.67,72.81,17.17,93.56
				c15.28,20.46,88.1,3.75,102.51-15.33c11.81-15.63,6.03-30.19,5.4-52.74c-0.66-23.75-16.79-21.1-20.06-29.81
				C616.97,300.77,557.2,301.44,557.2,301.44z"/>
		</g>
		<g>
			<path class="st14" d="M521.12,330.15c-5.25,9.3-4.12,53.86,13.4,80.34c11.55,17.35,99.89,5.74,93.82-24.39
				c-3.17-15.75-8.34-45.24-29.54-62.09C572.85,303.39,523.99,325.07,521.12,330.15z"/>
		</g>
		<path class="st15" d="M650.19,333.66c1.44,12.53-2.85,23.78-9.58,25.19c-6.77,1.41-13.48-7.64-14.97-20.25
			c-1.49-12.66,2.84-24.02,9.66-25.34C642.09,311.93,648.75,321.09,650.19,333.66z"/>
		<path class="st8" d="M610.93,291.14c0,0,1.84,34.77,7.65,44.21l11.75,13.48l-4.65-49.02L610.93,291.14z"/>
		<g>
			<g>
				<path class="st8" d="M598.83,283.26c0,0-9.48,15.58-50.09,24.47c-20.16,4.42-35.84,15.21-46.05,15.36
					c-25.08,0.37,6.27-52.01,47.4-62.41C591.67,250.16,598.83,283.26,598.83,283.26z"/>
			</g>
			<path class="st7" d="M550.22,260.13c-32.7,9.67-61.16,46.59-40.96,46.27c5.73-0.09,14.82-0.51,25.69-1.6
				c18.14-6.72,35.67-20.09,35.67-20.09c0.58,8.98-9.11,14.66-20.15,18.2c9.69-1.39,20.09-3.29,30.48-5.9
				c17.07-4.29,19.06-3.8,19.09-9.56C600.11,275.73,585.55,249.68,550.22,260.13z"/>
		</g>
	</g>
	<g>
		<path class="st30" d="M537.11,363.14c1.86,4.72,0.38,7.59-2.05,8.45c-2.43,0.86-4.9-0.62-6.77-5.35
			c-1.87-4.73-1.41-9.27,1.03-10.12C531.76,355.27,535.25,358.42,537.11,363.14z"/>
		<path class="st30" d="M577.18,352.55c1.99,4.63,0.64,7.54-1.7,8.47c-2.35,0.94-4.82-0.45-6.82-5.09c-2-4.65-1.71-9.17,0.65-10.1
			C571.66,344.9,575.18,347.91,577.18,352.55z"/>
		<path class="st31" d="M572.62,336.12c0,0-5.34-2.5-9.87,0.51"/>
		<path class="st31" d="M530.69,344.97c-5.23,0.89-8.52,4.86-8.52,4.86"/>
	</g>
</g>
</svg>
