<svg id="Layer_1" enable-background="new 0 0 510.684 510.684" height="512" viewBox="0 0 510.684 510.684" width="512" xmlns="http://www.w3.org/2000/svg"><g><g><g><g><path d="m255.065.376c-98.131 0-158.58 55.352-158.747 55.445 0 0-2.513 3.137-2.983 5.222-40.543 157.468 91.448 313.002 252.212 311.209 54.23.002 114.567-25.99 154.948-57.241.903-.699 3.769-5.396 3.769-5.396 36.571-152.003-87.991-312.247-249.199-309.239z" fill="#3b69af"/></g></g><g><g><path d="m90.523 110.055c0-18.615 2.007-36.753 5.795-54.234-62.843 49.437-101.701 131.061-95.712 216.307l181.724 33.861c-56.099-46.777-91.807-117.182-91.807-195.934z" fill="#00558c"/></g><g><path d="m504.264 309.614c-22.793 18.155-48.768 32.48-76.948 42.022l59.147 11.021c7.768-16.742 13.783-34.497 17.801-53.043z" fill="#73c8f0"/></g></g></g><g><g><g><g><path d="m243.439 70.759c-54.335 0-96.746 17.516-123.146 32.544l-1.821 1.424c-23.849 18.651-38.344 46.987-38.862 77.259-.424 204.26 238.315 323.23 399.533 195.183 2.584-4.747 5.022-9.587 7.309-14.515.205-1.107.42-2.319.641-3.636l-82.037-228.066c-43.322-37.504-99.82-60.193-161.617-60.193z" fill="#0096f2"/></g></g><g><g><path d="m331.08 424.077c-103.117 0-191.479-63.175-228.493-152.932-.642-.323-1.287-.634-1.934-.932-46.534-21.445-92.341 31.619-65.385 75.193l73.546 118.882c58.884 42.794 144.838 57.957 216.773 36.184l112.854-67.92c16.943-17.523 31.416-37.494 42.827-59.374-41.623 31.917-93.685 50.899-150.188 50.899z" fill="#4278c3"/></g></g></g><g><g><path d="m204.519 338.015h15.73c6.071 0 10.714 4.986 10.835 11.055.118 5.882 4.923 10.614 10.833 10.614 19.638 0 35.558 15.919 35.558 35.557v22.985l87.691 23.606 73.277-40.764c0-22.856 18.528-41.384 41.384-41.384 2.483 0 4.905-.246 7.266-.668 15.571-82.481-19.798-176.823-82.036-228.065h-70.398c-13.716 0-24.808 11.2-24.678 24.874.071 9.102-7.05 16.61-16.152 16.61h-3.516c-5.685 0-10.754 3.76-12.326 8.952-.231.778-.378 1.575-.465 2.383.551 7.8-5.469 14.568-13.393 14.26-18.3.299-33.046 15.217-33.046 33.588v43.115c0 14.842-11.91 27.403-26.75 27.168-10.501-.166-18.99 8.633-18.313 19.242.593 9.3 9.181 16.872 18.499 16.872z" fill="#aad540"/></g></g><g><g><path d="m277.474 418.227v35.059c0 13.735 11.239 24.702 24.973 24.797 12.669.088 23.075 9.679 24.459 21.999 42.844-12.574 81.159-36.117 111.536-67.528v-31.485c0-.508.02-1.012.038-1.516-47.388 23.54-108.069 30.893-161.006 18.674z" fill="#8bc852"/></g></g><g><g><path d="m170.833 155.404c-1.024-13.664-13.074-23.743-26.638-22.418-3.637.355-6.935-2.195-7.272-5.834-.993-10.707-7.598-19.527-16.628-23.847-19.789 11.265-30.587 21.133-30.656 21.172-27.293 21.743-30.73 69.193-29.104 103.725 1.08 22.92 19.157 41.389 42.05 42.938 17.942-.885 32.767-14.774 34.401-32.729 0 0 4.794-50.858 4.794-50.858.303-3.407 3.181-5.972 6.571-6.065 13.26-1.292 23.477-12.8 22.482-26.084z" fill="#aad540"/></g></g><g><g><path d="m130.645 393.701c-.639-6.529-6.49-10.997-13.03-10.488-6.338.493-11.933-4.177-12.554-10.533l-5.402-55.21c-.776-7.931-7.781-14.064-15.699-13.165-8.105.92-15.364-4.974-16.156-13.062l-.199-2.036c-.784-8.011 5.075-15.141 13.086-15.925l21.912-2.144c-18.696-44.215-23.72-98.824-12.964-146.661-45.488 36.238-77.889 88.198-89.013 147.649 5.156 79.485 46.718 149.038 108.192 192.153 2.904-2.397 4.603-6.148 4.208-10.177l-.568-5.804c-.28-2.866.512-5.581 2.029-7.778.128-.186.261-.372.405-.558.253-.325.525-.634.804-.936.299-.31.611-.608.943-.883 1.716-1.424 3.856-2.375 6.237-2.627 6.428-.68 11.258-6.127 10.628-12.561z" fill="#8bc852"/></g></g></g><g><g><path d="m475.461 108.874c0 29.691-26.275 80.414-52.549 123.715-15.873 28.107-55.448 31.539-76.139 6.685-27.166-32.448-69.298-89.259-69.298-129.497 0-47.896 14.265-89.38 57.539-103.286 67.947-22.768 141.418 30.475 140.447 102.383z" fill="#d82e3d"/></g></g><g><g><path d="m326.519 48.457c0-14.887 3.027-29.068 8.497-41.96-43.274 13.907-74.595 54.481-74.595 102.377 0 59.382 109.941 202.893 109.941 202.893s26.176-35.744 52.401-78.935c-29.467-40.717-96.244-138.094-96.244-184.375z" fill="#c10a54"/></g></g><g><g><path d="m367.941 25.112c-47.051.771-70.048 31.664-69.157 79.033-.001 43.648 25.568 65.748 69.217 65.748 30.663 0 57.15-4.168 70.258-29.642 27.134-51.519-11.736-115.728-70.318-115.139z" fill="#fff"/></g></g><g><g><path d="m403.968 148.037c-58.588.58-97.482-63.63-70.28-115.155-26.63 12.816-44.779 40.096-44.779 71.262.997 83.292 111.35 108.765 149.33 36.096-10.364 4.996-21.987 7.797-34.271 7.797z" fill="#afe6ff"/></g></g><g><g><path d="m367.991 111.44c-5.522 0-10-4.477-10-10v-72.308c.528-13.268 19.476-13.258 20 0v72.308c0 5.523-4.477 10-10 10z" fill="#4278c3"/></g></g><g><g><path d="m367.983 111.441c-1.894 0-3.807-.536-5.504-1.658l-40.388-26.685c-4.607-3.044-5.875-9.248-2.831-13.856 3.046-4.609 9.251-5.874 13.856-2.831l40.388 26.685c4.607 3.044 5.875 9.248 2.831 13.856-1.924 2.912-5.107 4.489-8.352 4.489z" fill="#4278c3"/></g></g><g><path d="m377.991 101.44v-29.383c-6.014-2.07-14.789-1.465-20 .865v28.519c.529 13.267 19.477 13.257 20-.001z" fill="#4278c3"/></g><g><path d="m376.335 106.953c3.044-4.608 1.776-10.812-2.831-13.856l-23.404-15.463c-5.201 4.288-8.935 10.286-10.346 17.135l22.725 15.014c4.545 3.021 10.792 1.814 13.856-2.83z" fill="#4278c3"/></g><g><g><path d="m369.234 81.753c-7.357 0-11.889 4.15-11.901 4.157-13.992 11.145-6.239 34.002 11.902 34.078 9.084 0 16.802-6.371 18.682-15.051 2.773-11.311-6.646-23.468-18.683-23.184z" fill="#0096f2"/></g></g></g></svg>