<?xml version="1.0" encoding="utf-8"?>
<!-- Generator: Adobe Illustrator 23.1.0, SVG Export Plug-In . SVG Version: 6.00 Build 0)  -->
<svg version="1.1" xmlns="http://www.w3.org/2000/svg" xmlns:xlink="http://www.w3.org/1999/xlink" x="0px" y="0px"
	 viewBox="0 0 960 1080" style="enable-background:new 0 0 960 1080;" xml:space="preserve">
<style type="text/css">
	.st0{fill:#F3E7D9;}
	.st1{fill:#1D2538;}
	.st2{fill:#C94039;}
	.st3{fill:#EE5D4F;}
	.st4{fill:#34283A;}
	.st5{fill:#1689CB;}
	.st6{fill:#29ABE2;}
	.st7{fill:#665070;}
	.st8{fill:#FEED7F;}
	.st9{fill:#F7BC4B;}
	.st10{fill:none;stroke:#F7BC4B;stroke-miterlimit:10;}
	.st11{fill:#3E4C6F;}
	.st12{fill:none;stroke:#4B3355;stroke-width:3;stroke-miterlimit:10;}
	.st13{fill:none;stroke:#665070;stroke-width:3;stroke-miterlimit:10;}
	.st14{fill:#992C29;}
	.st15{fill:#121721;}
	.st16{fill:#4B3355;}
	.st17{fill:none;stroke:#856792;stroke-width:3;stroke-miterlimit:10;}
	.st18{fill:none;stroke:#BB83C3;stroke-width:3;stroke-miterlimit:10;}
	.st19{fill:none;stroke:#1D2538;stroke-width:0.5;stroke-miterlimit:10;}
	.st20{fill:#CC6D3D;}
	.st21{fill:#F5894E;}
	.st22{fill:#CE9436;}
	.st23{fill:#273252;}
	.st24{fill:#3E4D70;}
	.st25{fill:none;stroke:#1D2538;stroke-width:0.25;stroke-linecap:round;stroke-linejoin:round;stroke-miterlimit:10;}
	.st26{fill:#33A86D;}
	.st27{fill:#288453;}
	.st28{fill:#FFFCF3;}
	.st29{fill:#856792;}
</style>
<g id="clouds">
	<path class="st0" d="M647.5,216.5c72.5-28.5,145-88,160-94s-48-44-89-35s-36,63-36,75c0,0-10-16-32-7s-28,43-28,59
		S636.01,221.02,647.5,216.5z"/>
	<path class="st0" d="M115.01,537.19c0,0,139.46-67.41,203.38-104.6s74.38-79.03,79.03-101.11c4.65-22.08,1.16-41.84-54.62-13.95
		c0,0,12.78-23.24-6.97-47.65c-19.76-24.41-66.25,0-88.33,30.22c-22.08,30.22-23.24,36.03-23.24,36.03s-16.27-26.73-40.68-18.6
		s-31.38,73.22-12.78,92.98c0,0-20.92-4.65-48.81,23.24c-27.89,27.89-46.49,51.14-38.35,61.6s30.22,10.46,55.79-5.81
		c0,0-53.46,48.81-53.46,55.79C85.96,552.3,115.01,537.19,115.01,537.19z"/>
</g>
<g id="background_trees">
	<g>
		<path class="st1" d="M695.36,621.49c10.76-12.81,30.2-36.01,30.2-36.01s29.34,28.28,39.19,37.72
			c10.47,10.03,31.03,25.19,21.51,26.33c-9.58,1.14-20.64-0.84-23.62-1.7c0,0-1.29,29.37-40.79,22.36
			C683.81,663.43,683.65,635.43,695.36,621.49z"/>
		<path class="st1" d="M763.53,641.73c0,0,71.24,67.31,69.07,73.68c-2.24,6.58-53.26,18.61-85.65-19.28
			C719.82,664.4,717.76,629.15,763.53,641.73z"/>
		<path class="st1" d="M809.01,719.5c3.84,2.19,82.28,82.07,81.64,94.21c-0.68,12.74-40.43,30.3-76.1,5.02
			C782.07,795.72,757.82,690.34,809.01,719.5z"/>
	</g>
	<g>
		<path class="st1" d="M281.51,622.68l-99.27,76.39c0,0,8.37,6.63,31.48,1.39l128.59,29.22L281.51,622.68z"/>
		<path class="st1" d="M219.94,688.67l-77.28,66.12c0,0,34.32,27.82,67.94-1.96c9.61-8.51,126.31,0.38,126.31,0.38l-51.8-69.92
			C285.11,683.29,235.96,685.13,219.94,688.67z"/>
		<path class="st1" d="M168.2,758.2c-3.5,1.47-34.11,23.11-68.58,52.47c0,0,40.55,31.06,68.16,19.3
			C195.41,818.2,218.73,736.93,168.2,758.2z"/>
	</g>
	<g>
		<path class="st1" d="M404.23,541.39l-64.31,74.77c0,0,7.8,5.66,24.95,0.97l107.04,16.13L404.23,541.39z"/>
		<path class="st1" d="M375.95,603.68l-55.91,52.72c0,0,77.82,112.65,98.62,86.71c5.95-7.41,53.42-89.51,53.42-89.51l-53.68-59.93
			C418.38,593.66,387.84,600.51,375.95,603.68z"/>
		<path class="st1" d="M340.71,659.15c-2.47,1.3-22.43,20.18-43.98,45.77c0,0,37.61,26.49,57.06,16.14
			C373.25,710.71,376.35,640.43,340.71,659.15z"/>
	</g>
</g>
<g id="robot_head">
	<g>
		<path class="st2" d="M427,407c0,0-20-112,79-136s131.48,52.43,137,69c11,33,11,53,11,53L427,407z"/>
		<path class="st3" d="M430.54,395.2c0,0,30.27-43.72,102.86-61.32s85.53-1.06,88.62,2.37c7.12,7.91,7.12,36,7.12,36
			s-52.39-10.96-105.63-5.14C454.67,374.63,430.54,395.2,430.54,395.2z"/>
		<path class="st1" d="M654.25,393.64c0.99,14.99-31.78,27.08-118.25,32.02c-86.47,4.95-109-10.66-109-18.29
			c-0.99-14.99,50.17-30.33,98-35.36C582,366,653.26,378.65,654.25,393.64z"/>
		<g>
			<path class="st1" d="M638.61,381.88l-0.7-0.26c0.01-0.16,2.27-15.39-10.26-53.97c-12.76-39.27-56.57-57.57-57-57.76l1.78,0.48
				l1.04,0.3c0.43,0.19,42.18,19.23,54.74,57.01C640.67,365.16,638.62,381.72,638.61,381.88z"/>
		</g>
	</g>
</g>
<g id="robot_eyes">
	<g>
		<circle class="st3" cx="505.45" cy="311.86" r="39.3"/>
		<circle class="st4" cx="518.5" cy="305.5" r="42.5"/>
		<circle class="st5" cx="513.5" cy="300.5" r="42.5"/>
		<circle class="st6" cx="511" cy="298" r="36"/>
		<circle class="st7" cx="510" cy="297" r="32"/>
		<circle class="st8" cx="513.35" cy="300.08" r="27.5"/>
		<path class="st9" d="M534.81,312.94c-10.29,16.93-30.4,9.85-30.4,9.85l31.36-35.31C535.77,287.48,545.1,296.01,534.81,312.94z"/>
	</g>
</g>
<g id="light">
	<g>
		<line class="st10" x1="527.86" y1="246.05" x2="508.87" y2="51.42"/>
		<line class="st10" x1="437.66" y1="269.79" x2="299.99" y2="96.52"/>
		<line class="st10" x1="492.25" y1="243.68" x2="440.03" y2="132.12"/>
		<path class="st10" d="M392.56,241.31c0,0,26.11-73.58,116.31-68.84"/>
	</g>
</g>
<g id="robot_right_arm">
	<g>
		<polygon class="st11" points="239.59,225.22 250.27,270.32 241.97,262.01 233.66,224.03 		"/>
		<polygon class="st11" points="255.42,228.91 266.1,274.01 257.79,265.7 249.48,227.73 		"/>
		<polygon class="st1" points="253.7,227.07 244.21,260.3 251.33,270.98 262.01,240.12 259.64,279.29 277.44,275.73 267.95,228.25 
					"/>
	</g>
	<path class="st1" d="M247.53,413.99c-13.35-9.3-17.47-108.64-16.65-136.87c0.79-26.94,0.48-16.38,0.48-16.38s-1.38-5.81,10.6-5.81
		s11.97,0.34,13.48,4.1c1.52,3.78,2.52,10.03,4.07,12.47c1.56,2.46,4.3,3.34,6.79,3.28c2.49-0.06-1.18-4.33,6.26-4.33
		c7.44,0,10.16-1.4,12.25,7.39c2.13,8.91,17.71,85.02,17.93,92.84c0.23,7.92-12.38,10.28-22.64,12.51
		c-6.7,1.46-17.72,16.57-19.3,20.92C259.24,408.45,253.21,417.95,247.53,413.99z"/>
	<g>
		<path class="st12" d="M273.88,375.42c0,0,1.98,29.27,19.78,44.7c17.8,15.43,33.43,20.97,33.43,20.97"/>
		<path class="st13" d="M270.32,375.42c0,0,1.19,32.04,18.99,47.47c17.8,15.43,34.22,18.2,34.22,18.2"/>
		<path class="st13" d="M288.34,359.34c0,0,4.84,28.83,22.72,44.17c17.88,15.33,35.21,24.92,35.21,24.92"/>
		<path class="st12" d="M283.2,359.73c0,0,4.84,28.83,22.72,44.17c17.88,15.33,35.21,24.92,35.21,24.92"/>
		<path class="st12" d="M274.5,364.88c0,0,4.84,28.83,22.72,44.17c17.88,15.33,35.21,24.92,35.21,24.92"/>
	</g>
	<g>
		<path class="st14" d="M262.87,244.48c0,0,17.36,8.13,21.96,5.43c4.6-2.7,9.22-7.47,12.58-14.39c3.36-6.92,6.57-11.27,3.67-14.11
			c-2.9-2.83-6.04-5.73-6.04-5.73s3.03,2.35,5.74-1.1s11.35-19.64,9.87-23.92c-1.48-4.28-4.84-10.35-6.16-12.25
			c-1.32-1.9-2.43-0.63-2.43-0.63s0.05-5.18-2.36-7.89c-2.41-2.71-6.91-4.4-6.91-4.4s0.16-3.6-2.62-5.88
			c-2.78-2.28-3.97-2.2-9.17-3.69s-8.55-1.58-8.55-1.58s-3.99-3.12-6.18-3.69s-12.81-2.69-17.53,0.5
			c-4.73,3.18-13.31,14.2-16.76,24.46s-7.62,37.23-3.22,48.25C233.16,234.89,251.73,242.35,262.87,244.48z"/>
		<path class="st2" d="M277.35,229.58c0,0,14.18,13.31,17.08,7.72c2.42-4.68,5.41-10.37,5.41-10.37s0.91-2.52,0.41-4.45
			c-0.5-1.93-3.29-3.71-3.29-3.71c2.22-2.82,10.51-14.43,9.29-17.94c-1.21-3.51-3.96-8.48-5.04-10.03s-1.99-0.52-1.99-0.52
			s0.04-4.24-1.93-6.46s-5.66-3.6-5.66-3.6s0.13-2.94-2.15-4.81c-2.28-1.87-3.25-1.8-7.51-3.02c-4.26-1.22-7-1.29-7-1.29
			s-3.27-2.55-5.06-3.02s-10.49-2.2-14.36,0.41c-3.87,2.61-10.9,11.63-13.73,20.04s-5.95,19.19,0.85,26.13
			C247.92,220.03,261.56,217.86,277.35,229.58z"/>
		<path class="st15" d="M268.83,152.04c0,0,6.35,5.55,6.45,8.89s-5.24,21.62-6.98,26.82c-1.74,5.2-2.39,6.19-5.79,7.26
			s-9.1-0.23-9.1-0.23s1.9,1.66,6.52,1.89c4.62,0.23,7.25-2.4,8.4-3.07s2.58-6.15,3.95-11.44c1.38-5.29,5.21-18.51,5.78-20.7
			C278.63,159.27,276.07,154.9,268.83,152.04z"/>
		<path class="st15" d="M292.58,165.31c0,0-0.5,7.4-4.7,22.02c-1.37,4.77-2.53,11.94-9.52,10.64c-4.44-1.38-12.34-3.99-12.34-3.99
			l-0.36,0.88c0,0,5.92,2.71,9.88,3.94c3.97,1.23,7.39,1.54,9.52-0.64s6.07-15.56,7.23-22.27
			C293.45,169.17,295.24,167.56,292.58,165.31z"/>
		<path class="st15" d="M302.07,177.77c0,0-4.44,17.03-5.96,22.09c-1.51,5.06-4.82,6.28-10.06,9.2l1.64,0.17
			c0,0,8.11-3.47,9.35-8.21c1.24-4.74,6.19-23.61,6.19-23.61s-0.21-0.09-0.6,0C302.25,177.5,302.07,177.77,302.07,177.77z"/>
		<path class="st15" d="M297.62,218.76c0,0-10.06-9.24-14.87-12.45s-9.37,0.09-10.73,3.05c-1.35,2.96-5.35,6.3-2.23,9.26
			c3.11,2.96,9.73,5.84,13.09,8.59c0,0-0.3,0.23-1.21,2.55s-2.36,2.79-2.36,2.79l2.22-5.33c0,0-13.77-7.47-14.02-10.26
			c-0.25-2.79,3.23-7.92,5.23-11.1c2-3.18,6.02-2.91,11.29,0.02C289.3,208.8,297.62,218.76,297.62,218.76z"/>
	</g>
	<g>
		<circle class="st14" cx="289.31" cy="410.43" r="31.25"/>
		<circle class="st16" cx="282.98" cy="412.8" r="11.47"/>
	</g>
	<g>
		<path class="st17" d="M262.01,372.65c0,0,1.98,29.27,19.78,44.7c17.8,15.43,33.43,20.97,33.43,20.97"/>
		<path class="st18" d="M253.31,371.07c0,0,1.98,29.27,19.78,44.7c17.8,15.43,33.43,20.97,33.43,20.97"/>
		<path class="st13" d="M256.08,378.78c0,0,3.96,38.57,21.76,54c17.8,15.43,33.43,20.97,33.43,20.97"/>
	</g>
	<g>
		<path class="st2" d="M429.48,454.08c-9.08-8.43-3.94-6.71-49.37-28.75c-27.78-13.48-48.56-20.44-58.03-23.29
			c-3.53-1.06-9.68,0.76-10.51,5.48c-1.88,10.62-3.54,17.19-6.59,22.86c-3,5.56-5.73,7.67-10.44,5.18c-4.53-2.4-10.3-8.87-12-2.36
			c-1.67,6.43-1.95,21.55,3.65,25.28c12.33,8.23,84.05,56.04,115.32,63.66C437.16,530.83,438.84,462.78,429.48,454.08z"/>
		<path class="st3" d="M393.53,459.61c-6.49-5.77,2.79-3.74-30.07-19.18c-20.37-9.57-35.73-14.65-42.77-16.75
			c-2.63-0.79-7.23,0.39-7.85,3.64c-1.41,7.34-2.65,11.89-4.95,15.8c-2.26,3.85-4.32,5.3-7.88,3.51c-3.43-1.72-7.8-6.31-9.1-1.77
			c-1.29,4.5-1.52,15.12,2.73,17.78c9.36,5.85,63.1,38.77,85.89,44.51C391.78,510.26,400.2,465.54,393.53,459.61z"/>
		<line class="st19" x1="281.75" y1="446.17" x2="412.93" y2="515.68"/>
		<path class="st9" d="M436.42,444.39c0,0-20.71-10.25-23.61-2.8c-1.61,18.76-11.88,54.99-21.42,79.8
			c2.76,3.63,16.3,14.21,27.35,10.6C430.31,528.22,436.42,444.39,436.42,444.39z"/>
		<path class="st8" d="M414.14,492.66c-4.04-2.54-6.1-7.32-5.23-12.02c2.78-15.08,6.26-45.09,3.9-39.04
			c-1.61,18.76-11.88,54.99-21.42,79.8c2.76,3.63,16.3,14.21,27.35,10.6c5.98-1.95,9.69-36.71,9.69-36.71
			C421.38,495.07,417.5,494.77,414.14,492.66z"/>
	</g>
	<g>
		<g>
			<path class="st2" d="M245.02,412.26c-15.26-10.37-20.96-118.31-18.26-145.62c2.46-24.89,1.51-15.27,1.51-15.27
				s-1.09-5.32,11.38-5.32c12.39,0,12.37,0.31,13.78,3.72c1.43,3.45,2.22,9.2,3.75,11.46c1.54,2.28,4.37,3.08,6.97,3.02
				c2.59-0.07-1.09-4.01,6.62-4.04c7.68-0.03,10.5-1.32,12.52,6.79c2.08,8.35,16.51,80.84,19.48,102.62
				c-4.45-1.7-14.55-0.09-27.49,5.99c-13.15,6.18-21.74,15.58-24.18,23.99C248.61,408.14,251.54,416.69,245.02,412.26z"/>
		</g>
		<path class="st9" d="M290.1,300.25l-3.03-15.96c0,0-33.23-10.02-61.19,3.69l0.53,16.88C226.41,304.87,259.51,289.18,290.1,300.25z
			"/>
		<path class="st9" d="M226.8,312.71l-0.2-5.54c0,0,17.62-6.55,32.24-7.71c17.41-1.38,32.04,4.15,32.04,4.15l0.99,5.74
			c0,0-12.34-6.39-32.72-4.95C249.9,305.06,238.98,307.95,226.8,312.71z"/>
		<path class="st3" d="M242.77,407.63c-8.45-24.7-12.57-83.11-12.57-83.11s-0.98-4.8,10.26-4.8c11.17,0,33.5,12.14,39.36,18.9
			c11.21,12.92,15.96,26.11,13.85,27.16c-2.11,1.05-11.94,3.31-23.61,8.79c-11.86,5.57-19.61,14.05-21.81,21.64
			C246.01,403.91,245.07,414.37,242.77,407.63z"/>
		<path class="st19" d="M237.75,246.05c-5.98,11.09-5.93,63.86,0.53,103.65c4.92,30.33,14.24,46.29,14.24,46.29"/>
	</g>
</g>
<g id="robot_torso">
	<path class="st14" d="M429,443.86c0,0,22.9-34.81,98.07-40.35C615.15,394.54,657,427,657,427l74.99,417.5l-344.62-10.13L429,443.86
		z"/>
	<path class="st9" d="M415.11,573.62c0,0,54.59-36.79,131.74-36.79s136.35,36,136.35,36l10.42,57.23c0,0-68.44-35.08-142.02-36.26
		s-142.95,39.43-142.95,39.43L415.11,573.62z"/>
	<path class="st9" d="M406.74,652.93c0,0,59.63-32.83,142.54-32.83s147.9,31.97,147.9,31.97l10.29,52.62
		c0,0-94.42-40.35-154.55-39.82c-60.13,0.53-152.18,40.14-152.18,40.14L406.74,652.93z"/>
	<path class="st3" d="M437.1,476.29c0,0,14.56-16.97,74.14-21.36c79.12,14.24,188.31,284.04,188.31,284.04
		s-64.88-27.69-147.96-28.88c-83.08-1.19-147.96,41.54-147.96,41.54L437.1,476.29z"/>
	<path class="st8" d="M652.11,635.18c0,0,6.29,12.4,13.02,26.46c5.59,11.68,11.41,24.52,14.85,32.15
		c-133.93-75.86-270.16,7.99-270.16,7.99l6.38-53.34c0,0,59.42-28.02,135.66-27.61C601.44,621.09,630.98,629.26,652.11,635.18z"/>
	<path class="st8" d="M426.05,567.27l-7.51,60.81c0,0,32.97-24,104.37-30.13c71.41-6.13,115.58,10.88,115.58,10.88
		s-17.37-34.02-38.24-66.46C600.25,542.36,523.9,518.23,426.05,567.27z"/>
	<path class="st19" d="M663.15,456.52c0,0-45.1-40.75-130.68-33.91c-31.31,2.5-67.38,12.28-104.58,34.71"/>
	<line class="st19" x1="462.85" y1="439.77" x2="458.36" y2="536.23"/>
	<g>
		<path class="st1" d="M416.6,561.83l-0.2,0.17l0.06-0.71c0,0,8.69-8.49,25.86-17.7c15.85-8.49,42.27-19.26,78.15-22.34
			c80.22-6.9,145,16.17,159.73,34.95l0.19,1.05l-0.3-0.37c-14.07-18.76-78.99-42.06-159.58-35.14
			c-35.8,3.08-62.16,13.81-77.96,22.28C425.45,553.2,416.69,561.74,416.6,561.83z"/>
	</g>
	<path class="st19" d="M697.97,721.97c0,0-65.8-49.94-153.49-42.73c-67.64,5.56-115.52,22.55-137.97,40.38"/>
	<path class="st19" d="M548.69,421.97l0.53,48c0,0,41.74,0.6,58.02,4.22c23.74,5.27,29.01,8.44,29.01,8.44l0,0l-4.22-44.84
		C632.03,437.79,593.03,420.52,548.69,421.97z"/>
	<path class="st19" d="M634.14,459.42c0,0,18.99,5.8,25.32,11.6"/>
	<path class="st19" d="M549.22,459.42c0,0-50.11-3.16-87.56,15.82"/>
	<line class="st19" x1="636.25" y1="482.63" x2="639.55" y2="533.59"/>
</g>
<g id="robot_left_arm">
	<g>
		<g>
			<polygon class="st11" points="843.55,225.22 832.87,270.32 841.18,262.01 849.48,224.03 			"/>
			<polygon class="st11" points="827.73,228.91 817.04,274.01 825.35,265.7 833.66,227.73 			"/>
			<polygon class="st1" points="829.44,227.07 838.93,260.3 831.81,270.98 821.13,240.12 823.51,279.29 805.7,275.73 815.2,228.25 
							"/>
		</g>
		<path class="st1" d="M806.13,376.34c-4.95-1.28-8.09-5.36-7.79-9.88c1.29-19.6,4.06-68.4,4.32-71.65
			c0.31-3.97,2.15-7.85,8.33-8.94c6.14-1.08,13.73-1.08,14.53-4.29c0.78-3.15-0.09-8.38,5.22-8.76c5.3-0.38,12.55-1.62,15.42,1.01
			c3.9,3.57,20.01,71.13,22.01,102.26c2.35,36.6-27.1,54.28-29.37,50.9c-2.23-3.33,7.63-11.15-1.01-34.13
			C832.74,379.41,814.59,378.53,806.13,376.34z"/>
		<g>
			<path class="st12" d="M838.01,361.97c0,0-1.98,29.27-19.78,44.7c-17.8,15.43-33.43,20.97-33.43,20.97"/>
			<path class="st13" d="M841.57,361.97c0,0-1.19,32.04-18.99,47.47c-17.8,15.43-34.22,18.2-34.22,18.2"/>
			<path class="st13" d="M819.39,341.73c0,0-4.84,28.83-22.72,44.17c-17.88,15.33-35.21,24.92-35.21,24.92"/>
			<path class="st12" d="M824.54,342.13c0,0-4.84,28.83-22.72,44.17c-17.88,15.33-35.21,24.92-35.21,24.92"/>
			<path class="st12" d="M837.39,351.43c0,0-4.84,28.83-22.72,44.17c-17.88,15.33-35.21,24.92-35.21,24.92"/>
		</g>
		<g>
			<path class="st14" d="M813.53,250.91c0,0-17.73,6.91-22.1,3.92c-4.37-2.99-8.61-8.03-11.46-15.1
				c-2.85-7.08-5.73-11.61-2.66-14.21c3.06-2.6,6.37-5.25,6.37-5.25s-3.16,2.11-5.61-1.49c-2.45-3.6-9.88-20.22-8.12-24.35
				c1.76-4.14,5.5-9.91,6.94-11.7c1.44-1.79,2.45-0.46,2.45-0.46s0.31-5.13,2.88-7.64s7.14-3.87,7.14-3.87s0.09-3.57,3-5.64
				c2.91-2.07,4.08-1.91,9.33-3.02c5.25-1.11,8.57-0.97,8.57-0.97s4.17-2.81,6.37-3.22c2.21-0.41,12.86-1.78,17.32,1.7
				s12.19,14.96,14.9,25.36c2.71,10.4,4.98,37.37-0.14,47.97C843.6,243.53,824.7,249.58,813.53,250.91z"/>
			<path class="st2" d="M803.08,238.12c0,0-12.76,7.25-15.86,6.54s-5.12-2.08-7.34-7.62s-4.48-9.08-2.08-11.12
				c2.4-2.04,2.52-2.46,0.6-5.27c-1.92-2.82-7.73-15.82-6.35-19.05c1.38-3.24,4.3-7.75,5.43-9.16s1.92-0.36,1.92-0.36
				s0.24-4.01,2.25-5.98s5.58-3.03,5.58-3.03s0.07-2.79,2.35-4.41s3.19-1.49,7.3-2.36c4.1-0.87,6.7-0.76,6.7-0.76
				s3.26-2.2,4.98-2.52s10.06-1.39,13.55,1.33c3.49,2.72,9.54,11.71,11.66,19.84c2.12,8.14,3.5,16.29-0.5,24.58
				S817.66,225.07,803.08,238.12z"/>
			<path class="st15" d="M814.01,159.09c0,0-6.66,5.05-7,8.35s3.7,21.76,5.07,27.02c1.37,5.26,1.94,6.3,5.23,7.58s9.02,0.4,9.02,0.4
				s-2,1.52-6.58,1.42c-4.58-0.09-7.01-2.87-8.1-3.62c-1.09-0.75-2.13-6.26-3.12-11.59c-1-5.33-3.88-18.68-4.3-20.88
				C803.81,165.57,806.64,161.42,814.01,159.09z"/>
			<path class="st15" d="M789.59,170.58c0,0-0.02,7.36,3.13,22.12c1.03,4.82,1.68,11.99,8.69,11.18c4.49-1.06,12.48-3.1,12.48-3.1
				l0.29,0.9c0,0-6.04,2.27-10.05,3.22c-4.01,0.94-7.42,1.01-9.37-1.29s-4.93-15.82-5.62-22.54
				C788.46,174.34,786.8,172.62,789.59,170.58z"/>
			<path class="st15" d="M779.34,182.26c0,0,3.23,17.16,4.37,22.27s4.33,6.54,9.32,9.79l-1.64,0.05c0,0-7.79-3.99-8.68-8.77
				c-0.9-4.78-4.5-23.79-4.5-23.79s0.21-0.08,0.59,0.04C779.18,181.98,779.34,182.26,779.34,182.26z"/>
			<path class="st15" d="M780.92,223.13c0,0,10.59-8.45,15.58-11.29s9.27,0.74,10.41,3.76c1.14,3.02,2.47,4.39-0.8,8.24
				c-3.27,3.85-10.05,10.07-10.05,10.07s6.03,3.2,8.6,6.2c-0.92-3.45-5.69-7.55-5.69-7.55s10.45-9.19,10.89-11.94
				c0.44-2.75-1.66-5.26-3.42-8.55c-1.76-3.29-5.76-3.3-11.18-0.76C789.84,213.85,780.92,223.13,780.92,223.13z"/>
		</g>
		<g>
			<circle class="st14" cx="812.43" cy="403.64" r="31.25"/>
			<circle class="st16" cx="817.18" cy="404.03" r="10.29"/>
		</g>
		<g>
			<path class="st17" d="M842.03,365.79c0,0-1.98,29.27-19.78,44.7s-33.43,20.97-33.43,20.97"/>
			<path class="st18" d="M850.74,364.21c0,0-1.98,29.27-19.78,44.7c-17.8,15.43-33.43,20.97-33.43,20.97"/>
			<path class="st13" d="M845.99,381.22c0,0-1.98,29.27-19.78,44.7c-17.8,15.43-33.43,20.97-33.43,20.97"/>
		</g>
		<g>
			<path class="st2" d="M660.21,425.64c0,0,94.67-30.9,107.79-34.66c12.6-3.62,17.72-1.55,19.27,9.03
				c1.53,10.42,6.72,15.39,16.33,16.59c9.27,1.16,11.8,0.83,13.7,1.21c1.9,0.38,3.09,4.42,3.21,13.97
				c0.11,9.16,3.21,10.68-16.66,22.96c-21.17,13.08-108.51,51.58-108.51,51.58s-25.8-13.67-33.94-33.22
				C652.92,452.76,660.21,425.64,660.21,425.64z"/>
			<path class="st3" d="M728.16,450.28c21.67-7.28,49.11-20.03,56.69-19.16c7.34,0.84,17.09,3.68,23.3,3.52
				c6.17-0.15,7.89-3.06,8,4.34c0.1,7.11-6.57,8.62-22.17,18.25c-16.58,10.23-92.69,41.66-92.69,41.66s-11.29-12.39-12.87-27.74
				C687.56,462.66,706.13,457.68,728.16,450.28z"/>
			<path class="st11" d="M698.05,482.55c0.11,1.8-1.2,3.33-2.94,3.42c-1.74,0.09-3.25-1.31-3.37-3.11c-0.12-1.81,1.2-3.35,2.94-3.43
				C696.43,479.34,697.93,480.74,698.05,482.55z"/>
			<line class="st19" x1="682.64" y1="494.99" x2="820.39" y2="436.74"/>
			<path class="st8" d="M667.45,421.76c0,0-16.23,2.95-19.4,6.7c-3.19,3.77,1.23,37.86,11.09,57.76
				c9.44,19.04,19.8,27.83,29.66,23.49c4.82-2.13,9.7-4.71,9.7-4.71s-10.08-11.2-19.61-39.6
				C668.4,434.11,667.45,421.76,667.45,421.76z"/>
			<path class="st9" d="M667.45,421.76c0,0-16.23,2.95-19.4,6.7c-3.19,3.77,7.99,38.39,7.99,38.39s4.2,5.76,22.85-1.45
				C668.4,434.11,667.45,421.76,667.45,421.76z"/>
		</g>
		<path class="st2" d="M812.43,363.15c-9.23,0-13.58,6.68-13.58,6.68s-0.89-0.3-0.3-6.5c2.11-26.01,4.08-83.1,4.29-85.84
			c0.34-4.44,2.33-8.78,9.03-10c6.65-1.21,14.88-1.21,15.74-4.8c0.85-3.52-0.09-9.38,5.66-9.8c5.74-0.42,13.6-1.81,16.71,1.13
			c4.23,4,21.68,79.56,23.85,114.39c2.55,40.94-30.22,61.68-32.67,57.9c-2.42-3.73,13.08-14.22,3.72-39.93
			C839.39,371.33,821.66,363.15,812.43,363.15z"/>
		<path class="st19" d="M804.45,319.64c0,0,18.99,2.37,27.69-2.37c8.7-4.75-0.49-41.64-0.49-41.64l-25.81,5.44L804.45,319.64z"/>
		<path class="st3" d="M815.3,360.29c-10.98,0.48-13.15,1.46-12.63-3.99c0.92-19.38,54.2-27.82,58.29-27.69
			c5.06,0.16,10.55,20.57,8.97,45.89c-1.58,25.32-15.41,46.13-17.41,22.15C851.46,383.99,840.38,359.2,815.3,360.29z"/>
		<path class="st19" d="M840.12,252.12c1.49,4.36,31.91,96,15.3,165.63"/>
	</g>
</g>
<g id="S_right_arm">
	<path class="st20" d="M683.25,363.62c-4.69,4.68-15.42,12.44-10.11,17.52c4.11,3.94,9.24-0.25,17.95-8.85
		C696.69,366.76,687.94,358.94,683.25,363.62z"/>
	<polygon class="st21" points="679.45,375.47 682.16,380.07 689.88,372.21 	"/>
	<path class="st2" d="M699.39,354.77c0,0-4.64-4.28-9.99,1.4c-6.03,6.41-6.32,6.89-6.32,6.89l8,9.23
		C691.08,372.29,701.51,356.5,699.39,354.77z"/>
	<path class="st20" d="M672.22,381.1c3.91,2.21,5.71,2.22,8.22-0.97c2.51-3.19-4.24-7.55-14.37-12.88
		c-10.14-5.33-13.55-7.76-15.12-5.45c-1.58,2.31,2.91,7.66,9.95,12.23C667.94,378.6,668.31,378.89,672.22,381.1z"/>
	<path class="st21" d="M671.56,380.3c3.91,2.21,5.66,1.01,5.66,1.01l-2.73-4.07c0,0-22.07-9.41-15.03-4.84
		C666.5,376.97,667.65,378.09,671.56,380.3z"/>
</g>
<g id="S_right_hand">
	<path class="st20" d="M650.68,367.16c-1.79-1.19-2.91-1.76-3.95-2.81c-1.2-1.79-2.21-5.28-3.12-6.77c-1.88-3.06,0.19-5.63,1-3.57
		s4.76,5.61,4.76,5.61l-1.72-6.21l-5-6.08c0,0-0.23-5.28,1.36-4.77c1.59,0.51,4.62,6.83,7.3,7.5c2.68,0.67,6.2,11.37,5.46,13.72
		C656.03,366.13,653.01,368.56,650.68,367.16z"/>
</g>
<g id="Layer_21">
	<path class="st3" d="M673.79,407.43c0,0-2.08,7.57,14.14,4.82c16.22-2.75,45.82-9.95,45.82-9.95S683.72,395.18,673.79,407.43z"/>
</g>
<g id="S_rightleg">
	<g>
		<polygon class="st20" points="695.3,438.74 707.73,457.92 713.22,452.01 703.64,432.3 		"/>
		<path class="st1" d="M682,405.4c-1.09,0.27-7.55,1.5-1.41,11.75c7.08,11.82,8.78,14.47,14.85,21.97l8.42-6.24
			c0,0-4.79-12-7.1-18.81C693.91,405.67,683.09,405.13,682,405.4z"/>
		<path class="st11" d="M695.16,433.21c-4.5-1.18-20.71-26.31-14.57-16.06c7.08,11.82,8.78,14.47,14.85,21.97l8.42-6.24
			C703.86,432.89,699.67,434.39,695.16,433.21z"/>
		<path class="st20" d="M707.24,455.79c0,0-2.75,11.25,0.24,12.5s7.61-13.63,5.74-16.28C711.35,449.36,707.24,455.79,707.24,455.79z
			"/>
		<path class="st2" d="M706.8,457.65c0,0-0.84,7.4,0.67,7.5c1.5,0.1,4.17-4.95,5.01-6.48c0.84-1.53-0.23-6.74,0.97-6.93
			c1.19-0.19,3.1,3.19,3.15,4.69c0.02,0.52-1.05,1.79-1.92,4.87c-0.56,1.98-0.74,5.53-1.53,7.4c-1.52,3.59-4.23,6.09-5.31,6.64
			c-2.5,1.29-3.09-2.44-3.11-7.24C704.7,463.3,706.8,457.65,706.8,457.65z"/>
		<path class="st14" d="M712.72,457.05c0.15-2.01-0.46-5.11,0.73-5.3c1.19-0.19,3.1,3.19,3.15,4.69c0.02,0.52-1.05,1.79-1.92,4.87
			c-0.56,1.98-0.74,5.53-1.53,7.4c-1.52,3.59-4.23,6.09-5.31,6.64c-2.5,1.29,4.19-4.1,4.16-8.9c-0.01-1.18-3.37-1.86-3.37-1.86
			S712.45,460.62,712.72,457.05z"/>
	</g>
	<path class="st1" d="M697.85,394.49c0,0-13.77,6.08-17.75,10.77c-3.98,4.69-3.6,14.57,15.74,7c13.36-5.23,27.01-10.36,20.65-12.01
		C710.14,398.6,704.63,391.15,697.85,394.49z"/>
</g>
<g id="S_left_leg">
	<g>
		<path class="st2" d="M697.44,468.55c0,0-2.49,4.31-3.54,6.75c-0.91,2.13-2.71,4.95-3.05,6.6c-0.73,3.56-0.45,5.53,1.08,5.72
			c1.53,0.19,5.62-1.15,7.93-3.69c1.3-1.43,3.82-8.13,4.33-11.34C704.6,470.09,701.83,462.49,697.44,468.55z"/>
		<path class="st14" d="M699.85,478.19c-1.33,6.44-9.45,9.25-7.92,9.43c1.53,0.19,5.62-1.15,7.93-3.69
			c1.3-1.43,5.38-10.27,5.9-13.48c0.4-2.51-1.5-4.68-2.05-5.21C703.17,464.72,695.61,472.21,699.85,478.19z"/>
		<g>
			<path class="st21" d="M699.69,446.93l-1.35,18.95c0,0-4.49,12.61-3.3,12.66c1.19,0.05,5.39-2.94,7.65-7.6
				c1.46-3.03,5.26-19.48,6.74-23.67C714.39,433.16,700.12,435.33,699.69,446.93z"/>
			<path class="st1" d="M720.24,398.29c-3.01,1.47-15.95,4.3-17.22,13.01c-1.57,10.72-3.36,36.02-3.36,36.02l9.55,0.34
				c0,0,6.18-14.09,7.95-23.06c1.26-6.38,1.78-11.51,1.78-11.51s13.02-9.66,14.13-13.19C734.17,396.37,723.25,396.82,720.24,398.29z
				"/>
			<polygon class="st11" points="701.61,424.63 700.78,433.9 699.65,447.33 709.21,447.66 702.45,440.32 			"/>
		</g>
	</g>
</g>
<g id="S_torso">
	<path class="st22" d="M726.23,385.48c1.3-1.64-1.38-4.39-1.74-8c-0.6-6.12,0.03-14.24-1.59-20.1c-1.12-4.07-1.08-4.58-3.77-6.5
		c-1.78-1.27-8.68,1.07-15.67,1.35c-7.06,0.29-7.53,0.72-10.16,8.31c-2.5,7.21-0.37,8.51,2.45,13.52c2.25,4,5.88,8.3,5.88,8.3
		s0.82,4.91,7.1,6.15C716.95,390.15,722.72,389.91,726.23,385.48z"/>
	<path class="st20" d="M697.93,343.9l2.8,8.85c0,0,1.52,3.91,4.49,3.94c2.97,0.03,4.81-3.73,4.55-4.65
		c-0.26-0.92-3.67-11.61-3.67-11.61L697.93,343.9z"/>
	<path class="st9" d="M702.39,383.33c-3.66,1.85-12.82,10.37-18.49,13.72c-12.32,8.87-10.11,10.38-10.11,10.38s4.22-3.9,9.22-2.74
		c2.75,0.64,9.02,5.69,17.27,1.86c6.06-2.81,15.79-4.14,15.79-4.14s9.3,1.71,11.03,2.14c5.31,1.32,8.48-2.28,8.48-2.28
		c-2-5.47-8.91-21.56-13.73-23.38C717.01,377.08,706.05,381.48,702.39,383.33z"/>
	<path class="st22" d="M727.09,404.56c5.27,1.43,8.48-2.28,8.48-2.28c-2.9-8.67-8.29-17.21-8.29-17.21l4.48,14.25L727.09,404.56z"/>
	<path class="st9" d="M705.64,372.34c-1.77,0.99-11.61-5.4-10.7-3.09c0.91,2.3,7.12,16.16,9.85,17.28c2.72,1.12,5.49-4.8,9.05-5.66
		c3.56-0.86,9.75,1.67,9.56,0.15C723.21,379.5,715.69,366.72,705.64,372.34z"/>
	<path class="st22" d="M701.27,402.52c-2.98,1.72-9.09,2.78-9.09,2.78s7.02-3.66,12.66-12.4
		C704.85,392.9,704.25,400.8,701.27,402.52z"/>
</g>
<g id="S_left_arm">
	<g>
		<path class="st20" d="M731.07,364.08c0,0,4.07,7.28,5.62,12.69c1.55,5.41-2.34,7.92-4.78,7.81c-2.44-0.1-7.27-12.33-10.4-17.36
			C718.38,362.19,726.75,355.66,731.07,364.08z"/>
		<path class="st2" d="M721.4,368.76c0,0-7.83-13.28-1.95-17.18c5.87-3.91,10.98,9.13,12.26,12.89L721.4,368.76z"/>
		<path class="st20" d="M741.72,403.63c0,0-11.4-16.44-13.09-22.32c-1.69-5.88,5.36-6.79,7.93-4.5c2.56,2.28,8.63,18.99,9.91,23.15
			S744.29,405.67,741.72,403.63z"/>
		<path class="st21" d="M739.91,400.1c0,0-8.78-12.67-10.08-17.19c-1.3-4.53,12.76,11.16,13.74,14.37
			C744.55,400.48,741.9,401.67,739.91,400.1z"/>
		<g>
			<path class="st20" d="M741.4,401.33c0,0-0.54,4.05,0.2,6.7c0.27,1.2,2.5,1.44,4.27,1.74c1.77,0.3,3.55,0.26,4.56,0.19
				c1-0.07,2.43-1.2-0.86-2c-1.41-0.34-4.35-1.68-4.35-1.68s-0.44-2.84-1.08-4.27C743.09,399.64,741.4,401.33,741.4,401.33z"/>
			<path class="st20" d="M746.33,406.89c0,0,5.34-0.4,7.16-0.16c1.93,0.26,5.55,1.28,6.24,0.29c0.67-0.98-1.72-2.47-2.48-2.53
				c-0.74-0.07-6.28-0.36-6.28-0.36S740.42,404.71,746.33,406.89z"/>
			<path class="st20" d="M744.59,403.92c0,0,5.76-2.08,6.79-2.22c1.06-0.14,8.31,4.79,6.03,4.78c-2.15-0.01-4.48-2.16-6.31-0.99
				C749.29,406.64,744.01,407.44,744.59,403.92z"/>
			<path class="st20" d="M744.15,402.01c0,0,3.94-1.75,4.97-1.36c1.08,0.41,4.99,3.55,2.63,3.55
				C749.54,404.21,744.4,407.51,744.15,402.01z"/>
		</g>
	</g>
</g>
<g id="S_Head">
	<g>
		<path class="st23" d="M687.48,342.99c0,0,3.96,6.6,10,3.9c6.04-2.71,7.53-18.08-1.43-17.78
			C687.09,329.41,684.13,338.48,687.48,342.99z"/>
		<path class="st23" d="M691.8,322.37c3.02-3.26,4.15-7.45,10.75-6.08c0,0,6.76-2.19,13.25,2.45c7.78,5.57,4.83,13.64,4.83,13.64
			s8.56,8.6-1.69,14.35c-4.94,2.77-13.99,0-17.96-1.27C692.13,342.64,688.78,325.63,691.8,322.37z"/>
		<g>
			<path class="st23" d="M700.71,320.38c-3.34,0.84-15.27-0.73-15.54-3.48s9.91-5.75,11.42,0.03c0,0-2.41-5.62,1.03-7.17
				C701.07,308.2,704.05,319.54,700.71,320.38z"/>
			<path class="st20" d="M688.8,332.01c-1.42,12.97,6.84,16.07,15.78,14.92c6.72-0.86,7.66-5.13,7.29-13.61
				c-0.37-8.48-3.7-14.8-10.46-15.27C692.48,317.43,689.72,323.59,688.8,332.01z"/>
			<path class="st21" d="M691.62,339.06c1.56,4.57,5.1,7.9,11.24,7.16c4.93-0.59,7.81-4.38,8.03-9.08c0.22-4.7-10.2-7.96-15.09-8.11
				C689.35,328.84,690.06,334.48,691.62,339.06z"/>
			<path class="st9" d="M713.41,334.96l-5.7-0.29c0,0-0.25-10.37-6.82-12.86c-6.9-2.62-10.05,1.8-10.05,1.8s3.29-8.87,13.49-5.15
				C712.44,321.41,713.41,334.96,713.41,334.96z"/>
			
				<ellipse transform="matrix(0.2555 -0.9668 0.9668 0.2555 205.873 936.658)" class="st21" cx="711.13" cy="334.65" rx="4.86" ry="3.79"/>
			<g>
				<path class="st25" d="M699.21,326.99c0,0-1.74-1.15-2.86-1.14"/>
				
					<ellipse transform="matrix(0.212 -0.9773 0.9773 0.212 226.3587 941.1658)" class="st23" cx="696.81" cy="330.21" rx="1.88" ry="1.01"/>
				
					<ellipse transform="matrix(0.0953 -0.9955 0.9955 0.0953 296.8554 985.6627)" class="st23" cx="690.68" cy="329.52" rx="1.7" ry="0.64"/>
				<path class="st25" d="M692.13,325.19c0,0-1.28-0.09-1.91,0.52"/>
			</g>
		</g>
		<path class="st23" d="M713.72,338.57c0,0-5.95-2.54-9.42,1.45c-3.47,3.99,2.11,14.02,8.89,10.38
			C719.97,346.78,718.28,340.05,713.72,338.57z"/>
	</g>
	<g>
		<path class="st3" d="M704.91,320.48c0,0-0.27,4.45,0.85,7.52c0.85,2.32,2,3.67,2,3.67l0.28-0.94l1.38,0.13
			c0,0-2.72-3.12-3.52-10.16L704.91,320.48z"/>
		<path class="st3" d="M704.97,319.99c0,0-1.78,4.09-1.78,7.35c0,2.47,0.62,4.13,0.62,4.13l0.58-0.79l1.25,0.59
			c0,0-1.48-3.86,0.17-10.76L704.97,319.99z"/>
		<path class="st3" d="M704.78,322.85c0.89,0.58,5.44-2.84,3.69-4.62c-1.64-1.68-3.8-3.28-4.68-1.68
			C702.9,318.14,703.88,322.27,704.78,322.85z"/>
		<path class="st9" d="M707.61,321.13c0,0,1.35-2.02,0.77-2.49c-0.58-0.47-0.79,0.74-1.73,2.02
			C705.72,321.96,707.02,321.97,707.61,321.13z"/>
		<g>
			<path class="st3" d="M704.93,321.4c0,0,0.64-0.92,2.54-0.6c1.91,0.31,3.2,0.72,3.52,1.88c0.32,1.16-1.33,3.45-2.71,4.08
				c-1.39,0.63-3.28-2.59-3.58-3.59S704.93,321.4,704.93,321.4z"/>
			<path class="st9" d="M709.86,324.71c0,0-1.28,1.87-2.26,1.45c-1.46-0.62,2.12-3.08,2.64-3.51
				C710.75,322.22,711.15,323.72,709.86,324.71z"/>
		</g>
	</g>
</g>
<g id="forest">
	<path class="st1" d="M271.71,776.34c0,0-126.05,79.73-162.33,95.08c-37.54,15.88,33.93,17.28,33.93,17.28s-33.02,20.27-8.93,23.08
		c24.23,2.83,37.91,0,37.91,0s-56.75,23.14-12.41,44.34c46.33,22.15,314.56,98.7,476.55,55.57c149.63-39.85,152.85-53,206.27-49.97
		c53.75,3.05,26.97-21.22,8.12-28.41c0,0,68.07,4.79,48.89-24.03c-37.82-56.83-66.46-74.37-66.46-74.37L271.71,776.34z"/>
	<path class="st11" d="M534.08,997.79c1.48-3.48,25.64-25.28,13.79-27.37c-11.85-2.09-29.05,10.86-29.05,10.86
		s-3.69-21.25-9.52-15.03c-5.84,6.22-9.33,16.92-9.33,16.92s-4.27-22.37-11.44-15.52c-7.17,6.85-10.13,13.81-10.13,13.81
		s-11.22-13.53-14.56-5.69c-3.34,7.84-7.05,16.54-7.05,16.54s-9.21-20.74-16.65-20.73c-7.44,0.01-11.83,15.31-11.83,15.31
		s-4.43-19.51-12.24-18.63c-7.81,0.88-11.68,12.45-11.68,12.45s-17.27-0.71-20.4,9.11c-3.12,9.83,16.01-0.01,57.72,8.05
		C474.68,1004.25,534.08,997.79,534.08,997.79z"/>
	<path class="st11" d="M224.09,940.44c0,0-25.89-19.22-19.19-20.13c6.83-0.93,15.04,8.62,15.04,8.62s-0.34-15.8,6.51-9.2
		c6.76,6.5,13.01,28.86,13.01,28.86s-7.38-30.58,2.3-20.03c9.43,10.28,12.83,22.82,12.83,22.82s28.6-38.46,41.83-23.25
		c12.76,14.67,3.81,23.54,3.81,23.54s9.32-22.05,17.81-8.63C326.21,955.95,288.08,978.2,224.09,940.44z"/>
	<path class="st11" d="M583.62,1008.62c0,0-39.7,6.94-36.01-2.43c3.68-9.37,19.44-5.88,19.44-5.88s-10.9-25.02-2-22.43
		c8.9,2.6,10.32,5.86,10.32,5.86s1.93-16.37,8.04-11.27c6.11,5.11,6.11,5.11,6.11,5.11s8.74-24.52,10.35-14.87
		c1.62,9.65,1.62,9.65,1.62,9.65s15.32-18.32,16.37,1.93C618.91,994.54,627.95,994.49,583.62,1008.62z"/>
	<path class="st11" d="M627.55,965.26c0,0,11.87-20.18,13.05-14.24c1.19,5.93-3.56,21.36-3.56,21.36s20.18-24.92,24.92-14.24
		c4.75,10.68-8.31,20.18-8.31,20.18s33.23-20.18,32.04-11.87s-40.35,33.23-61.71,26.11C602.63,985.44,627.55,965.26,627.55,965.26z"
		/>
	<path class="st11" d="M731.84,942.24c0,0-13.02-18.1-19.45-7.25c-6.43,10.85,5.88,12.19,5.88,12.19s-19.97-3.53-13.14,7.27
		c6.83,10.8,11.72,11.1,11.72,11.1s-19.84,3.68-9.93,11.5c9.9,7.82,55.36-13.9,69.58-15.34c14.22-1.43,11.7-21.49,1.42-18.37
		c-10.29,3.12-10.29,3.12-10.29,3.12s7.98-22-3.68-19.84c-11.67,2.17-11.67,2.17-11.67,2.17S737.87,909.74,731.84,942.24z"/>
</g>
<g id="tree4">
	<g>
		<path class="st26" d="M640.61,836.61c0,0-28.8,40.43-20.09,48.99c8.85,8.7,55.01-6.22,55.01-6.22s12.02,16.55,31.94,16.72
			c19.93,0.18,45.76-26.19,45.76-26.19s42.34,22.29,53.27,18.79c10.86-3.48,29.41-34.17,29.41-34.17s38.87,10.97,45.86,5.08
			c6.91-5.82-67.36-79.83-67.36-79.83l-27.18-29.36L640.61,836.61z"/>
		<path class="st16" d="M740.4,823.83c-0.03,2.19-6.97,139.8-6.97,139.8l39.74-14.01l-13.79-132.31L740.4,823.83z"/>
		<path class="st4" d="M740.3,825.62c-0.03,2.19-4.02,70.04-4.02,70.04l17.86-28.77l9.76-8.7l-2.64-32.97L740.3,825.62z"/>
		<path class="st27" d="M681.85,765.18l-36.91,57.14c0,0-22.74,32.55-18.26,39.71c4.55,7.26,59.54-34.36,59.54-34.36
			s15.45,31.93,28.13,32.25c12.69,0.32,35.68-28.31,35.68-28.31s40.09,21.21,52.38,18.8c12.24-2.4,23.89-38.2,23.89-38.2
			s18.96,17.04,27.7,8.96c8.6-7.95-47.37-62.88-57.71-77.9c-9.9-14.38-9.9-14.38-9.9-14.38L681.85,765.18z"/>
		<g>
			<path class="st26" d="M693.12,704.78l-0.17,2.56c-3.36,8.64-38.53,69.39-38.53,69.39s-0.8,18.98,9.61,18.44
				c10.39-0.54,36.12-19.66,36.12-19.66s22.44,30.07,39.81,26.49c17.25-3.55,25.4-33.85,25.4-33.85s27.06,14.99,36.76,8.31
				c9.57-6.58,2.12-17.49,2.12-17.49s18.7,6.61,13.82-0.76c-4.81-7.26-57.04-78.24-57.04-78.24s-24.96-33.24-39.31-16.56
				c-14.94,17.36-30.9,41.37-30.9,41.37"/>
			<path class="st27" d="M692.97,687.36l-0.16,2.09c-3.24,7.05-39.78,70.24-39.78,70.24s6.27,9.01,12.57,8.55
				c6.3-0.46,34.11-23.3,34.11-23.3s26.31,24.72,38.14,21.48c11.73-3.22,20.42-27.32,20.42-27.32s33.52,11.76,37.91,9.89
				c4.38-1.86,1.73-12.01,1.73-12.01s20.44,6.88,15.97,0.95c-4.4-5.84-55.5-70.84-55.5-70.84s-23.98-27.24-37.84-13.56
				c-14.41,14.22-29.79,33.84-29.79,33.84"/>
		</g>
		<g>
			<path class="st28" d="M729.12,625.04c0,0-31.74,45.36-51.82,80.41c0,0,9.23,11.65,15.63,9.1c6.37-2.54,23.12-27.26,23.12-27.26
				s9.94,18.59,22.82,21.16c12.96,2.58,26.18-14.63,26.18-14.63s24.56,13.81,23.38,6.61C787.28,693.34,731.24,629.11,729.12,625.04z
				"/>
		</g>
		<polygon class="st4" points="756.83,874.27 755.65,896.29 757.61,923.21 756.96,948.91 764.16,925.05 760.23,903.02 
			762.32,857.66 754.2,851.07 		"/>
	</g>
	<polygon class="st4" points="749.13,922.01 747.02,934.14 752.3,945.22 752.3,932.03 751.24,914.1 	"/>
</g>
<g id="tree3">
	<g>
		<path class="st26" d="M525.75,759.51c0,0,100.22,152.35,76.48,160.66c-23.74,8.31-74.69-20.23-74.69-20.23
			s-13.83,29.51-39.79,33.57c-25.96,4.06-42.18-24.42-42.18-24.42s-63.69,9.89-76.75-1.58c-13.05-11.47,28.48-64.48,28.48-64.48
			l79.29-91.35L525.75,759.51z"/>
		<polygon class="st16" points="472.55,862 467,1006 496,1004 487.36,860 		"/>
		<polygon class="st4" points="471.68,856.87 469.31,922.27 475.74,917.79 490.8,916.6 488.99,854.46 		"/>
		<path class="st27" d="M521,752.98c0,0,94.95,118.75,74.11,126.67c-20.84,7.91-72.32-18.04-72.32-18.04s-20.95,23.9-39.79,25.97
			c-18.84,2.07-42.18-18.89-42.18-18.89s-51.43,24.24-68.04,4.75c-16.62-19.49,75.16-131.3,75.16-131.3L521,752.98z"/>
		<g>
			<path class="st28" d="M437.3,746.58c0,0,39.21-51.03,54.6-86.91c0,0,21.72,49.21,30.7,63.89c8.98,14.68,26.62,36.85,20.26,40.16
				s-26.07-14.96-26.07-14.96s-13.87,12.5-22.81,14.45c-8.94,1.95-16.62-5.15-16.62-5.15s-20.4,11.12-28.83,9.83
				S437.3,746.58,437.3,746.58z"/>
		</g>
		<polygon class="st4" points="481.7,910.93 478.54,935.99 479.86,951.29 479.59,969.22 482.76,952.6 481.97,936.78 486.71,910.41 
					"/>
		<polygon class="st4" points="474.85,924.12 473.26,964.21 474.85,975.29 471.15,961.31 471.68,938.89 		"/>
		<polygon class="st4" points="484.34,970.8 487.51,987.15 489.62,1001.66 489.35,985.04 485.92,972.12 485.4,959.73 		"/>
	</g>
</g>
<g id="tree2">
	<g>
		<path class="st27" d="M217.58,766.02c-15.65,22.15-83.95,51.59-100.89,68.92c-16.97,17.37-20.16,29.24-3.1,38.01
			c17.2,8.83,47.94-13.48,47.94-13.48s-4.76,28.16,13.88,37.59c39.25,19.85,66.11-3.24,66.11-3.24s-6,26.75,12.01,30.46
			c18.13,3.73,39.04-13.13,39.04-13.13s27.86,41.02,46.07,40.96c18.3-0.06,21.02-23.8,21.02-23.8s24.49,24.35,46.37,24.29
			c22.02-0.07,23.57-45.26,23.57-45.26s35.49,36.21,41.03,12.79c5.5-23.26-33.44-71.9-75.41-157.98
			C355.93,681.57,247.82,723.24,217.58,766.02z"/>
		<polygon class="st7" points="308.96,792.79 321.75,966.12 273.37,975 291.15,782.84 		"/>
		<polygon class="st16" points="309.39,787.12 317.73,910.71 289.64,881.84 281.2,887.01 292.65,779.9 		"/>
		<path class="st26" d="M195.35,773.46c0,0-99.31,72.63-85.23,78.65c14.17,6.06,68.74-27.15,68.74-27.15s-1.83,48.18,28,53.33
			c30.14,5.2,53.88-28.25,53.88-28.25l27.93-4.29c0,0,30.43,61.35,42.69,61.2c19.98-0.24,11.65-32.53,11.65-32.53
			s33.23,40.23,57.13,39.95c24.05-0.28,16.46-42.42,16.46-42.42s26.94,33.17,46.1,32.51c19.26-0.67-31.46-82.87-72.64-159.21
			C353.25,677.02,269.07,717.08,195.35,773.46z"/>
		<g>
			<path class="st27" d="M265.25,674.56c0,0-123.34,86.66-120.11,98.12c2.89,10.26,10.63,6.07,26.21,4.85
				c15.64-1.23,34.75-12.16,34.75-12.16s3.17,15.94,16.19,18.82c7.63,1.69,34.46-12.22,34.46-12.22s4.09,15.96,24.05,21.69
				c14.31,4.1,44.72-18.3,44.72-18.3s5.64,37.18,24.39,36.86c18.85-0.33,41.59-58.4,41.59-58.4l38.05,30.75
				c0,0-41.51-111.09-64.21-158.12C343.19,580.56,265.25,674.56,265.25,674.56z"/>
			<path class="st27" d="M371.73,737c0,0-8.75,53.05,7.7,62.09c16.58,9.11,11.74-20.98,11.74-20.98s24.09,28.82,30.08,20.82
				c5.98-7.99-6.92-24.73-6.92-24.73s21.69,21.7,11.17-3.93c-10.54-25.68-13.32-28.36-13.32-28.36L371.73,737z"/>
			<path class="st26" d="M257.02,676.3c-24.21,22.73-95.65,69.3-92.62,80.23c3.05,10.99,52.09-30.27,52.09-30.27
				s-19.97,36-6.97,35.72c13-0.28,41.94-13.2,41.94-13.2s10.31,28.57,28.57,27.49c18.24-1.08,49.77-27.57,49.77-27.57
				s15.59,29.36,32.59,27.06c16.96-2.3,26.37-35.47,26.37-35.47s42.13,53.25,36.45,29.18c-4.52-19.17-76.86-180.05-76.86-180.05
				S280.92,653.86,257.02,676.3z"/>
		</g>
		<g>
			<path class="st0" d="M347.59,574.25L240.38,674.9c0,0,6.17,4.02,17.97,3.94c11.84-0.09,24.24-15.8,24.24-15.8
				s-6.94,17.84,6.12,19.67c13.11,1.84,26.05-21.77,26.05-21.77s19.3,29.81,35.49,28.42c16.25-1.4,12.28-21.04,12.28-21.04
				c16.55,19.16,47.44,57.59,46.94,40.88C408.97,692.59,367.25,618.06,347.59,574.25z"/>
		</g>
		<path class="st26" d="M248.94,827.41c0,0-4.48,31.15,11.9,37.16c10.09,3.7,18.36-12.31,29.82-27.2c5-6.5,2.58-19.41-5.13-18.96
			L248.94,827.41z"/>
		<polygon class="st16" points="307.88,896.88 313.99,914.09 314.37,934.43 317.88,960.5 310.32,942.43 309.81,918.45 
			304.32,895.76 		"/>
		<polygon class="st16" points="310.27,954.19 305.55,956.14 306.58,966.85 301.76,958.02 301.97,919.96 		"/>
		<polygon class="st16" points="296.16,877.44 303.15,884.56 296.82,937.57 292.55,919.53 		"/>
	</g>
</g>
<g id="tree1">
	<g>
		<path class="st27" d="M504.67,827.77c88.83-132.23,105.02-128.72,105.02-128.72s153.5,192.34,136.46,202.68
			c-29.54,17.92-76.32-20.08-76.32-20.08s15.19,36.92-2.72,40.9c-18.03,4-63.3-9.49-63.3-9.49s-16.69,26.64-39.56,31.65
			c-23.07,5.05-47.16-60.35-47.16-60.35s-32.14,34.75-62.03,15.26C445.86,891.02,482.86,860.23,504.67,827.77z"/>
		<polygon class="st7" points="598.21,826.49 596,1002 635.46,993.22 610.98,813.29 		"/>
		<polygon class="st16" points="614.64,908.22 618.05,931.15 616.18,953.43 616.04,974.6 613.6,958.56 615.49,929.28 		"/>
		<polygon class="st16" points="603.74,872.3 609.2,897 606.89,931.82 602.56,983.75 601.76,959.73 603.18,927.53 605.61,895.65 		
			"/>
		<polygon class="st16" points="611.07,943.9 609.12,983.75 602.2,997.98 606,975.98 		"/>
		<polygon class="st16" points="596.82,849.43 596.81,887.21 613.51,890.84 624.38,910.9 613.1,836.23 		"/>
		<g>
			<path class="st26" d="M521.49,775.01c67.98-108.84,83.86-88.77,83.86-88.77s92.69,121.24,108.46,145.5
				c18.49,28.43,26.15,31.68,14.06,38.65c-12.24,7.06-67.23-24.62-67.23-24.62s-10.07,21.33-31.5,25.44
				c-21.59,4.15-36.86-14.68-36.86-14.68s-30.43,28.05-49.52,25.94c-19.02-2.1-18.05-31.27-18.05-31.27s-49.98,23.32-66.77,24.15
				C441.12,876.19,504.92,801.54,521.49,775.01z"/>
			<g>
				<path class="st27" d="M559.52,720.81l-58.17,81c0,0,9.23,13.86,26.28,14.55c17.07,0.7,31.82-13.44,31.82-13.44
					s24.49,26.01,36.48,25.94c11.99-0.07,25.4-24.41,25.4-24.41s26.49,19.79,36.78,18.06c10.26-1.72,14.47-24.98,14.47-24.98
					s18.57,8.17,21.23,0.71c2.63-7.37-54.14-74.69-63.6-96.85C621.76,681.57,580.63,699.88,559.52,720.81z"/>
				<path class="st26" d="M566.26,705.29c-21.74,31.09-62.82,72.04-57.39,79.58c5.51,7.65,12.86-0.72,24.92-1.19
					c12.05-0.47,28.4-25.1,28.4-25.1s21.35,31.9,35.54,32.16c14.2,0.26,24.67-32.23,24.67-32.23s26.91,30.19,36.06,26.86
					c9.09-3.3,7.69-24.11,7.69-24.11s10.88,11.84,17.17,9.37c6.26-2.47-55.06-79.91-55.06-79.91S586.66,676.11,566.26,705.29z"/>
			</g>
			<g>
				<path class="st0" d="M601.38,649.81l-57.74,82.03l27.54-8.13c0,0,7.04,18.41,13.43,18.41c6.4,0,29.42-15.98,29.42-15.98
					s10.86,16.3,18.65,15.45c7.77-0.85,13.34-15.59,13.34-15.59s23.87,13.78,15.49,3.36C615.11,671.66,601.38,649.81,601.38,649.81z
					"/>
			</g>
		</g>
	</g>
</g>
<g id="ground">
	<path class="st29" d="M897.35,966.33c0,0-41.62-34.87-122.62-15.75s-141.75,57.37-241.87,49.5
		c-100.12-7.87-204.75-25.87-273.37-51.75c-68.62-25.87-137.25-21.37-166.5-12.37s-1.09,6.37,26.61,11.11s69.02,22.64,84.77,30.51
		c0,0-47.71-10.81-47.25-5.62c0.46,5.18,150.38,78.94,240.75,82.72c113.38,4.75,212.01-13.64,322.26-53.01
		C804.7,971.45,874.85,960.7,897.35,966.33z"/>
</g>
</svg>
