<svg width="499" height="100" viewBox="0 0 499 100" fill="none" xmlns="http://www.w3.org/2000/svg">
<rect width="100" height="100" rx="10" fill="#00FFD1"/>
<g clip-path="url(#clip0)">
<path d="M77.3483 59.2198C81.5168 59.2198 84.8961 55.8406 84.8961 51.672C84.8961 47.5035 81.5168 44.1243 77.3483 44.1243C73.1798 44.1243 69.8005 47.5035 69.8005 51.672C69.8005 55.8406 73.1798 59.2198 77.3483 59.2198Z" fill="#F9CDB7"/>
<path d="M75.088 58.3776C76.2119 58.7016 77.3959 58.76 78.5463 58.548C79.6967 58.3361 80.7821 57.8596 81.7168 57.1563C82.6515 56.453 83.4099 55.542 83.9323 54.4954C84.4546 53.4487 84.7265 52.2949 84.7265 51.1252C84.7265 49.9554 84.4546 48.8016 83.9323 47.755C83.4099 46.7083 82.6515 45.7973 81.7168 45.094C80.7821 44.3907 79.6967 43.9143 78.5463 43.7023C77.3959 43.4904 76.2119 43.5487 75.088 43.8727C76.66 44.3274 78.0418 45.2805 79.0251 46.5885C80.0085 47.8966 80.5402 49.4887 80.5402 51.1252C80.5402 52.7616 80.0085 54.3538 79.0251 55.6618C78.0418 56.9699 76.66 57.923 75.088 58.3776Z" fill="#E2A78D"/>
<path d="M22.6553 59.2198C26.8238 59.2198 30.203 55.8406 30.203 51.672C30.203 47.5035 26.8238 44.1243 22.6553 44.1243C18.4867 44.1243 15.1075 47.5035 15.1075 51.672C15.1075 55.8406 18.4867 59.2198 22.6553 59.2198Z" fill="#F9CDB7"/>
<path d="M24.3868 58.7423C23.2628 59.0664 22.0789 59.1247 20.9285 58.9128C19.7781 58.7008 18.6927 58.2244 17.758 57.5211C16.8233 56.8177 16.0648 55.9068 15.5425 54.8601C15.0202 53.8134 14.7483 52.6597 14.7483 51.4899C14.7483 50.3201 15.0202 49.1664 15.5425 48.1197C16.0648 47.073 16.8233 46.1621 17.758 45.4588C18.6927 44.7555 19.7781 44.279 20.9285 44.0671C22.0789 43.8551 23.2628 43.9135 24.3868 44.2375C22.8148 44.6921 21.433 45.6452 20.4496 46.9533C19.4663 48.2613 18.9345 49.8535 18.9345 51.4899C18.9345 53.1264 19.4663 54.7185 20.4496 56.0266C21.433 57.3346 22.8148 58.2877 24.3868 58.7423Z" fill="#E2A78D"/>
<path d="M22.6551 59.7796C21 59.7799 19.3819 59.2895 18.0055 58.3702C16.6291 57.4509 15.5563 56.1441 14.9226 54.615C14.289 53.086 14.123 51.4034 14.4457 49.78C14.7684 48.1566 15.5652 46.6653 16.7354 45.4948C17.9057 44.3244 19.3967 43.5272 21.0201 43.2041C22.6434 42.8811 24.326 43.0467 25.8552 43.68C27.3844 44.3133 28.6915 45.3859 29.611 46.7621C30.5306 48.1383 31.0215 49.7563 31.0215 51.4114C31.0167 53.629 30.1337 55.7544 28.5658 57.3226C26.9979 58.8909 24.8727 59.7743 22.6551 59.7796ZM22.6551 44.6859C21.3244 44.6855 20.0235 45.0798 18.9169 45.8189C17.8103 46.5579 16.9478 47.6086 16.4384 48.8379C15.929 50.0673 15.7956 51.4201 16.0551 52.7252C16.3146 54.0304 16.9554 55.2292 17.8963 56.1702C18.8373 57.1111 20.0361 57.7519 21.3413 58.0114C22.6464 58.2709 23.9992 58.1376 25.2286 57.6281C26.4579 57.1187 27.5086 56.2562 28.2476 55.1496C28.9867 54.043 29.381 52.7421 29.3807 51.4114C29.3782 49.6284 28.6689 47.9192 27.4081 46.6584C26.1474 45.3976 24.4381 44.6883 22.6551 44.6859Z" fill="#213346"/>
<path d="M18.1641 52.6584C18.138 52.6602 18.1118 52.6602 18.0857 52.6584C17.9178 52.6375 17.7651 52.5509 17.6609 52.4176C17.5567 52.2844 17.5095 52.1153 17.5296 51.9474C17.8523 49.3203 18.9735 48.0185 19.8559 47.3896C20.435 46.96 21.1214 46.6988 21.8395 46.6348C22.0087 46.628 22.1737 46.6888 22.2982 46.8036C22.4226 46.9185 22.4964 47.0781 22.5031 47.2474C22.5099 47.4166 22.4492 47.5816 22.3343 47.706C22.2194 47.8305 22.0598 47.9042 21.8906 47.911C21.7721 47.911 19.2871 48.1133 18.7912 52.1042C18.771 52.2566 18.6964 52.3967 18.5812 52.4985C18.466 52.6003 18.3178 52.6571 18.1641 52.6584Z" fill="#213346"/>
<path d="M20.4219 53.973C20.3716 53.9728 20.3215 53.9673 20.2724 53.9566C20.1909 53.9371 20.114 53.9017 20.0461 53.8525C19.9782 53.8033 19.9207 53.7412 19.8769 53.6697C19.833 53.5983 19.8037 53.5189 19.7905 53.4361C19.7774 53.3533 19.7807 53.2687 19.8002 53.1872C19.9861 52.4993 20.0478 51.7838 19.9825 51.0742C19.9257 50.4363 19.6409 49.8402 19.1803 49.3951C19.1156 49.3401 19.0625 49.2726 19.0241 49.1968C18.9857 49.1209 18.9629 49.0382 18.957 48.9534C18.9511 48.8686 18.9621 48.7835 18.9896 48.703C19.017 48.6226 19.0602 48.5484 19.1167 48.4849C19.1732 48.4213 19.2418 48.3697 19.3184 48.3331C19.3951 48.2965 19.4784 48.2755 19.5633 48.2715C19.6482 48.2674 19.733 48.2804 19.8129 48.3096C19.8927 48.3388 19.9659 48.3837 20.0281 48.4416C20.7211 49.0919 21.1545 49.9717 21.2478 50.9174C21.3325 51.7782 21.2608 52.6472 21.0363 53.4826C21.0033 53.6212 20.9249 53.7447 20.8136 53.8336C20.7022 53.9225 20.5644 53.9716 20.4219 53.973Z" fill="#213346"/>
<path d="M77.349 59.7796C75.6939 59.7799 74.0758 59.2895 72.6994 58.3702C71.323 57.4509 70.2502 56.1441 69.6165 54.615C68.9829 53.086 68.8169 51.4034 69.1396 49.78C69.4623 48.1566 70.2591 46.6653 71.4294 45.4948C72.5996 44.3244 74.0907 43.5272 75.714 43.2041C77.3373 42.8811 79.0199 43.0467 80.5491 43.68C82.0783 44.3133 83.3854 45.3859 84.305 46.7621C85.2246 48.1383 85.7154 49.7563 85.7154 51.4114C85.7106 53.629 84.8276 55.7544 83.2597 57.3226C81.6918 58.8909 79.5666 59.7743 77.349 59.7796ZM77.349 44.6859C76.0183 44.6855 74.7174 45.0798 73.6108 45.8189C72.5042 46.5579 71.6417 47.6086 71.1323 48.8379C70.6229 50.0673 70.4895 51.4201 70.749 52.7252C71.0085 54.0304 71.6493 55.2292 72.5902 56.1702C73.5312 57.1111 74.7301 57.7519 76.0352 58.0114C77.3404 58.2709 78.6931 58.1376 79.9225 57.6281C81.1518 57.1187 82.2025 56.2562 82.9416 55.1496C83.6806 54.043 84.0749 52.7421 84.0746 51.4114C84.0722 49.6284 83.3628 47.9192 82.102 46.6584C80.8413 45.3976 79.132 44.6883 77.349 44.6859Z" fill="#213346"/>
<path d="M81.8368 52.6585C81.6813 52.6583 81.5311 52.6014 81.4146 52.4983C81.2981 52.3952 81.2233 52.2531 81.2042 52.0988C80.7138 48.0988 78.2161 47.9056 78.1048 47.9056C77.9365 47.8961 77.7787 47.8208 77.6654 47.696C77.5522 47.5711 77.4926 47.4067 77.4996 47.2383C77.5026 47.1552 77.522 47.0735 77.5567 46.9979C77.5913 46.9223 77.6405 46.8543 77.7015 46.7978C77.7625 46.7412 77.834 46.6972 77.9119 46.6683C77.9899 46.6394 78.0728 46.6262 78.1559 46.6294C78.874 46.6934 79.5604 46.9546 80.1395 47.3841C81.0237 48.0131 82.1449 49.3148 82.4658 51.942C82.4882 52.1087 82.4438 52.2774 82.3424 52.4116C82.241 52.5458 82.0908 52.6345 81.9243 52.6585C81.8952 52.6608 81.8659 52.6608 81.8368 52.6585Z" fill="#213346"/>
<path d="M79.5822 53.973C79.4387 53.9731 79.2994 53.9247 79.1869 53.8357C79.0744 53.7467 78.9952 53.6222 78.9623 53.4825C78.7364 52.6469 78.6641 51.7771 78.749 50.9156C78.8434 49.9707 79.2767 49.0918 79.9687 48.4416C80.0313 48.3858 80.1043 48.3429 80.1835 48.3153C80.2627 48.2877 80.3465 48.276 80.4302 48.2808C80.514 48.2857 80.5959 48.3069 80.6714 48.3434C80.7469 48.3799 80.8145 48.4309 80.8703 48.4935C80.926 48.5561 80.9689 48.6291 80.9965 48.7083C81.0241 48.7875 81.0358 48.8714 81.031 48.9551C81.0262 49.0388 81.0049 49.1207 80.9684 49.1962C80.9319 49.2717 80.8809 49.3393 80.8183 49.3951C80.3571 49.8397 80.0721 50.436 80.0161 51.0742C79.949 51.7838 80.0108 52.4996 80.1984 53.1872C80.2368 53.352 80.2086 53.5254 80.1198 53.6695C80.031 53.8136 79.8889 53.9167 79.7244 53.9566C79.6777 53.967 79.6301 53.9725 79.5822 53.973Z" fill="#213346"/>
<path d="M50.1241 12.5496H50.6327C57.697 12.5496 64.472 15.3558 69.4672 20.3511C74.4624 25.3463 77.2687 32.1212 77.2687 39.1856V56.5053C77.2704 60.0372 76.5763 63.5348 75.2261 66.7984C73.8759 70.062 71.896 73.0276 69.3995 75.526C66.9031 78.0243 63.9389 80.0064 60.6763 81.359C57.4137 82.7117 53.9166 83.4084 50.3848 83.4093C43.2528 83.4093 36.4129 80.5761 31.3698 75.5331C26.3267 70.49 23.4935 63.6501 23.4935 56.5181V39.1983C23.4919 35.6998 24.1794 32.2352 25.5169 29.0025C26.8544 25.7698 28.8156 22.8322 31.2886 20.3575C33.7616 17.8828 36.6978 15.9196 39.9296 14.5799C43.1615 13.2402 46.6256 12.5503 50.1241 12.5496Z" fill="#F9CDB7"/>
<path d="M53.7934 82.8677C52.5677 83.0383 51.3317 83.1242 50.0942 83.1248C35.3013 83.1248 23.203 71.0246 23.203 56.2335V38.5491C23.203 24.0917 35.0297 12.2632 49.4871 12.2632H50.6995C51.7353 12.262 52.7703 12.3229 53.7988 12.4455C42.0451 13.8457 31.8647 24.5529 29.996 36.4872C29.4204 40.2938 28.6088 44.061 27.5658 47.7669L25.1319 56.2335C25.1319 69.7703 40.7343 81.0519 53.7934 82.8677Z" fill="#E2A78D"/>
<path d="M50.0945 84.2296C42.7512 84.2089 35.7147 81.2827 30.5222 76.0902C25.3298 70.8977 22.4035 63.8612 22.3828 56.518V39.1891C22.4021 31.9134 25.3007 24.9412 30.4452 19.7964C35.5897 14.6515 42.5617 11.7524 49.8374 11.7327H50.346C57.6223 11.7514 64.5953 14.6501 69.7406 19.7951C74.8859 24.94 77.785 31.9128 77.8043 39.1891V56.518C77.7826 63.8609 74.8561 70.8969 69.6638 76.0891C64.4715 81.2814 57.4356 84.208 50.0926 84.2296H50.0945ZM49.8374 13.3735C42.9966 13.3927 36.4415 16.1188 31.6043 20.956C26.7671 25.7931 24.0411 32.3483 24.0218 39.1891V56.518C24.0425 63.426 26.7959 70.0452 31.6806 74.93C36.5654 79.8147 43.1846 82.5681 50.0926 82.5888C57.0007 82.5681 63.6199 79.8147 68.5046 74.93C73.3894 70.0452 76.1428 63.426 76.1634 56.518V39.1891C76.1442 32.3483 73.4182 25.7931 68.581 20.956C63.7438 16.1188 57.1887 13.3927 50.3479 13.3735H49.8374Z" fill="#213346"/>
<path d="M74.5319 52.0203V52.058C74.4281 52.0618 74.4696 52.0372 74.5319 52.0203Z" fill="#BFE1EE"/>
<path d="M48.8601 96.9988C66.957 96.9988 81.6273 92.6841 81.6273 87.3617C81.6273 82.0393 66.957 77.7246 48.8601 77.7246C30.7633 77.7246 16.093 82.0393 16.093 87.3617C16.093 92.6841 30.7633 96.9988 48.8601 96.9988Z" fill="#DFE7EA"/>
<path d="M76.4079 60.7824C80.2639 67.8179 79.0369 74.6765 79.1718 81.2216L77.0843 78.9117C76.3012 82.9932 74.4052 86.7788 71.6058 89.8505C70.9935 88.7308 70.1236 87.7728 69.068 87.0556C68.2968 90.5011 66.468 93.6194 63.8374 95.9744C64.2086 95.0768 64.3833 94.1102 64.35 93.1395C64.3167 92.1687 64.076 91.2164 63.6442 90.3464C63.1817 91.7844 62.4208 93.1086 61.4114 94.2323C60.402 95.3561 59.1668 96.2541 57.7864 96.8677C58.2207 96.2574 58.4926 95.5465 58.5765 94.8021C58.6604 94.0577 58.5535 93.3042 58.2659 92.6125C56.1401 96.2205 50.029 96.3299 47.7774 92.7948C47.6206 93.5077 47.7355 94.4448 48.4629 94.5049C45.4001 94.9771 42.5961 93.6863 40.4885 91.4147C40.6178 92.7032 41.2278 93.8957 42.1968 94.7547C40.5604 94.6506 38.9801 94.1183 37.6142 93.2112C36.2483 92.3041 35.1446 91.054 34.4139 89.5861C30.4613 89.8322 26.5142 87.1249 25.3219 83.3492C25.4043 83.6674 25.4023 84.0016 25.3159 84.3188C25.2296 84.636 25.062 84.9252 24.8296 85.1577C18.002 81.6901 18.3666 66.1497 22.8388 61.0212C22.8388 61.0212 32.2516 62.5308 37.9708 66.868C41.6171 69.6356 47.9032 63.3476 53.2158 63.3257C57.6661 63.3056 60.0453 68.9501 62.8967 66.2719C70.439 59.189 76.3423 60.6621 76.4079 60.7824Z" fill="#E99A4F"/>
<path d="M79.4367 80.4103L77.3492 78.0986C76.5672 82.1786 74.6746 85.9638 71.8798 89.0374C71.267 87.9175 70.3972 86.959 69.342 86.2407C68.5713 89.6863 66.7424 92.8048 64.1114 95.1594C64.4821 94.2617 64.6566 93.2952 64.6233 92.3245C64.59 91.3539 64.3495 90.4016 63.9182 89.5314C63.4545 90.9698 62.6922 92.2939 61.6811 93.4171C60.6701 94.5404 59.4331 95.4373 58.0513 96.0491C58.4853 95.439 58.757 94.7285 58.8409 93.9844C58.9247 93.2404 58.818 92.4872 58.5308 91.7958C56.405 95.4037 50.2939 95.5131 48.0423 91.9781C47.8837 92.6927 48.0624 95.3162 48.7916 95.3782C45.7287 95.8486 42.861 92.8714 40.7534 90.598C40.8756 91.8741 41.1928 94.1695 42.1536 95.0154C38.8902 94.8495 36.0971 91.7119 34.6787 88.7694C30.7262 89.0155 26.7791 86.3081 25.5868 82.5324C25.6692 82.8509 25.6671 83.1854 25.5808 83.5029C25.4944 83.8204 25.3268 84.1098 25.0945 84.3428C22.7354 83.1468 21.1784 80.5525 20.338 77.4368C23.3571 79.6409 26.9104 81.1487 30.4235 82.5032C32.8082 83.4148 35.2238 84.2954 37.7379 84.753C40.1773 85.196 42.6695 85.2398 45.149 85.2835C52.0277 85.402 59.1871 85.4658 65.4113 82.5087C67.1943 81.661 69.074 80.2116 69.012 78.2371C68.9409 75.9801 66.4724 74.6929 64.3666 73.8853C68.8516 73.2198 72.5306 69.7413 74.5762 65.6958C75.3412 64.1583 75.9454 62.546 76.3793 60.8845L76.9827 61.3549C78.8259 67.8179 79.3018 73.8652 79.4367 80.4103Z" fill="#CE7149"/>
<path d="M47.1572 63.5972L38.0707 66.9846L23.121 60.2007C22.134 61.3436 21.3846 62.6718 20.9168 64.1077C24.042 64.8325 27.0768 65.9033 29.965 67.3C31.3857 67.9756 32.7695 68.726 34.1108 69.5479C34.8401 69.9964 36.3806 71.464 37.2867 71.351C37.559 71.2956 37.8156 71.1804 38.0379 71.0137C46.3532 65.6664 52.4552 65.4313 62.2035 67.1742L57.6293 64.5088L47.1572 63.5972Z" fill="#E99A4F"/>
<path d="M61.9364 98.4828L63.3457 95.1373C63.731 94.2113 63.8753 93.2027 63.765 92.2057C62.5437 94.3751 60.6549 96.0925 58.3795 97.1027L55.6047 98.3151L57.3877 95.8666C57.7845 95.3077 58.0118 94.6462 58.0422 93.9614C56.8316 95.0316 55.1781 95.6551 53.3494 95.6879C51.9375 95.7311 50.5425 95.3713 49.3276 94.6506C49.5282 95.6515 49.5391 96.543 48.7624 96.8985L48.4197 97.0571L48.0769 96.8985C45.5628 95.739 43.5902 94.5448 41.9348 93.1592C42.2137 94.3078 42.5328 94.7198 42.6951 94.862L44.4653 96.4172L42.1116 96.2968C38.624 96.1145 35.7307 92.8511 34.181 89.9159H34.1701C30.7827 89.9159 27.5193 88.0144 25.7527 85.152L25.667 85.2395L25.2477 85.657L24.7226 85.3909C22.1265 84.0618 20.2486 81.0627 19.4483 76.9352C18.276 70.8897 19.6087 63.5807 22.4911 60.2845C22.5619 60.2033 22.6481 60.1369 22.7446 60.0891C22.8412 60.0412 22.9462 60.0128 23.0537 60.0055C23.1612 59.9982 23.2691 60.0122 23.3712 60.0466C23.4733 60.081 23.5676 60.1352 23.6488 60.2061C23.7299 60.277 23.7963 60.3631 23.8442 60.4597C23.8921 60.5562 23.9205 60.6612 23.9277 60.7687C23.935 60.8762 23.921 60.9841 23.8866 61.0862C23.8522 61.1883 23.798 61.2826 23.7272 61.3638C21.1474 64.3209 19.977 71.0264 21.0636 76.6234C21.6925 79.8577 23.0107 82.2751 24.8101 83.524C24.844 83.3698 24.8403 83.2097 24.7992 83.0572L26.3744 82.5942C27.4482 85.9925 31.078 88.4792 34.6332 88.2586L35.1801 88.224L35.4207 88.7217C36.8428 91.6734 38.8027 93.471 40.5401 94.2258C40.2261 93.167 40.025 92.078 39.9403 90.9769L39.7051 88.5741L41.355 90.3516C42.9959 92.1182 44.9813 93.5476 47.705 94.9094C47.6412 94.6105 47.5628 94.2932 47.5063 94.0672C47.2693 93.1246 47.1417 92.5685 47.2401 92.1182L47.6649 90.1784L48.7333 91.852C49.6357 93.2668 51.3513 94.0909 53.3185 94.0562C55.2856 94.0216 56.9647 93.1446 57.8234 91.6861L58.6457 90.2896L59.2837 91.7791C59.6456 92.6307 59.7716 93.564 59.6484 94.481C61.2877 93.2502 62.505 91.5412 63.1324 89.5895L63.7322 87.6625L64.6438 89.4656C65.1685 90.517 65.4419 91.676 65.4423 92.8511C66.9487 90.9505 68.0052 88.7334 68.5325 86.3662L68.7932 85.1848L69.7941 85.8649C70.6355 86.4369 71.3724 87.1492 71.9728 87.9706C74.2789 85.1614 75.8502 81.8227 76.5452 78.2551L76.8533 76.6344L78.7621 78.7474C79.1559 71.8942 78.1477 66.299 75.6318 61.2617C75.569 61.1648 75.5274 61.0558 75.5096 60.9417C75.4919 60.8277 75.4984 60.7112 75.5287 60.5998C75.5591 60.4884 75.6126 60.3847 75.6858 60.2954C75.759 60.2062 75.8501 60.1333 75.9534 60.0817C76.0566 60.0301 76.1696 60.0009 76.2849 59.9959C76.4002 59.9909 76.5153 60.0103 76.6226 60.0529C76.7299 60.0954 76.827 60.1601 76.9076 60.2427C76.9882 60.3254 77.0505 60.4241 77.0903 60.5324C79.9763 66.3118 80.979 72.7474 80.2461 80.7966L80.0766 82.6635L77.7922 80.1348C76.8336 83.7718 75.0068 87.1219 72.4687 89.8976L71.692 90.7454L71.1451 89.7354C70.7884 89.0857 70.3347 88.4943 69.7996 87.9815C68.8562 91.1027 67.0718 93.9039 64.6419 96.0781L61.9364 98.4828Z" fill="#213346"/>
<path d="M44.0187 79.3455C43.529 79.3445 43.0596 79.1497 42.7132 78.8036C42.3668 78.4575 42.1715 77.9883 42.17 77.4986V70.4322C42.1715 69.9423 42.3667 69.4729 42.7131 69.1265C43.0595 68.7802 43.5289 68.5849 44.0187 68.5835H56.9484C57.4379 68.5854 57.9068 68.7809 58.2528 69.1272C58.5988 69.4735 58.7938 69.9426 58.7952 70.4322V77.4986C58.7938 77.988 58.5987 78.4569 58.2527 78.8029C57.9066 79.149 57.4377 79.344 56.9484 79.3455" fill="#F9CDB7"/>
<path d="M59.1077 71.2016V73.3893C58.9641 73.0594 58.7274 72.7784 58.4266 72.5809C58.1257 72.3834 57.7739 72.2778 57.414 72.2772H44.4789C43.9892 72.2782 43.5198 72.473 43.1734 72.8191C42.8269 73.1652 42.6316 73.6344 42.6302 74.1241V79.0028C42.53 78.7727 42.4779 78.5245 42.4771 78.2735V71.2016C42.4785 70.7122 42.6735 70.2433 43.0196 69.8973C43.3656 69.5512 43.8345 69.3562 44.3239 69.3547H57.2681C57.7562 69.3581 58.2233 69.554 58.5677 69.8998C58.9122 70.2456 59.1062 70.7135 59.1077 71.2016Z" fill="#E2A78D"/>
<path d="M50.4082 68.3701C51.7428 68.3701 53.0463 68.3701 54.3043 68.3883L56.1566 68.4102H56.6087H56.833H56.895H56.977L57.1393 68.4212C57.5671 68.4697 57.9771 68.6197 58.3352 68.8587C58.6758 69.0853 58.9598 69.3871 59.1652 69.7408C59.3707 70.0945 59.4921 70.4907 59.5203 70.8988V71.0465V71.1705V71.3728L59.5002 71.8013C59.5002 72.0656 59.4856 72.3281 59.4765 72.5852C59.4437 73.6135 59.4072 74.5724 59.3653 75.4457C59.3234 76.319 59.2778 77.112 59.2286 77.8067C59.2286 77.8942 59.2176 77.9799 59.2103 78.0637C59.2103 78.1057 59.2103 78.1476 59.2103 78.1877C59.2103 78.2278 59.2012 78.288 59.1957 78.3354C59.1732 78.529 59.126 78.7189 59.0554 78.9005C58.9306 79.2086 58.7373 79.4842 58.4902 79.7064C58.1671 80.0014 57.7497 80.172 57.3124 80.1877C57.2021 80.1917 57.0921 80.175 56.9879 80.1385C56.9168 80.1111 56.8822 80.0819 56.8822 80.0491C56.8822 80.0163 56.9168 79.9853 56.977 79.9507L57.2341 79.8267C57.5276 79.686 57.7819 79.4749 57.9742 79.2123C58.0973 79.0363 58.1835 78.8372 58.2277 78.6271C58.2494 78.5117 58.2573 78.3942 58.2514 78.277V78.1804C58.2514 78.1403 58.2514 78.0984 58.2422 78.0564C58.2422 77.9726 58.2295 77.8869 58.224 77.7994C58.1748 77.1048 58.1292 76.3135 58.0891 75.4384C58.049 74.5633 58.0089 73.6062 57.9761 72.5779C57.9761 72.3209 57.9597 72.0583 57.9524 71.794L57.9414 71.3911V71.1887V71.1376V71.1085V71.0501C57.9209 70.8951 57.8656 70.7467 57.7798 70.6161C57.6939 70.4854 57.5797 70.3757 57.4455 70.2953C57.3101 70.2148 57.1578 70.1667 57.0007 70.155H56.8621H56.6379H56.1858L54.3334 70.1768C53.0755 70.1896 51.7719 70.1969 50.4374 70.1969C49.1029 70.1969 47.7993 70.1969 46.5414 70.1768L44.6581 70.1604H44.2078H43.9835H43.845C43.6878 70.1722 43.5355 70.2203 43.4001 70.3008C43.266 70.3812 43.1517 70.4908 43.0659 70.6215C42.98 70.7522 42.9248 70.9006 42.9042 71.0556V71.1139V71.1431V71.1942V71.3965L42.8933 71.7994C42.8933 72.0638 42.8769 72.3263 42.8696 72.5834C42.8368 73.6116 42.7985 74.5706 42.7565 75.4439C42.7146 76.3172 42.6709 77.1102 42.6216 77.8048C42.6216 77.8923 42.6089 77.978 42.6034 78.0619C42.6034 78.1038 42.6034 78.1458 42.6034 78.1859V78.2825C42.5974 78.3997 42.6054 78.5172 42.6271 78.6325C42.6705 78.8429 42.7568 79.0422 42.8805 79.2178C43.072 79.4812 43.3265 79.6924 43.6207 79.8322L43.876 79.9561C43.9379 79.9908 43.9708 80.0236 43.9708 80.0546C43.9708 80.0856 43.9379 80.1166 43.8668 80.1439C43.7627 80.1805 43.6526 80.1972 43.5423 80.1931C43.1017 80.1768 42.6814 80.0035 42.3573 79.7045C42.1108 79.4822 41.9181 79.2066 41.7939 78.8987C41.7233 78.7171 41.6761 78.5271 41.6535 78.3335C41.6535 78.2861 41.6408 78.226 41.639 78.1859L41.628 78.0619C41.628 77.978 41.6171 77.8923 41.6098 77.8048C41.5624 77.1102 41.5168 76.319 41.4749 75.4439C41.433 74.5688 41.3965 73.6116 41.3637 72.5834C41.3637 72.3263 41.3473 72.0638 41.34 71.7994C41.34 71.6663 41.3309 71.5314 41.3272 71.3965V71.1942V71.072V70.9243C41.3723 70.2983 41.635 69.7078 42.07 69.2552C42.5049 68.8027 43.0845 68.5166 43.7082 68.4467L43.8705 68.4358H43.9525H44.0145H44.2388H44.6891L46.5432 68.4139C47.7702 68.3756 49.0737 68.3701 50.4082 68.3701Z" fill="#213346"/>
<path d="M25.1306 64.5726C25.0888 65.146 25.1188 65.7223 25.2199 66.2882C25.3314 66.8732 25.5151 67.4421 25.7669 67.9819C25.3564 67.5187 25.0055 67.0061 24.7222 66.4559C24.4383 65.8826 24.2264 65.2764 24.0914 64.651C23.9546 64.0095 23.8934 63.3542 23.9091 62.6984C23.9166 62.3643 23.9422 62.0308 23.9857 61.6994C24.0286 61.349 24.0999 61.0026 24.199 60.6638L26.0968 61.4952C25.9565 61.7081 25.8345 61.9325 25.7322 62.1661C25.622 62.4162 25.5246 62.6717 25.4405 62.9318C25.2743 63.465 25.1703 64.0156 25.1306 64.5726Z" fill="#213346"/>
<path d="M27.9603 66.1315C28.108 67.4806 28.7078 68.8297 29.5756 69.9984C28.3987 69.0421 27.4945 67.7926 26.954 66.3758C26.6803 65.6185 26.5379 64.8201 26.5328 64.0148C26.5258 63.1635 26.6888 62.3193 27.0123 61.5317L28.8354 62.5126C28.1426 63.446 27.8163 64.7951 27.9603 66.1315Z" fill="#213346"/>
<path d="M33.1232 67.1469C33.2717 68.4562 33.6967 69.719 34.3702 70.8515C33.3846 69.8729 32.6173 68.6967 32.1186 67.4003C31.5867 66.0387 31.35 64.5796 31.424 63.1196L33.4659 63.4697C33.0902 64.6568 32.9733 65.9108 33.1232 67.1469Z" fill="#213346"/>
<path d="M66.7303 66.4066C66.7992 66.9397 66.7801 67.4804 66.6738 68.0073C66.5827 68.4139 66.4441 68.6509 66.3092 68.6418C66.0485 68.6144 65.9446 67.6591 65.7951 66.5178C65.6456 65.3765 65.5471 64.4194 65.7951 64.33C65.9154 64.2899 66.1068 64.4887 66.291 64.8606C66.5211 65.3484 66.6696 65.8707 66.7303 66.4066Z" fill="#213346"/>
<path d="M70.8387 65.3273C70.8251 66.0862 70.6776 66.8367 70.4029 67.5443C70.1823 68.0912 69.949 68.372 69.8305 68.33C69.5807 68.2352 69.876 66.9208 69.907 65.3018C69.938 63.6829 69.7338 62.3556 69.9891 62.2754C70.1076 62.2408 70.3264 62.5398 70.5196 63.0904C70.7559 63.8116 70.8639 64.5688 70.8387 65.3273Z" fill="#213346"/>
<path d="M75.1622 64.6582C75.2414 65.2148 75.2719 65.7773 75.2533 66.3392C75.2385 66.7975 75.1849 67.2537 75.0929 67.7029C74.9306 68.4668 74.7064 68.9043 74.5879 68.8788C74.3199 68.8223 74.5715 66.9882 74.2397 64.7913C73.9079 62.5945 73.2005 60.8862 73.4448 60.7604C73.5542 60.7039 73.8842 61.0667 74.2488 61.7558C74.4593 62.162 74.6367 62.5845 74.7793 63.0192C74.9516 63.5542 75.0796 64.1023 75.1622 64.6582Z" fill="#213346"/>
<path d="M26.7291 83.3107C26.6579 82.7888 26.642 82.2608 26.6817 81.7355C26.7014 81.5073 26.7331 81.2804 26.7765 81.0555C26.8133 80.8596 26.8614 80.6661 26.9205 80.4757C27.1375 79.7775 27.4091 79.4037 27.5222 79.4438C27.6352 79.484 27.6079 79.9233 27.5678 80.5961C27.5678 80.7638 27.5459 80.9461 27.5441 81.143C27.5422 81.3399 27.5441 81.5477 27.5441 81.7647C27.5544 82.238 27.5916 82.7103 27.6553 83.1794C27.7263 83.6453 27.8212 84.1071 27.9397 84.5632C28.0017 84.7729 28.0545 84.9752 28.122 85.1594C28.1894 85.3435 28.2423 85.524 28.3043 85.679C28.5304 86.3116 28.6945 86.7182 28.5832 86.7965C28.472 86.8749 28.1202 86.5851 27.7154 85.9743C27.604 85.8106 27.503 85.6401 27.4128 85.4638C27.3076 85.2599 27.2133 85.0506 27.1302 84.8367C26.9434 84.3435 26.8089 83.832 26.7291 83.3107Z" fill="#213346"/>
<path d="M32.5756 85.8394C32.4603 84.9976 32.4566 84.1443 32.5647 83.3016C32.6504 82.6617 32.778 82.2733 32.9056 82.2752C33.0332 82.277 33.1389 82.6744 33.2228 83.3016C33.3067 83.9287 33.3687 84.7893 33.4981 85.7081C33.5656 86.1657 33.6476 86.5942 33.7351 86.9843C33.788 87.1666 33.8263 87.3599 33.881 87.5312C33.9041 87.6163 33.9278 87.6984 33.9521 87.7774L34.0268 88.0016C34.2091 88.5741 34.3714 88.9423 34.262 89.0244C34.1526 89.1064 33.8135 88.8567 33.4379 88.2951L33.2957 88.0709C33.2502 87.9925 33.2082 87.9068 33.1627 87.8175C33.0689 87.6289 32.9855 87.4354 32.9129 87.2377C32.7563 86.7834 32.6433 86.3152 32.5756 85.8394Z" fill="#213346"/>
<path d="M39.55 87.0554C38.7806 84.3207 38.6767 82.0145 38.9246 81.9835C39.1726 81.9525 39.6958 84.1439 40.4469 86.8057C41.1981 89.4674 41.8927 91.6115 41.6502 91.7154C41.4077 91.8193 40.3102 89.7883 39.55 87.0554Z" fill="#213346"/>
<path d="M60.131 89.2706C60.4756 88.1202 60.7181 87.039 60.9332 86.2587C61.1483 85.4784 61.3288 84.9935 61.4583 85.0135C61.5877 85.0336 61.6297 85.5441 61.5822 86.3645C61.5167 87.4415 61.329 88.5076 61.0225 89.5422C60.8466 90.119 60.6228 90.68 60.3535 91.2195C60.2316 91.4547 60.0977 91.6835 59.9524 91.905C59.8849 92.0089 59.8193 92.111 59.7518 92.204L59.5458 92.4647C58.9989 93.1228 58.5504 93.4018 58.4647 93.3197C58.379 93.2377 58.6361 92.7965 58.997 92.1019C59.0426 92.0162 59.0882 91.9196 59.1374 91.8302L59.2796 91.5294C59.3817 91.3252 59.4619 91.0937 59.575 90.8603C59.7646 90.3808 59.956 89.8503 60.131 89.2706Z" fill="#213346"/>
<path d="M65.5626 87.1958C65.8069 85.7956 65.9272 84.4793 66.1096 83.5313C66.2919 82.5833 66.4395 82.0053 66.5672 82.0163C66.6948 82.0272 66.7622 82.627 66.7641 83.5878C66.7769 84.8509 66.6823 86.1128 66.4815 87.3599C66.3606 88.0606 66.1726 88.748 65.9199 89.4127C65.7111 89.9599 65.4407 90.4816 65.1141 90.9679C64.5417 91.7956 64.0202 92.1456 63.9273 92.0617C63.8343 91.9779 64.1588 91.4783 64.5417 90.6397C64.7632 90.1487 64.9526 89.6439 65.1087 89.1283C65.2992 88.494 65.4508 87.8486 65.5626 87.1958Z" fill="#213346"/>
<path d="M71.0575 83.6936C71.3291 82.5596 71.5169 81.5058 71.6919 80.7346C71.8669 79.9634 72.0255 79.4931 72.155 79.5077C72.2844 79.5222 72.3519 80.0145 72.3373 80.8112C72.322 81.8552 72.193 82.8944 71.9526 83.9105C71.8163 84.4782 71.6333 85.0337 71.4057 85.5714C71.2908 85.8175 71.1887 86.0509 71.0648 86.2605C71.0046 86.3645 70.9499 86.4666 70.8824 86.5614L70.7001 86.8294C70.2279 87.5021 69.8123 87.812 69.7193 87.7409C69.6263 87.6698 69.8305 87.2177 70.124 86.5158C70.1605 86.4283 70.2006 86.3335 70.2407 86.2405C70.2808 86.1475 70.3154 86.0436 70.3537 85.9379C70.4394 85.7337 70.5087 85.5039 70.5944 85.2688C70.7658 84.7911 70.9189 84.2606 71.0575 83.6936Z" fill="#213346"/>
<path d="M72.9181 81.9818C73.2116 81.2617 73.4523 80.5616 73.6473 79.9162C73.7385 79.5917 73.8296 79.2854 73.9044 78.9919C73.9791 78.6984 74.0466 78.4267 74.1049 78.177C74.3346 77.1742 74.4568 76.5361 74.5935 76.5361C74.7303 76.5361 74.8251 77.1998 74.7558 78.2718C74.7376 78.5379 74.712 78.8315 74.661 79.1432C74.6099 79.455 74.5498 79.7868 74.4787 80.135C74.1314 81.6421 73.5343 83.0803 72.7121 84.3902C72.517 84.6874 72.3347 84.9718 72.1414 85.2215C71.9482 85.4713 71.7677 85.7029 71.5945 85.9034C70.8853 86.7111 70.3383 87.0976 70.2508 87.0137C70.1633 86.9298 70.5188 86.3829 71.0658 85.5114C71.2025 85.2927 71.352 85.0556 71.5015 84.7931C71.651 84.5306 71.8096 84.2462 71.9755 83.9581C72.2909 83.3638 72.6264 82.6983 72.9181 81.9818Z" fill="#213346"/>
<path d="M21.8314 67.9326C21.9682 67.2672 22.3291 66.8023 22.5734 66.8789C22.8177 66.9554 22.8688 67.5042 22.743 68.1204C22.6172 68.7366 22.3528 69.2143 22.0958 69.1942C21.8387 69.1742 21.6947 68.5962 21.8314 67.9326Z" fill="white"/>
<path d="M22.0606 75.1214C21.8185 74.2385 21.7031 73.3257 21.7178 72.4104C21.7415 71.7085 21.8618 71.28 21.9858 71.28C22.2538 71.28 22.427 72.9354 22.9612 74.8789C23.4954 76.8224 24.1699 78.3428 23.9402 78.4741C23.8326 78.5361 23.5099 78.2298 23.1344 77.6355C22.6559 76.8542 22.2941 76.0072 22.0606 75.1214Z" fill="white"/>
<path d="M38.087 67.7412H37.9976C37.0606 67.7084 36.324 67.1505 35.7333 66.7002L35.6969 66.6729C32.049 63.9151 27.7936 62.0715 23.2868 61.2964C23.0745 61.2573 22.8863 61.1362 22.7627 60.9592C22.6392 60.7822 22.5904 60.5637 22.6268 60.351C22.6633 60.1383 22.7821 59.9485 22.9575 59.8228C23.1329 59.6971 23.3508 59.6455 23.5639 59.6793C28.3308 60.499 32.832 62.4489 36.6905 65.3657L36.7269 65.393C37.1754 65.7339 37.6385 66.0858 38.0578 66.1022C38.4771 66.1186 38.9457 65.8087 39.4397 65.4823L39.5801 65.3912C42.3805 63.5681 46.014 62.5544 49.8134 62.5544C53.611 62.5544 57.2463 63.5608 60.0466 65.3912L60.187 65.4823C60.6811 65.8087 61.1442 66.1168 61.569 66.1022C61.9937 66.0876 62.4513 65.7376 62.8998 65.393L62.9363 65.3657C66.7948 62.4489 71.2959 60.499 76.0629 59.6793C76.276 59.6455 76.4939 59.6971 76.6693 59.8228C76.8447 59.9485 76.9635 60.1383 76.9999 60.351C77.0364 60.5637 76.9875 60.7822 76.864 60.9592C76.7405 61.1362 76.5522 61.2573 76.34 61.2964C71.8332 62.0715 67.5777 63.9151 63.9299 66.6729L63.8934 66.7002C63.3027 67.1487 62.5662 67.7084 61.6291 67.7412C60.692 67.774 59.9099 67.2635 59.2864 66.8533L59.1515 66.764C53.9154 63.3438 45.7132 63.3438 40.4771 66.764L40.3422 66.8533C39.7369 67.2435 38.9894 67.7412 38.087 67.7412Z" fill="#213346"/>
<path d="M49.9091 59.477C49.7399 59.477 49.5776 59.4097 49.4579 59.2901C49.3382 59.1704 49.271 59.0081 49.271 58.8389V50.3449C49.271 50.1757 49.3382 50.0133 49.4579 49.8937C49.5776 49.774 49.7399 49.7068 49.9091 49.7068C50.0783 49.7068 50.2406 49.774 50.3603 49.8937C50.48 50.0133 50.5472 50.1757 50.5472 50.3449V58.8389C50.5472 59.0081 50.48 59.1704 50.3603 59.2901C50.2406 59.4097 50.0783 59.477 49.9091 59.477Z" fill="#213346"/>
<path d="M52.435 36.9265C52.1287 38.2793 52.2381 40.0842 53.188 41.1763C54.2946 42.4525 56.0412 42.1899 57.5489 42.1279C59.3895 42.0453 61.2323 42.2332 63.0183 42.6858C64.4768 43.0504 65.7785 43.9529 67.2608 44.21C68.8852 44.4925 69.2662 43.6284 68.1833 42.4379C66.918 41.0414 65.0839 39.5555 63.3629 38.746C59.9633 37.1919 56.2193 36.5444 52.4952 36.8664" fill="#E2A78D"/>
<path d="M52.6073 34.9357C52.301 36.2867 52.4086 38.0916 53.3584 39.1836C54.465 40.4598 56.2116 40.1991 57.7193 40.1353C59.56 40.0531 61.4028 40.2417 63.1887 40.695C64.6473 41.0687 65.9508 41.9603 67.4312 42.2191C69.0556 42.5017 69.4366 41.6357 68.3555 40.4452C67.0884 39.0505 65.2562 37.5629 63.5333 36.7552C60.1348 35.1998 56.3911 34.5515 52.6674 34.8737" fill="#E99A4F"/>
<path d="M67.9961 42.9101C67.771 42.9083 67.5465 42.8869 67.3252 42.8463C66.4355 42.6932 65.6242 42.3377 64.8402 41.9949C64.2573 41.7193 63.6531 41.4913 63.0335 41.3131C61.3075 40.8726 59.5261 40.6883 57.7464 40.7661C57.5841 40.7661 57.4201 40.7807 57.256 40.7898C55.8358 40.8682 54.0691 40.9721 52.8805 39.5957C51.7191 38.2611 51.6735 36.1718 51.9871 34.7881C52.0179 34.6521 52.0922 34.5299 52.1986 34.4399C52.305 34.3213 52.4521 34.2471 52.6106 34.232C56.4493 33.8969 60.3091 34.5647 63.812 36.17C65.4674 36.9485 67.3926 38.4198 68.8347 40.0095C69.8283 41.1034 69.6551 41.8564 69.4619 42.2064C69.3033 42.4945 68.9186 42.9101 67.9961 42.9101ZM58.5504 39.479C60.17 39.4762 61.7834 39.6777 63.3525 40.0788C64.04 40.2736 64.7107 40.5236 65.358 40.8263C66.1055 41.1545 66.8165 41.4626 67.5458 41.592C67.8029 41.6578 68.0725 41.6578 68.3297 41.592C68.3151 41.4936 68.2203 41.2456 67.8867 40.8792C66.5521 39.4061 64.7874 38.0478 63.2669 37.335C60.1022 35.8882 56.6281 35.2492 53.1558 35.4754C52.9898 36.5966 53.1339 37.9567 53.8413 38.7698C54.6234 39.6686 55.8686 39.5993 57.1867 39.5264L57.6935 39.5009C57.9798 39.4863 58.266 39.479 58.5504 39.479Z" fill="#213346"/>
<path d="M47.662 35.417C47.9683 36.7697 47.8607 38.5746 46.9109 39.6667C45.8024 40.9429 44.0577 40.6803 42.5499 40.6165C40.7076 40.5337 38.8631 40.7211 37.0751 41.1726C35.6166 41.5372 34.3148 42.4397 32.8326 42.6967C31.21 42.9793 30.8272 42.1133 31.9101 40.9246C33.1863 39.5281 35.0095 38.0404 36.7323 37.2328C39.9337 35.7269 44.0084 34.9922 47.5982 35.3532" fill="#E2A78D"/>
<path d="M46.7947 33.4808C47.101 34.8335 46.9934 36.6384 46.0436 37.7305C44.9351 39.0067 43.1886 38.7442 41.6808 38.6803C39.8401 38.5983 37.9974 38.7869 36.2114 39.24C34.7529 39.6047 33.4512 40.5071 31.969 40.7642C30.3446 41.0468 29.9635 40.1808 31.0465 38.9921C32.3117 37.5956 34.1458 36.1079 35.8687 35.3003C39.0701 33.7943 43.143 33.0596 46.7346 33.4188" fill="#E99A4F"/>
<path d="M31.4056 41.4552C30.4831 41.4552 30.0985 41.0413 29.9471 40.7587C29.7557 40.4087 29.5825 39.6648 30.5743 38.571C32.0164 36.9812 33.9416 35.5081 35.5989 34.7296C39.0998 33.1239 42.9575 32.4543 46.7947 32.7862C46.9525 32.8021 47.0988 32.8761 47.2049 32.994C47.3122 33.0833 47.3866 33.2058 47.4164 33.3422C47.73 34.726 47.6844 36.8153 46.5249 38.1498C45.3326 39.5208 43.566 39.426 42.1494 39.3458L41.659 39.3203C39.8793 39.2426 38.0979 39.4268 36.3719 39.8672C35.7523 40.0457 35.1481 40.2737 34.5651 40.5491C33.7812 40.8918 32.9699 41.2473 32.0802 41.4023C31.8573 41.4395 31.6316 41.4572 31.4056 41.4552ZM31.072 40.1352C31.3294 40.1994 31.5986 40.1994 31.856 40.1352C32.5852 40.0076 33.3017 39.6977 34.0437 39.3713C34.6907 39.0674 35.3614 38.8168 36.0492 38.622C37.8946 38.1537 39.7988 37.959 41.7009 38.0441C41.8668 38.0441 42.0363 38.0605 42.2077 38.0696C43.5258 38.1425 44.771 38.21 45.555 37.3112C46.2605 36.4981 46.4046 35.138 46.2387 34.0168C42.7686 33.7937 39.2973 34.4358 36.1367 35.8855C34.6217 36.5965 32.855 37.9547 31.515 39.4278C31.1814 39.7888 31.0866 40.0368 31.072 40.1352Z" fill="#213346"/>
<path d="M76.3571 45.8837C75.2632 37.4827 69.9452 28.9413 65.7501 23.3971L64.4739 22.4364L75.4127 22.0608C77.5148 29.7362 78.0636 38.0934 76.3571 45.8837Z" fill="#CE7149"/>
<path d="M59.767 23.4628C60.2051 23.6385 60.6242 23.8584 61.0176 24.1192C61.3391 24.3294 61.6368 24.5739 61.9055 24.8484C62.3631 25.3279 62.5345 25.7235 62.4105 25.8657C62.2865 26.0079 61.8891 25.8913 61.3385 25.6561C61.0632 25.5376 60.7424 25.3972 60.3923 25.2404C60.0423 25.0836 59.6631 24.9214 59.251 24.7573C58.839 24.5932 58.4488 24.4528 58.0897 24.3197C57.7305 24.1866 57.3969 24.0754 57.1161 23.9733C56.5546 23.7637 56.1882 23.5832 56.2046 23.3863C56.221 23.1894 56.6093 23.0216 57.2693 22.9961C57.6538 22.9809 58.0389 23.0072 58.4179 23.0745C58.8794 23.1585 59.3314 23.2886 59.767 23.4628Z" fill="white"/>
<path d="M31.0947 25.6413C36.4164 24.7589 41.7363 26.2466 46.9559 27.2821C52.243 28.3268 57.3478 28.3596 62.6349 27.1472C69.6357 25.5411 78.693 22.0735 82.0877 14.1811C82.3077 13.6696 82.4971 13.1454 82.6547 12.6114C78.9319 15.2732 74.0641 14.9067 69.9456 13.1583C65.8272 11.4099 62.2046 8.46011 58.3687 6.01711C54.5329 3.57411 50.2266 1.59418 45.8566 2.09008C41.6105 2.57138 37.1493 5.3462 33.9351 8.47105C32.7201 9.62844 31.7179 10.9904 30.9743 12.4947C30.3308 13.8475 30.2086 15.8128 29.102 16.8155C28.5806 17.2877 27.9005 17.4463 27.2788 17.7417C24.4548 19.1036 23.4266 23.0288 22.9689 26.4927C22.0264 33.6029 22.3236 40.8955 23.3117 48.0057" fill="#E99A4F"/>
<path d="M77.0025 46.4597C76.9335 46.4596 76.8648 46.4504 76.7983 46.4323C76.6939 46.4056 76.5958 46.3585 76.5096 46.2938C76.4234 46.2291 76.3508 46.148 76.2959 46.0552C76.2411 45.9624 76.205 45.8597 76.1899 45.753C76.1747 45.6463 76.1807 45.5377 76.2076 45.4333C78.2932 37.3458 77.1975 30.2776 74.9132 22.1537C74.8808 22.0491 74.8698 21.9391 74.8806 21.8302C74.8915 21.7212 74.924 21.6156 74.9763 21.5194C75.0286 21.4233 75.0997 21.3385 75.1852 21.2703C75.2708 21.202 75.3691 21.1515 75.4745 21.1218C75.5799 21.0921 75.6901 21.0838 75.7987 21.0974C75.9074 21.111 76.0122 21.1461 76.107 21.2009C76.2018 21.2556 76.2847 21.3287 76.3508 21.4159C76.417 21.5032 76.4649 21.6028 76.492 21.7088C78.8493 30.0952 79.9723 37.4005 77.7973 45.8435C77.7517 46.0197 77.649 46.1758 77.5051 46.2873C77.3613 46.3988 77.1845 46.4594 77.0025 46.4597Z" fill="#213346"/>
<path d="M29.7259 28.1119C29.7259 28.4036 29.7259 28.6916 29.7095 28.9778L28.0213 33.9896L27.4524 35.6742C26.8818 36.7462 26.2674 37.8073 25.6986 38.8811C25.1298 39.9549 25.1462 40.9905 24.7414 42.0844C24.2271 43.4179 23.8341 44.795 23.5673 46.1992C23.2027 44.3122 22.4735 42.4308 22.251 40.5201C23.1444 39.7672 23.6986 38.6569 23.9775 37.5138C24.2802 36.2759 24.2857 34.9869 24.2911 33.7125C24.9903 34.5597 25.4582 35.5734 25.6494 36.6551C25.6585 36.615 25.6676 36.5712 25.6767 36.5293C26.1726 34.1373 26.5652 31.7271 26.8545 29.2987C26.9857 29.5448 27.106 29.7946 27.2191 30.0517C27.4329 30.6384 27.6041 31.2398 27.7314 31.8511C27.7314 31.7909 27.7478 31.7344 27.7533 31.6688C28.0121 29.7873 28.1835 27.8931 28.2674 25.9861C28.8556 26.619 29.3471 27.3353 29.7259 28.1119Z" fill="#CE7149"/>
<path d="M75.9081 21.6122C74.1531 22.7901 72.2722 23.7685 70.3002 24.5292C69.8973 24.6878 69.4907 24.8428 69.0842 24.9887C68.2109 25.3022 67.3321 25.5812 66.4588 25.8346C64.8928 26.2904 63.3467 26.655 61.8882 26.9467C56.6012 28.0078 51.4964 27.9786 46.2093 27.0652C43.4126 26.5803 40.5904 25.9823 37.7518 25.6505L30.9314 25.7945C30.9314 25.8674 30.9478 25.9422 30.9533 26.0151L30.7601 26.0406L30.4556 26.81L30.2514 27.3223C30.2842 27.0379 30.3061 26.7498 30.3134 26.4581C30.328 25.9631 30.3067 25.4678 30.2496 24.9759L36.7326 24.8392C35.9017 25.0225 35.0583 25.1444 34.2094 25.2038H34.4774C35.3572 25.1715 36.2314 25.0493 37.0863 24.8392C38.9095 24.3943 41.3342 23.3369 43.037 22.4891C42.8164 23.1309 42.3078 24.3542 41.6752 24.604C44.1728 24.7444 46.0051 24.1391 48.4499 23.6104C47.8641 24.4323 47.0647 25.0785 46.1382 25.4791L46.0434 25.5192C46.1455 25.5192 46.2476 25.5192 46.3515 25.5192C46.3825 25.5028 46.4117 25.4846 46.4408 25.4663C46.8535 25.2128 47.2449 24.9262 47.6113 24.6094L46.9331 25.7033C49.6513 26.0258 52.4072 25.7502 55.0077 24.8957L55.9904 24.573L57.0405 24.4271C56.7288 24.7462 55.8409 25.0306 55.4708 25.2785C54.92 25.6511 54.314 25.9347 53.675 26.119C53.9248 26.119 54.3113 26.5055 54.5592 26.4836C56.4061 26.356 58.0943 25.5921 59.9065 25.1819C60.5282 25.0415 61.2848 24.7571 61.9119 24.6094C62.4589 24.4764 64.1179 23.9312 64.6466 23.7307L64.4224 24.263L65.0805 24.2485L64.6959 24.1409L64.1489 24.6878C64.169 24.6878 63.9921 24.9686 64.0122 24.9613C67.0751 24.088 72.6229 22.367 75.6164 21.2822H75.8115C75.8407 21.3861 75.8753 21.4974 75.9081 21.6122Z" fill="#CE7149"/>
<path d="M23.2328 48.8845C23.1447 48.8848 23.0573 48.8706 22.9739 48.8426C22.7677 48.7735 22.5973 48.6256 22.4999 48.4311C22.4025 48.2367 22.3861 48.0117 22.4543 47.8052C23.0012 46.1881 29.8398 25.7671 29.9091 25.563C29.9782 25.3565 30.1265 25.1859 30.3214 25.0888C30.5163 24.9917 30.7418 24.976 30.9483 25.0452C31.1547 25.1143 31.3253 25.2627 31.4224 25.4575C31.5195 25.6524 31.5352 25.8779 31.466 26.0844C31.3968 26.2904 24.5491 46.7095 24.0112 48.3266C23.9562 48.4894 23.8515 48.6308 23.7118 48.7309C23.5722 48.831 23.4046 48.8847 23.2328 48.8845Z" fill="#213346"/>
<path d="M24.07 27.84C24.2162 27.4737 24.4587 27.1537 24.7719 26.9139C25.0308 26.7316 25.2751 26.6933 25.4319 26.8027C25.5887 26.912 25.6397 27.1454 25.6142 27.4262C25.5299 28.0856 25.2698 28.7103 24.8612 29.2347C24.6789 29.448 24.4765 29.5756 24.2851 29.5392C24.0937 29.5027 23.9551 29.3004 23.9041 28.9922C23.8543 28.6002 23.9116 28.2021 24.07 27.84Z" fill="white"/>
<path d="M27.6485 24.0937C28.1772 23.8475 28.7424 23.9314 28.901 24.276C29.0596 24.6205 28.7679 25.1091 28.2392 25.3571C27.7105 25.605 27.1453 25.5193 26.9867 25.1748C26.8281 24.8302 27.1198 24.3416 27.6485 24.0937Z" fill="white"/>
<path d="M30.0749 21.47C30.4578 20.6569 30.9865 20.0607 31.3511 20.1829C31.7158 20.305 31.7595 21.1637 31.3384 22.0625C30.9172 22.9613 30.2281 23.4791 29.9018 23.2749C29.5754 23.0707 29.6957 22.285 30.0749 21.47Z" fill="white"/>
<path d="M27.1525 14.1593C26.6445 13.5355 26.0637 12.9749 25.4223 12.4893C24.9228 12.1247 24.5618 11.966 24.4816 12.0572C24.3193 12.2523 25.3184 13.3334 26.4615 14.7317L26.9519 15.3261C26.566 15.1994 26.1596 15.1468 25.7541 15.1711C25.3895 15.2039 25.178 15.3115 25.1726 15.4318C25.1671 15.5522 25.3549 15.6761 25.663 15.7965C25.9711 15.9168 26.3685 16.0608 26.8116 16.2231C27.2546 16.3853 27.652 16.5439 27.9601 16.6442L28.1005 16.6861C28.4141 17.0289 28.6365 17.2185 28.7313 17.1638C28.8261 17.1091 28.7441 16.719 28.4743 16.1611C28.1131 15.4446 27.6695 14.7728 27.1525 14.1593Z" fill="#213346"/>
<path d="M48.8966 23.5192C48.7982 23.5703 48.6815 23.6359 48.5502 23.7125C48.4189 23.7891 48.2731 23.8766 48.1181 23.9732L47.8775 24.1245L47.6259 24.285L47.0917 24.6277L46.8128 24.81C46.7654 24.8392 46.7198 24.8684 46.6706 24.8957L46.5284 24.9832C46.3375 25.0975 46.1443 25.2087 45.9486 25.3169C45.7535 25.4208 45.5566 25.521 45.3615 25.614L45.212 25.6797C45.1646 25.7034 45.1154 25.7234 45.0644 25.7453L44.7727 25.8638C44.5776 25.9367 44.388 26.0096 44.202 26.0625C44.1091 26.0953 44.0197 26.1154 43.9304 26.1427C43.8411 26.1701 43.7481 26.1865 43.6697 26.2102L43.4236 26.2649L43.1957 26.3068C43.0516 26.3287 42.9222 26.3487 42.8128 26.3597C42.7034 26.3706 42.6159 26.3797 42.5557 26.387L42.4609 26.3998L42.5357 26.4563C42.6076 26.5095 42.6832 26.5576 42.7618 26.6003C42.8845 26.6697 43.0118 26.7307 43.1428 26.7827L43.3907 26.861C43.4782 26.8829 43.573 26.9048 43.6715 26.9249C43.7699 26.9449 43.8757 26.9577 43.9833 26.9668C44.0908 26.9759 44.2057 26.9832 44.3205 26.9832C44.565 26.9839 44.809 26.9632 45.0498 26.9212C45.1764 26.9017 45.3018 26.8749 45.4254 26.841L45.6077 26.7899L45.79 26.728C46.0411 26.6396 46.285 26.5317 46.5192 26.4053C46.7484 26.2788 46.9694 26.1382 47.181 25.9841L47.3342 25.8674C47.3834 25.8292 47.4308 25.7872 47.4782 25.7471C47.5748 25.6669 47.6605 25.5849 47.7535 25.4992C47.921 25.34 48.0793 25.1714 48.2275 24.9942C48.2986 24.9103 48.3642 24.8264 48.4281 24.7444L48.6013 24.5037C48.7088 24.3451 48.8018 24.1974 48.8784 24.0625C48.9549 23.9276 49.0188 23.8073 49.0607 23.6979C49.1026 23.5885 49.1445 23.5156 49.1682 23.4573L49.2029 23.3679L49.1172 23.408C49.0753 23.4263 48.995 23.4664 48.8966 23.5192Z" fill="#213346"/>
<path d="M56.5979 24.6442L56.2187 24.8137C56.0747 24.8812 55.9142 24.9577 55.7374 25.0361C55.6517 25.0781 55.5551 25.1236 55.4694 25.1656L55.1832 25.3023L54.5779 25.5958C54.4721 25.6432 54.3664 25.6961 54.2588 25.749C54.2041 25.7763 54.1513 25.8018 54.0947 25.8256L53.9307 25.9039C53.7119 26.0115 53.4858 26.11 53.2652 26.2193C53.0446 26.3287 52.8167 26.429 52.5943 26.5256L52.4284 26.6004C52.3737 26.6277 52.319 26.6514 52.2643 26.6751C52.1531 26.7225 52.0455 26.7699 51.9398 26.8228C51.7247 26.9121 51.5187 27.0142 51.3199 27.0981C51.2197 27.1419 51.123 27.1838 51.0301 27.2294C50.9371 27.2749 50.8477 27.3096 50.7566 27.3497C50.5743 27.4336 50.4175 27.5065 50.2735 27.5721L49.8942 27.7544C49.7885 27.8055 49.7119 27.8492 49.6481 27.8802L49.5606 27.9294L49.6572 27.9513C49.721 27.9641 49.814 27.9805 49.9307 27.9969C50.072 28.0185 50.2145 28.0325 50.3573 28.0388C50.5395 28.0479 50.7221 28.0479 50.9043 28.0388C51.0045 28.0388 51.1103 28.0297 51.2197 28.0206C51.329 28.0115 51.4384 27.9969 51.5551 27.9823C51.7848 27.955 52.0237 27.9057 52.2716 27.851C52.3938 27.8219 52.5177 27.7872 52.6362 27.7508C52.6982 27.7344 52.762 27.7161 52.8186 27.6961L53.0009 27.6305C53.2543 27.5484 53.5004 27.4481 53.7483 27.3333C53.9963 27.2184 54.2333 27.0945 54.4594 26.9559L54.6307 26.8556C54.6873 26.821 54.7401 26.7845 54.7948 26.7481C54.9024 26.6751 55.01 26.604 55.1121 26.5293C55.3126 26.3743 55.5059 26.2266 55.6754 26.068L55.9215 25.8365C55.9981 25.7599 56.0692 25.6797 56.1385 25.6068C56.2645 25.4722 56.3826 25.3303 56.4922 25.182C56.5801 25.0693 56.6616 24.9519 56.7365 24.8301C56.8003 24.7298 56.8459 24.6478 56.8768 24.5913L56.9242 24.502L56.8294 24.5366C56.7912 24.5621 56.7055 24.5968 56.5979 24.6442Z" fill="#213346"/>
<path d="M66.3537 22.3543C66.2479 22.44 66.1185 22.5366 65.9708 22.6533C65.8979 22.7098 65.8213 22.7718 65.7411 22.8356L65.484 23.0344C65.3965 23.1036 65.3017 23.1784 65.2124 23.2513L64.9189 23.4883C64.722 23.6488 64.5032 23.8037 64.2899 23.9751C64.1768 24.0553 64.0674 24.141 63.9544 24.2267C63.8997 24.2686 63.8432 24.3124 63.7849 24.3525L63.6117 24.4783C63.3838 24.6606 63.1413 24.8156 62.9079 24.9869C62.6746 25.1583 62.4303 25.3224 62.1896 25.4792L62.0073 25.5977C61.9508 25.6396 61.8906 25.6779 61.825 25.7162C61.7065 25.7928 61.5898 25.8675 61.475 25.9459C61.2416 26.0881 61.021 26.2431 60.8022 26.3725L60.4868 26.5731C60.3865 26.6387 60.2826 26.6934 60.1878 26.7554L59.9125 26.9377L59.6609 27.0908C59.5023 27.1893 59.3638 27.2731 59.2471 27.3497C59.1304 27.4263 59.0411 27.481 58.9791 27.532L58.8843 27.5977H58.9991C59.0739 27.5977 59.1814 27.5977 59.32 27.5885C59.486 27.5813 59.6515 27.5655 59.8159 27.5411L60.1204 27.4956C60.2261 27.4755 60.3355 27.4518 60.4504 27.4245C60.5652 27.3971 60.6874 27.3716 60.815 27.3369C60.9426 27.3023 61.0629 27.2622 61.1924 27.2221C61.4513 27.1419 61.7156 27.0398 61.9891 26.9176C62.124 26.8575 62.2589 26.7918 62.3956 26.7244C62.4649 26.6916 62.5342 26.6587 62.6017 26.6205L62.804 26.5074C63.0775 26.3597 63.34 26.1829 63.6044 26.0079C63.8687 25.8329 64.113 25.6341 64.3464 25.4281L64.5287 25.275C64.587 25.2258 64.6417 25.1711 64.6964 25.1182C64.8058 25.0106 64.9152 24.9067 65.0173 24.801C65.2179 24.5822 65.4093 24.3725 65.5734 24.1556L65.8104 23.8402C65.8851 23.7363 65.9489 23.6305 66.0146 23.5339C66.0802 23.4373 66.1385 23.3388 66.1969 23.2458L66.3427 22.976C66.422 22.8299 66.4933 22.6796 66.556 22.5257C66.6089 22.3981 66.6472 22.296 66.6727 22.2267L66.7092 22.1191L66.6144 22.1848C66.5469 22.2121 66.4594 22.2705 66.3537 22.3543Z" fill="#213346"/>
<path d="M27.9724 32.1045C27.9724 32.0444 27.9724 31.9842 27.9596 31.9222C27.9469 31.8019 27.9341 31.6852 27.9213 31.5685C27.9086 31.4518 27.8812 31.3406 27.8612 31.2294C27.8428 31.1218 27.8185 31.0153 27.7882 30.9104C27.7591 30.8064 27.7299 30.708 27.7026 30.6114C27.6752 30.5147 27.6333 30.4291 27.6005 30.3379C27.5676 30.2467 27.5312 30.1702 27.5002 30.0918C27.4692 30.0134 27.4236 29.9459 27.389 29.8785C27.3313 29.7629 27.2649 29.652 27.1903 29.5467C27.1283 29.4573 27.079 29.3899 27.0462 29.3443L26.9934 29.2732L27.0134 29.3589L27.0772 29.5959C27.1082 29.6962 27.1374 29.8201 27.1666 29.9605C27.183 30.0298 27.1994 30.1045 27.2176 30.1829C27.2358 30.2613 27.2431 30.3452 27.2577 30.4327C27.2723 30.5202 27.2942 30.615 27.3015 30.7007C27.3088 30.7864 27.3233 30.883 27.3343 30.9906C27.3452 31.0981 27.3525 31.1911 27.3598 31.295C27.3671 31.399 27.3799 31.5047 27.378 31.6141C27.3762 31.7235 27.378 31.8329 27.378 31.9441C27.378 32.0006 27.378 32.0571 27.378 32.1136V32.2832C27.378 32.3974 27.3744 32.5123 27.3671 32.6278C27.3671 32.7444 27.3562 32.8593 27.347 32.976C27.327 33.2075 27.3106 33.4409 27.2814 33.6688L27.2632 33.8401L27.2413 34.0115C27.2267 34.1227 27.214 34.2339 27.1994 34.3451C27.1647 34.5621 27.141 34.7772 27.1064 34.9778C27.0918 35.0799 27.0772 35.1783 27.0645 35.2731C27.0517 35.3679 27.0353 35.4554 27.0207 35.5502C26.9952 35.7326 26.9715 35.8912 26.9496 36.037C26.9277 36.1829 26.9131 36.3105 26.9004 36.4144C26.8876 36.5183 26.8767 36.5967 26.8712 36.6605C26.8657 36.7243 26.8712 36.748 26.8712 36.748L26.9131 36.6715L27.0243 36.4509C27.0718 36.3542 27.1246 36.2376 27.1848 36.1008C27.2449 35.9641 27.3069 35.8109 27.3671 35.6396L27.4655 35.3716C27.4947 35.2792 27.5257 35.1826 27.5585 35.0817C27.6242 34.883 27.677 34.6678 27.7408 34.4454C27.7682 34.3342 27.7919 34.2194 27.8156 34.1045L27.8521 33.9222L27.8794 33.7399C27.9213 33.5029 27.9469 33.2567 27.9669 33.0106C27.9778 32.8885 27.9778 32.7627 27.9833 32.646C27.9896 32.5245 27.9896 32.4028 27.9833 32.2814L27.9724 32.1045Z" fill="#213346"/>
<path d="M25.7518 36.2922L25.7099 36.1208C25.6953 36.0643 25.6789 36.0078 25.6607 35.9531C25.626 35.8419 25.595 35.7325 25.5531 35.6286C25.4798 35.4256 25.3921 35.2282 25.2906 35.0379C25.2432 34.9467 25.1958 34.8556 25.1447 34.7772C25.0937 34.6988 25.0426 34.6167 24.9916 34.5438C24.899 34.4109 24.7986 34.2836 24.6908 34.1628C24.5941 34.0552 24.5085 33.9677 24.4282 33.8984C24.348 33.8291 24.2879 33.7781 24.2459 33.7453L24.1785 33.696L24.2186 33.769C24.2441 33.8164 24.2842 33.8857 24.3316 33.975C24.379 34.0643 24.4355 34.1701 24.4939 34.294C24.5522 34.418 24.6178 34.5602 24.6762 34.7152C24.709 34.7917 24.74 34.872 24.771 34.9577C24.802 35.0433 24.833 35.129 24.8621 35.2184C24.9241 35.4007 24.9788 35.583 25.0299 35.7908C25.0572 35.8893 25.0773 35.9932 25.101 36.0953C25.1137 36.1482 25.1247 36.1992 25.1338 36.2521L25.163 36.4107C25.2012 36.6222 25.2304 36.8391 25.2541 37.0579C25.2778 37.2767 25.2888 37.4936 25.2924 37.7106V37.8728C25.2951 37.9257 25.2951 37.9786 25.2924 38.0315C25.2924 38.139 25.2924 38.2429 25.2924 38.3469C25.2924 38.4508 25.2833 38.5529 25.2742 38.6513C25.2651 38.7498 25.2578 38.85 25.245 38.9448C25.2322 39.0397 25.2249 39.1272 25.2122 39.222C25.1994 39.3168 25.1885 39.4043 25.1721 39.4827C25.1466 39.6486 25.1156 39.8017 25.0882 39.9385C25.0609 40.0752 25.0317 40.1937 25.0098 40.2921L24.9551 40.5219C24.9424 40.5766 24.9369 40.6039 24.9369 40.6039L24.9861 40.5364C25.0189 40.4927 25.0663 40.4271 25.1229 40.3414C25.1794 40.2557 25.2432 40.1463 25.3052 40.0187C25.3813 39.8761 25.4494 39.7294 25.5094 39.5793C25.5458 39.4973 25.5732 39.4097 25.606 39.3186C25.6388 39.2274 25.6661 39.1363 25.6935 39.0342C25.7208 38.9321 25.7464 38.8336 25.7682 38.7279C25.7901 38.6222 25.812 38.5146 25.8284 38.4034C25.8448 38.2922 25.8594 38.1791 25.8703 38.0643C25.8703 38.0059 25.8813 37.9476 25.8849 37.8911V37.7088C25.8922 37.4703 25.8849 37.2317 25.863 36.9941C25.8389 36.7583 25.8018 36.5239 25.7518 36.2922Z" fill="#213346"/>
<path d="M76.3678 26.0627C76.2657 26.0025 75.9394 26.3197 75.5675 26.9414C75.4655 27.1096 75.3724 27.2831 75.2885 27.461C75.1919 27.6433 75.1062 27.8603 75.0151 28.0827C74.8306 28.5683 74.6843 29.0675 74.5775 29.5758C74.4755 30.0855 74.4145 30.6025 74.3952 31.1218C74.3952 31.3607 74.3952 31.5867 74.3952 31.8001C74.3952 32.0134 74.4244 32.2084 74.4481 32.3871C74.5465 33.1054 74.7215 33.5247 74.8382 33.5102C75.0971 33.4755 75.0205 31.7691 75.4526 29.7563C75.8847 27.7436 76.5921 26.1957 76.3678 26.0627Z" fill="#213346"/>
<path d="M74.9333 15.3389C75.0062 15.2659 75.0718 15.1985 75.1302 15.1365C75.3635 14.8886 75.4729 14.7336 75.4346 14.688C75.3964 14.6424 75.1284 14.7664 74.6945 15.0144C74.7188 14.9803 74.7261 14.9548 74.7163 14.9378C74.658 14.8284 74.1183 15.0198 73.2578 15.2824C73.0427 15.348 72.8075 15.4209 72.5523 15.4847C72.297 15.5485 72.0254 15.6196 71.7392 15.6907C71.163 15.8184 70.5286 15.9369 69.854 16.0207C69.1795 16.1046 68.5341 16.1319 67.9434 16.1429C67.6499 16.1429 67.3691 16.1429 67.1066 16.1429C66.844 16.1429 66.5979 16.1228 66.3773 16.1119C65.4785 16.0572 64.9188 15.9988 64.8805 16.1119C64.8422 16.2249 65.3764 16.4765 66.2935 16.6898C66.543 16.7489 66.7956 16.7946 67.0501 16.8265C67.3235 16.8721 67.6189 16.8922 67.9306 16.9159C68.6064 16.9504 69.2838 16.9296 69.9561 16.8539C70.6024 16.773 71.2412 16.6413 71.8668 16.4601C71.1044 16.7676 70.3231 17.0258 69.5277 17.2331C68.7237 17.4327 67.9077 17.5801 67.0847 17.6743C66.7037 17.7071 66.3409 17.7491 66.0017 17.7563C65.8304 17.7563 65.6663 17.7782 65.5077 17.7782H65.0501C63.8869 17.7782 63.154 17.7071 63.1285 17.8329C63.1175 17.8894 63.2871 17.9733 63.6116 18.079L63.8814 18.1611C63.9817 18.1866 64.0911 18.2085 64.2078 18.234C64.4744 18.2927 64.744 18.3371 65.0154 18.3671L65.4894 18.42C65.6535 18.4346 65.8267 18.4364 66.0054 18.4455C66.37 18.4674 66.7438 18.4455 67.1467 18.4455C68.02 18.3916 68.8866 18.258 69.7355 18.0462C70.5815 17.8242 71.4053 17.5251 72.1968 17.1529C72.5614 16.9706 72.8987 16.8028 73.2013 16.606C73.3544 16.513 73.5039 16.4236 73.6425 16.3361L74.0327 16.0627C74.2556 15.9053 74.4704 15.7368 74.6762 15.5576C74.7728 15.4811 74.8585 15.41 74.9333 15.3389Z" fill="#213346"/>
<path d="M61.4303 11.7017C61.5835 11.6087 61.7348 11.5194 61.8715 11.4301L62.2617 11.1584C62.485 11.0015 62.6998 10.833 62.9053 10.6534C62.9964 10.575 63.0876 10.5039 63.1568 10.4328C63.2261 10.3617 63.2972 10.2924 63.3556 10.2304C63.5871 9.98249 63.6965 9.8257 63.66 9.78194C63.6236 9.73819 63.3519 9.86034 62.918 10.1083C62.9417 10.0736 62.949 10.0481 62.9399 10.0299C62.8816 9.92232 62.3437 10.1138 61.4814 10.3763C61.2663 10.4401 61.0311 10.513 60.7758 10.5787C60.5206 10.6443 60.2489 10.7136 59.9627 10.7847C59.3884 10.9123 58.7522 11.0308 58.0776 11.1128C57.403 11.1949 56.7576 11.224 56.1688 11.2368C55.8734 11.2368 55.5927 11.2368 55.3301 11.2368C55.0676 11.2368 54.8215 11.2167 54.6009 11.204C53.7039 11.1511 53.1424 11.0928 53.1041 11.204C53.0658 11.3152 53.6 11.5686 54.517 11.7819C54.7467 11.833 55.0001 11.884 55.2736 11.9187C55.5471 11.9533 55.8424 11.9843 56.1542 12.008C56.83 12.0427 57.5074 12.0214 58.1797 11.9442C58.8261 11.8642 59.465 11.7325 60.0903 11.5504C59.3306 11.8597 58.5517 12.1198 57.7585 12.3289C56.9515 12.5282 56.1324 12.675 55.3064 12.7682C54.9254 12.8011 54.5644 12.843 54.2235 12.8503C54.0521 12.8503 53.888 12.8722 53.7294 12.8722H53.2736C52.1087 12.8722 51.3758 12.8011 51.3502 12.925C51.3393 12.9815 51.5088 13.0672 51.8334 13.173L52.1032 13.255C52.2035 13.2805 52.3128 13.3024 52.4295 13.3279C52.6962 13.3865 52.9658 13.4309 53.2372 13.461L53.7112 13.5121C53.8753 13.5285 54.0485 13.5303 54.2271 13.5394C54.5918 13.5613 54.9564 13.5394 55.3684 13.5394C56.2416 13.4846 57.1081 13.351 57.9573 13.1402C58.8032 12.9181 59.6271 12.6191 60.4185 12.2468C60.7849 12.0609 61.1277 11.8931 61.4303 11.7017Z" fill="#213346"/>
<path d="M49.8722 7.05464C49.9396 7.01818 50.0053 6.97624 50.0745 6.93431C50.2076 6.84862 50.3553 6.76658 50.4975 6.66996C50.5723 6.6262 50.6434 6.5788 50.7163 6.5314C50.7546 6.5077 50.791 6.48217 50.8293 6.4603L50.9405 6.38737C51.0882 6.28892 51.2432 6.19594 51.3927 6.09202C51.5422 5.9881 51.6917 5.89148 51.843 5.79485L51.9524 5.7201C51.9888 5.69276 52.0253 5.66906 52.0618 5.64535C52.1365 5.59613 52.2094 5.54873 52.2787 5.49768C52.4227 5.40288 52.5576 5.30078 52.6907 5.21145L52.873 5.07289C52.935 5.02549 52.9952 4.98356 53.0554 4.94163L53.3762 4.69915C53.471 4.62075 53.5585 4.5533 53.626 4.4986C53.6935 4.44391 53.75 4.39104 53.7864 4.35822L53.8138 4.3327L53.8521 4.32176L54.1675 4.22878L54.2805 4.19232L54.1675 4.15768C54.0927 4.1358 53.9852 4.10481 53.8448 4.07564C53.7044 4.04647 53.5367 4.01183 53.3398 3.98448C53.1429 3.95713 52.9205 3.93708 52.6762 3.92432C52.554 3.92432 52.4264 3.92432 52.2933 3.92432C52.1602 3.92432 52.0253 3.92432 51.8867 3.93708C51.5924 3.95233 51.2991 3.98276 51.008 4.02824C50.8567 4.05194 50.7035 4.08111 50.5486 4.11392L50.3152 4.16497L50.0818 4.22331C49.7659 4.30561 49.4554 4.40729 49.152 4.52777C48.8435 4.6517 48.5438 4.79668 48.2551 4.96168C48.184 5.00179 48.1128 5.04372 48.0436 5.08748L47.8376 5.22056C47.7045 5.31354 47.5714 5.40288 47.4492 5.50497C47.2095 5.69417 46.9868 5.90403 46.7838 6.13213L46.6416 6.29439L46.514 6.46212C46.4332 6.56688 46.3589 6.67647 46.2915 6.79028C46.2241 6.89267 46.1632 6.99924 46.1092 7.10933C46.0837 7.16038 46.06 7.2096 46.0345 7.25883C46.0089 7.30805 45.9962 7.3591 45.978 7.4065C45.9142 7.56994 45.8636 7.7382 45.8266 7.90969C45.8035 8.01913 45.7877 8.12997 45.7792 8.2415C45.7792 8.31625 45.7792 8.35636 45.7792 8.35636L45.854 8.26702C45.905 8.20868 45.9652 8.11935 46.0564 8.01725C46.1475 7.91516 46.2514 7.78936 46.3845 7.65263L46.483 7.55235L46.5942 7.45026C46.6689 7.38098 46.7455 7.30805 46.833 7.2406C46.9205 7.17314 47.0026 7.09475 47.101 7.02547L47.2432 6.9179L47.3945 6.81216C47.5969 6.66813 47.8248 6.53322 48.0582 6.39649L48.4228 6.19776L48.6051 6.10296C48.6671 6.07015 48.7309 6.03915 48.7965 6.00998C49.0554 5.88419 49.3271 5.77115 49.5987 5.65994C49.8102 5.57608 50.0217 5.49586 50.2368 5.41929L50.1219 5.51591C50.0837 5.54873 50.049 5.58337 50.0126 5.61801C49.9415 5.68546 49.8722 5.75292 49.8065 5.8222C49.6771 5.95678 49.5553 6.0986 49.4419 6.24699C49.3909 6.31809 49.3398 6.38555 49.2942 6.45483C49.2487 6.52411 49.2067 6.59338 49.1684 6.66084C49.0999 6.7821 49.039 6.90754 48.9861 7.03641C48.939 7.13601 48.8994 7.239 48.8676 7.34452C48.8385 7.43203 48.8202 7.50313 48.8075 7.55053L48.7911 7.6271L48.8622 7.59611C48.9077 7.57605 48.9734 7.54506 49.0536 7.50495L49.3325 7.35545L49.6789 7.16038L49.8722 7.05464Z" fill="#213346"/>
<path d="M33.8892 15.8183C33.8734 15.7307 33.8533 15.6268 33.829 15.5065L33.7452 15.1182C33.7269 15.0489 33.7105 14.976 33.6923 14.9012C33.6741 14.8265 33.6558 14.7517 33.6358 14.6733C33.5938 14.5202 33.5592 14.3543 33.5081 14.1902C33.4899 14.1063 33.4662 14.0243 33.4407 13.9386C33.4279 13.8967 33.417 13.8547 33.4061 13.811L33.3696 13.6834C33.3185 13.512 33.2766 13.337 33.2219 13.1656C33.1672 12.9942 33.118 12.8192 33.0706 12.646L33.0323 12.5184C33.0159 12.4765 33.005 12.4345 32.9922 12.3926C32.9667 12.3087 32.943 12.2249 32.9138 12.1428C32.8682 11.9769 32.8099 11.8183 32.7625 11.6652L32.6877 11.4409C32.6604 11.368 32.6385 11.2969 32.6148 11.2276L32.4781 10.852L32.3596 10.553C32.3268 10.4692 32.2958 10.4036 32.2739 10.358L32.2575 10.3252V10.285C32.2575 10.1447 32.2575 10.0316 32.2575 9.95688C32.2575 9.88213 32.2575 9.83838 32.2575 9.83838L32.1918 9.935C32.1481 9.99881 32.0879 10.0936 32.0095 10.2176C31.9311 10.3416 31.8582 10.4947 31.7743 10.6752C31.6905 10.8557 31.6048 11.0617 31.5191 11.2914C31.4808 11.4063 31.4389 11.5266 31.3988 11.656C31.3587 11.7855 31.3259 11.9149 31.2894 12.0498C31.2219 12.3215 31.1618 12.6132 31.118 12.9158C31.0961 13.0665 31.0779 13.2215 31.0633 13.3807L31.0597 13.6141C31.0597 13.6943 31.056 13.7745 31.0487 13.8547C31.0315 14.184 31.0352 14.5141 31.0597 14.8429C31.0866 15.1741 31.1366 15.5031 31.2092 15.8274C31.2256 15.9076 31.2438 15.9878 31.2657 16.0662L31.3332 16.3032C31.3824 16.4582 31.4316 16.6113 31.4899 16.7572C31.6007 17.0422 31.7355 17.3173 31.8929 17.5794L32.0059 17.7617L32.128 17.9313C32.205 18.039 32.2877 18.1425 32.376 18.2412C32.4549 18.3334 32.5395 18.4204 32.6294 18.5019L32.7515 18.6168L32.8755 18.7152C33.0125 18.8243 33.1582 18.9219 33.3112 19.0069C33.4085 19.0623 33.5096 19.1104 33.6139 19.1509L33.7215 19.1947L33.6576 19.0963C33.6175 19.0306 33.5501 18.9468 33.4753 18.8283C33.4006 18.7098 33.3149 18.5748 33.231 18.4089L33.1636 18.2868L33.0998 18.15C33.056 18.0589 33.0086 17.9677 32.9685 17.8602C32.9284 17.7526 32.8792 17.6542 32.8427 17.5411C32.8227 17.4864 32.8026 17.4299 32.7807 17.3734L32.726 17.1911C32.6476 16.9541 32.5875 16.697 32.5237 16.4345C32.4981 16.2996 32.4708 16.1647 32.4434 16.0279L32.4161 15.831C32.4015 15.7611 32.3905 15.6906 32.3833 15.6195C32.3395 15.337 32.3122 15.0434 32.2848 14.7517C32.2666 14.5238 32.2538 14.2978 32.2447 14.0699L32.3031 14.2066C32.3231 14.2522 32.345 14.2978 32.3669 14.3415C32.4124 14.429 32.4544 14.5238 32.5018 14.5986C32.5936 14.7589 32.694 14.9141 32.8026 15.0635C32.8555 15.1328 32.9065 15.202 32.9594 15.2658C33.0123 15.3297 33.0651 15.3916 33.118 15.4482C33.2157 15.553 33.3198 15.6516 33.4298 15.7435C33.5111 15.8176 33.5976 15.8859 33.6886 15.9477C33.7634 16.0024 33.8254 16.0407 33.871 16.0662L33.9384 16.1045C33.9384 16.1045 33.9384 16.0771 33.9384 16.0279C33.9384 15.9787 33.9038 15.9058 33.8892 15.8183Z" fill="#213346"/>
<path d="M43.024 6.91592C43.0622 6.86852 43.0987 6.82112 43.1388 6.77736L43.2519 6.63698C43.4014 6.45467 43.56 6.26141 43.7076 6.06634C43.8553 5.87126 44.0103 5.68166 44.1634 5.4957L44.2728 5.35167C44.3074 5.30245 44.3457 5.25687 44.3822 5.20947C44.4569 5.11649 44.5299 5.02715 44.5973 4.9287C44.7432 4.74639 44.8744 4.56408 45.0075 4.38176C45.0732 4.29425 45.1352 4.19945 45.1898 4.1247C45.2445 4.04995 45.3102 3.95697 45.3722 3.87858L45.6821 3.43191C45.7733 3.29153 45.8516 3.16938 45.9191 3.06728C45.9866 2.96519 46.034 2.88497 46.0668 2.81934L46.0905 2.77558L46.1361 2.74459L46.5007 2.493L46.6301 2.39819H46.4715C46.3658 2.39819 46.2144 2.40913 46.023 2.42919C45.8316 2.44924 45.5964 2.47659 45.332 2.52399C45.0677 2.57139 44.7723 2.63885 44.4533 2.72453C44.2947 2.77194 44.1288 2.81934 43.9592 2.87585C43.7897 2.93237 43.6165 2.99618 43.4396 3.05817C43.086 3.19673 42.7104 3.35716 42.3458 3.54494C42.1634 3.63975 41.9811 3.74002 41.7988 3.84758L41.5199 4.01167L41.2446 4.18486C40.8714 4.4295 40.5123 4.69487 40.1689 4.97975C39.8241 5.26903 39.5 5.58216 39.199 5.91684C39.1225 5.99706 39.0495 6.08092 38.9784 6.16661L38.7706 6.42367C38.6375 6.60599 38.5062 6.77372 38.3896 6.95421C38.1611 7.30117 37.9628 7.66715 37.797 8.04809C37.7594 8.13924 37.7211 8.22858 37.6822 8.31609C37.6433 8.4036 37.6123 8.49293 37.5892 8.58409C37.53 8.75306 37.4807 8.92534 37.4415 9.10003C37.4016 9.25974 37.3712 9.42168 37.3504 9.58499C37.3504 9.66156 37.3303 9.73631 37.3194 9.80923C37.3084 9.88216 37.3194 9.95326 37.3084 10.0225C37.2942 10.2596 37.3003 10.4975 37.3267 10.7336C37.3424 10.8834 37.368 11.032 37.4032 11.1784L37.4397 11.3334L37.498 11.1857C37.54 11.0891 37.5801 10.9487 37.6548 10.7791C37.7296 10.6096 37.8098 10.4036 37.9265 10.1812L38.0103 10.0098L38.1106 9.82746C38.1775 9.70237 38.2505 9.58068 38.3294 9.46284C38.4096 9.33704 38.4862 9.20395 38.5828 9.07633L38.7214 8.87579L38.8727 8.67707C39.0714 8.40542 39.3084 8.13013 39.5509 7.86213L39.9356 7.45557L40.1398 7.26231C40.2054 7.19304 40.2747 7.12558 40.3458 7.05995C40.6265 6.79195 40.9274 6.53306 41.23 6.27418C41.467 6.07728 41.7058 5.88585 41.9593 5.69624L41.8517 5.86944C41.817 5.92596 41.7861 5.98612 41.7551 6.05175C41.6931 6.17026 41.6311 6.28512 41.5727 6.40362C41.4682 6.62948 41.3757 6.86074 41.2956 7.09641C41.2592 7.21127 41.2227 7.32066 41.1917 7.42822C41.1607 7.53578 41.1388 7.64335 41.117 7.74545C41.0764 7.93197 41.0465 8.12067 41.0276 8.31062C41.0104 8.45825 41.0031 8.60686 41.0058 8.75546C41.0058 8.87943 41.0058 8.97971 41.0058 9.04716L41.0167 9.15108L41.086 9.08545C41.137 9.03987 41.2081 8.97241 41.2938 8.88673L41.591 8.57862L41.9556 8.18117C42.0194 8.10825 42.085 8.03168 42.1543 7.95511C42.2236 7.87853 42.2911 7.79649 42.3622 7.71445C42.4989 7.54672 42.6539 7.379 42.7961 7.19668C42.8781 7.10006 42.951 7.0089 43.024 6.91592Z" fill="#213346"/>
<path d="M48.6205 77.2525C47.4457 77.2523 46.273 77.1541 45.1146 76.959C45.0295 76.9469 44.9477 76.9177 44.8742 76.8733C44.8006 76.8288 44.7368 76.7699 44.6866 76.7002C44.6364 76.6305 44.6008 76.5513 44.5819 76.4675C44.563 76.3836 44.5612 76.2968 44.5767 76.2123C44.5922 76.1278 44.6246 76.0472 44.672 75.9755C44.7193 75.9038 44.7807 75.8424 44.8524 75.795C44.9241 75.7476 45.0046 75.7152 45.0891 75.6996C45.1736 75.6841 45.2604 75.6858 45.3443 75.7047C45.4008 75.7047 50.9322 76.6983 53.5156 74.8533C53.8443 74.6308 54.1222 74.3414 54.3312 74.0039C54.5401 73.6664 54.6753 73.2886 54.728 72.8952C54.7362 72.8092 54.7618 72.7258 54.8032 72.65C54.8446 72.5742 54.901 72.5076 54.9689 72.4542C55.0368 72.4008 55.1149 72.3618 55.1984 72.3395C55.2818 72.3172 55.3689 72.3121 55.4544 72.3244C55.5399 72.3368 55.622 72.3664 55.6957 72.4114C55.7694 72.4564 55.8333 72.5159 55.8833 72.5864C55.9333 72.6568 55.9686 72.7366 55.9868 72.821C56.0051 72.9055 56.006 72.9927 55.9896 73.0775C55.9115 73.6408 55.717 74.1816 55.4185 74.6656C55.12 75.1497 54.724 75.5662 54.2558 75.8888C52.7371 76.9772 50.5001 77.2525 48.6205 77.2525Z" fill="#213346"/>
<path opacity="0.5" d="M61.797 49.9621C62.3286 49.9621 62.7596 49.5311 62.7596 48.9995C62.7596 48.4678 62.3286 48.0369 61.797 48.0369C61.2653 48.0369 60.8344 48.4678 60.8344 48.9995C60.8344 49.5311 61.2653 49.9621 61.797 49.9621Z" fill="white"/>
<path d="M59.0992 53.8053C61.406 53.8053 63.276 51.9352 63.276 49.6285C63.276 47.3217 61.406 45.4517 59.0992 45.4517C56.7924 45.4517 54.9224 47.3217 54.9224 49.6285C54.9224 51.9352 56.7924 53.8053 59.0992 53.8053Z" fill="#213346"/>
<path d="M60.9622 48.839C62.241 48.839 63.2776 47.8024 63.2776 46.5236C63.2776 45.2449 62.241 44.2083 60.9622 44.2083C59.6835 44.2083 58.6469 45.2449 58.6469 46.5236C58.6469 47.8024 59.6835 48.839 60.9622 48.839Z" fill="#F9CDB7"/>
<path d="M69.0882 32.1919C69.3234 32.624 69.3325 33.0761 69.1065 33.1982C68.8804 33.3204 68.5067 33.0706 68.2715 32.6367C68.0363 32.2028 68.0272 31.7525 68.2532 31.6303C68.4793 31.5082 68.8531 31.758 69.0882 32.1919Z" fill="white"/>
<path d="M70.8489 36.046C71.2026 36.706 71.3065 37.3404 71.0805 37.4626C70.8544 37.5847 70.3822 37.1472 70.0285 36.4854C69.6748 35.8236 69.5691 35.1909 69.797 35.0688C70.0249 34.9466 70.4934 35.3842 70.8489 36.046Z" fill="white"/>
<path d="M68.8836 27.7799C66.7852 28.5755 64.6335 29.2225 62.4443 29.716C57.1572 30.9284 52.0524 30.8956 46.7653 29.8509C42.1765 28.9394 37.5093 27.6851 32.8311 27.9968C33.1726 27.2311 33.547 26.4854 33.9542 25.7598L37.3106 25.6887C39.2504 25.9111 41.1774 26.2976 43.1045 26.7006C43.1701 26.7297 43.2412 26.7589 43.3196 26.7899L43.5676 26.8683C43.6551 26.8902 43.7499 26.912 43.8483 26.9321C43.9468 26.9522 44.0525 26.9649 44.1601 26.974C44.2676 26.9831 44.3825 26.9904 44.4974 26.9904H44.5083C45.8629 27.2712 47.2175 27.5374 48.5775 27.7416C48.9841 27.8017 49.3961 27.8564 49.8173 27.902L49.7334 27.9494L49.83 27.9713C49.8938 27.984 49.9868 28.0005 50.1035 28.0169C50.2448 28.0385 50.3872 28.0525 50.5301 28.0588C50.7123 28.0678 50.8948 28.0678 51.077 28.0588C51.1737 28.0588 51.2776 28.0497 51.3833 28.0406C56.4717 28.3906 62.3404 27.7762 67.642 25.964C68.0687 26.5492 68.4734 27.1545 68.8836 27.7799Z" fill="#E2A78D"/>
<path d="M23.1337 48.9174C22.9357 48.9178 22.7443 48.8463 22.5951 48.7162C22.4458 48.5861 22.349 48.4062 22.3224 48.21C21.1757 39.9603 21.028 32.8519 21.8721 26.4746C22.5449 21.388 24.1036 18.3233 26.6396 17.1073C26.8475 17.007 27.0553 16.925 27.2558 16.843C27.6182 16.7246 27.9575 16.5445 28.2586 16.3106C28.8894 15.7381 29.1701 14.7755 29.4782 13.7582C29.6597 13.0795 29.9039 12.4191 30.2075 11.7856C32.6997 6.92511 37.9522 2.91057 43.2739 1.79299C50.6229 0.236032 56.364 4.08467 61.9191 7.80933C64.5134 9.54678 67.1952 11.3444 69.9701 12.5185C74.4659 14.4218 78.8068 14.2541 81.8806 12.0554L83.8168 10.6698L83.144 12.9542C82.9781 13.5181 82.7785 14.0715 82.546 14.6114C80.8906 18.4382 76.9855 23.6706 67.7659 26.7699C61.7878 28.7754 54.57 29.4408 48.4607 28.5274C46.7743 28.2758 45.077 27.9221 43.4362 27.5794C39.1664 26.6897 35.1318 25.8492 30.9367 26.5457C30.8304 26.5633 30.7217 26.5598 30.6168 26.5353C30.5118 26.5109 30.4127 26.4661 30.3251 26.4033C30.2375 26.3406 30.1631 26.2613 30.1062 26.1698C30.0492 26.0783 30.0109 25.9765 29.9933 25.8702C29.9757 25.7639 29.9792 25.6552 30.0036 25.5502C30.028 25.4453 30.0729 25.3462 30.1356 25.2586C30.1983 25.171 30.2777 25.0966 30.3692 25.0396C30.4606 24.9827 30.5624 24.9443 30.6687 24.9267C35.1646 24.1811 39.5401 25.0926 43.7716 25.9732C45.3887 26.3105 47.0624 26.6605 48.7032 26.9048C54.5682 27.7818 61.4979 27.151 67.2426 25.2148C71.8679 23.6578 77.8989 20.5476 80.7721 14.5258C77.4905 15.9186 73.4486 15.7582 69.3265 14.0135C66.4095 12.7774 63.6602 10.936 61.0021 9.1548C55.4889 5.46478 50.2802 1.9753 43.6094 3.38823C38.8236 4.40189 33.9085 8.1612 31.6587 12.5276C31.4085 13.0712 31.2078 13.6362 31.0589 14.2158C30.7216 15.3535 30.3388 16.6406 29.367 17.5212C28.9246 17.8895 28.4186 18.1737 27.8739 18.3598C27.6916 18.4327 27.5184 18.5038 27.3579 18.5804C25.3616 19.543 24.1 22.1957 23.5056 26.6897C22.6725 32.9175 22.822 39.8837 23.9487 47.9857C23.9783 48.2011 23.9212 48.4195 23.7899 48.5928C23.6586 48.7661 23.4639 48.8802 23.2486 48.9101C23.2105 48.9152 23.1721 48.9177 23.1337 48.9174Z" fill="#213346"/>
<path d="M76.93 48.0896C76.7133 48.0901 76.5051 48.0046 76.3513 47.8518C76.1975 47.699 76.1106 47.4915 76.1096 47.2747C76.0549 39.8144 67.0687 26.5639 66.9775 26.4308C66.9167 26.3417 66.8741 26.2415 66.852 26.136C66.8299 26.0304 66.8288 25.9216 66.8487 25.8156C66.8687 25.7096 66.9094 25.6086 66.9684 25.5183C67.0274 25.4281 67.1036 25.3503 67.1927 25.2895C67.2817 25.2287 67.3819 25.186 67.4875 25.1639C67.593 25.1418 67.7019 25.1407 67.8079 25.1607C67.9139 25.1807 68.0149 25.2213 68.1051 25.2803C68.1954 25.3394 68.2732 25.4156 68.334 25.5046C68.715 26.0643 77.6921 39.3076 77.7505 47.2637C77.7514 47.4812 77.6662 47.6902 77.5135 47.8449C77.3608 47.9997 77.1529 48.0877 76.9355 48.0896H76.93Z" fill="#213346"/>
<path d="M73.9993 45.0413C74.1123 45.8876 74.1732 46.74 74.1816 47.5937C74.1816 47.9857 74.1816 48.3594 74.1542 48.7077C74.1269 49.0559 74.1068 49.3804 74.0722 49.6757C73.9336 50.8553 73.7076 51.5609 73.5909 51.5445C73.3174 51.5098 73.5654 48.6402 73.0768 45.1635C72.6192 41.6886 71.6092 38.9904 71.8644 38.8846C71.9756 38.8372 72.3785 39.4571 72.8288 40.5564C72.9419 40.8317 73.0585 41.1344 73.1679 41.468C73.2773 41.8016 73.3849 42.1571 73.4924 42.5345C73.7127 43.3589 73.8819 44.1961 73.9993 45.0413Z" fill="white"/>
<path d="M40.8676 53.8053C43.1744 53.8053 45.0444 51.9352 45.0444 49.6285C45.0444 47.3217 43.1744 45.4517 40.8676 45.4517C38.5608 45.4517 36.6908 47.3217 36.6908 49.6285C36.6908 51.9352 38.5608 53.8053 40.8676 53.8053Z" fill="#213346"/>
<path d="M42.7315 48.839C44.0102 48.839 45.0468 47.8024 45.0468 46.5236C45.0468 45.2449 44.0102 44.2083 42.7315 44.2083C41.4527 44.2083 40.4161 45.2449 40.4161 46.5236C40.4161 47.8024 41.4527 48.839 42.7315 48.839Z" fill="#F9CDB7"/>
<path d="M39.1899 52.1498C39.7215 52.1498 40.1525 51.7189 40.1525 51.1872C40.1525 50.6556 39.7215 50.2246 39.1899 50.2246C38.6583 50.2246 38.2273 50.6556 38.2273 51.1872C38.2273 51.7189 38.6583 52.1498 39.1899 52.1498Z" fill="white"/>
<path d="M57.969 52.1498C58.5007 52.1498 58.9316 51.7189 58.9316 51.1872C58.9316 50.6556 58.5007 50.2246 57.969 50.2246C57.4374 50.2246 57.0064 50.6556 57.0064 51.1872C57.0064 51.7189 57.4374 52.1498 57.969 52.1498Z" fill="white"/>
<g filter="url(#filter0_b)">
<circle cx="50" cy="53" r="25" fill="#F9CDB7" fill-opacity="0.1"/>
</g>
<path d="M57 51.2679C58.3333 52.0377 58.3333 53.9623 57 54.7321L48 59.9282C46.6667 60.698 45 59.7358 45 58.1962V47.8038C45 46.2642 46.6667 45.302 48 46.0718L57 51.2679Z" fill="#181B26"/>
</g>
<g clip-path="url(#clip1)">
<path d="M268.571 63.7182C267.037 63.7182 265.792 62.7275 265.792 61.5069V39.3937C265.792 38.1731 267.037 37.1824 268.571 37.1824C270.105 37.1824 271.35 38.1731 271.35 39.3937V61.5069C271.35 62.7275 270.105 63.7182 268.571 63.7182Z" fill="white"/>
<path d="M285.244 81.4087C283.71 81.4087 282.465 80.418 282.465 79.1974V21.7036C282.465 20.4829 283.71 19.4922 285.244 19.4922C286.778 19.4922 288.022 20.4829 288.022 21.7036V79.1974C288.022 80.418 286.778 81.4087 285.244 81.4087Z" fill="white"/>
<path d="M301.916 99.0991C300.382 99.0991 299.137 98.1083 299.137 96.8877V4.01292C299.137 2.79249 300.382 1.80176 301.916 1.80176C303.45 1.80176 304.695 2.79249 304.695 4.01313V96.8879C304.695 98.1085 303.45 99.0991 301.916 99.0991Z" fill="white"/>
<path d="M318.588 94.6766C317.055 94.6766 315.81 93.6859 315.81 92.4652V8.43574C315.81 7.2151 317.055 6.22437 318.588 6.22437C320.122 6.22437 321.367 7.2151 321.367 8.43574V92.4652C321.367 93.6859 320.122 94.6766 318.588 94.6766Z" fill="white"/>
<path d="M335.261 76.986C333.727 76.986 332.482 75.9953 332.482 74.7747V26.1259C332.482 24.9053 333.727 23.9146 335.261 23.9146C336.795 23.9146 338.04 24.9053 338.04 26.1259V74.7747C338.039 75.9953 336.795 76.986 335.261 76.986Z" fill="white"/>
<path d="M351.933 94.6766C350.399 94.6766 349.154 93.6859 349.154 92.4652V8.43574C349.154 7.2151 350.399 6.22437 351.933 6.22437C353.467 6.22437 354.712 7.2151 354.712 8.43574V92.4652C354.712 93.6859 353.467 94.6766 351.933 94.6766Z" fill="white"/>
<path d="M368.606 76.986C367.072 76.986 365.827 75.9953 365.827 74.7747V26.1259C365.827 24.9053 367.072 23.9146 368.606 23.9146C370.139 23.9146 371.384 24.9053 371.384 26.1259V74.7747C371.384 75.9953 370.139 76.986 368.606 76.986Z" fill="white"/>
<path d="M385.278 63.7182C383.744 63.7182 382.499 62.7275 382.499 61.5069V39.3937C382.499 38.1731 383.744 37.1824 385.278 37.1824C386.812 37.1824 388.057 38.1731 388.057 39.3937V61.5069C388.057 62.7275 386.812 63.7182 385.278 63.7182Z" fill="white"/>
<path d="M268.571 63.7182C267.037 63.7182 265.792 62.7275 265.792 61.5069V39.3937C265.792 38.1731 267.037 37.1824 268.571 37.1824C270.105 37.1824 271.35 38.1731 271.35 39.3937V61.5069C271.35 62.7275 270.105 63.7182 268.571 63.7182Z" fill="url(#paint0_linear)"/>
<path d="M285.244 81.4087C283.71 81.4087 282.465 80.418 282.465 79.1974V21.7036C282.465 20.4829 283.71 19.4922 285.244 19.4922C286.778 19.4922 288.022 20.4829 288.022 21.7036V79.1974C288.022 80.418 286.778 81.4087 285.244 81.4087Z" fill="url(#paint1_linear)"/>
<path d="M301.916 99.0991C300.382 99.0991 299.137 98.1083 299.137 96.8877V4.01292C299.137 2.79249 300.382 1.80176 301.916 1.80176C303.45 1.80176 304.695 2.79249 304.695 4.01313V96.8879C304.695 98.1085 303.45 99.0991 301.916 99.0991Z" fill="url(#paint2_linear)"/>
<path d="M318.588 94.6766C317.055 94.6766 315.81 93.6859 315.81 92.4652V8.43574C315.81 7.2151 317.055 6.22437 318.588 6.22437C320.122 6.22437 321.367 7.2151 321.367 8.43574V92.4652C321.367 93.6859 320.122 94.6766 318.588 94.6766Z" fill="url(#paint3_linear)"/>
<path d="M335.261 76.986C333.727 76.986 332.482 75.9953 332.482 74.7747V26.1259C332.482 24.9053 333.727 23.9146 335.261 23.9146C336.795 23.9146 338.04 24.9053 338.04 26.1259V74.7747C338.039 75.9953 336.795 76.986 335.261 76.986Z" fill="url(#paint4_linear)"/>
<path d="M351.933 94.6766C350.399 94.6766 349.154 93.6859 349.154 92.4652V8.43574C349.154 7.2151 350.399 6.22437 351.933 6.22437C353.467 6.22437 354.712 7.2151 354.712 8.43574V92.4652C354.712 93.6859 353.467 94.6766 351.933 94.6766Z" fill="url(#paint5_linear)"/>
<path d="M368.606 76.986C367.072 76.986 365.827 75.9953 365.827 74.7747V26.1259C365.827 24.9053 367.072 23.9146 368.606 23.9146C370.139 23.9146 371.384 24.9053 371.384 26.1259V74.7747C371.384 75.9953 370.139 76.986 368.606 76.986Z" fill="url(#paint6_linear)"/>
<path d="M385.278 63.7182C383.744 63.7182 382.499 62.7275 382.499 61.5069V39.3937C382.499 38.1731 383.744 37.1824 385.278 37.1824C386.812 37.1824 388.057 38.1731 388.057 39.3937V61.5069C388.057 62.7275 386.812 63.7182 385.278 63.7182Z" fill="url(#paint7_linear)"/>
</g>
<g clip-path="url(#clip2)">
<path d="M396.187 79.607C394.653 79.607 393.408 78.6163 393.408 77.3956V19.9018C393.408 18.6812 394.653 17.6904 396.187 17.6904C397.721 17.6904 398.966 18.6812 398.966 19.9018V77.3956C398.966 78.6163 397.721 79.607 396.187 79.607Z" fill="white"/>
<path d="M412.86 97.2973C411.326 97.2973 410.081 96.3066 410.081 95.0859V2.21117C410.081 0.990733 411.326 0 412.86 0C414.393 0 415.638 0.990733 415.638 2.21137V95.0861C415.638 96.3068 414.393 97.2973 412.86 97.2973Z" fill="white"/>
<path d="M429.532 92.8748C427.998 92.8748 426.753 91.8841 426.753 90.6635V6.63398C426.753 5.41334 427.998 4.42261 429.532 4.42261C431.066 4.42261 432.31 5.41334 432.31 6.63398V90.6635C432.31 91.8841 431.066 92.8748 429.532 92.8748Z" fill="white"/>
<path d="M446.204 75.1843C444.67 75.1843 443.426 74.1936 443.426 72.9729V24.3242C443.426 23.1035 444.67 22.1128 446.204 22.1128C447.738 22.1128 448.983 23.1035 448.983 24.3242V72.9729C448.983 74.1936 447.738 75.1843 446.204 75.1843Z" fill="white"/>
<path d="M462.877 92.8748C461.343 92.8748 460.098 91.8841 460.098 90.6635V6.63398C460.098 5.41334 461.343 4.42261 462.877 4.42261C464.411 4.42261 465.656 5.41334 465.656 6.63398V90.6635C465.655 91.8841 464.411 92.8748 462.877 92.8748Z" fill="white"/>
<path d="M479.549 75.1843C478.015 75.1843 476.77 74.1936 476.77 72.9729V24.3242C476.77 23.1035 478.015 22.1128 479.549 22.1128C481.083 22.1128 482.328 23.1035 482.328 24.3242V72.9729C482.328 74.1936 481.083 75.1843 479.549 75.1843Z" fill="white"/>
<path d="M496.221 61.9165C494.688 61.9165 493.443 60.9257 493.443 59.7051V37.592C493.443 36.3713 494.688 35.3806 496.221 35.3806C497.755 35.3806 499 36.3713 499 37.592V59.7051C499 60.9257 497.755 61.9165 496.221 61.9165Z" fill="white"/>
<path d="M396.187 79.607C394.653 79.607 393.408 78.6163 393.408 77.3956V19.9018C393.408 18.6812 394.653 17.6904 396.187 17.6904C397.721 17.6904 398.966 18.6812 398.966 19.9018V77.3956C398.966 78.6163 397.721 79.607 396.187 79.607Z" fill="url(#paint8_linear)"/>
<path d="M412.859 97.2973C411.326 97.2973 410.081 96.3066 410.081 95.0859V2.21117C410.081 0.990733 411.326 0 412.859 0C414.393 0 415.638 0.990733 415.638 2.21137V95.0861C415.638 96.3068 414.393 97.2973 412.859 97.2973Z" fill="white"/>
<path d="M429.532 92.8748C427.998 92.8748 426.753 91.8841 426.753 90.6635V6.63398C426.753 5.41334 427.998 4.42261 429.532 4.42261C431.066 4.42261 432.31 5.41334 432.31 6.63398V90.6635C432.31 91.8841 431.066 92.8748 429.532 92.8748Z" fill="white"/>
<path d="M446.204 75.1843C444.67 75.1843 443.425 74.1936 443.425 72.9729V24.3242C443.425 23.1035 444.67 22.1128 446.204 22.1128C447.738 22.1128 448.983 23.1035 448.983 24.3242V72.9729C448.983 74.1936 447.738 75.1843 446.204 75.1843Z" fill="white"/>
<path d="M462.877 92.8748C461.343 92.8748 460.098 91.8841 460.098 90.6635V6.63398C460.098 5.41334 461.343 4.42261 462.877 4.42261C464.411 4.42261 465.656 5.41334 465.656 6.63398V90.6635C465.655 91.8841 464.411 92.8748 462.877 92.8748Z" fill="white"/>
<path d="M479.549 75.1843C478.015 75.1843 476.77 74.1936 476.77 72.9729V24.3242C476.77 23.1035 478.015 22.1128 479.549 22.1128C481.083 22.1128 482.328 23.1035 482.328 24.3242V72.9729C482.328 74.1936 481.083 75.1843 479.549 75.1843Z" fill="white"/>
<path d="M496.221 61.9165C494.688 61.9165 493.443 60.9257 493.443 59.7051V37.592C493.443 36.3713 494.688 35.3806 496.221 35.3806C497.755 35.3806 499 36.3713 499 37.592V59.7051C499 60.9257 497.755 61.9165 496.221 61.9165Z" fill="white"/>
</g>
<g clip-path="url(#clip3)">
<path d="M141.779 64.6191C140.245 64.6191 139 63.6284 139 62.4077V40.2946C139 39.074 140.245 38.0833 141.779 38.0833C143.313 38.0833 144.558 39.074 144.558 40.2946V62.4077C144.557 63.6284 143.313 64.6191 141.779 64.6191Z" fill="white"/>
<path d="M158.451 82.3096C156.917 82.3096 155.672 81.3189 155.672 80.0983V22.6044C155.672 21.3838 156.917 20.3931 158.451 20.3931C159.985 20.3931 161.23 21.3838 161.23 22.6044V80.0983C161.23 81.3189 159.985 82.3096 158.451 82.3096Z" fill="white"/>
<path d="M175.124 99.9999C173.59 99.9999 172.345 99.0092 172.345 97.7886V4.9138C172.345 3.69337 173.59 2.70264 175.124 2.70264C176.657 2.70264 177.902 3.69337 177.902 4.91401V97.7888C177.902 99.0094 176.657 99.9999 175.124 99.9999Z" fill="white"/>
<path d="M191.796 95.5775C190.262 95.5775 189.017 94.5867 189.017 93.3661V9.33662C189.017 8.11598 190.262 7.12524 191.796 7.12524C193.33 7.12524 194.575 8.11598 194.575 9.33662V93.3661C194.575 94.5867 193.33 95.5775 191.796 95.5775Z" fill="white"/>
<path d="M208.468 77.8869C206.935 77.8869 205.69 76.8962 205.69 75.6755V27.0268C205.69 25.8062 206.935 24.8154 208.468 24.8154C210.002 24.8154 211.247 25.8062 211.247 27.0268V75.6755C211.247 76.8962 210.002 77.8869 208.468 77.8869Z" fill="white"/>
<path d="M225.141 95.5775C223.607 95.5775 222.362 94.5867 222.362 93.3661V9.33662C222.362 8.11598 223.607 7.12524 225.141 7.12524C226.675 7.12524 227.92 8.11598 227.92 9.33662V93.3661C227.919 94.5867 226.675 95.5775 225.141 95.5775Z" fill="white"/>
<path d="M241.813 77.8869C240.279 77.8869 239.034 76.8962 239.034 75.6755V27.0268C239.034 25.8062 240.279 24.8154 241.813 24.8154C243.347 24.8154 244.592 25.8062 244.592 27.0268V75.6755C244.592 76.8962 243.347 77.8869 241.813 77.8869Z" fill="white"/>
<path d="M258.486 64.6191C256.952 64.6191 255.707 63.6284 255.707 62.4077V40.2946C255.707 39.074 256.952 38.0833 258.486 38.0833C260.019 38.0833 261.264 39.074 261.264 40.2946V62.4077C261.264 63.6284 260.019 64.6191 258.486 64.6191Z" fill="white"/>
<path d="M141.779 64.6191C140.245 64.6191 139 63.6284 139 62.4077V40.2946C139 39.074 140.245 38.0833 141.779 38.0833C143.313 38.0833 144.558 39.074 144.558 40.2946V62.4077C144.557 63.6284 143.313 64.6191 141.779 64.6191Z" fill="url(#paint9_linear)"/>
<path d="M158.451 82.3096C156.917 82.3096 155.672 81.3189 155.672 80.0983V22.6044C155.672 21.3838 156.917 20.3931 158.451 20.3931C159.985 20.3931 161.23 21.3838 161.23 22.6044V80.0983C161.23 81.3189 159.985 82.3096 158.451 82.3096Z" fill="url(#paint10_linear)"/>
<path d="M175.124 99.9999C173.59 99.9999 172.345 99.0092 172.345 97.7886V4.9138C172.345 3.69337 173.59 2.70264 175.124 2.70264C176.657 2.70264 177.902 3.69337 177.902 4.91401V97.7888C177.902 99.0094 176.657 99.9999 175.124 99.9999Z" fill="url(#paint11_linear)"/>
<path d="M191.796 95.5775C190.262 95.5775 189.017 94.5867 189.017 93.3661V9.33662C189.017 8.11598 190.262 7.12524 191.796 7.12524C193.33 7.12524 194.575 8.11598 194.575 9.33662V93.3661C194.575 94.5867 193.33 95.5775 191.796 95.5775Z" fill="url(#paint12_linear)"/>
<path d="M208.468 77.8869C206.935 77.8869 205.69 76.8962 205.69 75.6755V27.0268C205.69 25.8062 206.935 24.8154 208.468 24.8154C210.002 24.8154 211.247 25.8062 211.247 27.0268V75.6755C211.247 76.8962 210.002 77.8869 208.468 77.8869Z" fill="url(#paint13_linear)"/>
<path d="M225.141 95.5775C223.607 95.5775 222.362 94.5867 222.362 93.3661V9.33662C222.362 8.11598 223.607 7.12524 225.141 7.12524C226.675 7.12524 227.92 8.11598 227.92 9.33662V93.3661C227.919 94.5867 226.675 95.5775 225.141 95.5775Z" fill="url(#paint14_linear)"/>
<path d="M241.813 77.8869C240.279 77.8869 239.034 76.8962 239.034 75.6755V27.0268C239.034 25.8062 240.279 24.8154 241.813 24.8154C243.347 24.8154 244.592 25.8062 244.592 27.0268V75.6755C244.592 76.8962 243.347 77.8869 241.813 77.8869Z" fill="url(#paint15_linear)"/>
<path d="M258.486 64.6191C256.952 64.6191 255.707 63.6284 255.707 62.4077V40.2946C255.707 39.074 256.952 38.0833 258.486 38.0833C260.019 38.0833 261.264 39.074 261.264 40.2946V62.4077C261.264 63.6284 260.019 64.6191 258.486 64.6191Z" fill="url(#paint16_linear)"/>
</g>
<defs>
<filter id="filter0_b" x="15" y="18" width="70" height="70" filterUnits="userSpaceOnUse" color-interpolation-filters="sRGB">
<feFlood flood-opacity="0" result="BackgroundImageFix"/>
<feGaussianBlur in="BackgroundImage" stdDeviation="5"/>
<feComposite in2="SourceAlpha" operator="in" result="effect1_backgroundBlur"/>
<feBlend mode="normal" in="SourceGraphic" in2="effect1_backgroundBlur" result="shape"/>
</filter>
<linearGradient id="paint0_linear" x1="268.571" y1="37.1824" x2="268.571" y2="63.7182" gradientUnits="userSpaceOnUse">
<stop stop-color="#00FF85"/>
<stop offset="1" stop-color="#04CFFC"/>
</linearGradient>
<linearGradient id="paint1_linear" x1="285.244" y1="19.4922" x2="285.244" y2="81.4087" gradientUnits="userSpaceOnUse">
<stop stop-color="#00FF85"/>
<stop offset="1" stop-color="#04CFFC"/>
</linearGradient>
<linearGradient id="paint2_linear" x1="301.916" y1="1.80176" x2="301.916" y2="99.0991" gradientUnits="userSpaceOnUse">
<stop stop-color="#00FF85"/>
<stop offset="1" stop-color="#04CFFC"/>
</linearGradient>
<linearGradient id="paint3_linear" x1="318.588" y1="6.22437" x2="318.588" y2="94.6766" gradientUnits="userSpaceOnUse">
<stop stop-color="#00FF85"/>
<stop offset="1" stop-color="#04CFFC"/>
</linearGradient>
<linearGradient id="paint4_linear" x1="335.261" y1="23.9146" x2="335.261" y2="76.986" gradientUnits="userSpaceOnUse">
<stop stop-color="#00FF85"/>
<stop offset="1" stop-color="#04CFFC"/>
</linearGradient>
<linearGradient id="paint5_linear" x1="351.933" y1="6.22437" x2="351.933" y2="94.6766" gradientUnits="userSpaceOnUse">
<stop stop-color="#00FF85"/>
<stop offset="1" stop-color="#04CFFC"/>
</linearGradient>
<linearGradient id="paint6_linear" x1="368.606" y1="23.9146" x2="368.606" y2="76.986" gradientUnits="userSpaceOnUse">
<stop stop-color="#00FF85"/>
<stop offset="1" stop-color="#04CFFC"/>
</linearGradient>
<linearGradient id="paint7_linear" x1="385.278" y1="37.1824" x2="385.278" y2="63.7182" gradientUnits="userSpaceOnUse">
<stop stop-color="#00FF85"/>
<stop offset="1" stop-color="#04CFFC"/>
</linearGradient>
<linearGradient id="paint8_linear" x1="396.187" y1="17.6904" x2="396.187" y2="79.607" gradientUnits="userSpaceOnUse">
<stop stop-color="#00FF85"/>
<stop offset="1" stop-color="#04CFFC"/>
</linearGradient>
<linearGradient id="paint9_linear" x1="141.779" y1="38.0833" x2="141.779" y2="64.6191" gradientUnits="userSpaceOnUse">
<stop stop-color="#00FF85"/>
<stop offset="1" stop-color="#04CFFC"/>
</linearGradient>
<linearGradient id="paint10_linear" x1="158.451" y1="20.3931" x2="158.451" y2="82.3096" gradientUnits="userSpaceOnUse">
<stop stop-color="#00FF85"/>
<stop offset="1" stop-color="#04CFFC"/>
</linearGradient>
<linearGradient id="paint11_linear" x1="175.124" y1="2.70264" x2="175.124" y2="99.9999" gradientUnits="userSpaceOnUse">
<stop stop-color="#00FF85"/>
<stop offset="1" stop-color="#04CFFC"/>
</linearGradient>
<linearGradient id="paint12_linear" x1="191.796" y1="7.12524" x2="191.796" y2="95.5775" gradientUnits="userSpaceOnUse">
<stop stop-color="#00FF85"/>
<stop offset="1" stop-color="#04CFFC"/>
</linearGradient>
<linearGradient id="paint13_linear" x1="208.468" y1="24.8154" x2="208.468" y2="77.8869" gradientUnits="userSpaceOnUse">
<stop stop-color="#00FF85"/>
<stop offset="1" stop-color="#04CFFC"/>
</linearGradient>
<linearGradient id="paint14_linear" x1="225.141" y1="7.12524" x2="225.141" y2="95.5775" gradientUnits="userSpaceOnUse">
<stop stop-color="#00FF85"/>
<stop offset="1" stop-color="#04CFFC"/>
</linearGradient>
<linearGradient id="paint15_linear" x1="241.813" y1="24.8154" x2="241.813" y2="77.8869" gradientUnits="userSpaceOnUse">
<stop stop-color="#00FF85"/>
<stop offset="1" stop-color="#04CFFC"/>
</linearGradient>
<linearGradient id="paint16_linear" x1="258.486" y1="38.0833" x2="258.486" y2="64.6191" gradientUnits="userSpaceOnUse">
<stop stop-color="#00FF85"/>
<stop offset="1" stop-color="#04CFFC"/>
</linearGradient>
<clipPath id="clip0">
<rect width="71.4286" height="97.0545" fill="white" transform="translate(14.2861 1.42847)"/>
</clipPath>
<clipPath id="clip1">
<rect width="122.264" height="97.2973" fill="white" transform="translate(265.792 1.80176)"/>
</clipPath>
<clipPath id="clip2">
<rect width="122.264" height="97.2973" fill="white" transform="translate(376.736)"/>
</clipPath>
<clipPath id="clip3">
<rect width="122.264" height="97.2973" fill="white" transform="translate(139 2.70264)"/>
</clipPath>
</defs>
</svg>
