<?xml version="1.0" encoding="utf-8"?>
<!-- Generator: Adobe Illustrator 23.1.0, SVG Export Plug-In . SVG Version: 6.00 Build 0)  -->
<svg version="1.1" xmlns="http://www.w3.org/2000/svg" xmlns:xlink="http://www.w3.org/1999/xlink" x="0px" y="0px"
	 viewBox="0 0 960 1080" style="enable-background:new 0 0 960 1080;" xml:space="preserve">
<style type="text/css">
	.st0{fill:#856792;}
	.st1{fill:#BB83C3;}
	.st2{fill:#665070;}
	.st3{fill:#4B3355;}
	.st4{fill:#F3E7D9;}
	.st5{fill:#288453;}
	.st6{fill:#33A86D;}
	.st7{fill:#48598B;}
	.st8{fill:#1D2538;}
	.st9{fill:#273252;}
	.st10{fill:#9E54C7;}
	.st11{fill:#FFACFF;}
	.st12{fill:#F7BC4B;}
	.st13{fill:#CE9436;}
	.st14{fill:#1689CB;}
	.st15{fill:#FEED7F;}
	.st16{fill:#992C29;}
	.st17{fill:#C94039;}
	.st18{fill:#FFFCF3;}
	.st19{fill:#CC6D3D;}
	.st20{fill:#3E4C6F;}
	.st21{fill:#F5894E;}
	.st22{fill:#EE5D4F;}
	.st23{font-family:'FuturaBT-Heavy';}
	.st24{font-size:34.0351px;}
	.st25{opacity:0.5;fill:#FEED7F;}
	.st26{opacity:0.5;fill:#F3E7D9;}
	.st27{fill:#29ABE2;}
	.st28{fill:none;stroke:#273252;stroke-miterlimit:10;}
</style>
<g id="ground">
	<path class="st0" d="M385.23,989.58c0,0,118.68-7.91,125.01,7.91c6.33,15.82-42.73,18.99-96.53,22.15
		c-53.8,3.16-111.56,5.54-176.44-0.79s3.96-24.53,37.98-24.53S385.23,989.58,385.23,989.58z"/>
	<path class="st0" d="M456.44,994.33c0,0,121.85,3.16,189.89,0c68.04-3.16,139.25-7.91,174.07-15.82
		c34.81-7.91,7.91-18.99-6.33-18.99c0,0,37.98,0,66.46-7.91c28.48-7.91-170.9-23.74-232.62-23.74s33.23,3.16-23.74-9.49
		c-56.97-12.66-194.64,5.11-243.69,4.75c-85.83-0.64-273.08,12.66-305.41,26.9c-48.13,21.2,86.48,46.85,113.93,50.64
		C234.9,1006.99,456.44,994.33,456.44,994.33z"/>
	<path class="st1" d="M225.41,929.45c0,0-36.4,0-52.22,11.08s64.88,12.66,64.88,12.66s11.08,22.15,85.45,31.65
		s128.97-2.37,128.97-2.37s102.07-5.54,143.21-18.2c41.14-12.66-82.29-25.32-82.29-25.32L225.41,929.45z"/>
	<path class="st2" d="M271.69,991.56c-16.29-1.83-52.96,4.44-28.79,7.78S314.02,996.31,271.69,991.56z"/>
	<path class="st3" d="M668.48,964.26c0,0,82.29,23.74,123.43,18.99c41.14-4.75,75.96-6.33,31.65-23.74c0,0,43.25-2.11,56.97-7.91
		c13.71-5.8-65.93-9.49-91.25-6.33S668.48,964.26,668.48,964.26z"/>
	<path class="st0" d="M752.35,993.93c0,0-86.64-1.19-43.91,11.87S783.21,1003.43,752.35,993.93z"/>
	<path class="st0" d="M649.1,1002.24c13.05-5.93-5.93-13.05-45.1-10.68c-39.16,2.37-45.1,15.43-10.68,17.8
		C627.74,1011.74,636.04,1008.18,649.1,1002.24z"/>
	<path class="st1" d="M276.44,967.82c0,0-60.53,3.56-22.55,10.68C291.87,985.63,306.11,976.13,276.44,967.82z"/>
	<path class="st1" d="M193.36,955.96c-15.43-1.58-40.35,9.49-2.37,9.49S208.79,957.54,193.36,955.96z"/>
	<path class="st2" d="M249.14,984.04c-14.24-1.58-26.9,1.58-18.59,4.35S263.38,985.63,249.14,984.04z"/>
	<path class="st2" d="M570.37,931.03c0,0,17.41-4.75,36.4,0S579.87,943.69,570.37,931.03z"/>
	<path class="st2" d="M449.32,1004.62c-51.43-5.54-129.76,9.49-58.55,22.15C461.98,1039.43,500.75,1010.15,449.32,1004.62z"/>
	<path class="st2" d="M389.19,1022.02c-45.89-1.58-64.88,11.87-20.57,18.99S435.08,1023.6,389.19,1022.02z"/>
</g>
<g id="clouds">
	<path class="st4" d="M831.47,244.26c0,0,74.37-60.13-9.49-145.58S676.4,76.53,665.32,90.77c-11.08,14.24-33.23,61.71-15.82,102.86
		c0,0-18.99-12.66-36.4,0c-17.41,12.66-14.24,41.14-7.91,45.89c0,0,0-4.75-20.57,0c-20.57,4.75-34.81,42.73-23.74,60.13
		c0,0-53.8,30.07-31.65,36.4c22.15,6.33,256.35-42.73,303.82-53.8S871.03,244.26,831.47,244.26z"/>
	<path class="st4" d="M459.6,154.07c0,0-251.6,102.86-288,107.6s-17.41-25.32,22.15-25.32c0,0-15.82-23.74,1.58-39.56
		s55.38-30.07,79.12-15.82c0,0-9.49-22.15,4.75-23.74c0,0-20.57-45.89,14.24-71.21s112.35,1.58,132.92,33.23s-3.16,30.07-3.16,30.07
		S473.85,136.66,459.6,154.07z"/>
	<path class="st4" d="M220.66,448.4c0,0-26.9-34.81-71.21-18.99c-44.31,15.82-30.07,45.89-30.07,45.89s-33.23,12.66-36.4,20.57
		c-3.16,7.91,55.38-3.16,87.03-14.24S236.48,467.38,220.66,448.4z"/>
</g>
<g id="grass">
	<path class="st5" d="M200.09,929.85c0.79-4.75-25.32-71.21-41.14-76.75c-15.82-5.54,5.54,26.11,5.54,26.11s-47.47-7.12-34.02,7.12
		c13.45,14.24,31.65,17.41,31.65,17.41s-41.14,3.16-24.53,11.08c16.62,7.91,39.56,11.08,39.56,11.08l-18.2,4.75L200.09,929.85z"/>
	<path class="st5" d="M189.01,912.44c0,0-26.11-67.25-16.62-68.84c9.49-1.58,18.2,17.41,18.2,17.41s40.35-29.27,34.02,2.37
		C218.29,895.03,204.84,932.22,189.01,912.44z"/>
	<path class="st5" d="M526.86,881.98c0-2.37,19.78-60.92,41.14-65.67s-9.49,30.07-9.49,30.07s32.44-12.66,41.93-1.58
		s-38.77,18.99-38.77,18.99s20.57,0.79,21.36,15.82c0.79,15.03-12.66,7.12-12.66,7.12s26.11,21.83-3.96,30.07
		c-3.55,0.97-18.02,0.21-22.95,0.79C496.79,923.12,526.86,881.98,526.86,881.98z"/>
	<path class="st6" d="M586.2,916.79c0,0-9.49-13.45,3.16-23.74c12.66-10.29,3.96,15.03,3.96,15.03s9.49-28.48,25.32-26.11
		c15.82,2.37-8.7,19.78-8.7,19.78s27.69-6.33,26.11,2.37C634.46,912.84,609.93,920.75,586.2,916.79z"/>
	<path class="st6" d="M196.92,995.91c0,0-33.23-33.23-44.31-34.81c-11.08-1.58,11.08,18.99,11.08,18.99s-36.4-22.15-37.98-4.75
		c-1.58,17.41,30.07,15.82,30.07,15.82s-37.98,9.49-14.24,12.66C165.27,1006.99,196.92,995.91,196.92,995.91z"/>
	<path class="st6" d="M184.26,991.16c0,0-15.82-25.32,1.58-30.07s12.66,18.99,12.66,18.99s18.99-15.82,22.15,0
		C223.82,995.91,198.51,995.91,184.26,991.16z"/>
	<path class="st6" d="M510.24,1006.99c0,0-28.48-22.15-17.41-33.23c11.08-11.08,14.24,17.41,14.24,17.41s4.75-23.74,18.99-18.99
		c14.24,4.75-3.16,31.65-3.16,31.65s18.99-22.15,26.9-11.08C557.71,1003.82,510.24,1006.99,510.24,1006.99z"/>
	<path class="st6" d="M636.04,1011.74c0,0-44.31-14.24-28.48-23.74c15.82-9.49,19.78,8.7,19.78,8.7s-0.79-38.77,11.87-26.11
		c12.66,12.66,3.16,28.48,3.16,28.48s20.57-12.66,25.32,0C672.44,1011.74,636.04,1011.74,636.04,1011.74z"/>
</g>
<g id="machine">
	<path class="st7" d="M203.25,922.7l-6.52-530.42c0-6.29,3.72-11.98,9.48-14.5l69.96-27.76c2-0.88,4.16-1.33,6.34-1.33l251.46,7.52
		c8.74,0,15.82,7.08,15.82,15.82V934.2c0,8.74-7.08,15.82-15.82,15.82l-251.79,11.36c-1,0-2-0.09-2.98-0.28l-63.11-22.86
		C208.64,936.81,203.25,930.29,203.25,922.7z"/>
	<path class="st8" d="M205.2,922.85l72.1-566.22c1.98-0.87,52.76,493.7,54.91,493.7c0,0,208.63,99.54,199.99,99.54L283.25,961.1
		c-0.99,0-1.97-0.09-2.94-0.28l-62.4-22.6C210.53,936.81,205.2,930.36,205.2,922.85z"/>
	<path class="st9" d="M196.73,922.7V392.28c0-6.29,3.72-11.98,9.48-14.5l69.96-27.76c2-0.88,4.16-1.33,6.34-1.33l-0.33,610.2
		c0,1.4-1.26,2.49-2.64,2.26c-0.11-0.02-0.23-0.04-0.34-0.06l-69.63-22.86C202.13,936.81,196.73,930.29,196.73,922.7z"/>
	<path class="st7" d="M210.12,801.99V417.56c0-4.51,2.67-8.6,6.81-10.41l50.21-19.92c1.44-0.63,2.99-0.95,4.55-0.95l-0.24,437.97
		c0,1.01-0.9,1.79-1.89,1.62c-0.08-0.01-0.16-0.03-0.24-0.04l-49.97-12.69C213.99,812.12,210.12,807.44,210.12,801.99z"/>
	<polygon class="st9" points="307.3,374.42 486.51,379.16 486.51,832.92 307.3,839.65 	"/>
	<polygon class="st4" points="308.35,378.77 479.52,384.59 479.52,828.7 308.35,835.3 	"/>
	<polygon class="st1" points="543.1,578.55 497.19,578.55 497.19,438.51 543.1,439.3 	"/>
	<polygon class="st10" points="519.21,578.55 497.19,578.55 497.19,438.51 520.27,438.9 	"/>
	<polygon class="st11" points="497.19,462.11 497.19,438.51 520.27,438.9 520.1,462.37 	"/>
	<polygon class="st11" points="520.13,485.45 520.13,461.85 543.22,462.24 543.05,485.71 	"/>
	<polygon class="st1" points="497.19,485.25 497.19,461.65 520.27,462.05 520.1,485.52 	"/>
	<polygon class="st1" points="497.19,535.69 497.19,512.09 520.27,512.49 520.1,535.96 	"/>
	<polygon class="st10" points="520.07,535.69 519.74,512.42 543.15,512.49 542.98,535.96 	"/>
	<polygon class="st11" points="497.19,578.42 497.19,555.37 519.74,555.76 519.57,578.68 	"/>
	<rect x="503.13" y="624.04" class="st8" width="38.26" height="17.8"/>
	<rect x="506.55" y="696.18" class="st8" width="29.56" height="9.49"/>
	<polygon class="st12" points="474.64,902.55 322.73,908.48 322.73,866.95 474.64,861.01 	"/>
	<polygon class="st13" points="474.64,902.55 322.73,908.48 322.73,866.95 408.18,863.52 	"/>
	<g>
		<g>
			<polygon class="st14" points="459.6,782.87 406.7,784.92 406.7,701.67 459.6,700.62 			"/>
			<path class="st7" d="M456.44,778.59c0,0-21.63-3.69-18.99-29.01c2.64-25.32-20.31-42.99-26.11-44.31l43.52-1.05L456.44,778.59z"
				/>
			<polygon class="st15" points="436.53,775.69 416.39,776.44 416.39,773.01 436.53,772.53 			"/>
			<polygon class="st15" points="435.5,769.51 415.3,770.17 415.3,766.73 435.5,766.33 			"/>
			<path class="st12" d="M425.58,760.13L425.58,760.13c-4.81,0-8.7-3.9-8.7-8.7l0,0c0-4.81,3.9-8.7,8.7-8.7h0
				c4.81,0,8.7,3.9,8.7,8.7l0,0C434.29,756.24,430.39,760.13,425.58,760.13z"/>
		</g>
		<path class="st16" d="M366.18,520.72c0,3.25-2.69,5.84-6.02,5.77c-3.33-0.07-6.04-2.76-6.04-6.02s2.71-5.84,6.04-5.77
			C363.48,514.78,366.18,517.47,366.18,520.72z"/>
		<path class="st17" d="M365.05,520.7c0,2.65-2.19,4.75-4.9,4.7c-2.71-0.05-4.91-2.25-4.91-4.9s2.2-4.76,4.91-4.7
			C362.86,515.86,365.05,518.05,365.05,520.7z"/>
		<path class="st16" d="M441.08,522.28c0,3.2-2.6,5.74-5.82,5.68c-3.22-0.06-5.84-2.71-5.84-5.92s2.62-5.75,5.84-5.68
			C438.47,516.44,441.08,519.08,441.08,522.28z"/>
		<path class="st15" d="M439.7,522.25c0,2.44-1.99,4.39-4.45,4.34c-2.46-0.05-4.46-2.07-4.46-4.52c0-2.45,2-4.39,4.46-4.34
			C437.71,517.78,439.7,519.81,439.7,522.25z"/>
		<path class="st16" d="M366.18,655.76c0,3.25-2.69,5.92-6.02,5.95c-3.33,0.04-6.04-2.58-6.04-5.84s2.71-5.93,6.04-5.95
			C363.48,649.89,366.18,652.51,366.18,655.76z"/>
		<path class="st17" d="M364.86,655.77c0,2.54-2.1,4.62-4.7,4.65c-2.6,0.03-4.72-2.01-4.72-4.56s2.11-4.63,4.72-4.65
			C362.75,651.19,364.86,653.23,364.86,655.77z"/>
		<path class="st16" d="M441.08,655.06c0,3.2-2.6,5.82-5.82,5.85c-3.22,0.03-5.84-2.54-5.84-5.74s2.62-5.83,5.84-5.85
			C438.47,649.29,441.08,651.86,441.08,655.06z"/>
		<path class="st17" d="M440.17,655.07c0,2.7-2.2,4.91-4.91,4.94c-2.72,0.03-4.92-2.14-4.92-4.84s2.21-4.92,4.92-4.94
			C437.97,650.2,440.17,652.37,440.17,655.07z"/>
		<path class="st16" d="M366.18,801.01c0,3.25-2.69,6-6.02,6.15c-3.33,0.14-6.04-2.38-6.04-5.64c0-3.26,2.71-6.01,6.04-6.15
			C363.48,795.23,366.18,797.75,366.18,801.01z"/>
		<path class="st17" d="M364.78,801.06c0,2.5-2.07,4.61-4.63,4.72c-2.56,0.11-4.64-1.83-4.64-4.33s2.08-4.62,4.64-4.72
			C362.71,796.63,364.78,798.57,364.78,801.06z"/>
		<path class="st16" d="M441.08,797.87c0,3.2-2.6,5.9-5.82,6.04c-3.22,0.14-5.84-2.35-5.84-5.55s2.62-5.91,5.84-6.04
			C438.47,792.18,441.08,794.67,441.08,797.87z"/>
		<path class="st17" d="M439.82,797.92c0,2.51-2.04,4.63-4.57,4.74c-2.53,0.11-4.58-1.84-4.58-4.36c0-2.51,2.05-4.64,4.58-4.74
			C437.78,793.46,439.82,795.41,439.82,797.92z"/>
		<g>
			<polygon class="st12" points="459.6,507.68 406.7,506.4 406.7,423.15 459.6,425.43 			"/>
			<polygon class="st18" points="453.3,493.77 413.01,492.8 413.01,429.41 453.3,431.14 			"/>
			<polygon class="st19" points="442.38,457.04 425.67,456.37 425.67,452.01 442.38,452.69 			"/>
			<polygon class="st19" points="446.95,462.97 421.1,462.57 421.1,458.22 446.95,458.62 			"/>
		</g>
		<g>
			<polygon class="st3" points="386.13,505.12 331.43,503.78 331.43,419.12 386.13,421.48 			"/>
			<polygon class="st0" points="382.28,499.05 335.29,497.9 335.29,425.19 382.28,427.22 			"/>
			<polygon class="st20" points="376.26,489.87 343.54,489.16 343.54,482.15 376.26,482.94 			"/>
			<ellipse class="st18" cx="359.52" cy="455.52" rx="15.16" ry="22.42"/>
		</g>
		<g>
			<polygon class="st21" points="386.13,641.9 331.43,642.24 331.43,557.58 386.13,558.26 			"/>
			<polygon class="st5" points="384.88,640.36 334.26,640.13 334.26,630.64 384.88,630.98 			"/>
			<polygon class="st5" points="384.35,569.41 333.74,569.19 333.74,559.69 384.35,560.03 			"/>
			<rect x="346.73" y="577.63" class="st5" width="4.75" height="10.81"/>
			<rect x="352.26" y="577.63" class="st5" width="11.34" height="10.81"/>
			<rect x="357.54" y="589.76" class="st5" width="19.52" height="8.7"/>
			<rect x="346.99" y="600.57" class="st5" width="13.32" height="8.84"/>
			<circle class="st5" cx="352.53" cy="594.24" r="4.22"/>
			<circle class="st5" cx="370.99" cy="605.45" r="4.22"/>
		</g>
		<g>
			<polygon class="st6" points="459.6,641.43 406.7,641.77 406.7,558.52 459.6,559.18 			"/>
			<polygon class="st5" points="455.68,635.3 410.63,635.58 410.63,564.7 455.68,565.27 			"/>
			<g>
				<polygon class="st12" points="448.92,584.48 414.9,583.87 414.9,571.43 448.92,572.22 				"/>
				<polygon class="st12" points="430.63,597.7 415.31,597.51 415.31,585.08 430.63,585.35 				"/>
				<polygon class="st12" points="444.18,612.94 415.31,612.76 415.31,600.32 444.18,600.65 				"/>
				<polygon class="st12" points="441,628 415.71,628 415.71,615.57 441,615.7 				"/>
			</g>
		</g>
		<g>
			<polygon class="st22" points="386.13,784.93 331.43,787.03 331.43,702.37 386.13,701.3 			"/>
			<polygon class="st17" points="383.25,716.02 334.46,717.31 334.39,706.89 383.18,705.93 			"/>
			<rect x="336.18" y="719.38" class="st17" width="5.93" height="18.79"/>
			
				<rect x="345.52" y="729.82" transform="matrix(6.123234e-17 -1 1 6.123234e-17 -386.6209 1083.5989)" class="st17" width="5.93" height="10.58"/>
			<rect x="366.24" y="739.76" class="st17" width="5.93" height="8.51"/>
			<rect x="350.42" y="739.56" class="st17" width="14.64" height="8.51"/>
			<polygon class="st17" points="378.9,771.14 349.23,771.8 349.23,763.3 378.9,762.63 			"/>
		</g>
		<path class="st0" d="M365.98,437.05c0,0-6.86-0.53-12.92,2.9c-6.07,3.43,10.29,2.9,10.29,2.9s-2.11,2.64-3.69,4.75
			c-1.58,2.11-1.32,5.27-1.32,5.27l3.96,0.26l-0.66,5.6l-7.38,1.05l-0.86-3.36l-5.14-0.99l0.2,6.99l13.05-2.18c0,0-0.53,2.31,0,4.95
			s8.18-2.31,8.18-2.31l1.32,6.07C370.99,468.97,380.22,447.87,365.98,437.05z"/>
	</g>
	<g>
		<path class="st4" d="M527.65,686.29h-7.91c-4.37,0-7.91-3.54-7.91-7.91v-12.66c0-4.37,3.54-7.91,7.91-7.91h7.91
			c4.37,0,7.91,3.54,7.91,7.91v12.66C535.56,682.74,532.02,686.29,527.65,686.29z"/>
		
			<rect x="514.64" y="668.71" transform="matrix(-1.836970e-16 1 -1 -1.836970e-16 1196.3777 147.3826)" class="st8" width="19.72" height="6.33"/>
	</g>
	<g>
		<path class="st9" d="M467.09,355.79l-153.65-6.21c-15.54-0.48-27.9-13.57-27.9-30.15v-17.09c0-16.59,21.64-30.15,37.19-29.2
			l147.16,8.7c13.42,0.82,28.24,21.64,28.22,36.79l-1.05,16.88C497.03,350.66,480.5,356.2,467.09,355.79z"/>
		<path class="st12" d="M480.65,351.08l-154.63-6.06c-15.64-0.46-28.47-14.32-28.47-30.95l0-12.78c0-16.64,12.84-29.36,28.49-28.42
			l150.61,7.29c13.51,0.81,27.3,14.77,27.27,29.97l-0.02,11.68C503.89,337,494.15,351.48,480.65,351.08z"/>
		<text transform="matrix(1.0122 0.0483 0 1 328.7381 320.4519)" class="st9 st23 st24">E-BOOKS</text>
		<path class="st25" d="M476.13,348c0,0-156.9-72.94-142.48-72.08l138.8,6.72c12.45,0.75,25.16,13.61,25.13,27.62l-0.02,10.76
			C497.54,335.03,488.57,348.37,476.13,348z"/>
	</g>
	<path class="st6" d="M188.62,938.15c0,0-9.1-18.99-7.91-24.92s11.87,12.66,11.87,12.66s-2.37-15.43,7.12-16.62s3.16,8.7,3.16,8.7
		s15.43-7.12,17.8-3.56c2.37,3.56-11.87,15.43-11.87,15.43s11.87-7.12,13.05,2.37S207.6,945.27,188.62,938.15z"/>
</g>
<g id="galss_shine">
	<polygon class="st26" points="316.26,386.29 477.8,825.8 429.54,827.38 316.26,489.54 	"/>
</g>
<g id="skirt-under">
	<path class="st22" d="M640,736.13c3.38,4.82,18.99,13.19,45.36,15.03c33.19,2.32,96.13-12.96,108.13-26.54
		C800.46,716.74,671.48,696.11,640,736.13z"/>
</g>
<g id="legs">
	<g>
		<path class="st21" d="M785.19,769.03c0.34,0.47,17.01,19.58,22.55,45.69c0,0,29.54,91.68,29.54,100.48
			c0,8.8-14.49,8.42-17.41,2.11c-14.51-31.38-29.9-53.88-48.23-90.54c-18.33-36.66-28.42-53.34-28.42-53.34
			S764.66,747.04,785.19,769.03z"/>
		<path class="st21" d="M785.19,769.03c0.34,0.47,17.01,19.58,22.55,45.69c0,0,29.54,91.68,29.54,100.48
			c0,8.8-14.49,8.42-17.41,2.11c-14.51-31.38-29.9-53.88-48.23-90.54c-18.33-36.66-28.42-53.34-28.42-53.34
			S764.66,747.04,785.19,769.03z"/>
		<path class="st19" d="M785.19,769.03c0.34,0.47,17.01,19.58,22.55,45.69c0,0,29.54,91.68,29.54,100.48
			c0,8.8-14.49,8.42-17.41,2.11c-8.8-19.03-17.92-34.79-27.82-52.43c0,0,2.34-11.6-4.88-26.04c-18.33-36.66-34.81-67.65-34.81-67.65
			S764.66,747.04,785.19,769.03z"/>
		<path class="st9" d="M728.22,709.96c0,0,2.38,35.72,6.23,46.11c1.71,4.62,16.62,34.27,16.62,34.27s21.55-13.81,39.26-17.66
			l-9.62-19.25l-10.17-43.9L728.22,709.96z"/>
		<path class="st8" d="M728.22,709.96c0,0,9.6,32.66,13.45,43.05c1.71,4.62,17.01,32.84,17.01,32.84
			c7.86-4.39,20.51-10.74,31.64-13.16l-9.62-19.25l-10.17-43.9L728.22,709.96z"/>
	</g>
	<g>
		<path class="st21" d="M687.13,703.16c0,0,0.44,30.99,0.87,38.51s3.96,9.36,4.81,14.51c0.22,1.31,2.33,32.81,3.72,45.06
			c0.32,2.86,0.67,5.92,1.03,9.14c2.15,19.15,4.87,43.83,7.08,64.42c2.08,19.41,3.72,35.2,4.01,39.36c0.64,9.1-0.92,24-0.92,24
			l22.72-4.75c0,0,5.13-43.57,6.48-56.57c2.69-25.85,2.83-76.35,1.98-90.2c-0.85-13.85-14.4-35.6-14.4-35.6l7.22-50.64
			L687.13,703.16z"/>
		<path class="st19" d="M687.13,703.16c0,0,0.44,30.99,0.87,38.51s3.96,9.36,4.81,14.51c0.22,1.31,10.28,32.06,11.67,44.31
			c0.32,2.86,3.99,38.72,4.35,41.93c2.15,19.15-4.2,32.38-4.2,32.38c2.08,19.41,3.72,35.2,4.01,39.36c0.64,9.1-0.92,24-0.92,24
			l22.72-4.75c0,0,5.13-43.57,6.48-56.57c2.69-25.85,2.83-76.35,1.98-90.2c-0.85-13.85-14.4-35.6-14.4-35.6l7.22-50.64
			L687.13,703.16z"/>
		<path class="st9" d="M687.13,703.16l1.39,33.76c0,0,2.32,15.96,3.16,21.1c0.16,0.95,2.93,26.46,3.72,33.08
			c21.87-3.27,44.81-3.27,44.81-3.27c-0.85-13.85-5.8-35.6-5.8-35.6l1.55-51.82L687.13,703.16z"/>
		<path class="st8" d="M687.13,703.16l1.39,33.76c0,0,7.99,13.32,8.84,18.46c0.16,0.95,4.81,27.43,5.08,30
			c0.26,2.57-0.15,4.79-0.15,4.79c19.55-2.35,37.93-2.35,37.93-2.35c-0.85-13.85-5.8-35.6-5.8-35.6l1.55-51.82L687.13,703.16z"/>
	</g>
	<g>
		<path class="st19" d="M719.67,928.93c-16.38,11.72-18.92,13.62-32.67,23.32c-14.74,10.4,43.54,5.73,46.48-6.04
			C736.42,934.44,733.71,918.88,719.67,928.93z"/>
		<path class="st16" d="M735.41,934.9c-2.66-4.47-15.85,0.64-17.96,1.77c-2.11,1.14-25.13,12.92-25.13,12.92s-15.34,6.05-21.63,7.72
			c-17.79,4.72,12.47,11.33,15.43,11.78c2.96,0.45,31.77-5.74,31.77-5.74l1.88,0.36l3.82,2.47c0,0,12.83-2.59,13.45-4.57
			C737.9,958.89,738.07,939.35,735.41,934.9z"/>
	</g>
	<g>
		<path class="st19" d="M827.45,896.17c-3.73-1.6-5.11,5.64-7.68,17.22c-2.44,10.97-4.82,11.52-13.08,30.52
			c-5.98,13.74,27.09-12.25,24.87-21.94C829.66,913.68,836.46,900.03,827.45,896.17z"/>
		<path class="st16" d="M842.25,909.03c-4.1-5.27-8.14,0.17-14.15,7.08c-3.57,6.46-11.75,11.59-16.81,17.38s-13.59,5.61-17.63,9.12
			c-12,10.42,20.94,11.46,22.23,11.46c3.66,0,13.03-7.72,13.03-7.72l9.65-6.27c1.73,1.4,7.6-2.2,9.49-3.38l3.82-4.45
			c0,0,2.26-2.83,1.84-5.08C853.14,924.06,845.82,913.63,842.25,909.03z"/>
	</g>
</g>
<g id="torso">
	<polygon class="st19" points="696.5,508.49 700.08,541.41 723.69,534.25 719.4,500.62 	"/>
	<g>
		<path class="st17" d="M690.9,732.7l2.9-11.08c0,0-2.7-4.17-9.86-0.21C676.79,725.39,690.9,732.7,690.9,732.7z"/>
		<path class="st12" d="M749.19,551.25c0.72-7.94-15.78-20.91-27.94-20.58c-5.72,0.16-17.27-1.94-25.86,8.32
			c-6.5,7.76-17.41,21.34-17.41,27.3c0,5.95,3.53,36.69,10.68,45.95c0,0-11.08,37.87-18.99,51.77
			c-7.91,13.9-23.95,50.97-29.67,72.13c0,0,23.69-6.96,50.64-3.43c0,0-9.8-7.31-1.92-7.97c7.87-0.66,30.68,2.69,46.27,5.51
			c24.88,4.51,58.91-6.5,58.91-6.5c-6.33-46.81-44.7-98.11-44.7-98.11S748.47,559.19,749.19,551.25z"/>
	</g>
	<path class="st14" d="M710.02,527.71c-16.22,1.19-22.15,16.55-21.76,18.92c0.4,2.37,2.24-4.88,14.64-11.21
		C706.15,533.77,726.24,526.53,710.02,527.71z"/>
	<path class="st13" d="M749.19,625.63c0,0-0.72-66.44,0-74.37c0.72-7.94-15.78-20.91-27.94-20.58c-5.72,0.16-8.83,3.21-17.42,13.46
		c-6.5,7.76-2.11,37.56-2.11,43.52c0,1.74-0.61,8.35-1.47,16.84c-4.02-23.22-8.02,12.44-8.02,12.44s-3.16,37.98-12.26,68.44
		c0,0,7.74-10.73,14.01-26.62c-2.41,8.62-11.16,39.27-15.2,46c-16.62,27.69-31.4,9.29-31.4,9.29c-3.04,8.09-5.66,15.8-7.37,22.1
		c0,0,23.69-6.96,50.64-3.43c0,0-9.8-7.31-1.92-7.97c7.87-0.66,30.68,2.69,46.27,5.51c24.88,4.51,58.91-6.11,58.91-6.11
		C787.56,677.32,749.19,625.63,749.19,625.63z"/>
</g>
<g id="R_forearm">
	<path class="st19" d="M618.24,590.81c0,0-11.47-9.89-12.26-13.85s0.4-14.24,2.37-13.85C610.33,563.52,618.24,590.81,618.24,590.81z
		"/>
	<path class="st1" d="M599.27,548.97l35.51,53.12c1.41,2.13,4.92,2.77,7.13,1.48l25.07-14.13c3.69-2.67,3.93-3.68,2.42-5.98
		l-32.45-47.21c-1.05-1.6-2.95-2.42-4.84-2.1l-28.82,4.7C599.87,539.45,597.36,546.08,599.27,548.97z"/>
	<path class="st11" d="M600.93,545.8l35.71,54.05c1.38,2.09,4.15,2.73,6.31,1.46l22.75-13.14c2.32-1.36,5.1-3.35,3.63-5.6
		l-30.57-47.18c-1.03-1.57-2.89-2.37-4.74-2.05l-29.97,5.23C600.71,539.15,599.07,542.97,600.93,545.8z"/>
	<path class="st4" d="M637.55,595.09c0.59,0.92,1.8,1.24,2.77,0.72l23.99-12.48c1.08-0.57,1.4-0.86,0.75-1.9l-28.75-45.19
		l-31.15,6.48L637.55,595.09z"/>
	<path class="st12" d="M638.34,584.3c0.39,0.61,1.19,0.82,1.84,0.48l15.94-8.29c0.71-0.38,0.93-0.57,0.5-1.26l-19.1-30.03
		l-20.7,4.31L638.34,584.3z"/>
	<path class="st18" d="M639.21,580.53c0.33,0.52,0.95,0.7,1.43,0.4l12.62-5.66c0.53-0.33,0.69-0.49,0.33-1.08L637.14,548
		l-15.67,3.72L639.21,580.53z"/>
	<g>
		<path class="st21" d="M685.01,625.24c0,0-9.28-9.93-17.93-17.14c-8.66-7.22-20.1-14.67-24.43-17.55
			c-4.33-2.89-15.11,0.3-10.02,9.49c6.94,12.52,20.02,29.71,29.41,39.81C671.4,649.96,688.61,637.51,685.01,625.24z"/>
		<path class="st19" d="M685.01,625.24c0,0-9.28-9.93-17.93-17.14c-8.66-7.22-20.1-14.67-24.43-17.55
			c-2.86-1.91-12.74-3.09-6.33,3.69c3.28,3.47,15.64,19.58,16.35,20.7c6.8,10.66,22.15,16.75,9.36,24.91
			C671.4,649.96,688.61,637.51,685.01,625.24z"/>
	</g>
	<path class="st21" d="M630.51,599.78c0,0-13.29-4.23-15.33-8.81c-2.04-4.58-7-20.11-7.51-22.65c-0.51-2.55-4.71-10.18-0.51-12.22
		c2.29-1.11,12.98,17.31,12.98,17.31s8.78,6.36,12.22,8.02S638.65,605.38,630.51,599.78z"/>
	<path class="st19" d="M624.18,584.88c-4.75-4.35-8.99-5.5-9.49-8.04c-0.51-2.55-11.72-18.7-7.52-20.74
		c2.29-1.11,12.98,17.31,12.98,17.31s8.78,6.36,12.22,8.02c1.62,0.78,5.35,4.81,5.53,8.6C638.42,601.1,626.13,586.67,624.18,584.88z
		"/>
	<path class="st19" d="M632.15,586.44c-0.2-0.86-0.31-6.37-0.64-8.66c-0.34-2.36-0.97-3.68-1-5.41c-0.03-1.73,0.04-6.12,2.64-7.07
		c2.64-0.97,4.92,10.56,6.88,12.53s2.76,13.93-0.6,14S633.11,590.61,632.15,586.44z"/>
	<polygon class="st19" points="631.26,558.93 632.58,560.91 640.4,558.87 639.01,556.96 	"/>
	<polygon class="st19" points="631.07,562.03 632.68,564.01 643.16,561.04 641.58,559.13 	"/>
</g>
<g id="R_arm">
	<path class="st21" d="M681.5,578.92c0,0-16.59,33.67-18.76,43.54c-2.17,9.9-3.68,25.82,11.47,20.77s29.02-42.36,35.52-52.03
		C717.58,579.54,706.04,561.29,681.5,578.92z"/>
	<path class="st19" d="M682.99,575.91c0,0-2.66,5.29-4.42,8.87c-0.57,1.15,9.94,6.01,8.38,9.46c-4.71,10.4-27.09,52.11-11.94,47.05
		s28.23-40.42,34.73-50.1C717.58,579.54,707.52,558.28,682.99,575.91z"/>
	<g>
		<path class="st22" d="M720.57,566.42c0,0,4.69-21.88-11.72-28.91c-9.64-4.13-16.16,15.03-20.13,22.61
			c-3.11,5.94-7.44,17.79-7.44,17.79s22.1,10.4,29.13,13.52L720.57,566.42z"/>
		<path class="st17" d="M720.57,566.42c0,0,4.69-21.88-11.72-28.91c-9.64-4.13-3.43,19.35-7.4,26.93
			c-3.11,5.94-13.56,16.56-13.56,16.56c7.1,3.32,17.97,8.4,22.53,10.42L720.57,566.42z"/>
	</g>
</g>
<g id="cape">
	<path class="st27" d="M853.02,704.63c-5.63-17.08-10.87-30.56-16.23-43.07c-10.8-25.2-22.13-46.52-38.34-85.6
		c-11.31-27.28-28.3-40.16-38.81-41.72c-10.51-1.56-16.84,1.3-28.3,0.39c-11.45-0.91-32,1-32,1s7.52,9.82,8.97,15.36
		s4.82,39.7,0.39,60.06c-8.51,39.15,32.63,188.74,48.4,222.67c0,0,17.09-21.47,34.07-20.3c16.98,1.17,18.19,18.72,70.34,12.87
		c52.15-5.85,57-5.85,57-5.85S870,756.1,853.02,704.63z"/>
	<path class="st14" d="M853.02,704.63c-5.63-17.08-16.23-43.07-16.23-43.07s-22.13-46.52-38.34-85.6
		c-11.31-27.28-28.3-40.16-38.81-41.72c-10.51-1.56-25.63-3.7-37.09-4.61c-11.45-0.91-28.95,7.78-28.95,7.78s11.27,0.66,16.02,10.15
		c4.58,9.15,11.08,135.03,11.08,135.03l7.91-6.33c0,0,20.26,139.75,28.48,157.45c0,0,17.09-21.47,34.07-20.3
		c16.98,1.17,18.19,18.72,70.34,12.87c52.15-5.85,57-5.85,57-5.85S870,756.1,853.02,704.63z"/>
</g>
<g id="hoodie">
	<g>
		<path class="st27" d="M709.23,538.2c2.44,8.1,30.44,30.61,53.75,32.05c16.72,1.03,10.2,1.57,18.76-3.63
			c8.2-4.99,11.67-25.12,7.8-32.94c-3.69-7.45-10.08-8.96-27.85-12.4c-10.14-1.96-28.59-1.16-42.13,1.33
			C709.37,524.47,708.24,534.89,709.23,538.2z"/>
		<path class="st16" d="M722.87,528c0,0,5.69,2.83,21.96,7.94c16.5,5.18,32.37,1.56,35.48-0.96c3.04-2.47-1.73-5.92-4.98-7.72
			c-3.21-1.79-3.64-2.46-20.72-5.62C737.52,518.49,716.2,525.78,722.87,528z"/>
	</g>
</g>
<g id="head">
	<path class="st20" d="M701.39,460.47c0,0-13.65-1.82-14.55-7.73s6.82-2.73,6.82-2.73s-10.46-5.91-3.64-12.28
		s24.33,3.18,22.97,13.19S701.39,460.47,701.39,460.47z"/>
	<path class="st9" d="M701.39,460.47c0,0-8.82-1.18-12.75-4.71c-3.74-7.16,5.02-5.75,5.02-5.75s-8.56-5.76-2.23-12.09
		c6.33-6.33,22.93,3,21.56,13S701.39,460.47,701.39,460.47z"/>
	<path class="st21" d="M719.36,453.19c0,0-23.88-4.89-35.14,8.41c-11.26,13.3-15.35,51.17,2.05,55.26
		c17.4,4.09,24.56,6.14,39.91-11.26C741.53,488.21,725.5,453.19,719.36,453.19z"/>
	<path class="st19" d="M719.36,453.19c0,0-23.88-4.89-35.14,8.41c7.01,0.64,10.96,4.59,12.74,13.5s5.34,24.92,0,33.63
		s-9.21,7.18-10.7,8.14c17.4,4.09,24.56,6.14,39.91-11.26C741.53,488.21,725.5,453.19,719.36,453.19z"/>
	<path class="st12" d="M691.16,454.89c0,0,11.71-8.3,16.26-4.89c2.07,1.56,7.85,25.24-1.36,35.48
		C706.05,485.48,695.59,468.43,691.16,454.89z"/>
	<path class="st20" d="M710.03,480.93c0,0-15.04-27.47-1.73-40.98c8.79-8.92,31.52-4.96,43.12,6.64
		c11.6,11.6,20.04,23.99,12.53,30.81c0,0,14.86,6.37,12.13,24.79c-2.73,18.42-41.72,33.77-56.05,26.95c0,0-20.48,0.04-19.12-14.29
		c1.36-14.33,13.45-20.57,13.45-20.57L710.03,480.93z"/>
	<path class="st9" d="M709.89,474.24c0,0-2.64-21.89-0.79-28.22c1.85-6.33,16.35-20.84,42.33,0.57
		c11.6,11.6,20.04,23.99,12.53,30.81c0,0,14.86,6.37,12.13,24.79c-2.73,18.42-41.72,33.77-56.05,26.95c0,0-14.42-0.49-13.05-14.82
		c1.36-14.33,7.38-20.04,7.38-20.04L709.89,474.24z"/>
	<path class="st19" d="M702.98,491.62c0,0-0.68-14.33,10.23-14.33s8.19,17.74-1.36,21.15C702.3,501.86,702.98,491.62,702.98,491.62z
		"/>
	<path class="st21" d="M703.1,488.45c0,0-0.58-11.16,6.74-11.16c-5.75,9.47-6.04,16.3-1.1,21.64
		C703.2,498.34,703.1,488.45,703.1,488.45z"/>
	
		<ellipse transform="matrix(0.1783 -0.984 0.984 0.1783 94.6729 1063.0164)" class="st9" cx="683.83" cy="474.82" rx="3.67" ry="1.65"/>
	<path class="st28" d="M686.27,466.98c0,0,3.92,0.6,4.35,5.03"/>
	<g>
		<path class="st17" d="M712.98,472.8c0,0-6.9,8.51-14,12.19c-5.38,2.78-9.7,3.32-9.7,3.32l1.06-2.17l-2.7-2.05
			c0,0,10.08-1.13,23.23-12.54L712.98,472.8z"/>
		<path class="st17" d="M713.68,471.8c0,0-3.56,10.36-8.98,16.25c-4.1,4.45-7.97,6.44-7.97,6.44l0.26-2.4l-3.24-1
			c0,0,9.08-4.52,17.53-19.74L713.68,471.8z"/>
		<path class="st17" d="M709.17,476.07c-2.03-0.34-4.04-11.15,0.78-11.42c4.54-0.25,9.7,0.29,8.87,3.72S711.2,476.41,709.17,476.07z
			"/>
		<path class="st12" d="M707.37,469.92c0,0,0.71-4.65,2.15-4.56c1.44,0.09,0.17,2.09-0.18,5.15
			C708.99,473.57,707.12,471.89,707.37,469.92z"/>
		<g>
			<path class="st17" d="M710.83,473.81c0,0,0.29-2.14-2.84-4.18c-3.13-2.04-5.51-3.15-7.48-1.91s-2.62,6.65-1.46,9.36
				c1.15,2.71,8.06,0.59,9.8-0.44C710.59,475.6,710.83,473.81,710.83,473.81z"/>
		</g>
	</g>
</g>
</svg>
