<?xml version="1.0" encoding="utf-8"?>
<!-- Generator: Adobe Illustrator 23.1.0, SVG Export Plug-In . SVG Version: 6.00 Build 0)  -->
<svg version="1.1" xmlns="http://www.w3.org/2000/svg" xmlns:xlink="http://www.w3.org/1999/xlink" x="0px" y="0px"
	 viewBox="0 0 960 1080" style="enable-background:new 0 0 960 1080;" xml:space="preserve">
<style type="text/css">
	.st0{fill:#F3E7D9;}
	.st1{fill:#1D2538;}
	.st2{fill:#BB83C3;}
	.st3{fill:#665070;}
	.st4{fill:#288453;}
	.st5{fill:#33A86D;}
	.st6{fill:none;stroke:#4B3355;stroke-width:2;stroke-miterlimit:10;}
	.st7{fill:#273252;}
	.st8{fill:#48598B;}
	.st9{fill:#CC6D3D;}
	.st10{fill:#C94039;}
	.st11{fill:#F5894E;}
	.st12{fill:#F7BC4B;}
	.st13{fill:#CE9436;}
	.st14{fill:#3E4C6F;}
	.st15{fill:#273150;}
	.st16{fill:#F6BE4A;}
	.st17{fill:#4B3355;}
	.st18{fill:#856792;}
	.st19{fill:none;stroke:#4B3355;stroke-miterlimit:10;}
	.st20{fill:#34283A;}
</style>
<g id="bg">
	<path class="st0" d="M424.45,195.69c0,0-38.8-69.32-108.1-18.73c0,0-22.55-41.7-79.83-35.23c-24.8,2.8-69.25-1.26-87.72,38.95
		s-6.84,82.46-6.84,82.46s-30.91,3.94-46.16,36.45c-5.62,11.98-22.19,46.09,11.61,41.28c33.8-4.81,395.94-128.44,417.73-135.6
		c21.79-7.16,106.39-48.62,106.39-48.62s-36.14,1.12-74.87,8.15c-38.73,7.03-56.78,18.74-56.78,18.74S444.82,187.61,424.45,195.69z"
		/>
	<path class="st0" d="M664.61,219.09c0,0-73.3,36.73-63.01,95.14c0,0-2.57,4.75,46.87-20.47c49.44-25.22,69.59-32.29,154.66-78.52
		c68.81-37.39,85.47-54.29,85.47-54.29s-54.49,7.55-93.96,21.54c-39.47,13.99-42.66,34.28-42.66,34.28S707.78,201.86,664.61,219.09z
		"/>
</g>
<g id="trees">
	<path class="st1" d="M150.64,933.66c0,0-12.81,2.12-27.84-1.15c-15.03-3.26-4.27-13.81-4.27-13.81s-28.56,4.31-27.14-7.66
		c1.42-11.97,21.31-10.92,21.31-10.92c-17.89-21.98-18.49-34.84-10.95-43.13c7.55-8.29,20.3,9.96,20.3,9.96s-26.07-48.37-1.38-50.52
		s23.21,29.66,23.21,29.66s-9.51-12.45,3.08-18.99s24.45,13.73,24.45,13.73c-12.71-17.26-14.86-41.95,2.86-44.77
		c17.72-2.81,30.26,32.08,30.26,32.08s23.49-6.83,42.09,9.16c18.6,15.99-11.06,39.2-11.06,39.2s31.16-12.37,33.7-0.59
		c2.54,11.78-12.7,12.53-11.09,17.38c0,0,14.07-2.35,17.01,3.17c6.26,11.76-8.89,43.07-22.61,46.69
		c-13.72,3.62-10.41,0.54-10.41,0.54s7.61,13.83-3.08,18.99s-43.96-17.83-43.96-17.83s-34.9,15.72-50.07,9.49
		S150.64,933.66,150.64,933.66z"/>
	<path class="st2" d="M174.12,923.99c0,0-10.66-175.87-13.55-293.49c-2.4-97.58,2.7-186.47,4.23-202.9
		c2.18-23.34-6.45-283.62-6.45-283.62l14.07-107.6l110.92,1.08l-10.16,455.36l4.23,190.58l23.71,239.14L174.12,923.99z"/>
	<path class="st3" d="M174.12,923.99c0,0-10.66-175.87-13.55-293.49c-2.4-97.58,7.33-4.85,8.86-21.28l37.98,74.37l42.73-180.4
		l3.56-466.22l29.64,0.49l-10.15,455.36l4.23,190.58l23.71,239.14L174.12,923.99z"/>
	<path class="st2" d="M324.57,45.88l-14.3,80.7c0,0,13.01,384.79,11.77,402.34c-1.69,23.91-3.37,77.53-1.69,101.45
		c1.69,23.91,7.32,176.66,7.32,176.66l13.26,45.89h41.33l0.5-118.93l-18.56-127.53l-1.69-115.22l5.9-446.47L324.57,45.88z"/>
	<path class="st3" d="M349.84,573.62c0,0-26.1-68.61-27.79-44.7c-1.69,23.91-3.37,77.53-1.69,101.45
		c1.69,23.91,8.91,178.24,8.91,178.24l11.68,44.31h41.33l0.5-118.93l-18.56-127.53l-1.69-115.22l1.55-86.15L349.84,573.62z"/>
	<path class="st1" d="M518.3,897.02c0,0,13.82-0.93,28.62-7.99c14.81-7.06,1.06-15.38,1.06-15.38s30.7-2.5,26.3-14.57
		c-4.4-12.08-24.79-6.13-24.79-6.13c13.21-27.18,10.69-40.68,0.83-47.45c-9.86-6.76-18.65,15.3-18.65,15.3s15.25-56.58-10.91-52.78
		c-26.16,3.8-16.85,36.46-16.85,36.46s6.83-15.25-7.83-18.96c-14.66-3.72-22.03,20.23-22.03,20.23c8.98-21.02,5.18-47.18-13.9-45.77
		c-19.08,1.41-23.58,40.69-23.58,40.69s-26.05-1.35-41.46,19.79s21.05,37.99,21.05,37.99s-35.37-5.23-35.12,7.62
		s16.25,9.9,15.75,15.34c0,0-15.18,1-16.88,7.44c-3.63,13.74,19.75,42.54,34.87,42.94c15.12,0.41,10.94-1.98,10.94-1.98
		s-4.52,16.21,7.83,18.96c12.35,2.75,41.28-29.25,41.28-29.25s40.07,7.8,54.29-2.38C543.36,906.97,518.3,897.02,518.3,897.02z"/>
	<path class="st1" d="M576.29,953.05c0,0,13.02,4.72,29.41,4.24s7.17-13.65,7.17-13.65s29.1,10.1,29.95-2.72
		c0.85-12.83-20.21-15.61-20.21-15.61c23.05-19.54,26.19-32.91,19.9-43.08c-6.29-10.16-23.23,6.48-23.23,6.48
		s36.78-45.62,11.31-52.7c-25.47-7.08-30.13,26.56-30.13,26.56s12.4-11.19,0.48-20.51c-11.92-9.32-28.31,9.62-28.31,9.62
		c16.7-15.61,23.77-41.08,5.74-47.49s-37.99,27.72-37.99,27.72s-23.29-11.75-45.92,1.38c-22.63,13.13,3.94,43.26,3.94,43.26
		s-30.25-19.06-35.21-7.2c-4.96,11.86,10.87,15.62,8.23,20.39c0,0-14.3-5.21-18.45,0c-8.86,11.11,0.91,46.89,14.58,53.36
		s10.81,2.6,10.81,2.6s-10.67,13.01-0.48,20.51c10.19,7.5,49.57-10.11,49.57-10.11s33.52,23.3,50.64,19.73
		C595.21,972.26,576.29,953.05,576.29,953.05z"/>
	<path class="st3" d="M242.23,87.02c0,0-6.33,159.82-9.49,180.4c-3.16,20.57-7.91,39.56-7.91,39.56l-9.49-3.69
		c0,0-1.58,36.92-4.75,62.24c-3.16,25.32,1.58,91.78,1.58,91.78l9.49-141.89c0,0,3.16,11.6,7.91,1.58s7.91-93.36,12.66-128.18
		S242.23,87.02,242.23,87.02z"/>
	<path class="st3" d="M209,449.4c0,0-1.58,107.6,6.33,142.42v-117.1L209,449.4z"/>
	<path class="st3" d="M351.42,145.57c0,0-3.96,99.69-5.54,134.51s5.54,139.25,0.79,162.99c0,0-1.32-117.63-3.96-142.42
		C340.08,275.86,342.45,155.07,351.42,145.57z"/>
	<path class="st2" d="M247.77,420.52c0,0,5.54,35.21,10.29,49.45c4.75,14.24,6.33,218.37,6.33,218.37l-8.31,35.6l-18.59,54.59
		l-30.07-68.04l23.74-146.37L247.77,420.52z"/>
	<polygon class="st3" points="365.26,210.45 358.14,108.38 360.65,45.09 368.43,44.77 	"/>
	<path class="st3" d="M199.51,66.45c0,0-6.33,45.89,0,79.12l-9.49,11.08l-3.16,118.68l-3.16-137.67h7.91L199.51,66.45z"/>
	<path class="st2" d="M332.43,501.62l9.49,52.22l-4.75,125.01l12.66-105.23C349.84,573.62,334.01,506.36,332.43,501.62z"/>
	<path class="st1" d="M183.68,773.79c0,0,4.75-23.74-6.33-23.74c-11.08,0-22.15,20.57-11.08,28.48
		C177.35,786.45,183.68,773.79,183.68,773.79z"/>
	<path class="st1" d="M197.92,800.69c0,0-7.91-26.9-17.41-15.82C171.02,795.95,178.93,821.26,197.92,800.69z"/>
	<path class="st1" d="M178.93,832.34c0,0,3.69-14.24,9.49-14.24s6.33,18.99,6.33,18.99s12.66-23.74,17.41-7.91
		c4.75,15.82-9.49,20.57-9.49,20.57s26.9-7.91,18.99,14.24c-7.91,22.15-22.15,6.33-22.15,6.33s4.75,20.57-17.41,6.33
		S139.37,819.68,178.93,832.34z"/>
	<g>
		<g>
			<path class="st4" d="M268.94,649.12c0,0-5.1-28.91,10.2-22.1c15.3,6.8,3.4,20.4,3.4,20.4s20.4-1.7,11.9,15.3s-20.4,8.5-20.4,8.5
				s23.8,18.7,15.3,28.91c-8.5,10.2-17,0-17,0s-5.1,30.61-15.3,18.7c-10.2-11.9,0-22.1,0-22.1s-15.3-11.9-10.2-22.1
				c5.1-10.2,11.9,0.85,11.9,0.85S245.14,638.92,268.94,649.12z"/>
			<path class="st4" d="M239.15,598.67c-12.05,0-13.86,27.55,0,31.33S251.2,598.67,239.15,598.67z"/>
		</g>
		<path class="st4" d="M240.33,648.41c0,0-10.73,8.78,0.98,11.7C253.01,663.05,248.13,647.44,240.33,648.41z"/>
	</g>
	<path class="st3" d="M185.26,441.48c0,0,4.75,77.54,6.33,82.29c1.58,4.75,11.08,101.27,11.08,101.27l6.33,30.07l-25.32-53.8
		l-4.75-85.45l-3.16-120.26l7.91,26.9L185.26,441.48z"/>
</g>
<g id="bushes">
	<path class="st4" d="M321.48,945.15c0,0,4.22-73.23-23.94-70.41c-28.16,2.82-16.9,46.47-16.9,46.47s-32.39-50.7-47.88-66.19
		s-25.35,23.94-4.22,57.74c0,0-40.84-61.96-63.37-61.96s-33.8,5.63-14.08,28.16c19.71,22.53,28.16,29.57,28.16,29.57
		s-45.06-21.12-66.19-4.22s-21.12,22.53-2.82,26.76c18.31,4.22,47.88,7.04,47.88,7.04s-30.98-4.22-16.9,21.12
		c14.08,25.35,77.45,12.67,85.9,5.63c0,0-25.35,32.39,9.86,33.8s38.02-45.06,38.02-45.06s12.67,22.53,35.2,26.76
		C332.74,984.58,321.48,945.15,321.48,945.15z"/>
	<path class="st4" d="M386.98,965.26c0,0,16.26,5.9,36.73,5.29c20.47-0.61,8.96-17.04,8.96-17.04s33.61,17.49,34.67,1.47
		s-22.5-24.36-22.5-24.36c28.78-24.41,32.71-41.1,24.85-53.8c-7.86-12.69-29.01,8.09-29.01,8.09s45.93-56.97,14.12-65.81
		s-37.62,33.17-37.62,33.17s15.49-13.98,0.6-25.61c-14.88-11.63-35.36,12.02-35.36,12.02c20.85-19.49,29.69-51.3,7.17-59.31
		c-22.52-8.01-47.45,34.62-47.45,34.62s-29.09-14.67-57.34,1.73s4.92,54.02,4.92,54.02s-37.78-23.8-43.97-8.99
		s13.58,19.5,10.28,25.46c0,0-17.85-6.51-23.04,0c-11.07,13.87,1.14,58.55,18.21,66.64c17.08,8.08,13.49,3.25,13.49,3.25
		s-13.33,16.25-0.6,25.61c12.73,9.36,61.91-12.63,61.91-12.63s41.85,29.09,63.24,24.64C410.6,989.26,386.98,965.26,386.98,965.26z"
		/>
	<path class="st5" d="M237.09,910.67c0,0-2.37-33.23-15.43-33.23c-13.05,0-1.19,18.99-1.19,18.99s-13.05-9.49-20.18,4.75
		s15.43,18.99,15.43,18.99s-11.87,1.19-21.36,9.49c-9.49,8.31,2.37,23.74,22.55,13.05c0,0,0,17.8,16.62,7.12
		c16.62-10.68,14.24-15.43,14.24-15.43s10.41-9.9,7.12-17.8C248.96,902.36,237.09,910.67,237.09,910.67z"/>
	<path class="st5" d="M278.63,913.04c0,0,11.87-15.43-1.19-22.55c-13.05-7.12-10.68,13.05-10.68,13.05s0-30.86-16.62-24.92
		c-16.62,5.93,3.56,24.92,3.56,24.92s-22.55-14.24-23.74-2.37c-1.19,11.87,17.8,13.05,17.8,13.05s15.43,24.92,33.23,9.49
		S278.63,913.04,278.63,913.04z"/>
	<g>
		<path class="st6" d="M244.87,906.71c0,0,11.47,44.57,28.48,55.91c7.96,5.31,49.58,19.25,49.58,19.25"/>
		<line class="st6" x1="249.62" y1="921.48" x2="226.41" y2="920.96"/>
		<path class="st6" d="M281.79,967.37c0,0,2.11-28.48,1.05-34.29"/>
		<path class="st6" d="M263.86,953.13c0,0-15.82,1.05-22.15-0.53"/>
	</g>
	<g>
		<g>
			<path class="st6" d="M366.45,838.67c0,0-11.08,40.35,0,56.18c11.08,15.82,6.33,56.97,6.33,56.97"/>
			<path class="st6" d="M401.26,881.4c0,0-7.12,32.44-29.27,30.07"/>
			<path class="st6" d="M322.14,875.86c0,0-3.16,28.48,11.87,35.6c15.03,7.12,39.56,15.03,39.56,15.03"/>
		</g>
		<path class="st6" d="M325.31,903.02c0,0-30.07,1.32-37.78-21.82"/>
		<path class="st6" d="M360.91,875.86c0,0-23.74-11.87-33.23-43.52"/>
	</g>
	<path class="st0" d="M368.89,851.53c0,0-16.7,2.58-19.96-13.04c-3.25-15.62-0.58-21.09-0.58-21.09l7.84,6.26l9.2-15.09l7.9,13.55
		l11.62-5.19C384.91,816.93,387.92,847.91,368.89,851.53z"/>
	<path class="st0" d="M324.58,884.56c0,0-16.7,0.53-19.96-16.54s-0.58-22.53-0.58-22.53l7.84,7.71l9.2-14.84l7.9,15.48l11.62-3.98
		C340.61,849.84,343.61,883.24,324.58,884.56z"/>
	<path class="st0" d="M402.51,892.87c0,0-16.7,0.53-19.96-16.54c-3.25-17.07-0.58-22.53-0.58-22.53l7.84,7.71l9.2-14.84l7.9,15.48
		l11.62-3.98C418.54,858.15,421.54,891.54,402.51,892.87z"/>
</g>
<g id="hair">
	<path class="st7" d="M479.38,452.54c0,0-8.09,63.2-5.01,91.72c0,0-43.46-2.09-19.27,40.08c13.49,23.51,69.75,16.19,103.66,3.85
		S556.45,437.12,479.38,452.54z"/>
	<path class="st7" d="M573.31,439c0,0,2.27-32.35-19.94-49.52s-35.8-13.67-44.51-2.59c-8.93,11.37,16.99,31.92,24.06,36.96
		c7.07,5.05-18.54-8.64-37.36-6.06c-18.87,2.59-37.38,11.01-38.39,28.17c-1.01,17.16,54.55,14.24,54.55,14.24L573.31,439z"/>
	<path class="st7" d="M534.32,413.36c0,0,64.09-13.32,89.06,14.98c24.97,28.3,25.66,70.19,25.66,70.19s37.28,9.18,38.95,44.14
		c1.66,34.96-57.11,58.8-115.38,28.84S518.51,437.5,534.32,413.36z"/>
	<path class="st8" d="M480.84,452.48c0,0-7.7,60.15-4.77,87.29c0,0-41.36-1.98-18.34,38.14c12.84,22.37,66.38,15.4,98.66,3.67
		C588.66,569.84,554.19,437.81,480.84,452.48z"/>
	<path class="st8" d="M526.63,419.8c0,0,65.43-9.73,88.26,16.14c22.83,25.87,16.62,61.71,16.62,61.71s34.08,8.39,35.6,40.35
		c1.52,31.96-52.21,53.75-105.47,26.36C508.37,536.98,512.18,441.87,526.63,419.8z"/>
	<path class="st8" d="M559.97,442.15c0,0,2.17-30.82-18.99-47.17s-31.51-16.31-37.28-3.8c-5.77,12.5,11.08,31.74,17.81,36.54
		c6.73,4.81-18.27-10.58-35.58-5.77c-17.31,4.81-29.81,12.5-30.77,28.85c-0.96,16.35,46.16,11.54,46.16,11.54L559.97,442.15z"/>
</g>
<g id="right_arm">
	<g>
		<path class="st9" d="M476.28,630.38c0,0-87.45,34.56-103.29,58.42c-15.84,23.86-24.23,44.3,0.64,44.64
			c16.58,0.22,117.57-45.32,123.54-46.72S476.28,630.38,476.28,630.38z"/>
		<path class="st10" d="M518.51,609.77c-33.74,13.44-49.25,21.8-49.25,21.8l17.5,60.07c0,0,11.98-3.44,41.68-21.41
			C577.45,640.55,565.11,591.2,518.51,609.77z"/>
	</g>
</g>
<g id="right_forearm">
	<path class="st11" d="M404.16,576.41c0,0-22.22,27.85-37.81,53.63c-13.78,22.79-58.22,75.62-28.19,95.57
		c37.42,24.85,57.04-7.84,70.78-33.44c13.74-25.6,27.15-81.45,35.03-100.08C451.66,573.92,435.79,531.11,404.16,576.41z"/>
	<path class="st9" d="M414.71,585.48c0,0-1.08,84.94,12.66,59.34s-18.17-58.12-10.29-76.75
		C424.78,549.9,414.71,585.48,414.71,585.48z"/>
</g>
<g id="right_hand">
	<path class="st9" d="M409.44,491.07c0,0,13.37-16.11,16.88-20.04c6.59-7.38,13.32,0.53,13.32,0.53l5.93,10.29
		C445.57,481.84,414.19,502.14,409.44,491.07z"/>
	<path class="st11" d="M450.8,504.01l-10.58-16.23l-12.6-3.55l-5.54,8.62l-8.06-1.52c0,0-2.52,9.13-6.55,13.19
		c-4.03,4.06-4.03,21.31-4.03,21.31l35.28,69.5c0,0,25.86-14.58,25.07-35.15c-0.35-9.13-2.75-15.56-5.27-22.15
		S450.8,504.01,450.8,504.01z"/>
	<path class="st9" d="M425.79,495.29c0,0,35.87,66.46,20.04,64.88c-9.48-0.95-26.53-21.93-33.23-32.7
		C400.47,507.95,413.92,483.42,425.79,495.29z"/>
	<path class="st11" d="M417.09,573.62c0,0-13.08-14.22-17.14-20.31c-4.06-6.09-10.25-5.56-6.19-22.81
		c4.06-17.25,4.08-17.38,4.08-19.92c0-2.54,9.49-22.15,9.49-22.15s10.11-4.28,8.44-2.11l-7.38,28.48l3.78,14.44
		c0,0,16.44,0.77,21.01,25.12C437.74,578.71,426.73,574.63,417.09,573.62z"/>
</g>
<g id="torso">
	<path class="st12" d="M546.05,600.25c-9.57,4.87-18.74,31.6-24.13,57.63c-5.96,28.77-6.65,52.75,36.79,92.18
		c25.71,23.34,44.31,47.47,44.31,47.47l72,12.26l48.26-21.76c0,0,11.84-34.91-23.74-90.2c-21.07-32.74-34.99-109.92-55.81-112.92
		C593.52,577.69,561.67,592.31,546.05,600.25z"/>
	<path class="st13" d="M659.59,727.9l17.8-18.99l-4.75,28.48l2.37,72.4l48.26-21.76c0,0,11.84-34.91-23.74-90.2
		c-21.07-32.74-34.99-109.92-55.81-112.92c-34.35-4.94-1.84,61.3,11.11,103.82C660.83,708.38,659.59,727.9,659.59,727.9z"/>
	<path class="st14" d="M553.44,594.98c0,0-10.21,0.48-21.63,5.8s-38.93,28.46-43.3,49.76c-3.53,17.21-14.85,37.4-14.85,37.4
		s15.43,3.96,22.95-1.19c9.9-6.77,21.33-56.34,30.46-66.99C536.2,609.12,553.44,594.98,553.44,594.98z"/>
	<path class="st11" d="M535.48,565.35c0,0,9.97,39.28,17.69,54.15c7.72,14.87,18.61,18.18,32.71,9.25
		c16.61-10.52-4.76-73.13-4.76-73.13L535.48,565.35z"/>
	<path class="st9" d="M529.95,547.55c0,0,8.39,34.77,14.13,49.61c0,0,24.78,11.78,36.79,0.2c11.08-10.68-2.77-59.93-2.77-59.93
		L529.95,547.55z"/>
	<path class="st7" d="M493.84,688.74l6.33-4.75c0,0-49.32,25.71-66.82-90.7c-1.71-11.38-3.72-23.16-6.5-44.2
		c-2.37-17.94-1.58-47.21-1.58-47.21l-9.49-3.96c0,0-5.92,27.97-4.75,48.26c1.21,20.95,3.57,36.39,7.11,60.8
		c7.61,52.5,21.03,76.03,51.97,82.55C484.77,692.62,493.84,688.74,493.84,688.74z"/>
</g>
<g id="left_arm">
	<g>
		<path class="st9" d="M702.88,613.87c0,0,39.47,59.2,56.26,86.83c16.79,27.63-39.08,29.01-56.43,12.96
			c-9.09-8.41,0-1.58-44.84-61.71C639.77,627.66,664.74,586.48,702.88,613.87z"/>
		<path class="st10" d="M663.68,660.38c0,0-50.87-63.3-26.79-78.13c33.53-20.65,60.98,27.43,71.14,39.57
			C708.03,621.82,681.36,627.62,663.68,660.38z"/>
	</g>
</g>
<g id="head">
	<g>
		
			<ellipse transform="matrix(0.2193 -0.9756 0.9756 0.2193 -31.4839 989.7538)" class="st9" cx="602.74" cy="514.55" rx="23.19" ry="19.02"/>
		<path class="st15" d="M519.75,451.76c-3.19,9.79,14.15,17.76,32.45,25.23c18.31,7.47,35.73,5.58,38.93-4.21
			c3.19-9.79-9.06-23.78-27.36-31.25C545.46,434.07,522.94,441.97,519.75,451.76z"/>
		<path class="st9" d="M603.74,501.25c-9.29-54.31-52.02-63.33-62.33-63.66c-51.42-1.68-68.6,34.8-68.92,94
			c-0.23,43.25,24.2,51.03,48.3,56.51C549.76,594.69,615.34,569.07,603.74,501.25z"/>
		<path class="st11" d="M481.57,541.18c-10.47-54.09,16.17-95.31,5.46-78.23c-10.21,16.27-14.38,39.75-14.54,68.64
			c-0.23,43.25,24.2,51.03,48.3,56.51C520.79,588.1,488.69,577.97,481.57,541.18z"/>
		<path class="st16" d="M563.76,454.16c-29.58-16.91-69.57-0.44-69.57-0.44s33.66-42.04,75.3-13.25
			c37.34,25.82,32.89,55.39,31,72.91C600.5,513.38,598.74,474.15,563.76,454.16z"/>
		<g>
			<path class="st10" d="M590.14,462.06c0,0,7.68,18.65,18.28,28.88c8.02,7.74,15.36,10.97,15.36,10.97l-0.73-4.39l5.85-2.19
				c0,0-17.18-7.31-34.37-34.37L590.14,462.06z"/>
			<path class="st10" d="M589.44,459.94c0,0,0.83,20.15,7.28,33.4c4.88,10.02,10.67,15.56,10.67,15.56l0.82-4.37l6.25-0.06
				c0,0-13.64-12.75-20.52-44.06L589.44,459.94z"/>
			<path class="st10" d="M594.28,471.93c4.77,0.59,16.5-22.25,5.88-26.07c-10-3.6-21.91-5.84-22.34,2.4
				C577.37,456.5,589.5,471.34,594.28,471.93z"/>
			<path class="st12" d="M602.41,459.39c0,0,1.52-10.88-1.77-11.64c-3.29-0.76-1.77,4.55-3.04,11.64
				C596.33,466.47,601.65,463.94,602.41,459.39z"/>
			<g>
				<path class="st10" d="M592.06,465.77c0,0,0.78-4.98,9.16-7.46s14.43-3.37,18.01,0.73c3.58,4.1,1.41,16.63-2.99,21.93
					s-18.44-4.07-21.63-7.55C591.4,469.94,592.06,465.77,592.06,465.77z"/>
				<path class="st12" d="M618.59,469.5c0,0-1.52,10.12-6.32,10.37c-7.14,0.38,2.53-16.69,3.79-19.48
					C617.33,457.62,621.88,462.93,618.59,469.5z"/>
			</g>
		</g>
	</g>
</g>
<g id="camera">
	<g>
		<polygon class="st17" points="451.97,474.6 457.29,476.85 452.25,479.94 		"/>
		<path class="st17" d="M415.17,537.69c0,0,5.15,11.23,15.06,11.76c9.91,0.52,97.28-2.52,101.07-3.37c1.57-0.35,4.64-0.1,3.16-3.59
			c-2.09-4.94-10.55-7.65-10.55-7.65L415.17,537.69z"/>
		<polygon class="st14" points="464.77,476.83 464.14,472.62 462.38,472.21 463.48,476.92 		"/>
		<path class="st18" d="M435.54,538.16l-17.47,0.78c-2.09,0.03-3.82-1.6-3.91-3.69c-0.19-4.23-0.12-13.54,0.77-31.41
			c1.29-25.69,2.97-26.63,6.95-27.57c12.55-2.96,12.03,1.81,18.1,0.9c2.1-0.31,6.8-1.41,11.99-2.57l0.23,3.65l12.26-1.47l-0.46-4.54
			c0,0,27.74-3.54,53.32-4.71c12.92-0.59,9.56,0.92,8.92,12.35c-1.82,32.56-0.1,40.87-0.89,52.34c-0.11,1.57-0.78,3.09-2.33,3.36
			c-2.9,0.52-8.09,0.33-19.17,0.59C490.57,536.48,435.54,538.16,435.54,538.16z"/>
		<path class="st17" d="M535.57,481.11l-0.59,61.38c-0.08,2.93-1.66,1.93-3.86,0l-5.37-3.3c-1.45-1.31-1.79-3.47-1.52-5.41
			l1.25-61.05c-0.1-3.91-1.58-7.65,5.54-2.64c1.67,1.18,4.3,4.59,4.75,6.59L535.57,481.11z"/>
		<path class="st17" d="M438.1,480.44c-6.69,33.27-3.13,55-3.13,55c-0.51-10.64,2.91-48.15,2.91-48.15L438.1,480.44z"/>
		<g>
			<g>
				<path class="st7" d="M464.94,506.55c1.93,0,1.93-3,0-3C463.01,503.55,463.01,506.55,464.94,506.55L464.94,506.55z"/>
			</g>
		</g>
		<polygon class="st1" points="501.97,472.71 501.15,480.84 519.91,480.14 520.22,472.02 		"/>
		<path class="st19" d="M416.16,496.82c0,0,11.41-5.47,20.7,1.16c0,0,68.97-12.22,90.8-6.65"/>
		<g>
			<path class="st7" d="M503.92,505.77c0.36,15.18-12.72,25.93-27.43,26.28c-14.71,0.35-27.58-12.71-27.64-25.98
				c-0.06-13.08,16.75-26.86,25.13-27.06C490.85,478.6,503.56,490.59,503.92,505.77z"/>
			<circle class="st14" cx="474.01" cy="504.17" r="21.86"/>
			
				<ellipse transform="matrix(0.9997 -0.0238 0.0238 0.9997 -11.8495 11.4103)" class="st14" cx="472.71" cy="502.77" rx="24.39" ry="24.03"/>
			<g>
				<circle class="st7" cx="473.01" cy="504.14" r="17.17"/>
				<path class="st8" d="M458.48,510.96c-0.92-1.96-1.46-4.13-1.51-6.43c-0.21-8.86,6.8-16.21,15.66-16.43
					c5.84-0.14,11.02,2.85,13.94,7.45C473.41,491.7,466.2,498.24,458.48,510.96z"/>
				<circle class="st1" cx="473.01" cy="504.14" r="6.73"/>
				<circle class="st0" cx="469.58" cy="499.61" r="2.68"/>
			</g>
		</g>
		<path class="st7" d="M453.01,478.12l-0.29-3.66c-0.04-0.47,0.29-0.89,0.76-0.96l8.61-1.31c0.51-0.08,0.98,0.29,1.03,0.8l0.36,3.9
			L453.01,478.12z"/>
	</g>
</g>
<g id="right_hand_1_">
	<path class="st11" d="M409.97,489.75c0,0,1.58-13.71,7.38-17.93c5.8-4.22,14.99-8.39,18.73-8.7c3.16-0.26,6.86,4.48,0.79,10.55
		c-6.07,6.07-7.91,3.43-10.81,5.54C423.15,481.31,419.2,490.8,409.97,489.75z"/>
	<path class="st11" d="M403.37,503.2c0,0-7.52,8.31-1.98,10.68c5.54,2.37,17.8,6.33,20.18,1.19c2.37-5.14-0.79-7.12-7.12-10.29
		C408.12,501.62,405.75,498.85,403.37,503.2z"/>
	<path class="st11" d="M408.12,495.55c0,0-4.35,7.52,1.19,9.89c5.54,2.37,17.8,6.33,20.18,1.19s-0.79-7.12-7.12-10.29
		C416.03,493.18,410.49,491.2,408.12,495.55z"/>
	<path class="st11" d="M410.84,486.31c0,0-2.91,8.18,2.97,9.51c5.88,1.32,18.66,2.97,20.05-2.52s-2.08-6.86-8.88-8.81
		C418.19,482.53,412.38,481.6,410.84,486.31z"/>
</g>
<g id="left_forarm">
	<path class="st7" d="M529.44,479.07c0,0,6.33,70.42,34.55,134c17.5,39.43,30.59,41.46,48.53,48.55
		c22.41,8.87,39.56-3.36,39.56-3.36s-48.5-5.04-68.04-41.83c-26.11-49.15-39.56-115.34-39.56-115.34L529.44,479.07z"/>
	<path class="st11" d="M587.05,551.44c0,0,133.87,95.95,149.14,115.66c17.52,22.61,14,34.7,3.72,44.98
		c-8.95,8.95-22.95,9.49-42.12-2.53c-17.83-11.18-117.75-110.91-132.21-131.45C551.11,557.55,561.18,535.46,587.05,551.44z"/>
	<path class="st9" d="M644.16,597.35l16.62,15.03c0,0,10.29,31.65,3.96,53.01c-6.33,21.36-25.32-15.03-25.32-15.03
		S650.49,612.38,644.16,597.35z"/>
	<path class="st9" d="M695.2,679.24l40.99-12.15c17.52,22.61,14,34.7,3.72,44.98c-8.95,8.95-22.95,9.49-42.12-2.53
		c-17.83-11.18-108.45-99.53-122.9-120.07L695.2,679.24z"/>
	<path class="st11" d="M577.7,575.99c0,0-17.83,7.72-28.48-3.69c-10.65-11.41-25.07-18.07-11.38-37.85s8.88-21.81,8.88-21.81
		l-8.37-8.37l-15.22,13.7c0,0-9.13,15.22-12.17,12.17c-3.04-3.04-6.85-8.37,2.28-21.31l3.27-20.93c0,0,2.05-4.18,13.46-7.23
		c11.41-3.04,20.29,1.43,20.29,1.43l3.29-5.23l-13.7-8.37c0,0-13.7,4.57-20.54,2.28c-6.85-2.28-6.85-5.33,8.37-8.37
		c15.22-3.04,23.59-3.04,23.59-3.04l15.22,13.7l11.41,37.28l3.04,37.28C580.96,547.63,591.4,566.1,577.7,575.99z"/>
	<path class="st14" d="M603.81,657.79c0,0,16.52,6.84,28.48,0.42c12.58-6.75,15.59-64.92-6.66-78.59c-0.62-0.44-0.05-1.09,0.59-1
		c0.64,0.09,14.24,2.7,23.74,12.78s28.22,53.5,0.13,69.75C637.77,668.29,613.31,664.52,603.81,657.79z"/>
</g>
<g id="Layer_5">
	<g>
		<path class="st17" d="M732.67,53.82l-22.51,286v74.34c0,0-9.79,11.44-4.08,19.76c5.71,8.32,18.71,558.24,18.71,558.24l151.74,2.77
			l8.16-482.51l-12.24-67.58l-5.71-392.63L732.67,53.82z"/>
		<path class="st20" d="M732.67,53.82l-22.51,286v74.34c0,0-9.79,11.44-4.08,19.76c5.71,8.32,18.71,558.24,18.71,558.24l151.74,2.77
			l8.16-482.51l-50.64,61.98l9.49-329.14L818.23,125L732.67,53.82z"/>
		<polygon class="st17" points="805.57,353.01 818.23,444.09 822.98,546.05 829.31,794.83 843.55,699.67 838.8,571.88 
			819.81,376.12 832.47,75.25 		"/>
		<polygon class="st17" points="758.1,322.8 758.1,450.98 769.18,458.89 778.67,568.08 789.75,574.41 799.24,667.77 799.24,569.66 
			791.33,544.34 777.09,447.81 766.01,433.57 		"/>
	</g>
	<g>
		<path class="st1" d="M889,801.21c0,0,16.82-8.53,8.39-21.99s-18,3.65-18,3.65s5.35-19.83-6.45-25.16
			c-11.81-5.34-32.86,8.5-21.85,30.42c0,0-19.39-7.95-21.6,13.07c-2.21,21.03,9.39,19.64,9.39,19.64s-33.03-14.27-28.42,9.92
			c4.61,24.18,26.72,27.91,26.72,27.91s37.93,5.06,37.96-10.98s-16.45-13.47-16.45-13.47s31.31,8.63,34.16-8.28
			c2.85-16.91-16.57-8.81-16.57-8.81S919.01,809.62,889,801.21z"/>
		<path class="st1" d="M814.78,785.34c-0.73-15.5-18.61-16.51-22-0.37C789.38,801.12,815.51,800.85,814.78,785.34z"/>
		<path class="st1" d="M838.66,770.65c0,0-8.65-12.16-12.14,0.63c-3.49,12.78,0.85,10.84,8.01,8.04
			C841.68,776.51,838.66,770.65,838.66,770.65z"/>
	</g>
</g>
<g id="Layer_10">
	<path class="st4" d="M658.87,777.98c0,0,3.29-18.08,27.83-33.71s35.22,11.07,35.22,11.07s32.63-43.81,46.65-25.84
		c14.02,17.97-14.1,43.03-14.1,43.03c53.29,5.71,71.22,22.19,72.12,43.37c0.89,21.18-40.53,13.65-40.53,13.65
		s99.41,30.28,69.09,66.04c-30.32,35.76-70.66-8.95-70.66-8.95s29.35,4.07,21.14,29.61c-8.2,25.54-51.12,14.09-51.12,14.09
		c40.05,6.27,75.81,36.58,55.74,63.95s-83.36-2.82-83.36-2.82s-13.5,10.87-59.78,14.15c-46.28,3.28-46.29-37.81-46.29-37.81
		s-15.71,13.81-32.97,18.1c-17.26,4.28-31.99,8.99-57.62-11.14c-25.63-20.14-0.96-45.6-0.96-45.6s-33.63-5.13-20.02-28.25
		c13.61-23.12,49.3-19.34,49.3-19.34s-23.96-44.75-16.48-65.9c7.48-21.15,42.09,6.49,42.09,6.49s-6.69-66.06,21.98-77.88
		C634.83,732.45,658.87,777.98,658.87,777.98z"/>
	<g>
		<path class="st6" d="M734.17,862.77c0,0,5.82,51.22-13.25,79.09"/>
		<path class="st6" d="M709.84,858.2c5.12,13.55,25.55,26.92,25.55,26.92"/>
		<line class="st6" x1="733.51" y1="907.3" x2="764.15" y2="903.16"/>
		<line class="st6" x1="753.35" y1="903.55" x2="763.52" y2="880.96"/>
	</g>
	<path class="st5" d="M369.35,984.52c0,0-45.23-34.63-12.96-40.49c32.27-5.86,37.13,11.96,37.13,11.96s-14.58-32.39,5.48-46.85
		c20.06-14.46,14.96,48.34,14.96,48.34s6.98-25.17,23.92-11.09c16.95,14.08-8.59,33.27-8.59,33.27s51.83-48.6,67.65-19.19
		c15.83,29.4-45.1,40.87-45.1,40.87s17.12,37.51-22.88,37.51c-21.06,0-16.61-10.1-16.61-10.1s-66.91,30.03-75.51,0.13
		s58.06-21.44,58.06-21.44s-40.62,0.63-40.99-15.32S369.35,984.52,369.35,984.52z"/>
	<path class="st5" d="M524.71,941.73c0,0,26.83-50.25-4.97-42.23c-31.8,8.03-28.85,26.26-28.85,26.26s-0.14-35.52-24.38-40.38
		s6.4,50.2,6.4,50.2s-16.77-20.02-26.37-0.19c-9.6,19.83,21.6,26.73,21.6,26.73s-67.3-22.78-69.53,10.54
		c-2.23,33.32,57.97,18.53,57.97,18.53s12.81,46.87,49.23,30.31c19.17-8.72,15.71-19.04,15.71-19.04s55.69-3.03,51.14-33.81
		c-4.55-30.78-61.73,4.52-61.73,4.52s37.23-16.25,30.97-30.92C535.66,927.58,524.71,941.73,524.71,941.73z"/>
	<path class="st5" d="M316.74,967.51c0,0-45.23-34.63-12.96-40.49c32.27-5.86,37.13,11.96,37.13,11.96s-14.58-32.39,5.48-46.85
		c20.06-14.46,14.96,48.34,14.96,48.34s6.98-25.17,23.92-11.09c16.95,14.08-8.59,33.27-8.59,33.27s51.83-48.6,67.65-19.19
		c15.83,29.4-45.1,40.87-45.1,40.87s7.74,47.97-32.27,47.97c-21.06,0-7.23-20.56-7.23-20.56s-66.91,30.03-75.51,0.13
		s58.06-21.44,58.06-21.44s-40.62,0.63-40.99-15.32S316.74,967.51,316.74,967.51z"/>
	<g>
		<path class="st6" d="M410.6,937.31c0,0,9.13,42.91-10.32,53.8"/>
		<path class="st6" d="M412.34,968.69c16.75-0.4,24.62-19.06,24.62-19.06"/>
		<line class="st6" x1="399.95" y1="944.43" x2="412.47" y2="960.65"/>
	</g>
	<line class="st4" x1="592.47" y1="799.11" x2="606.19" y2="799.64"/>
	<g>
		<path class="st6" d="M610.54,795.15c0,0,5.14,19.38,33.63,32.44c28.48,13.05,35.6,104.44,35.6,104.44"/>
		<path class="st6" d="M639.68,779.99c0,0,6.86,31.91-3.96,42.86"/>
		<path class="st6" d="M666.58,864.52c16.09-8.97,35.08-20.04,31.91-52.48"/>
		<path class="st6" d="M665.29,814.34c0,0,12.17,27.95,28.7,26.37"/>
		<path class="st6" d="M599.86,933.62c0,0,13.45-41.54,6.33-60.13c-7.12-18.59-23.74-35.87-35.87-44.84"/>
		<path class="st6" d="M600.38,816.52c0,0,8.44,22.15-3.69,40.62"/>
		<path class="st6" d="M590.36,847.11c0,0-25.32-3.16-35.34-13.19"/>
		<path class="st6" d="M763.94,806.54c0,0-2,54.56,12.71,89.08"/>
		<path class="st6" d="M798.63,802.63c0,0-10.97,22.53-23.55,25.34c-10.85,2.43-8.9-0.21-8.9-0.21"/>
		<path class="st6" d="M729.58,810.38c0,0,11.02,45.75,37.05,44.54"/>
	</g>
	<path class="st0" d="M615.39,807.81c0,0-12.28,4.86-20.68-10.31c-8.4-15.17-7.57-21.18-7.57-21.18l9.83,4.86l4.1-16.94l12.31,12.21
		l9.78-7.4C623.16,769.06,633.02,800.63,615.39,807.81z"/>
	<path class="st0" d="M698.71,817.45c0,0-12.95,2.57-18.49-13.86c-5.54-16.43-3.64-22.2-3.64-22.2l8.8,6.55l7.07-15.93l9.92,14.22
		l10.95-5.52C713.31,780.72,717.34,813.55,698.71,817.45z"/>
	<path class="st5" d="M753.44,925.92c0,0-9.27-63.37,21.32-42.78s20.53,38.75,20.53,38.75s13.66-37.53,41.15-33.44
		c27.49,4.09-25.87,50.67-25.87,50.67s25.36-14.8,27.97,9.83s-33.01,20.06-33.01,20.06s79.86,1.5,69.55,37.6s-68.38-2.45-68.38-2.45
		s-2.88,23.35-28.11,22.49c-25.23-0.86-13.36-23.41-13.36-23.41s-8.68,20.19-22.14,14.25c-13.46-5.94-0.35-32.96-0.35-32.96
		s-41.51,1.98-37.23-15.27c8.43-33.95,50.54-4.84,50.54-4.84s-33.21-31.35-21-44.49C747.24,906.79,753.44,925.92,753.44,925.92z"/>
	<path class="st5" d="M594.22,951.19c0,0-51.18-31.99-33.59-59.17c17.59-27.19,51.18,44.78,51.18,44.78s-42.77-50.98,7.43-60.54
		c24.92-4.75,37.35,36.55,37.35,36.55s22.39-47.98,47.98-38.38s-11.2,65.57-11.2,65.57s29.12-29.32,26.74,21.71
		c-0.58,12.51-28.48,14.24-28.48,14.24s41.54,7.12,12.57,27.14c-37.1,22.31-64.18,6.45-79.03-9.34c0,0-35.25,15.49-45.1,4.75
		C553.97,970.01,594.22,951.19,594.22,951.19z"/>
	<g>
		<path class="st6" d="M634.67,894.05c0,0,14.24,34.42,0,91.04c-4.07,16.16-15.43,21.71-15.43,21.71"/>
		<line class="st6" x1="608.56" y1="917.79" x2="640.6" y2="942.76"/>
		<path class="st6" d="M692.43,887.73c-10.29,11.28-12.66,27.69-16.62,53.8c-3.96,26.11-12.66,46.68-12.66,46.68"/>
		<line class="st6" x1="672.65" y1="903.55" x2="678.19" y2="928.08"/>
	</g>
	<path class="st0" d="M771.55,803.33c0,0-14.2,4.76-20.85-11.29s-5.15-21.94-5.15-21.94l9.24,5.95l5.99-16.4l10.88,13.55l10.57-6.26
		C782.24,766.92,789.91,798.16,771.55,803.33z"/>
	<path class="st6" d="M670.27,875.86c0,0-27.69,12.66-49.85-33.23"/>
	<path class="st0" d="M632.56,861.31c0,0-11.47,3.84-16.84-9.12c-5.38-12.97-4.16-17.73-4.16-17.73l7.46,4.81l4.84-13.25l8.79,10.94
		l8.54-5.06C641.19,831.9,647.39,857.14,632.56,861.31z"/>
	<g>
		<path class="st6" d="M345.09,947.46c0,0,21.36,55.78,45.1,68.84"/>
		<path class="st6" d="M375.95,937.97c0,0,3.16,39.96-17.01,39.96"/>
		<path class="st6" d="M370.93,996.38c0,0-20.04,10.02-27.43,0"/>
	</g>
	<path class="st4" d="M455.46,1007.99c0,0,11.87-24.92-1.19-28.48c-13.05-3.56-11.87,14.24-11.87,14.24s5.8-15.82-14.37-17.01
		c-20.18-1.19-10.68,20.18-10.68,20.18s-24.79-32.84-40.22-17.41s5.93,28.48,5.93,28.48s-18.99,7.12-5.93,20.18
		s24.92,7.12,24.92,7.12s-22.55,17.8-1.19,14.24s24.92-7.12,24.92-7.12s-8.31,28.48,10.68,22.55s8.31-34.42,8.31-34.42
		s0,15.43,15.43,15.43c15.43,0,9.1-12.66,9.1-12.66s32.44-21.76,14.64-28.88C466.14,997.31,455.46,1007.99,455.46,1007.99z"/>
	<path class="st4" d="M455,1006.61c0,0-12.99-38.97,2.44-37.79c15.43,1.19,10.68,16.62,10.68,16.62s3.56-46.29,15.43-34.42
		c11.87,11.87,4.75,27.3,4.75,27.3s18.99-24.92,23.74-16.62s-8.31,21.36-8.31,21.36s23.74-14.24,23.74,1.19
		s-18.99,15.43-18.99,15.43s34.42,15.43,15.43,28.48c-18.99,13.05-49.85-3.56-49.85-3.56S438.32,1039.65,455,1006.61z"/>
	<path class="st4" d="M663.74,1017.21c0,0,27.93-30.12,13.39-35.42c-14.54-5.29-16.59,10.72-16.59,10.72s15.88-43.62,0.17-37.72
		s-15.6,22.9-15.6,22.9s-6.99-30.54-14.75-24.94c-7.76,5.6-1.26,22.89-1.26,22.89s-15.73-22.78-22.11-8.73
		c-6.38,14.05,10.92,21.9,10.92,21.9s-37.72-0.17-25.82,19.56c11.9,19.73,46.86,17.35,46.86,17.35S651.29,1029.35,663.74,1017.21z"
		/>
	<line class="st6" x1="672.65" y1="957.35" x2="695.2" y2="945.88"/>
	<path class="st4" d="M734.8,105.15c0,0-22.19-6.66-22.19,3.33s17.75,14.42,22.19,8.87C739.23,111.81,734.8,105.15,734.8,105.15z"/>
	<path class="st4" d="M751.48,61.09c0,0-34.73-10.22-26.56,10.22S755.56,83.57,751.48,61.09z"/>
	<path class="st4" d="M757.61,81.52c0,0-16.35,11.24-6.13,19.41S770.89,87.65,757.61,81.52z"/>
	<path class="st4" d="M739.22,159.16c0,0-30.65-30.65-38.82-16.35c-8.17,14.3,12.26,24.52,20.43,24.52c0,0-28.6,14.3-14.3,24.52
		c14.3,10.22,18.39-4.09,18.39-4.09s16.35,28.6,24.52,10.22s-2.04-20.43-2.04-20.43s16.35-12.26,12.26-24.52
		S739.22,159.16,739.22,159.16z"/>
	<path class="st4" d="M753.52,120.34c0,0-34.73,18.39-10.22,28.6C767.82,159.16,771.91,128.52,753.52,120.34z"/>
</g>
</svg>
