<svg width="300" height="380" viewBox="0 0 300 380" fill="none" xmlns="http://www.w3.org/2000/svg">
<path d="M132.712 128.902C132.712 128.902 123.851 162.825 140.668 177.73C157.485 192.634 144.081 131.14 132.712 128.902Z" fill="#CE9436"/>
<path d="M73.1343 173.333C73.1343 173.333 85.5378 147.309 89.158 136.901C92.7782 126.493 101.596 108.799 109.509 105.958C117.421 103.118 124.334 112.522 116.111 128.45C106.328 147.409 93.0109 168.145 84.8223 176.194C84.8223 176.194 84.4603 179.426 82.7623 180.59C74.1082 186.521 67.7557 184.283 73.1343 173.333Z" fill="#F5894E"/>
<path d="M91.3379 161.992C92.4757 157.978 96.139 151.755 99.7505 141.347C103.362 130.939 101.595 108.809 109.508 105.958C117.421 103.108 124.333 112.522 116.11 128.45C106.327 147.409 93.0101 168.144 84.8215 176.194C84.8215 176.194 90.2001 165.967 91.3379 161.992Z" fill="#CC6D3D"/>
<path d="M88.9594 136.108C93.838 123.362 99.5011 107.664 107.198 104.894C114.896 102.124 125.48 111.579 117.481 127.065C115.499 130.899 109.612 141.116 107.422 145.131L88.9594 136.108Z" fill="#273252"/>
<path d="M99.7509 141.126C99.7509 141.126 102.026 132.094 98.8458 113.857C101.88 107.835 103.259 106.34 107.198 104.925C114.895 102.155 125.48 111.609 117.481 127.095C115.499 130.929 109.612 141.146 107.422 145.161L99.7509 141.126Z" fill="#1D2538"/>
<path d="M84.9165 177.569C85.2268 178.572 86.1319 185.136 85.6923 187.696C85.2527 190.255 85.3389 195.594 77.995 193.236C71.9614 191.309 65.4105 193.236 61.8593 192.352C53.9896 190.445 52.0072 190.566 48.5766 185.999C45.146 181.433 52.2313 184.494 63.5056 181.061C74.7799 177.629 84.2269 175.371 84.9165 177.569Z" fill="#992C29"/>
<path d="M73.6168 175.019C79.9004 171.005 85.3135 174.437 84.598 177.237C83.6068 181.071 82.7879 180.248 75.5389 181.453C71.437 182.007 67.3033 182.171 63.1785 181.945C57.8344 181.874 61.377 182.908 73.6168 175.019Z" fill="#F5894E"/>
<path d="M149.331 122.429C149.331 122.429 116.852 104.714 111.327 104.463C105.802 104.212 96.8721 107.113 104.268 121.084C109.526 131.02 132.385 145.111 142.038 149.557C151.692 154.003 156.364 149.136 157.14 139.42C157.916 129.705 149.331 122.429 149.331 122.429Z" fill="#273252"/>
<path d="M149.331 122.429C149.331 122.429 116.852 104.714 111.327 104.463C105.802 104.212 96.8721 107.113 104.268 121.084C109.526 131.02 132.385 145.111 142.038 149.557C151.692 154.003 156.364 149.136 157.14 139.42C157.916 129.705 149.331 122.429 149.331 122.429Z" fill="#1D2538"/>
<path d="M238.894 333.366C233.998 335.905 236.17 354.282 244.341 345.41C252.513 336.537 243.798 330.816 238.894 333.366Z" fill="#288453"/>
<path d="M19.0959 263.903C19.0959 263.903 63.1503 277.623 72.2439 277.623C81.3374 277.623 225.232 271.601 225.232 271.601C225.232 271.601 244.332 239.043 183.634 243.007C122.935 246.972 19.0959 263.903 19.0959 263.903Z" fill="#008FBC"/>
<path d="M225.543 184.012C226.561 179.737 227.914 175.692 231.491 177.218C246.911 183.792 288.026 201.697 288.026 201.697C288.026 201.697 298.654 205.641 299.62 225.523C301.343 260.862 298.249 317.859 268.245 331.398C248.239 340.431 178.162 335.634 187.316 337.752C187.316 337.752 223.233 323.992 223.233 264.485C223.19 219.06 222.914 195.073 225.543 184.012Z" fill="#008FBC"/>
<path d="M227.965 176.254C213.036 174.468 108.619 186.612 78.5715 190.576C48.5238 194.541 21.9671 196.136 11.7443 203.282C-1.0815 212.245 -1.90034 234.516 2.19393 247.222C6.2882 259.929 18.1055 266.292 27.656 265.228C40.6456 263.793 202.693 256.546 205.459 256.546C208.226 256.546 218.389 272.424 210.235 292.276C203.201 309.338 195.159 326.992 183.074 334.138C182.77 334.353 182.531 334.673 182.389 335.052C182.247 335.432 182.209 335.853 182.281 336.259C182.353 336.665 182.53 337.035 182.79 337.318C183.049 337.601 183.377 337.784 183.73 337.842C190.746 338.173 202.511 336.617 216.337 326.37C238.894 309.74 245.014 296.993 247.057 258.875C247.738 192.694 247.514 178.673 227.965 176.254Z" fill="#39C9C0"/>
<path d="M171.817 231.084C179.163 231.084 185.117 224.15 185.117 215.597C185.117 207.044 179.163 200.111 171.817 200.111C164.472 200.111 158.517 207.044 158.517 215.597C158.517 224.15 164.472 231.084 171.817 231.084Z" fill="#008FBC"/>
<path d="M174.765 227.772C180.539 227.772 185.22 222.321 185.22 215.597C185.22 208.874 180.539 203.423 174.765 203.423C168.991 203.423 164.309 208.874 164.309 215.597C164.309 222.321 168.991 227.772 174.765 227.772Z" fill="#2B2999"/>
<path d="M114.188 240.739C121.219 240.739 126.919 234.102 126.919 225.915C126.919 217.728 121.219 211.091 114.188 211.091C107.157 211.091 101.457 217.728 101.457 225.915C101.457 234.102 107.157 240.739 114.188 240.739Z" fill="#008FBC"/>
<path d="M117.013 237.577C122.544 237.577 127.029 232.356 127.029 225.915C127.029 219.474 122.544 214.253 117.013 214.253C111.481 214.253 106.997 219.474 106.997 225.915C106.997 232.356 111.481 237.577 117.013 237.577Z" fill="#2B2999"/>
<path d="M48.3774 238.36C55.0325 238.36 60.4275 232.078 60.4275 224.329C60.4275 216.58 55.0325 210.298 48.3774 210.298C41.7224 210.298 36.3274 216.58 36.3274 224.329C36.3274 232.078 41.7224 238.36 48.3774 238.36Z" fill="#008FBC"/>
<path d="M51.0578 235.369C56.2943 235.369 60.5393 230.426 60.5393 224.329C60.5393 218.232 56.2943 213.289 51.0578 213.289C45.8213 213.289 41.5763 218.232 41.5763 224.329C41.5763 230.426 45.8213 235.369 51.0578 235.369Z" fill="#2B2999"/>
<path d="M190.452 181.052L189.995 192.694L202.726 214.403L200.908 240.869L203.183 258.343L199.546 258.875L198.184 241.401L200.003 215.467L186.358 192.172L190.452 181.052Z" fill="#008FBC"/>
<path d="M61.789 262.578L58.1515 251.99L71.7876 239.815L77.0713 253.314L88.6129 260.992L61.789 262.578Z" fill="#008FBC"/>
<path d="M63.7887 263.07L60.2892 252.883L72.1324 241.502L76.3904 253.806L87.6993 261.755L63.7887 263.07Z" fill="#39C9C0"/>
<path d="M195.005 203.021L206.141 187.405L207.96 182.376L207.046 188.198L195.91 204.346L195.005 203.021Z" fill="#008FBC"/>
<path d="M269.226 205.671L272.975 239.815L280.474 241.01L293.093 271.18L297.524 274.753L297.868 271.972L293.429 268.008L281.5 238.23L274.337 237.035L269.226 205.671Z" fill="#39C9C0"/>
<path d="M238.197 292.226L227.965 279.52L218.872 287.73L219.777 298.047L230.689 300.165L238.197 292.226Z" fill="#008FBC"/>
<path d="M237.248 291.333L228.301 283.093L220.5 287.429L221.285 296.381L230.749 298.218L237.248 291.333Z" fill="#39C9C0"/>
<path d="M240.92 347.015C237.472 347.808 238.196 364.489 246.376 362.07C254.556 359.651 244.333 346.223 240.92 347.015Z" fill="#33A86D"/>
<path d="M243.652 370.842C247.738 365.282 253.194 372.428 247.1 377.988C241.006 383.548 239.558 376.402 243.652 370.842Z" fill="#33A86D"/>
<path d="M240.963 299.914C238.118 298.991 233.205 302.574 237.317 305.755C241.428 308.937 243.807 300.848 240.963 299.914Z" fill="#33A86D"/>
<path d="M239.076 290.52C235.628 287.368 229.663 291.724 234.697 295.227C239.731 298.73 242.48 293.681 239.076 290.52Z" fill="#288453"/>
<path d="M229.327 281.236C226.267 287.98 234.956 287.659 236.663 282.099C238.369 276.539 231.37 276.74 229.327 281.236Z" fill="#33A86D"/>
<path d="M274.339 292.678C274.339 292.678 270.245 282.741 265.133 289.496C260.022 296.251 267.176 299.422 267.176 299.422C267.176 299.422 275.365 301.71 274.339 292.678Z" fill="#288453"/>
<path d="M271.27 300.165C268.882 300.366 264.107 312.871 272.632 311.677C281.156 310.482 273.657 299.964 271.27 300.165Z" fill="#288453"/>
<path d="M279.794 315.651C279.794 315.651 273.312 314.457 272.295 322.797C271.278 331.137 280.845 330.606 282.181 326.812C285.439 317.548 280.018 315.119 279.794 315.651Z" fill="#288453"/>
<path d="M266.477 327.956C270.908 326.771 271.933 338.283 266.141 336.698C260.349 335.112 262.064 329.15 266.477 327.956Z" fill="#288453"/>
<path d="M264.96 336.698C263.236 336.959 260.021 343.051 263.883 344.898C266.977 346.383 267.33 342.589 267.572 341.064C267.813 339.538 266.727 336.427 264.96 336.698Z" fill="#288453"/>
<path d="M263.426 354.161C263.426 358.176 270.925 358.537 268.546 352.977C266.167 347.417 263.426 350.197 263.426 354.161Z" fill="#288453"/>
<path d="M195.453 244.583C192.505 246.59 193.186 254.107 199.09 251.99C204.995 249.872 198.384 242.595 195.453 244.583Z" fill="#33A86D"/>
<path d="M275.097 307.853C270.787 310.523 272.795 316.544 277.682 316.544C282.57 316.544 279.406 305.183 275.097 307.853Z" fill="#33A86D"/>
<path d="M270.925 217.976C269.908 215.196 263.771 219.17 267.52 222.743C271.27 226.316 271.951 220.756 270.925 217.976Z" fill="#288453"/>
<path d="M201.365 233.864C201.365 233.864 195.909 231.083 196.59 237.437C197.271 243.79 202.391 240.217 201.365 233.864Z" fill="#288453"/>
<path d="M54.1697 230.551C51.7821 229.759 50.3081 234.787 52.8078 236.112C55.3074 237.436 56.5573 231.344 54.1697 230.551Z" fill="#33A86D"/>
<path d="M50.8773 240.347C53.0926 241.02 54.6269 236.905 50.9894 236.503C47.3519 236.102 48.2656 239.554 50.8773 240.347Z" fill="#33A86D"/>
<path d="M52.9212 243.388C55.1364 244.061 56.4638 239.153 52.8092 239.153C50.4216 239.153 50.3095 242.595 52.9212 243.388Z" fill="#288453"/>
<path d="M272.622 232.96C269.304 232.187 271.631 220.565 276.286 224.058C280.94 227.551 275.958 233.733 272.622 232.96Z" fill="#288453"/>
<path d="M283.207 244.051C283.207 244.051 274.114 246.7 280.018 251.99C285.922 257.279 286.388 247.222 283.207 244.051Z" fill="#33A86D"/>
<path d="M283.01 252.25C278.7 260.28 287.63 263.582 287.32 255.422C287.044 249.27 283.01 252.25 283.01 252.25Z" fill="#288453"/>
<path d="M197.272 199.047C197.272 199.047 192.729 192.172 198.642 192.172C204.555 192.172 200.909 200.111 197.272 199.047Z" fill="#33A86D"/>
<path d="M199.089 211.753C199.089 211.753 194.547 204.878 200.46 204.878C206.373 204.878 202.692 212.817 199.089 211.753Z" fill="#33A86D"/>
<path d="M165.397 103.64C162.811 100.258 136.952 91.3152 134.194 91.3152C131.436 91.3152 127.634 95.3298 131.125 100.057C134.616 104.784 156.984 120.511 162.837 117.119C168.689 113.727 168.008 107.002 165.397 103.64Z" fill="#CC6D3D"/>
<path d="M134.874 100.85C134.874 100.85 127.203 103.63 123.109 102.857C119.014 102.084 112.024 94.9082 112.024 94.9082C112.024 94.9082 108.274 87.7622 106.232 84.1892C104.982 82.0113 119.014 86.1965 119.014 86.1965L126.686 84.8115C125.579 84.4916 124.555 83.8696 123.696 82.9969C122.837 82.1243 122.169 81.0261 121.747 79.7932C120.023 75.4274 122.255 72.6472 124.815 76.2202C127.134 79.462 129.246 79.9939 131.633 81.2385C134.021 82.483 142.037 95.6911 134.874 100.85Z" fill="#CC6D3D"/>
<path d="M139.452 156.111C126.446 162.504 116.68 168.496 115.318 173.835C113.542 181.071 125.911 194.701 136.608 191.228C148.356 187.404 169.586 180.359 170.405 177.077C176.43 153.26 160.2 145.924 139.452 156.111Z" fill="#1D2538"/>
<path d="M166.077 60.5423C166.077 60.5423 156.811 72.4456 155.061 84.7203C153.311 96.9949 160.483 107.473 167.99 115.141C171.722 118.975 172.524 132.203 180.126 139.419C187.729 146.636 192.909 144.297 199.589 143.434C211.881 141.898 201.408 100.548 199.133 90.4913C197.236 82.0706 185.833 66.7951 180.566 63.734C175.3 60.6728 171.783 57.4812 166.077 60.5423Z" fill="#FEED7F"/>
<path d="M168.121 60.1516L169.655 108.387L184.308 115.543L186.808 130.227C186.808 130.227 195.324 141.267 201.702 143.726C213.977 148.493 203.426 100.187 201.134 90.1307C199.229 81.71 187.834 66.4345 182.559 63.3633C177.283 60.2921 173.827 57.0804 168.121 60.1516Z" fill="#F7BC4B"/>
<path d="M206.572 145.05C208.296 160.406 206.788 176.294 199.151 177.077C175.964 179.466 170.448 179.998 158.234 183.832C158.234 183.832 153.286 162.986 146.641 156.833C143.081 153.541 142.486 139.771 134.53 116.466C134.53 116.466 163.837 123.873 168.862 127.587C168.862 127.587 179.645 125.991 188.066 123.873C196.487 121.756 204.883 129.705 206.572 145.05Z" fill="#FEED7F"/>
<path d="M208.183 146.144C207.726 161.611 206.106 176.726 198.469 177.509C175.282 179.887 170.447 180.028 158.233 183.862C158.233 183.862 153.285 163.016 146.64 156.863C143.08 153.571 139.305 128.671 139.305 128.671L161.474 143.364L190.78 138.195C190.78 138.195 181.842 123.904 188.194 122.318C194.547 120.732 201.262 124.747 206.158 132.836C207.718 135.425 208.356 140.353 208.183 146.144Z" fill="#F7BC4B"/>
<path d="M129.677 23.8195C129.677 23.8195 121.127 22.4144 122.428 16.4728C124.471 7.14885 136.745 10.9126 136.745 10.9126C136.745 10.9126 133.901 0.685365 140.969 0.0631013C152.683 -0.94055 157.699 10.3605 157.699 10.3605C157.699 10.3605 163.147 1.32769 173.749 8.73463C184.351 16.1416 179.041 28.6571 179.041 28.6571C179.041 28.6571 186.471 30.5239 187.557 37.9108C191.229 62.8716 171.956 64.2968 159.113 63.1325C159.113 63.1325 153.864 73.169 145.52 65.0796C137.176 56.9902 126.307 28.9883 129.677 23.8195Z" fill="#273252"/>
<path d="M128.823 23.5187C128.823 23.5187 120.333 21.5615 123.367 17.4968C126.547 13.2613 138.451 14.6564 138.451 14.6564C138.451 14.6564 133.727 3.76679 140.226 3.17464C146.726 2.58248 156.552 14.2148 156.552 14.2148C156.552 14.2148 161.723 10.5214 169.162 18.7814C177.376 27.9046 171.386 36.2349 171.386 36.2349C171.386 36.2349 186.703 47.6364 169.309 65.5014C169.309 65.5014 154.138 75.6282 145.958 72.4466C137.778 69.2651 141.002 59.3992 141.002 59.3992C134.787 47.526 125.582 32.7322 128.823 23.5187Z" fill="#48598B"/>
<path d="M140.536 52.1526L158.913 73.2293C162.732 70.8189 165.629 66.8187 167.024 62.0285C168.946 56.1672 166.963 54.3305 166.963 54.3305L149.25 38.9847C149.25 38.9847 139.329 43.4007 140.536 52.1526Z" fill="#F5894E"/>
<path d="M140.536 52.1526L146.147 57.3113L151.319 51.2894L166.808 62.8415C169.342 57.0404 166.989 54.4108 166.989 54.4108L149.25 38.9847C149.25 38.9847 139.329 43.4007 140.536 52.1526Z" fill="#CC6D3D"/>
<path d="M134.667 19.9756C134.667 19.9756 126.323 23.7393 126.771 35.9537C127.09 44.555 130.693 57.1809 136.735 61.4163C142.778 65.6517 151.802 63.5441 158.06 56.5788C164.516 49.3826 164.732 45.5386 159.068 30.3232C153.742 16.0112 139.511 15.9108 134.667 19.9756Z" fill="#F5894E"/>
<path d="M136.02 19.8554C136.02 19.8554 128.177 26.5799 128.306 34.8098L128.625 39.0251C128.625 39.0251 138.373 41.454 145.476 47.7669C149.337 51.1994 146.588 63.1529 146.588 63.1529C151.156 63.2332 156.88 57.9239 156.88 57.9239C163.198 51.902 165.628 45.5991 158.957 29.3901C153.423 15.9512 140.632 15.9713 136.02 19.8554Z" fill="#CC6D3D"/>
<path d="M128.479 26.7603C128.479 26.7603 141.038 13.6225 159.777 36.4254C159.777 36.4254 161.285 23.4984 149.295 18.4199C135.047 12.3779 128.479 26.7603 128.479 26.7603Z" fill="#F7BC4B"/>
<path d="M163.908 40.9259C166.493 39.5526 167.5 35.6592 166.157 32.2299C164.814 28.8006 161.628 27.1339 159.043 28.5072C156.457 29.8806 155.45 33.7739 156.793 37.2032C158.137 40.6325 161.322 42.2992 163.908 40.9259Z" fill="#CC6D3D"/>
<path d="M135.13 42.3335C135.754 41.9417 135.749 40.5204 135.119 39.159C134.489 37.7976 133.472 37.0116 132.848 37.4034C132.224 37.7952 132.228 39.2165 132.858 40.5779C133.488 41.9393 134.505 42.7253 135.13 42.3335Z" fill="#273252"/>
<path d="M131.478 33.0225C131.917 32.759 132.408 32.6376 132.901 32.6711C133.394 32.7046 133.87 32.8917 134.279 33.2129" stroke="#273252" stroke-width="0.568616" stroke-linecap="round" stroke-linejoin="round"/>
<path d="M158.845 42.8286C158.845 42.8286 150.932 50.908 156.552 59.0075C163.672 69.2547 178.101 56.3377 172.929 45.7693C167.757 35.2008 158.845 42.8286 158.845 42.8286Z" fill="#48598B"/>
<path d="M146.571 24.9739C146.149 26.3589 150.881 30.504 152.45 27.493C153.88 24.6627 155.104 21.2303 153.165 20.8489C151.226 20.4675 146.985 23.5888 146.571 24.9739Z" fill="#C94039"/>
<path d="M147.889 26.71C147.889 26.71 151.027 28.8578 151.768 28.0147C152.509 27.1716 150.639 26.7903 148.639 25.3149C146.639 23.8395 146.596 25.7063 147.889 26.71Z" fill="#F7BC4B"/>
<path d="M154.983 15.4792C156.112 14.8268 160.232 19.825 157.853 21.9527C155.621 23.96 152.845 25.8068 152.276 23.6088C151.708 21.4108 153.854 16.1315 154.983 15.4792Z" fill="#C94039"/>
<path d="M155.38 20.3871C155.38 20.3871 155.673 28.4163 153.941 34.1873C153.211 36.6838 152.184 39.0487 150.889 41.2128L150.501 39.5568L148.459 40.0686C148.459 40.0686 152.562 33.8661 153.923 20.919L155.38 20.3871Z" fill="#C94039"/>
<path d="M155.467 23.3781C155.467 23.3781 157.191 30.7549 156.476 36.6062C156.17 39.167 155.546 41.6622 154.622 44.0131L153.924 42.5779L151.924 43.5816C151.924 43.5816 155.002 36.6865 154.088 24.2814L155.467 23.3781Z" fill="#C94039"/>
<path d="M134.297 219.23L134.151 221.298L129.436 281.848L117.972 280.162L113.335 214.824" fill="#F5894E"/>
<path d="M134.296 219.23L134.15 221.298L129.426 281.848L117.962 280.162L116.652 262.678C116.652 262.678 128.9 260.782 127.573 218.588" fill="#CC6D3D"/>
<path d="M112.335 183.219L113.602 217.063L134.289 219.23C138.521 194.47 138.806 187.726 135.806 181.092C130.229 168.747 113.335 167.111 112.335 183.219Z" fill="#212B46"/>
<path d="M112.335 183.219C112.335 183.219 128.755 206.745 127.6 218.478L134.297 219.23C138.529 194.47 138.814 187.726 135.814 181.092C130.229 168.747 112.024 162.394 112.335 183.219Z" fill="#1D2538"/>
<path d="M130.581 277.773C131.124 278.667 133.607 285.13 133.77 287.89C133.934 290.65 135.27 296.08 127.202 296.02C120.582 295.97 117.583 300.205 113.739 300.466C105.24 301.028 99.9474 301.61 95.3876 298.047C90.8279 294.484 98.7751 295.337 109.498 288.211C120.22 281.085 129.349 275.746 130.581 277.773Z" fill="#992C29"/>
<path d="M118.409 278.787C123.883 272.625 128.951 274.2 129.761 278.496C130.227 280.975 123.616 285.401 122.004 286.676C117.78 290.048 113.022 293.892 107.514 292.356C102.006 290.821 107.756 290.781 118.409 278.787Z" fill="#CC6D3D"/>
<path d="M156.034 93.1517C156.034 93.1517 151.104 112.964 150.233 119.518C149.363 126.071 161.215 134.412 164.568 126.724C168.541 117.621 173.411 91.2648 173.411 91.2648L156.034 93.1517Z" fill="#F5894E"/>
<path d="M156.036 93.1517L166.939 103.72C166.939 103.72 161.216 134.412 164.569 126.724C168.543 117.621 173.413 91.2648 173.413 91.2648L156.036 93.1517Z" fill="#CC6D3D"/>
<path d="M158.967 69.7566L154.942 95.0185L172.526 100.127L178.232 70.6097C178.232 70.6097 167.561 53.648 158.967 69.7566Z" fill="#EE5D4F"/>
<path d="M158.965 69.7465C158.965 69.7465 164.542 72.5266 166.361 74.1124C168.179 75.6981 165.447 89.4682 165.447 89.4682L173.36 95.721C173.36 95.721 178.307 77.2337 178.644 71.5631C178.98 65.8925 167.464 53.8085 158.965 69.7465Z" fill="#C94039"/>
<path d="M159.664 86.929C162.775 86.4874 167.499 88.4044 169.706 89.4281C170.663 89.7687 171.557 90.3132 172.343 91.0339C169.278 90.5869 166.177 90.5869 163.112 91.0339C158.655 91.7265 156.561 87.3104 159.664 86.929Z" fill="#EE5D4F"/>
<path d="M163.284 128.42C163.284 128.42 167.593 122.237 158.612 116.778C149.63 111.318 131.417 102.455 124.798 100.217C118.178 97.9791 112.885 96.2629 111.067 100.217C109.248 104.172 110.101 107.193 114.868 109.581C119.634 111.97 144.752 131.13 152.794 132.505C160.836 133.88 163.284 128.42 163.284 128.42Z" fill="#F5894E"/>
<path d="M119.333 101.041L92.0611 78.2577C91.6981 77.9497 91.4526 77.489 91.3769 76.9735C91.3013 76.458 91.4014 75.9285 91.6559 75.4977C91.817 75.2308 92.0314 75.0137 92.2807 74.865C92.53 74.7164 92.8067 74.6407 93.0868 74.6446L100.586 74.7751C100.932 74.783 101.269 74.9124 101.551 75.1464L121.324 91.4156C121.547 91.6003 121.729 91.8441 121.855 92.1268C121.981 92.4095 122.047 92.723 122.048 93.0415V99.4147C122.046 99.7808 121.957 100.139 121.792 100.451C121.628 100.763 121.393 101.016 121.113 101.183C120.833 101.351 120.52 101.426 120.206 101.401C119.892 101.376 119.59 101.251 119.333 101.041V101.041Z" fill="#121721"/>
<path d="M120.591 96.1727L94.4135 75.8689L101.412 75.6681L121.013 91.586L120.591 96.1727Z" fill="#F3E7D9"/>
<path d="M119.694 107.223C119.694 107.223 123.763 101.954 122.142 98.0095C120.522 94.0652 117.617 86.7686 118.263 83.0852C118.91 79.4018 115.583 79.442 114.462 82.1418C113.952 84.0439 114.035 86.0944 114.695 87.9328C115.557 90.0606 111.325 92.098 111.325 92.098L103.731 87.6318C103.731 87.6318 99.6022 83.7677 99.0678 83.5268C97.6025 82.8845 94.6891 83.587 96.344 85.5341C97.2353 86.5857 98.0783 87.6912 98.8695 88.8462C98.8695 88.8462 97.3698 96.4538 98.9385 97.7987C100.03 98.8493 100.95 100.121 101.654 101.552L104.188 105.989C104.188 105.989 110.342 110.485 119.694 107.223Z" fill="#F5894E"/>
</svg>
