<svg width="350" height="410" viewBox="0 0 350 410" fill="none" xmlns="http://www.w3.org/2000/svg">
<path d="M166.11 278.85C164.266 279.11 159.64 319.756 183.551 358.997C218.434 416.245 276.573 407.918 288.2 410C288.2 410 254.978 377.733 249.995 323.607C245.012 269.482 231.723 269.482 166.11 278.85Z" fill="white"/>
<path d="M166.11 278.85C164.266 279.11 159.64 319.756 183.551 358.997C218.434 416.245 276.573 407.918 288.2 410C288.2 410 254.978 377.733 249.995 323.607C245.012 269.482 231.723 269.482 166.11 278.85Z" fill="#680629"/>
<path d="M160.296 208.07L73.9187 210.152L22.4247 214.316C22.4247 214.316 -1.26249 225.765 2.0597 255.951C5.38189 286.136 15.5893 291.34 24.7253 293.422C33.8614 295.504 121.002 292.496 121.002 292.496L228.401 288.218C228.401 288.218 226.739 317.362 237.537 344.425C248.334 371.488 276.572 410 288.2 410C288.2 410 288.607 408.803 282.793 398.394C276.979 387.985 256.639 317.362 279.064 284.054C279.064 284.054 296.721 281.972 315.608 281.972C334.495 281.972 347.169 271.564 349.66 248.665C352.152 225.765 340.524 203.907 328.066 203.907C315.608 203.907 160.296 208.07 160.296 208.07Z" fill="#FA045D"/>
<path d="M109.45 209.319L96.8834 209.621C96.8834 209.621 72.1829 209.111 23.2553 214.316C19.9331 214.67 -1.52588e-05 224.724 -1.52588e-05 252.828C-1.52588e-05 280.932 13.8286 293.922 22.9563 294.557C33.3382 295.275 127.904 292.381 127.904 292.381C127.904 292.381 104.973 288.072 102.157 248.664C100.986 232.312 109.45 209.319 109.45 209.319Z" fill="#960237"/>
<path d="M84.558 293.526L41.843 281.171L26.0626 283.638L22.7404 269.638L16.8269 264.704L12.8818 240.816C12.8818 240.816 24.3018 214.316 23.2553 214.316C19.9331 214.316 -1.52588e-05 224.724 -1.52588e-05 252.828C-1.52588e-05 280.932 13.8286 293.922 22.9563 294.557C33.3382 295.275 84.558 293.526 84.558 293.526Z" fill="#AA2656"/>
<path d="M178.858 264.288C185.935 264.288 191.673 257.097 191.673 248.227C191.673 239.357 185.935 232.167 178.858 232.167C171.78 232.167 166.042 239.357 166.042 248.227C166.042 257.097 171.78 264.288 178.858 264.288Z" fill="#A40740"/>
<path d="M175.901 260.583C181.346 260.583 185.76 255.051 185.76 248.227C185.76 241.404 181.346 235.872 175.901 235.872C170.456 235.872 166.042 241.404 166.042 248.227C166.042 255.051 170.456 260.583 175.901 260.583Z" fill="#6F052B"/>
<path d="M244.248 261.405C250.688 261.405 255.909 254.862 255.909 246.791C255.909 238.72 250.688 232.177 244.248 232.177C237.808 232.177 232.587 238.72 232.587 246.791C232.587 254.862 237.808 261.405 244.248 261.405Z" fill="#A40740"/>
<path d="M241.863 258.428C246.991 258.428 251.148 253.218 251.148 246.791C251.148 240.364 246.991 235.154 241.863 235.154C236.734 235.154 232.577 240.364 232.577 246.791C232.577 253.218 236.734 258.428 241.863 258.428Z" fill="#6E052B"/>
<path d="M298.565 248.914C305.005 248.914 310.226 242.371 310.226 234.3C310.226 226.229 305.005 219.687 298.565 219.687C292.125 219.687 286.904 226.229 286.904 234.3C286.904 242.371 292.125 248.914 298.565 248.914Z" fill="#A40740"/>
<path d="M296.513 246.343C301.82 246.343 306.123 240.952 306.123 234.3C306.123 227.649 301.82 222.258 296.513 222.258C291.206 222.258 286.904 227.649 286.904 234.3C286.904 240.952 291.206 246.343 296.513 246.343Z" fill="#6E052B"/>
<path d="M127.713 210.621L135.595 234.228L132.057 238.62L131.625 257.293C133.003 259.048 134.465 260.695 136.002 262.227C137.314 263.33 139.723 275.405 139.723 275.405L134.549 262.643L128.735 257.907L130.546 237.527L133.17 233.364L127.713 210.621Z" fill="white"/>
<path d="M338.606 208.653L331.314 232.562L323.615 234.727L313.325 243.772L315.193 256.534L309.504 274.759L313.79 255.992L311.207 242.097L322.992 232.562L330.168 231.188L337.394 207.956L338.606 208.653Z" fill="white"/>
<path d="M74.7324 282.253L77.4067 274.593L68.2541 267.369L55.1065 271.97L47.5319 287.562L83.9016 293.11L74.7324 282.253Z" fill="#E00B71"/>
<path d="M200.876 309.379L190.527 344.789L203.334 362.224L214.455 344.581L210.734 324.482L200.876 309.379Z" fill="#CC3D8A"/>
<path d="M200.195 309.504L189.929 341.552L202.886 360.038L210.95 343.197L207.005 323.722L200.195 309.504Z" fill="#E00B71"/>
<path d="M251.474 277.882L246.872 300.115L250.818 317.404L258.699 327.292L267.902 292.704L251.474 277.882Z" fill="#CC3D8A"/>
<path d="M253.609 277.799L247.62 300.094L252.462 316.581L258.044 323.587L269.215 291.882L253.609 277.799Z" fill="#F54E8A"/>
<path d="M221.906 351.17L218.401 364.347L226.283 373.132L235.925 370.936L232.412 352.825L221.906 351.17Z" fill="#CC3D8A"/>
<path d="M221.374 351.721L218.401 362.921L225.103 370.395L233.292 368.521L230.311 353.127L221.374 351.721Z" fill="#E00B71"/>
<path d="M191.673 207.331C191.673 207.331 200.436 226.546 202.628 227.108C204.821 227.67 218.409 232.604 218.409 232.604L233.741 219.426L221.914 206.249L191.673 207.331Z" fill="#CC3D8A"/>
<path d="M189.921 206.082C189.921 206.082 198.592 225.099 200.76 225.64C202.928 226.182 216.366 231.074 216.366 231.074L231.54 218.032L219.838 204.948L189.921 206.082Z" fill="#F54E6C"/>
<path d="M106.242 285.293C106.242 285.293 97.937 288.582 101.425 294.078C104.914 299.574 109.315 296.815 110.188 291.33C111.06 285.844 106.242 285.293 106.242 285.293Z" fill="#288453"/>
<path d="M104.93 276.508C104.1 275.956 96.6247 279.797 104.1 282.545C111.574 285.293 105.81 277.049 104.93 276.508Z" fill="#288453"/>
<path d="M108.875 268.816C105.811 266.619 101.865 274.853 108.435 276.508C115.005 278.163 111.94 271.012 108.875 268.816Z" fill="#288453"/>
<path d="M67.2734 243.013C66.6038 243.249 65.9792 243.652 65.4372 244.199C64.8953 244.745 64.4471 245.423 64.1196 246.192C63.7922 246.962 63.5923 247.806 63.532 248.674C63.4716 249.543 63.5521 250.417 63.7685 251.246C65.0808 257.835 72.5308 253.442 73.4029 247.405C74.275 241.368 71.6338 241.92 67.2734 243.013Z" fill="#288453"/>
<path d="M61.119 263.33C61.119 263.33 54.5494 272.698 61.119 275.404C67.6886 278.111 69.8813 270.471 68.5939 265.527C67.3066 260.582 61.119 263.33 61.119 263.33Z" fill="#288453"/>
<path d="M70.7619 275.404C70.7619 275.404 66.8168 283.097 73.8266 282.545C80.8364 281.993 76.8913 271.564 74.2668 269.919C71.6423 268.274 70.7619 275.404 70.7619 275.404Z" fill="#33A86D"/>
<path d="M70.7613 258.938C70.7613 258.938 65.0637 261.134 68.1284 266.078C71.1931 271.022 76.8907 261.134 75.1382 260.031C73.7483 259.319 72.2626 258.949 70.7613 258.938V258.938Z" fill="#33A86D"/>
<path d="M74.2661 288.582C74.2661 288.582 80.8357 290.778 80.3955 284.741C79.9553 278.704 73.3857 283.638 74.2661 288.582Z" fill="#33A86D"/>
<path d="M59.7984 255.638C55.8533 257.293 53.6689 263.882 60.6788 261.134C67.6886 258.386 63.7518 253.994 59.7984 255.638Z" fill="#288453"/>
<path d="M228.034 209.528C224.089 206.78 228.474 199.119 233.291 201.835C238.109 204.552 231.979 212.234 228.034 209.528Z" fill="#288453"/>
<path d="M233.291 212.817C235.916 213.92 235.916 221.05 232.851 219.957C229.787 218.864 230.667 211.724 233.291 212.817Z" fill="#288453"/>
<path d="M249.935 309.993C247.751 305.059 243.806 309.451 244.678 313.844C245.55 318.236 252.128 314.937 249.935 309.993Z" fill="#288453"/>
<path d="M253.441 316.04C255.633 320.433 258.698 318.237 258.266 314.385C257.834 310.534 251.256 311.648 253.441 316.04Z" fill="#288453"/>
<path d="M246.871 304.507C249.063 308.9 252.128 306.703 251.688 302.863C251.248 299.022 244.678 300.115 246.871 304.507Z" fill="#288453"/>
<path d="M245.559 359.955C249.936 355.562 253.034 362.703 249.505 367.095C245.975 371.488 241.174 364.347 245.559 359.955Z" fill="#33A86D"/>
<path d="M252.128 370.447C256.514 366.054 259.603 373.184 256.074 377.577C252.544 381.969 247.751 374.777 252.128 370.447Z" fill="#288453"/>
<path d="M251.788 364.358C255.317 360.819 257.784 366.575 254.96 370.114C252.136 373.653 248.258 367.897 251.788 364.358Z" fill="#33A86D"/>
<path d="M241.614 351.17C245.143 347.641 247.61 353.387 244.795 356.926C241.979 360.465 238.084 354.709 241.614 351.17Z" fill="#33A86D"/>
<path d="M223.657 340.188C227.178 336.66 229.653 342.406 226.829 345.945C224.006 349.484 220.094 343.727 223.657 340.188Z" fill="#33A86D"/>
<path d="M227.91 347.162C233.333 342.687 237.129 349.962 232.793 354.448C228.458 358.935 222.494 351.638 227.91 347.162Z" fill="#33A86D"/>
<path d="M251.572 254.91C256.987 250.444 260.782 257.71 256.447 262.196C252.112 266.682 246.148 259.396 251.572 254.91Z" fill="#288453"/>
<path d="M245.068 251.579C248.456 248.779 250.832 253.327 248.124 256.127C245.416 258.927 241.687 254.379 245.068 251.579Z" fill="#288453"/>
<path d="M177.429 254.233C182.254 250.247 185.635 256.721 181.773 260.697C177.91 264.673 172.603 258.209 177.429 254.233Z" fill="#288453"/>
<path d="M186.416 251.787C186.416 251.787 182.039 244.105 184.223 243.554C186.407 243.002 187.296 247.394 187.296 247.394C187.296 247.394 193.866 235.861 195.602 241.357C197.337 246.853 192.969 247.946 192.969 247.946C192.969 247.946 198.666 251.787 196.033 252.339C193.401 252.89 190.361 250.746 190.361 250.746C190.361 250.746 191.673 257.335 190.361 257.335C189.049 257.335 186.416 255.138 186.416 255.138C186.416 255.138 182.911 253.994 186.416 251.787Z" fill="#33A86D"/>
<path d="M134.55 103.015C134.043 100.798 136.211 98.3415 136.958 100.538C137.706 102.734 143.42 105.898 144.292 107.949C145.164 109.999 146.834 114.194 145.604 114.954C144.217 115.87 142.216 113.58 142.216 113.58C142.216 113.58 135.164 105.898 134.55 103.015Z" fill="#A96443"/>
<path d="M156.894 105.831C154.809 102.129 153.096 98.119 151.794 93.892C147.525 79.528 142.932 59.8138 148.879 59.3662C157.841 58.6896 166.096 67.3809 168.646 76.3324C171.196 85.2839 172.516 92.643 177.408 102.719C182.3 112.794 195.431 138.858 185.041 143.448C174.651 148.038 165.208 132.29 156.894 105.831Z" fill="#A26041"/>
<path d="M165.855 93.5278C163.588 89.1041 154.668 78.1021 154.668 78.1021C154.668 78.1021 143.68 59.8035 148.854 59.3663C157.816 58.6898 166.071 67.3811 168.621 76.3326C171.171 85.2841 172.491 92.6431 177.383 102.719C182.275 112.794 195.406 138.858 185.016 143.448C178.97 146.113 159.892 124.535 156.536 109.953C156.221 108.589 168.322 109.63 168.04 108.308C166.121 99.4608 166.677 95.1412 165.855 93.5278Z" fill="#AC5C39"/>
<path d="M112.029 186.353C112.029 186.353 103.267 186.977 93.5249 188.778C85.2776 190.319 75.8841 192.005 76.4904 203.621C77.0967 215.237 84.2061 216.34 93.4501 215.633C102.694 214.925 115.941 209.169 119.106 207.941C122.27 206.712 128.042 187.519 112.029 186.353Z" fill="#121721"/>
<path d="M138.989 144.239C147.528 143.417 175.235 146.987 200.209 146.165C225.184 145.342 208.971 203.257 166.248 199.968C123.525 196.678 124.845 192.556 121.565 174.435C118.284 156.313 130.443 145.061 138.989 144.239Z" fill="#F7BC4B"/>
<path d="M100.085 155.002C100.085 155.002 59.9368 151.088 52.1297 180.774C46.9222 200.478 81.0244 199.947 114.122 204.933C147.219 209.918 153 174.237 132.095 162.121C111.19 150.006 100.085 155.002 100.085 155.002Z" fill="#F7BC4B"/>
<path d="M110.401 52.6631C109.828 52.8609 90.6839 57.4303 84.4465 65.2369C79.4632 71.4821 79.7373 154.471 79.7373 154.471C79.7373 154.471 91.2404 157.313 103.167 159.675C114.156 161.774 125.285 162.499 136.389 161.84C136.389 161.84 150.683 147.091 151.829 144.926C152.975 142.761 147.726 132.998 147.726 132.998C147.726 132.998 146.571 133.206 151.173 103.708C153.454 88.8519 153.454 73.5871 151.173 58.7314C151.173 58.7314 143.258 52.6631 110.401 52.6631Z" fill="#29ABE2"/>
<path d="M110.401 52.6631C109.828 52.8609 90.6839 55.4526 84.4465 63.2592C79.4632 69.5044 79.7373 154.471 79.7373 154.471C79.7373 154.471 91.2404 157.313 103.167 159.675C114.156 161.774 125.285 162.499 136.389 161.84C136.389 161.84 150.683 147.091 151.829 144.926C152.975 142.761 147.726 132.998 147.726 132.998C147.726 132.998 116.663 156.324 100.792 145.79C92.4862 140.273 96.6888 102.698 103.699 90.8423C110.708 78.9868 146.314 81.0061 146.314 81.0061C148.947 78.9764 151.131 58.7314 151.131 58.7314C151.131 58.7314 143.258 52.6631 110.401 52.6631Z" fill="#1689CB"/>
<path d="M136.605 57.5136C136.605 57.5136 134.769 73.1267 125.808 73.8449C108.416 74.8858 108.026 64.4042 109.961 55.7337C111.896 47.0633 130.06 51.9033 130.06 51.9033L136.605 57.5136Z" fill="#BD7251"/>
<path d="M133.855 179.483C133.855 179.483 189.195 137.307 201.96 134.497C209.045 132.925 221.686 142.522 222.408 147.955C223.131 153.388 221.453 168.096 214.684 172.936C204.452 180.222 144.627 203.632 137.302 206.307C129.977 208.982 133.855 179.483 133.855 179.483Z" fill="#FEED7F"/>
<path d="M133.856 179.483C133.856 179.483 189.195 137.307 201.96 134.496L185.507 159.477L160.682 168.929C160.682 168.929 141.962 204.62 137.302 206.327C129.969 208.94 133.856 179.483 133.856 179.483Z" fill="#F7BC4B"/>
<path d="M166.081 176.829C166.081 176.829 177.576 175.788 188.406 176.08C197.542 176.329 206.138 176.829 206.736 188.809C207.334 200.79 201.554 202.799 191.396 203.548C181.238 204.298 164.287 200.8 160.666 200.051C157.044 199.302 148.747 180.576 166.081 176.829Z" fill="#1D2538"/>
<path d="M166.081 176.829L182.227 195.346L206.736 188.851C207.334 200.842 201.554 202.84 191.396 203.59C181.238 204.339 164.287 200.842 160.666 200.092C157.044 199.343 148.747 180.576 166.081 176.829Z" fill="#121721"/>
<path d="M168.888 173.488C168.888 173.488 161.654 167.721 159.686 168.544C157.718 169.366 153.772 172.707 153.772 172.707C153.772 172.707 107.768 162.819 100.543 159.53C93.3169 156.24 59.4721 143.917 50.2696 157.052C41.0671 170.188 43.6252 189.725 58.0519 193.847C72.4785 197.969 110.601 203.673 135.592 203.673C144.57 203.673 155.234 205.661 158.149 205.869C163.349 206.244 163.531 206.91 166.455 204.766C171.073 201.477 168.888 173.488 168.888 173.488Z" fill="#FEED7F"/>
<path d="M168.888 173.488C168.888 173.488 161.654 167.721 159.686 168.544C157.718 169.366 153.772 172.707 153.772 172.707C153.772 172.707 107.768 162.819 100.543 159.53C93.3169 156.24 59.4721 143.917 50.2696 157.052C41.0671 170.188 43.6252 189.725 58.0519 193.847L89.1558 169.689L115.434 172.978L151.796 192.754L168.888 173.488Z" fill="#F7BC4B"/>
<path d="M123.889 79.1221C119.836 77.0404 107.627 75.8746 102.095 94.3085C102.095 94.3085 104.67 88.6669 111.406 84.5451C115.371 82.0939 119.564 80.2722 123.889 79.1221V79.1221Z" fill="#29ABE2"/>
<path d="M147.651 132.977C147.651 132.977 138.839 153.024 112.81 151.869C112.81 151.869 142.394 137.057 147.651 132.977Z" fill="#29ABE2"/>
<path d="M94.5546 92.4556C91.4982 105.831 85.103 114.002 80.2028 112.076C75.5351 110.223 73.2345 99.5127 75.0368 86.9702C77.055 73.0121 83.4669 61.1461 89.4219 61.9892C95.734 62.9364 98.0014 77.3942 94.5546 92.4556Z" fill="#BE7352"/>
<path d="M174.361 140.95C174.361 140.95 182.758 146.748 187.649 141.595C192.541 136.443 188.87 128.907 179.693 119.987C173.356 113.825 161.487 111.119 154.444 108.537C150.499 107.101 144.735 111.826 152.252 120.882C156.114 125.608 162.094 130.51 174.361 140.95Z" fill="#C8683A"/>
<path d="M174.361 140.95C174.361 140.95 182.758 146.748 187.65 141.595C192.542 136.443 188.871 128.907 179.693 119.987L169.777 125.847C169.777 125.847 144.736 111.847 152.252 120.903C156.114 125.608 162.094 130.51 174.361 140.95Z" fill="#AA6242"/>
<path d="M82.0945 117.916C85.0596 110.463 88.3735 102.979 91.8369 90.2492C94.2205 81.4642 97.4597 63.9359 89.6608 62.1456C81.862 60.3553 74.5199 67.2667 71.2808 79.8405C67.2028 95.5369 65.0019 99.971 60.7411 110.598C51.9955 132.457 54.2795 149.048 62.967 148.684C71.6545 148.32 71.7625 143.844 82.0945 117.916Z" fill="#BD6C45"/>
<path d="M79.3203 121.517C79.3203 121.517 67.5763 125.369 67.0946 121.663C66.7624 119.04 75.9233 102.927 75.9233 102.927C75.9233 102.927 77.9167 84.2853 80.0761 79.1851C82.2355 74.0848 94.7436 70.858 93.7552 66.809C93.4542 65.645 92.9105 64.6029 92.1804 63.7904C91.4503 62.9779 90.5604 62.4246 89.6025 62.1876C81.8036 60.4285 74.4616 67.3087 71.2224 79.8824C67.1445 95.5788 64.9435 100.013 60.6828 110.64C51.9371 132.499 54.2211 149.09 62.9087 148.726C71.5962 148.362 79.3203 121.517 79.3203 121.517Z" fill="#BC6038"/>
<path d="M111.611 124.015C111.404 118.936 109.037 114.033 99.4855 116.937C89.9342 119.841 76.3963 120.664 68.8549 123.182C61.3135 125.701 55.4997 131.718 55.5246 140.503C55.5495 149.288 63.066 158.406 78.9793 147.945C94.8926 137.484 112.102 135.798 111.611 124.015Z" fill="#BF6438"/>
<path d="M111.611 124.015C111.404 118.935 90.7481 130.073 83.4476 131.447C76.1471 132.821 68.8549 123.182 68.8549 123.182C61.3135 125.701 55.4997 131.717 55.5246 140.502C55.5495 149.287 63.066 158.405 78.9793 147.945C94.8926 137.484 112.102 135.798 111.611 124.015Z" fill="#B4613D"/>
<path d="M116.489 125.243C117.992 117.041 122.601 93.8089 123.964 86.6581C124.118 85.9954 124.434 85.41 124.867 84.9842C125.301 84.5585 125.83 84.3139 126.38 84.2849L140.558 84.212C142.036 84.0767 144.204 85.9399 144.113 86.8038L136.347 125.181C136.183 125.852 135.853 126.441 135.406 126.863C134.958 127.286 134.416 127.52 133.855 127.533L118.631 128.147C118.325 128.2 118.012 128.158 117.721 128.027C117.429 127.896 117.167 127.679 116.957 127.394C116.747 127.109 116.595 126.765 116.513 126.39C116.431 126.016 116.423 125.623 116.489 125.243Z" fill="#4B3355"/>
<path d="M118.074 125.826C119.528 117.78 124.112 95.1413 125.416 88.1362C125.55 87.5005 125.84 86.934 126.246 86.5172C126.652 86.1004 127.152 85.8547 127.676 85.8151L141.928 85.6589C142.233 85.6058 142.544 85.6476 142.833 85.7807C143.122 85.9139 143.381 86.1342 143.586 86.4222C143.791 86.7102 143.937 87.0571 144.01 87.4323C144.083 87.8074 144.081 88.1993 144.004 88.5733L136.903 126.305C136.761 126.957 136.455 127.533 136.029 127.948C135.604 128.362 135.083 128.593 134.544 128.605L120.051 128.689C119.758 128.719 119.463 128.663 119.19 128.524C118.917 128.384 118.675 128.166 118.482 127.887C118.289 127.608 118.152 127.276 118.081 126.918C118.01 126.56 118.008 126.186 118.074 125.826V125.826Z" fill="#665070"/>
<path d="M129.658 91.7307C130.301 91.1583 130.53 90.1775 130.169 89.54C129.808 88.9026 128.993 88.8499 128.35 89.4224C127.707 89.9949 127.478 90.9757 127.839 91.6132C128.2 92.2506 129.015 92.3032 129.658 91.7307Z" fill="#34283A"/>
<path d="M128.495 95.8506C128.985 95.4144 129.16 94.6693 128.887 94.1865C128.613 93.7036 127.994 93.6658 127.504 94.102C127.014 94.5382 126.838 95.2832 127.112 95.766C127.386 96.2489 128.005 96.2867 128.495 95.8506Z" fill="#34283A"/>
<path d="M98.7235 126.367C98.6238 125.576 103.034 115.074 108.258 108.672C110.409 106.049 116.281 104.592 118.806 101.907C121.331 99.2213 121.439 106.435 118.806 108.568C116.173 110.702 116.082 111.191 116.082 111.191C116.082 111.191 121.755 110.609 122.386 110.525C123.017 110.442 129.329 105.113 131.58 107.236C133.44 109.006 130.052 110.9 130.052 110.9C130.052 110.9 124.861 115.272 124.362 115.761C124.362 115.761 133.498 111.389 133.872 113.565C134.246 115.74 132.543 117.822 129.836 118.707C128.361 119.124 126.956 119.86 125.683 120.882C125.683 120.882 130.6 117.135 131.248 119.373C131.895 121.611 126.181 123.869 124.952 124.702C124.952 124.702 128.407 121.892 128.598 123.661C128.914 126.784 119.595 131.041 119.595 131.041C119.595 131.041 99.8032 134.424 98.7235 126.367Z" fill="#CE7C54"/>
<path d="M98.7234 126.367C98.6238 125.576 107.444 121.319 107.444 121.319L117.627 121.184L121.024 119.872L124.039 118.301C124.039 118.301 132.543 117.863 129.852 118.748C128.378 119.166 126.973 119.902 125.7 120.924C125.7 120.924 130.616 117.176 131.264 119.414C131.912 121.652 126.198 123.911 124.969 124.744C124.969 124.744 128.424 121.933 128.615 123.703C128.93 126.825 119.612 131.083 119.612 131.083C119.612 131.083 99.8032 134.424 98.7234 126.367Z" fill="#B17459"/>
<path d="M152.293 118.644C154.644 117.884 157.717 113.221 152.335 104.717C150.366 101.595 147.418 104.436 147.418 104.436L143.49 103.749C143.49 103.749 133.025 97.5561 132.194 99.3568C131.364 101.157 136.347 103.833 136.347 103.833C136.347 103.833 129.885 100.429 129.885 103.323C129.885 106.216 136.056 107.975 136.056 107.975C136.056 107.975 129.47 105.602 130.741 108.902C131.629 111.191 136.064 112.326 136.064 112.326C136.064 112.326 133.266 112.253 132.742 113.221C132.31 115.022 141.405 120.507 143.705 121.184C146.006 121.86 151.122 119.019 152.293 118.644Z" fill="#C67048"/>
<path d="M108.647 31.5334C108.647 31.5334 107.626 19.9589 103 26.558C98.3734 33.1572 104.029 50.1234 108.224 45.4811C112.418 40.8388 108.647 31.5334 108.647 31.5334Z" fill="#7A462F"/>
<path d="M128.264 7.74948C128.264 7.74948 110.823 5.77182 108.796 20.7604C106.77 35.749 107.218 57.524 115.831 60.782C124.444 64.0399 132.151 64.8414 138.738 59.304C143.646 55.1405 143.912 52.9859 144.809 36.3111C145.781 18.2623 142.317 6.40675 128.264 7.74948Z" fill="#D6794D"/>
<path d="M128.265 7.74948C128.265 7.74948 110.823 5.77182 108.797 20.7604C106.77 35.749 106.621 59.1373 115.832 60.7819C115.832 60.7819 103.83 37.175 123.979 23.9975C144.128 10.82 143.912 52.9858 144.809 36.311C145.781 18.2623 142.318 6.40675 128.265 7.74948Z" fill="#B46543"/>
<path d="M124.654 55.4694L130.637 56.557L136.62 54.3817" stroke="#273252" stroke-width="1.13813"/>
<path d="M109.245 36.6961C110.774 36.4983 111.388 29.7014 113.357 21.6659C115.325 13.6303 113.963 14.5671 118.938 15.5767C130.208 18.3767 136.246 14.3902 139.095 14.3902C142.6 14.3902 142.343 19.4904 144.959 30.8255C144.959 30.8255 146.761 5.7717 137.426 2.13904C128.29 -1.43116 117.152 -0.150879 111.961 3.17992C106.978 6.41704 106.546 15.6704 106.355 22.9565C106.289 25.5795 109.245 36.6961 109.245 36.6961Z" fill="#273252"/>
<path d="M137.504 38.5215C138.27 38.4949 138.858 37.0199 138.819 35.227C138.779 33.4341 138.126 32.0023 137.36 32.0289C136.595 32.0556 136.006 33.5306 136.046 35.3234C136.085 37.1163 136.738 38.5481 137.504 38.5215Z" fill="#273252"/>
<path d="M136.654 26.7245C137.186 26.7155 137.712 26.8867 138.173 27.2201C138.635 27.5534 139.017 28.0367 139.278 28.619" stroke="#273252" stroke-width="0.544497" stroke-linecap="round" stroke-linejoin="round"/>
<path d="M123.608 35.4866C123.648 33.6937 123.059 32.2187 122.293 32.1921C121.528 32.1655 120.875 33.5973 120.835 35.3901C120.795 37.183 121.384 38.658 122.15 38.6846C122.915 38.7113 123.568 37.2795 123.608 35.4866Z" fill="#273252"/>
<path d="M123.057 26.8911C122.523 26.8857 121.997 27.0594 121.534 27.3943C121.071 27.7292 120.688 28.2131 120.424 28.7959" stroke="#273252" stroke-width="0.544497" stroke-linecap="round" stroke-linejoin="round"/>
</svg>
