<svg xmlns="http://www.w3.org/2000/svg" viewBox="0 0 248.25 164.69"><defs><style>.cls-1{fill:#ffccb3;}.cls-2{fill:#381609;}.cls-3{fill:#4ef94e;}.cls-4{fill:#c0c4c4;}.cls-5{fill:#f9a870;}.cls-28,.cls-6{fill:#b3e2ff;}.cls-6{opacity:0.49;}.cls-7{fill:#e28444;}.cls-8{fill:#e58a4c;}.cls-9{fill:#ffcdab;}.cls-10{fill:#fff;}.cls-11{fill:#ef9170;}.cls-12{fill:#efab89;}.cls-13{fill:#ffdacc;}.cls-14{fill:#0dcc0d;}.cls-15{fill:#bf0daf;}.cls-16{fill:#1bdd1b;}.cls-17{fill:#86fc86;}.cls-18{fill:#f759d9;}.cls-19{fill:#d81ebe;}.cls-20{fill:#fc90ed;}.cls-21{fill:#f9ab75;}.cls-22,.cls-24{opacity:0.45;}.cls-23,.cls-24{fill:#ffede1;}.cls-25{fill:#dce0e2;}.cls-26{fill:#a0a6a7;}.cls-27{opacity:0.7;}</style></defs><title>Asset 43</title><g id="Layer_2" data-name="Layer 2"><g id="Layer_1-2" data-name="Layer 1"><circle class="cls-1" cx="61.82" cy="53.62" r="3.52"/><path class="cls-2" d="M61.51,58a5.64,5.64,0,0,1-4-1.66,5.69,5.69,0,0,1,8-8h0a5.69,5.69,0,0,1-4,9.71Zm0-9.38a3.69,3.69,0,1,0,2.61,1.08A3.67,3.67,0,0,0,61.51,48.57Z"/><ellipse class="cls-3" cx="127.83" cy="64.76" rx="2.7" ry="3.07"/><path class="cls-2" d="M127.13,68.83a4.75,4.75,0,1,1,4.75-4.75A4.75,4.75,0,0,1,127.13,68.83Zm0-7.49a2.75,2.75,0,1,0,2.75,2.74A2.74,2.74,0,0,0,127.13,61.34Z"/><rect class="cls-4" x="238.34" y="109.89" width="8.91" height="17.84"/><rect class="cls-4" x="1" y="110.39" width="8.91" height="17.34"/><rect class="cls-5" x="216.59" y="62.74" width="12.48" height="93.15"/><polygon class="cls-6" points="140.26 129.53 133.56 129.53 133.56 95 137.5 93.47 133.56 89.77 133.56 30.14 140.26 30.14 140.26 129.53"/><polygon class="cls-6" points="204.51 129.53 197.81 129.53 197.81 88.96 203.78 89.96 197.81 83.99 197.81 38.98 204.51 38.98 204.51 129.53"/><polygon class="cls-6" points="76.88 129.53 70.18 129.53 70.18 79.83 75.11 80.38 70.18 75.22 70.18 38.59 76.88 38.59 76.88 129.53"/><rect class="cls-5" x="17.68" y="62.74" width="12.48" height="93.15"/><rect class="cls-7" x="17.68" y="62.74" width="12.48" height="5.92"/><rect class="cls-7" x="216.59" y="62.74" width="12.48" height="5.92"/><path class="cls-2" d="M30.17,157.4H17.68a1,1,0,0,1-1-1V63.25a1,1,0,0,1,1-1H30.17a1,1,0,0,1,1,1V156.4A1,1,0,0,1,30.17,157.4Zm-11.49-2H29.17V64.25H18.68Z"/><path class="cls-8" d="M22.68,91.84a.5.5,0,0,1-.5-.5V68.09a.5.5,0,0,1,1,0V91.34A.5.5,0,0,1,22.68,91.84Z"/><path class="cls-8" d="M25.17,79.5a.5.5,0,0,1-.5-.5V65.75a.5.5,0,0,1,.5-.5.51.51,0,0,1,.5.5V79A.5.5,0,0,1,25.17,79.5Z"/><path class="cls-8" d="M25.91,111a.5.5,0,0,1-.5-.5V97.22a.5.5,0,0,1,1,0v13.26A.5.5,0,0,1,25.91,111Z"/><path class="cls-8" d="M224.58,112.37a.5.5,0,0,1-.5-.5V98.61a.5.5,0,1,1,1,0v13.26A.5.5,0,0,1,224.58,112.37Z"/><path class="cls-8" d="M23.92,155.83a.5.5,0,0,1-.5-.5V132.08a.51.51,0,0,1,.5-.5.5.5,0,0,1,.5.5v23.25A.5.5,0,0,1,23.92,155.83Z"/><path class="cls-8" d="M26.41,143.5a.5.5,0,0,1-.5-.5V129.75a.5.5,0,0,1,1,0V143A.5.5,0,0,1,26.41,143.5Z"/><path class="cls-2" d="M229.08,157.4H216.59a1,1,0,0,1-1-1V63.25a1,1,0,0,1,1-1h12.49a1,1,0,0,1,1,1V156.4A1,1,0,0,1,229.08,157.4Zm-11.49-2h10.49V64.25H217.59Z"/><path class="cls-8" d="M221.59,91.84a.5.5,0,0,1-.5-.5V68.09a.5.5,0,0,1,1,0V91.34A.5.5,0,0,1,221.59,91.84Z"/><path class="cls-8" d="M224.08,79.5a.5.5,0,0,1-.5-.5V65.75a.5.5,0,0,1,1,0V79A.5.5,0,0,1,224.08,79.5Z"/><path class="cls-8" d="M222.83,155.83a.5.5,0,0,1-.5-.5V132.08a.51.51,0,0,1,.5-.5.5.5,0,0,1,.5.5v23.25A.5.5,0,0,1,222.83,155.83Z"/><path class="cls-8" d="M225.32,143.5a.51.51,0,0,1-.5-.5V129.75a.5.5,0,0,1,.5-.5.5.5,0,0,1,.5.5V143A.5.5,0,0,1,225.32,143.5Z"/><path class="cls-9" d="M233.37,147.73v16H14.89v-16h28.4A19.79,19.79,0,0,0,45.93,151,20.09,20.09,0,0,0,77,147.73h30.3a20.38,20.38,0,0,0,2.65,3.27,20.08,20.08,0,0,0,31-3.27h30.31a19.79,19.79,0,0,0,2.64,3.27,20.08,20.08,0,0,0,31-3.27Z"/><path class="cls-10" d="M232.71,147.23v3.5H204.3a20.08,20.08,0,0,1-31,3.27,19.79,19.79,0,0,1-2.64-3.27H140.31a20.08,20.08,0,0,1-31,3.27,20.38,20.38,0,0,1-2.65-3.27H76.32a20.09,20.09,0,0,1-31,3.27,19.79,19.79,0,0,1-2.64-3.27H14.23v-3.5h28.4a19.79,19.79,0,0,0,2.64,3.27,20.09,20.09,0,0,0,31-3.27h30.3a20.38,20.38,0,0,0,2.65,3.27,20.08,20.08,0,0,0,31-3.27h30.31a19.79,19.79,0,0,0,2.64,3.27,20.08,20.08,0,0,0,31-3.27Z"/><path class="cls-11" d="M42.77,77.2c12.57.78,17.48-4.39,23.57-2.87A15.14,15.14,0,0,1,75,79.76L60.52,85l-15.1-2.85Z"/><path class="cls-2" d="M60.52,88.21l-.22,0L45.22,84.88a1,1,0,0,1-.7-.57l-2.6-5.92a1,1,0,0,1,.1-1A1,1,0,0,1,42.9,77a32.86,32.86,0,0,0,12.55-1.71l.91-.3c4.6-1.54,9-3,13.94-.13A15.19,15.19,0,0,1,76,80.29a1,1,0,0,1,.07.8,1,1,0,0,1-.54.6L60.92,88.13A1.1,1.1,0,0,1,60.52,88.21ZM46.15,83l14.26,3.12,13.22-5.83a14,14,0,0,0-4.33-3.76c-4.21-2.42-7.78-1.22-12.31.29l-.91.31a34.65,34.65,0,0,1-11.69,1.88Z"/><path class="cls-1" d="M76.75,80.38v41.13c0,15.07-7.69,27.3-17.18,27.34h-.25l-.32,0a9.09,9.09,0,0,1-1.29-.13c-4-.66-7.66-3.54-10.38-7.86-3.12-5-5-11.78-5-19.33V82.85c0-3.19-.57-4.27,3.24-4.67A24.25,24.25,0,0,1,59,80.68c4.68,2.38,8.41,2.88,13.62,1.28A36.55,36.55,0,0,0,76.75,80.38Z"/><path class="cls-12" d="M60.47,148.81h-.26c-.19,0-.37,0-.56,0h-.13l-.52,0a6.83,6.83,0,0,1-.78-.06c-.22,0-.44,0-.66-.05l.15,0c8.46-1.1,12.61-8.33,12.61-17.09l.13-49.09c1.43-.44,5-1.54,6.3-2.14V76.77l.13,54.84A17.23,17.23,0,0,1,60.47,148.81Z"/><path class="cls-13" d="M65.64,148.19c-2.14,1-3.83.65-6.33.67h-.15a17.24,17.24,0,0,1-17.24-17.24v-53c.72-.09,1.34-.19,1.89-.3h0c1.06-.1,2.16-.24,3.3-.27a19.91,19.91,0,0,1,4.42.24l.74,3.59c3.55,17.1,10.4,35.26,5.8,52.11-3.23,11.87,3.24,12.22,4,14C63.5,151.62,63.76,147.33,65.64,148.19Z"/><path class="cls-10" d="M62.94,148.09c-1.15.1-2.32,0-3.77,0H59a17.24,17.24,0,0,1-17.24-17.24v-53c.72-.09,1.34-.19,1.89-.3v.14c1.06-.1,2.17-.18,3.31-.21s2.38,0,3.59,0c-.89,0-1.77.1-2.61.18v-.14c-.55.11-1.17.21-1.89.3v53a17.23,17.23,0,0,0,16.87,17.23Z"/><path class="cls-2" d="M42.28,98.82a1.5,1.5,0,0,1-1.5-1.5V38.59a1.5,1.5,0,0,1,1.5-1.5H76.75a1.5,1.5,0,0,1,1.5,1.5V82.77a1.5,1.5,0,0,1-3,0V40.09H43.78V97.32A1.5,1.5,0,0,1,42.28,98.82Z"/><path class="cls-2" d="M59.51,150.27a18.76,18.76,0,0,1-18.74-18.73v-26a1.5,1.5,0,0,1,3,0v26a15.74,15.74,0,0,0,31.47,0v-12.4a1.5,1.5,0,0,1,3,0v12.4A18.75,18.75,0,0,1,59.51,150.27Z"/><path class="cls-2" d="M76.74,110.24a1.5,1.5,0,0,1-1.5-1.5V93.19a1.5,1.5,0,0,1,3,0v15.55A1.5,1.5,0,0,1,76.74,110.24Z"/><path class="cls-2" d="M46.05,70.4a.49.49,0,0,1-.41-.21.5.5,0,0,1,.12-.7l5.14-3.65a.51.51,0,0,1,.7.12.5.5,0,0,1-.12.7l-5.14,3.65A.52.52,0,0,1,46.05,70.4Z"/><path class="cls-2" d="M48.69,70.94A.5.5,0,0,1,48.4,70l2.5-1.77a.51.51,0,0,1,.7.11.5.5,0,0,1-.12.7L49,70.85A.5.5,0,0,1,48.69,70.94Z"/><path class="cls-2" d="M48.06,58.48a.51.51,0,0,1-.41-.21.5.5,0,0,1,.12-.69l2.5-1.78a.5.5,0,0,1,.58.82l-2.5,1.77A.52.52,0,0,1,48.06,58.48Z"/><ellipse class="cls-10" cx="51.81" cy="113.85" rx="1.39" ry="3.14"/><circle class="cls-10" cx="52.36" cy="120.5" r="1.39"/><circle class="cls-10" cx="54.29" cy="110.16" r="0.55"/><ellipse class="cls-12" cx="67.22" cy="136.05" rx="1.83" ry="1.1" transform="translate(-82.37 161.61) rotate(-73.4)"/><circle class="cls-12" cx="66.86" cy="138.92" r="0.43"/><ellipse class="cls-12" cx="67.84" cy="90.18" rx="1.06" ry="2.45"/><path class="cls-10" d="M50.42,105.05a1.5,1.5,0,0,1-1.5-1.5V87a1.5,1.5,0,0,1,3,0v16.6A1.5,1.5,0,0,1,50.42,105.05Z"/><path class="cls-2" d="M65.42,83.88a18.38,18.38,0,0,1-8.55-2.32A23.34,23.34,0,0,0,44,79.17a1,1,0,0,1-.21-2,25.32,25.32,0,0,1,14,2.6c4.61,2.35,8.1,2.68,12.87,1.22a35.91,35.91,0,0,0,4.06-1.54,1,1,0,1,1,.81,1.83,36.46,36.46,0,0,1-4.28,1.62A19.73,19.73,0,0,1,65.42,83.88Z"/><path class="cls-14" d="M108,92.7c12.57.78,17.49-4.39,23.57-2.88a15.18,15.18,0,0,1,8.7,5.44l-14.52,5.2-15.1-2.85Z"/><path class="cls-2" d="M125.74,101.35h-.19l-15.1-2.85a1,1,0,0,1-.69-.51l-2.65-4.91a1,1,0,0,1,.94-1.47,40,40,0,0,0,13.17-1.48c4.7-1.29,9.14-2.51,14.17-.08a14.44,14.44,0,0,1,5.7,4.56,1,1,0,0,1-.49,1.49l-14.52,5.21A1.33,1.33,0,0,1,125.74,101.35Zm-14.45-4.74,14.37,2.71,13-4.64a14.28,14.28,0,0,0-4.09-2.84c-4.35-2.1-8.25-1-12.77.21a43.28,43.28,0,0,1-12,1.62Z"/><path class="cls-15" d="M173.24,87.46c12.57.78,15.7-5.33,21.79-3.82a15.22,15.22,0,0,1,8.7,5.44l-14.53,5.2-15.1-2.85Z"/><path class="cls-2" d="M189.2,97.42l-.21,0-15.08-3.32a1,1,0,0,1-.66-.49c-3.53-6.41-3.19-6.7-2.57-7.24a1.07,1.07,0,0,1,1.12-.17,33.76,33.76,0,0,0,12.95-1.94c9.42-3.19,16.3-1.38,19.91,5.24a1,1,0,0,1,.07.8,1,1,0,0,1-.54.6l-14.58,6.45A1,1,0,0,1,189.2,97.42Zm-14.42-5.19,14.32,3.14,13.25-5.87c-3.25-5-8.94-6.08-17-3.36a36,36,0,0,1-12.65,2.08C173.22,89.26,174,90.81,174.78,92.23Z"/><path class="cls-3" d="M140.25,93.83v33.52c0,12.28-7.69,22.24-17.18,22.28h-.25l-.32,0a10.85,10.85,0,0,1-1.29-.11,15.91,15.91,0,0,1-10.38-6.4,25.85,25.85,0,0,1-5-15.75V95.84c0-2.6-.57-3.48,3.24-3.8a29,29,0,0,1,13.44,2,19.57,19.57,0,0,0,13.62,1.05A42.14,42.14,0,0,0,140.25,93.83Z"/><path class="cls-16" d="M124,149.59h-.25l-.57,0H123l-.52,0c-.26,0-.52,0-.77-.05l-.67,0,.15,0c8.46-.89,12.61-6.78,12.61-13.91l.13-40c1.43-.36,5-1.25,6.3-1.73V91l.13,44.64C140.38,143.11,133.1,149.24,124,149.59Z"/><path class="cls-17" d="M129.15,149.19c-2.14.81-3.84.53-6.34.55h-.15a19.19,19.19,0,0,1-12.19-4.16,13,13,0,0,1-5-10V91.89c.72-.07,1.34-.15,1.89-.24h0c1.06-.09,2.16-.2,3.3-.22a23.42,23.42,0,0,1,4.42.2l.74,3c3.55,14.09,10.4,29.05,5.81,42.93-3.24,9.78,3.23,10.07,4,11.57C127,152,127.27,148.48,129.15,149.19Z"/><path class="cls-10" d="M126.44,149.11c-1.15.09-2.32,0-3.77,0h-.15A19.19,19.19,0,0,1,110.33,145a13,13,0,0,1-5-10V91.28c.72-.08,1.34-.16,1.89-.25v.11c1.06-.08,2.17-.15,3.31-.17s2.38,0,3.59,0c-.89,0-1.77.09-2.61.15V91c-.55.09-1.17.17-1.89.25v43.64a13,13,0,0,0,5.05,10A19,19,0,0,0,126.44,149.11Z"/><path class="cls-2" d="M105.78,98.6a1.5,1.5,0,0,1-1.5-1.5V39.37a1.5,1.5,0,0,1,1.5-1.5h34.47a1.5,1.5,0,0,1,1.5,1.5V70.55a1.5,1.5,0,1,1-3,0V40.87H107.28V97.1A1.5,1.5,0,0,1,105.78,98.6Z"/><path class="cls-2" d="M123,151.05a18.76,18.76,0,0,1-18.73-18.74v-27a1.5,1.5,0,0,1,3,0v27a15.74,15.74,0,1,0,31.47,0v-12.4a1.5,1.5,0,1,1,3,0v12.4A18.77,18.77,0,0,1,123,151.05Z"/><path class="cls-2" d="M140.25,111a1.5,1.5,0,0,1-1.5-1.5V77a1.5,1.5,0,1,1,3,0v32.55A1.5,1.5,0,0,1,140.25,111Z"/><rect class="cls-10" x="99.71" y="24.81" width="47.52" height="15.64" rx="7.82" transform="translate(246.94 65.25) rotate(-180)"/><path class="cls-6" d="M131,25.21h7.66c5.95,0,10.79,3.5,10.79,7.82a6.94,6.94,0,0,1-3.16,5.53,13.07,13.07,0,0,1-7.63,2.29H131a13,13,0,0,0,7.62-2.29A7,7,0,0,0,141.8,33C141.8,28.71,137,25.21,131,25.21Z"/><ellipse class="cls-10" cx="136.07" cy="34.45" rx="1.66" ry="1.31" transform="translate(65.2 155.6) rotate(-73.88)"/><path class="cls-2" d="M140.6,42.15h-34a9,9,0,0,1-9-9V32.5a9,9,0,0,1,9-9h3.64a1.5,1.5,0,0,1,0,3H106.6a6,6,0,0,0-6,6v.65a6,6,0,0,0,6,6h34a6,6,0,0,0,6-6V32.5a6,6,0,0,0-6-6H127a1.5,1.5,0,0,1,0-3H140.6a9,9,0,0,1,9,9v.65A9,9,0,0,1,140.6,42.15Z"/><path class="cls-2" d="M121.05,26.51h-5a1.5,1.5,0,0,1,0-3h5a1.5,1.5,0,0,1,0,3Z"/><ellipse class="cls-10" cx="113.67" cy="116.07" rx="1.39" ry="3.14"/><circle class="cls-10" cx="117.79" cy="110.94" r="0.55"/><ellipse class="cls-16" cx="129.15" cy="137.07" rx="3.42" ry="2.05" transform="matrix(0.29, -0.96, 0.96, 0.29, -39.1, 221.68)"/><circle class="cls-16" cx="128.48" cy="142.43" r="0.8"/><ellipse class="cls-16" cx="129.15" cy="104.3" rx="2.01" ry="3.8"/><path class="cls-10" d="M113.67,109.65a1.5,1.5,0,0,1-1.5-1.5v-8.6a1.5,1.5,0,0,1,3,0v8.6A1.5,1.5,0,0,1,113.67,109.65Z"/><path class="cls-2" d="M128.92,96.86A21.58,21.58,0,0,1,120.44,95a28.13,28.13,0,0,0-13-2,1,1,0,0,1-1.08-.91A1,1,0,0,1,107.3,91a30.28,30.28,0,0,1,13.91,2.11,18.53,18.53,0,0,0,13,1,40.1,40.1,0,0,0,4.07-1.25,1,1,0,0,1,1.28.59,1,1,0,0,1-.59,1.29c-1.44.52-2.88,1-4.27,1.31A23.5,23.5,0,0,1,128.92,96.86Z"/><path class="cls-2" d="M111.43,79.05a.5.5,0,0,1-.5-.5V67.29a.5.5,0,0,1,1,0V78.55A.5.5,0,0,1,111.43,79.05Z"/><path class="cls-2" d="M113.92,72.71a.5.5,0,0,1-.5-.5V56a.5.5,0,1,1,1,0V72.21A.5.5,0,0,1,113.92,72.71Z"/><circle class="cls-12" cx="194.36" cy="142.11" r="0.43"/><path class="cls-18" d="M204.24,93.45V127c0,12.28-7.69,22.25-17.18,22.28h-.25l-.32,0a10.87,10.87,0,0,1-1.29-.1,16,16,0,0,1-10.38-6.41,25.82,25.82,0,0,1-5-15.75V95.46c0-2.61-3.18-7.5.62-7.83,4.6-.39,10.89,3.29,18.41,2.31,5-.66,20.35.46,15.44,3.51C203,94.22,202.9,93.93,204.24,93.45Z"/><path class="cls-19" d="M188,149.21h-.26l-.57,0H187l-.52,0c-.26,0-.51,0-.77,0s-.45,0-.67-.05h.15c8.46-.9,12.62-6.78,12.62-13.92L198.05,91c1.43-.36,5.5,1.2,6.84.71l-.65-1.17.13,44.64C204.37,142.73,197.09,148.85,188,149.21Z"/><path class="cls-20" d="M193.14,148.78c-2.14.82-3.83.54-6.33.56h-.15a18.92,18.92,0,0,1-12.19-4.26,13.47,13.47,0,0,1-5.05-10.29V90.08c.72-.08.42-2.35,1-2.45l.92,2.19c1.06-.08-.27-2.29.87-2.32,1.44,0,5.39,2.06,6.84,2.3l.75,3c3.55,14.43,10.4,29.76,5.8,44-3.24,10,3.23,10.31,4,11.85C191,151.67,191.26,148.05,193.14,148.78Z"/><path class="cls-10" d="M190.44,148.73c-1.15.08-2.32,0-3.77,0h-.15a19.19,19.19,0,0,1-12.19-4.16,13,13,0,0,1-5.05-10V90.89c.72-.08.1-3.28.65-3.37v.12c1.06-.09,2.17-.15,3.31-.18s-.9.09.31.14c-.89,0,1.51,0,.67,0l.31,1c-.55.09-.56,0-1.28,0l.32,45.84a13,13,0,0,0,5.05,10A19.1,19.1,0,0,0,190.44,148.73Z"/><path class="cls-2" d="M169.77,94.21a1.5,1.5,0,0,1-1.5-1.5V39a1.5,1.5,0,0,1,1.5-1.5h34.47a1.5,1.5,0,0,1,1.5,1.5V75.16a1.5,1.5,0,0,1-3,0V40.48H171.27V92.71A1.5,1.5,0,0,1,169.77,94.21Z"/><path class="cls-2" d="M187,150.66a18.77,18.77,0,0,1-18.74-18.74v-31a1.5,1.5,0,0,1,3,0v31a15.74,15.74,0,1,0,31.47,0v-12.4a1.5,1.5,0,1,1,3,0v12.4A18.76,18.76,0,0,1,187,150.66Z"/><path class="cls-2" d="M204.24,110.63a1.5,1.5,0,0,1-1.5-1.5V86.58a1.5,1.5,0,1,1,3,0v22.55A1.5,1.5,0,0,1,204.24,110.63Z"/><ellipse class="cls-19" cx="194.71" cy="136.44" rx="1.83" ry="1.1" transform="translate(8.34 284.07) rotate(-73.4)"/><ellipse class="cls-19" cx="195.34" cy="101.47" rx="1.06" ry="1.99"/><path class="cls-10" d="M176.72,119.42a1.5,1.5,0,0,1-1.5-1.5v-8.61a1.5,1.5,0,1,1,3,0v8.61A1.5,1.5,0,0,1,176.72,119.42Z"/><path class="cls-2" d="M175.43,78.66a.5.5,0,0,1-.5-.5V65.91a.5.5,0,0,1,.5-.5.5.5,0,0,1,.5.5V78.16A.5.5,0,0,1,175.43,78.66Z"/><path class="cls-2" d="M177.91,70.32a.5.5,0,0,1-.5-.5V46.57a.51.51,0,0,1,.5-.5.5.5,0,0,1,.5.5V69.82A.5.5,0,0,1,177.91,70.32Z"/><path class="cls-2" d="M185.66,91.57c-10.67,0-15.71-4.31-15.93-4.5a1,1,0,0,1-.09-1.41,1,1,0,0,1,1.41-.09s5,4.16,15.29,4c7.24-.13,16.88,0,17,0a1,1,0,0,1,0,2c-.09,0-9.7-.13-16.91,0Z"/><circle class="cls-10" cx="177.66" cy="123.75" r="1.39"/><path class="cls-2" d="M93.63,151.73H81.69a.5.5,0,0,1-.5-.5.51.51,0,0,1,.5-.5H93.63a.5.5,0,0,1,.5.5A.5.5,0,0,1,93.63,151.73Z"/><path class="cls-2" d="M100.57,151.73H97.63a.5.5,0,0,1-.5-.5.5.5,0,0,1,.5-.5h2.94a.51.51,0,0,1,.5.5A.5.5,0,0,1,100.57,151.73Z"/><path class="cls-2" d="M26.17,159.18H14.23a.5.5,0,1,1,0-1H26.17a.5.5,0,1,1,0,1Z"/><path class="cls-2" d="M33.1,159.18H30.17a.5.5,0,0,1,0-1H33.1a.5.5,0,0,1,0,1Z"/><rect class="cls-21" x="13.2" y="160.38" width="219.51" height="3.31"/><path class="cls-2" d="M232.71,164.69H14.23a1,1,0,0,1-1-1v-16a1,1,0,0,1,1-1h28.4a1,1,0,0,1,.84.46,18.61,18.61,0,0,0,2.51,3.1,19.08,19.08,0,0,0,29.5-3.1,1,1,0,0,1,.84-.46h30.3a1,1,0,0,1,.84.46,19.08,19.08,0,0,0,32,0,1,1,0,0,1,.84-.46h30.31a1,1,0,0,1,.84.46,18.61,18.61,0,0,0,2.51,3.1,19.07,19.07,0,0,0,29.49-3.1,1,1,0,0,1,.84-.46h28.41a1,1,0,0,1,1,1v16A1,1,0,0,1,232.71,164.69Zm-217.48-2H231.71v-14H204.83a21.08,21.08,0,0,1-32.28,3,22,22,0,0,1-2.47-3H140.84a21.08,21.08,0,0,1-32.28,3,21.55,21.55,0,0,1-2.48-3H76.85a21.09,21.09,0,0,1-32.29,3,21.24,21.24,0,0,1-2.47-3H15.23Z"/><g class="cls-22"><path class="cls-23" d="M82.24,156.69a1.78,1.78,0,0,1-.94-.31,3.92,3.92,0,0,0-1.67-.18.47.47,0,0,1-.6-.39,1.69,1.69,0,0,1,.76-1.78,1.47,1.47,0,0,1,1.86.34c.12.15.2.32.33.46a.93.93,0,0,0,.93.26,1.28,1.28,0,0,1,.53-.12.81.81,0,0,1,.32.16,1.63,1.63,0,0,1,.52.49.6.6,0,0,1,0,.69.88.88,0,0,1-.27.19,3.12,3.12,0,0,1-3.35-.49"/><ellipse class="cls-23" cx="86.93" cy="154.67" rx="1.01" ry="1.83" transform="translate(-88.91 131.05) rotate(-53.01)"/><circle class="cls-23" cx="87.58" cy="158.73" r="0.64"/><ellipse class="cls-23" cx="90.49" cy="157.37" rx="1.35" ry="0.97"/><circle class="cls-23" cx="90.88" cy="154.02" r="0.83"/><circle class="cls-23" cx="81.13" cy="158.65" r="0.57"/></g><g class="cls-22"><path class="cls-23" d="M36.78,157.05c-.22,0-.42-.11-.63-.2a2.57,2.57,0,0,0-1.11-.12.41.41,0,0,1-.31-.07.42.42,0,0,1-.09-.19,1.14,1.14,0,0,1,.51-1.19,1,1,0,0,1,1.24.23c.08.1.13.21.22.31a.64.64,0,0,0,.62.17.89.89,0,0,1,.35-.08.51.51,0,0,1,.21.1,1.38,1.38,0,0,1,.35.33.39.39,0,0,1,0,.46.46.46,0,0,1-.18.13,2.09,2.09,0,0,1-2.23-.32"/><ellipse class="cls-23" cx="39.91" cy="155.71" rx="0.67" ry="1.22" transform="translate(-108.48 93.9) rotate(-53.01)"/><circle class="cls-23" cx="40.34" cy="158.41" r="0.43"/><ellipse class="cls-23" cx="42.28" cy="157.51" rx="0.9" ry="0.64"/><circle class="cls-23" cx="42.54" cy="155.28" r="0.55"/><circle class="cls-23" cx="36.04" cy="158.36" r="0.38"/></g><g class="cls-22"><path class="cls-23" d="M221.4,156.1c-.22,0-.42-.11-.62-.2a2.64,2.64,0,0,0-1.12-.12.44.44,0,0,1-.3-.07.28.28,0,0,1-.09-.19,1.12,1.12,0,0,1,.5-1.19,1,1,0,0,1,1.24.23,3.3,3.3,0,0,0,.22.3.62.62,0,0,0,.62.18.89.89,0,0,1,.35-.08.51.51,0,0,1,.21.1,1.27,1.27,0,0,1,.36.33.41.41,0,0,1,0,.46.49.49,0,0,1-.18.13,2.07,2.07,0,0,1-2.23-.33"/><ellipse class="cls-23" cx="224.53" cy="154.76" rx="0.67" ry="1.22" transform="matrix(0.6, -0.8, 0.8, 0.6, -34.17, 240.99)"/><circle class="cls-23" cx="224.96" cy="157.46" r="0.43"/><ellipse class="cls-23" cx="226.9" cy="156.56" rx="0.9" ry="0.64"/><circle class="cls-23" cx="227.16" cy="154.33" r="0.55"/><circle class="cls-23" cx="220.66" cy="157.41" r="0.38"/></g><g class="cls-22"><path class="cls-23" d="M157.24,155.72a1.86,1.86,0,0,1-.94-.3,3.9,3.9,0,0,0-1.67-.19.61.61,0,0,1-.46-.1.51.51,0,0,1-.13-.29,1.67,1.67,0,0,1,.75-1.78,1.48,1.48,0,0,1,1.87.34,4.73,4.73,0,0,0,.32.46.94.94,0,0,0,.94.26,1.2,1.2,0,0,1,.52-.12.81.81,0,0,1,.32.16,1.91,1.91,0,0,1,.53.49.62.62,0,0,1,0,.69.88.88,0,0,1-.27.19,3.1,3.1,0,0,1-3.35-.49"/><ellipse class="cls-23" cx="161.93" cy="153.7" rx="1.01" ry="1.83" transform="translate(-58.26 190.57) rotate(-53.01)"/><circle class="cls-23" cx="162.58" cy="157.76" r="0.64"/><ellipse class="cls-23" cx="165.49" cy="156.4" rx="1.35" ry="0.97"/><circle class="cls-23" cx="165.88" cy="153.05" r="0.83"/><circle class="cls-23" cx="156.13" cy="157.68" r="0.57"/></g><ellipse class="cls-24" cx="101.35" cy="154.87" rx="6.64" ry="0.85"/><ellipse class="cls-24" cx="28.22" cy="153.19" rx="6.64" ry="0.85"/><ellipse class="cls-24" cx="146.31" cy="157.68" rx="6.64" ry="0.85"/><ellipse class="cls-24" cx="211.84" cy="153.88" rx="6.64" ry="0.85"/><rect class="cls-9" x="6.77" y="54.09" width="233.4" height="8.85"/><rect class="cls-10" x="6.77" y="54.09" width="233.4" height="3.9"/><path class="cls-21" d="M228,63.34h-22a1.5,1.5,0,0,1,0-3h22a1.5,1.5,0,0,1,0,3Z"/><path class="cls-2" d="M239.4,64.25H6a1,1,0,0,1-1-1V54.41a1,1,0,0,1,1-1H239.4a1,1,0,0,1,1,1v8.84A1,1,0,0,1,239.4,64.25ZM7,62.25H238.4V55.41H7Z"/><path class="cls-2" d="M106.74,32.3a.52.52,0,0,1-.41-.22.51.51,0,0,1,.12-.69l2.5-1.78a.5.5,0,1,1,.58.82L107,32.2A.46.46,0,0,1,106.74,32.3Z"/><path class="cls-2" d="M108.75,35.06a.5.5,0,0,1-.41-.22.49.49,0,0,1,.13-.69l5.5-3.78a.5.5,0,0,1,.56.83L109,35A.52.52,0,0,1,108.75,35.06Z"/><rect class="cls-10" x="163.87" y="24.61" width="47.52" height="15.64" rx="7.82" transform="translate(375.27 64.85) rotate(-180)"/><path class="cls-6" d="M194.33,24.61H202c5.94,0,10.79,3.5,10.79,7.82A7,7,0,0,1,209.62,38,13.07,13.07,0,0,1,202,40.25h-7.66A13,13,0,0,0,201.94,38a6.94,6.94,0,0,0,3.16-5.53C205.1,28.11,200.27,24.61,194.33,24.61Z"/><path class="cls-2" d="M203.9,41.75h-34a9,9,0,0,1-9-9V32.1a9,9,0,0,1,9-9h34a9,9,0,0,1,9,9v.65A9,9,0,0,1,203.9,41.75Zm-34-15.64a6,6,0,0,0-6,6v.65a6,6,0,0,0,6,6h34a6,6,0,0,0,6-6V32.1a6,6,0,0,0-6-6Z"/><path class="cls-2" d="M170.05,32a.49.49,0,0,1-.41-.21.5.5,0,0,1,.12-.7l2.5-1.77a.49.49,0,0,1,.69.12.5.5,0,0,1-.12.7l-2.49,1.77A.52.52,0,0,1,170.05,32Z"/><path class="cls-2" d="M172.06,34.73a.49.49,0,0,1-.41-.22.5.5,0,0,1,.13-.7L177.27,30a.5.5,0,1,1,.57.82l-5.5,3.78A.49.49,0,0,1,172.06,34.73Z"/><rect class="cls-10" x="35.8" y="25.41" width="47.52" height="15.64" rx="7.82" transform="translate(119.11 66.45) rotate(-180)"/><path class="cls-6" d="M66.25,25.41h7.66c6,0,10.79,3.5,10.79,7.82a7,7,0,0,1-3.16,5.53,13.07,13.07,0,0,1-7.63,2.29H66.25a13,13,0,0,0,7.62-2.29A7,7,0,0,0,77,33.23C77,28.91,72.2,25.41,66.25,25.41Z"/><path class="cls-2" d="M75.82,42.54h-34a9,9,0,0,1-9-9V32.9a9,9,0,0,1,9-9h34a9,9,0,0,1,9,9v.65A9,9,0,0,1,75.82,42.54Zm-34-15.63a6,6,0,0,0-6,6v.65a6,6,0,0,0,6,6h34a6,6,0,0,0,6-6V32.9a6,6,0,0,0-6-6Z"/><path class="cls-2" d="M42,32.76a.49.49,0,0,1-.41-.21.51.51,0,0,1,.12-.7l2.5-1.77a.5.5,0,0,1,.7.12.52.52,0,0,1-.12.7l-2.5,1.77A.52.52,0,0,1,42,32.76Z"/><path class="cls-2" d="M44,35.52a.48.48,0,0,1-.41-.21.5.5,0,0,1,.13-.7l5.49-3.77a.5.5,0,0,1,.7.13.49.49,0,0,1-.13.69l-5.5,3.78A.46.46,0,0,1,44,35.52Z"/><rect class="cls-25" x="9.52" y="113.31" width="228.44" height="6.83"/><rect class="cls-26" x="9.33" y="117.05" width="228.44" height="3.09"/><path class="cls-2" d="M15.94,116.88a.38.38,0,0,1-.31-.16.37.37,0,0,1,.09-.52l1.5-1.07a.38.38,0,0,1,.53.09.37.37,0,0,1-.09.52l-1.51,1.07A.4.4,0,0,1,15.94,116.88Z"/><path class="cls-2" d="M15.94,118.5a.38.38,0,0,1-.31-.16.37.37,0,0,1,.09-.52l1.5-1.07a.38.38,0,0,1,.53.09.37.37,0,0,1-.09.52l-1.51,1.07A.33.33,0,0,1,15.94,118.5Z"/><ellipse class="cls-26" cx="96.73" cy="115.79" rx="0.95" ry="1.79" transform="translate(-34.29 190.62) rotate(-79.86)"/><path class="cls-10" d="M150.34,115.6H131.87a1,1,0,0,1,0-2h18.47a1,1,0,0,1,0,2Z"/><path class="cls-2" d="M9.91,128.73H1a1,1,0,0,1-1-1V106.26a1,1,0,0,1,1-1H9.91a1,1,0,0,1,1,1v21.47A1,1,0,0,1,9.91,128.73Zm-7.91-2H8.91V107.26H2Z"/><path class="cls-2" d="M247.25,128.73h-8.91a1,1,0,0,1-1-1V106.26a1,1,0,0,1,1-1h8.91a1,1,0,0,1,1,1v21.47A1,1,0,0,1,247.25,128.73Zm-7.91-2h6.91V107.26h-6.91Z"/><path class="cls-2" d="M238.34,121.19H9.91a1,1,0,0,1-1-1v-6.83a1,1,0,0,1,1-1H84.78a1,1,0,0,1,0,2H10.91v4.83H237.34v-4.83H93a1,1,0,0,1,0-2h145.3a1,1,0,0,1,1,1v6.83A1,1,0,0,1,238.34,121.19Z"/><ellipse class="cls-3" cx="125.74" cy="13.62" rx="3.39" ry="3.85"/><path class="cls-2" d="M124.87,18.47a5.69,5.69,0,1,1,5.69-5.69A5.69,5.69,0,0,1,124.87,18.47Zm0-9.38a3.69,3.69,0,1,0,3.69,3.69A3.69,3.69,0,0,0,124.87,9.09Z"/><ellipse class="cls-3" cx="122.57" cy="80.24" rx="3.39" ry="3.85"/><path class="cls-2" d="M121.7,85.09a5.69,5.69,0,1,1,5.69-5.69A5.7,5.7,0,0,1,121.7,85.09Zm0-9.38a3.69,3.69,0,1,0,3.69,3.69A3.7,3.7,0,0,0,121.7,75.71Z"/><circle class="cls-18" cx="188.79" cy="16.1" r="3.52"/><path class="cls-2" d="M188.48,20.44a5.69,5.69,0,1,1,4-9.71h0a5.69,5.69,0,0,1-4,9.71Zm0-9.38a3.69,3.69,0,1,0,2.61,1.08A3.69,3.69,0,0,0,188.48,11.06Z"/><circle class="cls-1" cx="70.49" cy="9.68" r="5.5"/><path class="cls-2" d="M70.18,15.89a7.95,7.95,0,1,1,5.62-2.32A7.93,7.93,0,0,1,70.18,15.89ZM70.18,2a5.95,5.95,0,1,0,4.2,1.74A5.93,5.93,0,0,0,70.18,2Z"/><g class="cls-27"><ellipse class="cls-28" cx="201.47" cy="32.31" rx="1.61" ry="2.3"/><circle class="cls-28" cx="198.27" cy="35.61" r="0.91"/><circle class="cls-28" cx="197.38" cy="29.7" r="1.37"/></g><ellipse class="cls-20" cx="186.85" cy="100.51" rx="1.97" ry="3.87" transform="translate(-23.27 71.13) rotate(-20.32)"/></g></g></svg>