<svg id="Capa_1" enable-background="new 0 0 512 512" height="512" viewBox="0 0 512 512" width="512" xmlns="http://www.w3.org/2000/svg"><g><path d="m286 333.036v-258.036c0-41.353-33.647-75-75-75s-75 33.647-75 75v258.036c-19.146 19.614-30 45.85-30 72.964 0 57.891 47.109 106 105 106s105-48.109 105-106c0-27.114-10.854-53.35-30-72.964z" fill="#edf5ff"/><path d="m316 406c0-27.114-10.854-53.35-30-72.964v-258.036c0-41.353-33.647-75-75-75v512c57.891 0 105-48.109 105-106z" fill="#d5e8fe"/><g><path d="m316 91h60v30h-60z" fill="#80bfff"/></g><g><path d="m316 151h90v30h-90z" fill="#80bfff"/></g><g><path d="m316 211h60v30h-60z" fill="#80bfff"/></g><g><path d="m316 271h90v30h-90z" fill="#80bfff"/></g><path d="m226 363.763v-273.763h-15-15v273.763c-17.422 6.213-30 22.707-30 42.237 0 24.814 20.186 45 45 45s45-20.186 45-45c0-19.53-12.578-36.024-30-42.237z" fill="#ff641a"/><path d="m256 406c0-19.53-12.578-36.024-30-42.237v-273.763h-15v361c24.814 0 45-20.186 45-45z" fill="#f03800"/></g></svg>