<svg width="705" height="910" viewBox="0 0 705 910" fill="none" xmlns="http://www.w3.org/2000/svg">
<path d="M440.992 281.005C440.992 281.005 539.398 238.876 583.46 216.968C627.523 195.061 606.96 199.274 606.96 199.274C606.96 199.274 632.664 180.737 643.679 170.626C654.695 160.514 646.617 141.135 626.789 154.616C626.789 154.616 639.273 109.116 599.617 95.6348C559.96 82.1533 504.882 131.024 494.601 156.301C484.32 181.579 485.054 206.014 493.132 216.126C493.132 216.126 469.632 202.644 451.273 216.126C432.914 229.607 433.648 247.301 440.992 259.94C440.992 259.94 405.132 258.845 409.414 278.477C412.351 291.959 440.992 281.005 440.992 281.005Z" fill="#F3E7D9"/>
<path d="M89.5936 202.223C89.5936 202.223 66.8279 188.741 67.5623 184.528C68.2967 180.315 85.1873 189.584 85.1873 189.584C85.1873 189.584 88.1248 148.297 126.312 143.241C164.5 138.186 173.312 188.741 173.312 198.01C173.312 198.01 185.062 189.584 193.875 192.954C202.687 196.324 221.781 210.649 212.234 233.399C212.234 233.399 226.187 227.5 238.672 234.241C251.156 240.982 282 250.25 282 250.25L274.656 253.621C274.656 253.621 296.687 256.149 312.844 261.204C329 266.26 329 266.26 329 266.26C329 266.26 303.297 258.676 290.078 259.519C276.859 260.361 251.89 250.25 243.078 249.408C234.265 248.565 210.765 240.139 210.765 240.139C210.765 240.139 235.734 254.463 212.234 249.408C188.734 244.352 89.5936 202.223 89.5936 202.223Z" fill="#F3E7D9"/>
<path d="M352.5 364C352.5 364 432.547 333.667 442.828 329.454C453.109 325.241 464.125 319.343 475.141 317.658C486.156 315.972 514.062 305.861 524.344 296.593C534.625 287.324 542.703 283.111 542.703 283.111C542.703 283.111 518.469 288.167 503.047 296.593C487.625 305.019 487.625 305.019 487.625 305.019C487.625 305.019 465.594 294.065 447.234 299.121C428.875 304.176 408.312 326.084 406.844 338.722C406.844 338.722 398.031 335.352 384.078 340.408C370.125 345.463 352.5 364 352.5 364Z" fill="#F3E7D9"/>
<path d="M176.984 442.362C176.984 442.362 199.016 446.575 209.297 444.047C219.578 441.519 165.234 432.251 156.422 424.667C147.609 417.084 155.688 421.297 155.688 421.297C155.688 421.297 168.172 423.825 161.563 416.241C154.953 408.658 137.328 400.232 118.234 403.602L91.0625 404.445C91.0625 404.445 96.9375 412.028 123.375 424.667C149.813 437.306 141 426.353 141 426.353L176.984 442.362Z" fill="#F3E7D9"/>
<path d="M270.984 187.898C270.984 187.898 293.75 185.37 299.625 207.278C299.625 207.278 298.156 186.213 315.047 185.37" stroke="#273252" stroke-width="2.17725" stroke-miterlimit="10" stroke-linecap="round" stroke-linejoin="round"/>
<path d="M343.32 157.986C343.32 157.986 352.133 167.255 353.602 167.255C355.07 167.255 357.273 154.616 357.273 154.616" stroke="#273252" stroke-width="1.08862" stroke-miterlimit="10" stroke-linecap="round" stroke-linejoin="round"/>
<path d="M443.732 636.241C443.732 636.241 443.857 636.41 444.121 636.696C446.001 638.744 454.983 646.883 477.513 644.667C503.216 642.139 520.841 643.825 528.185 645.51C535.529 647.195 547.279 647.195 561.232 645.51C575.185 643.825 602.357 641.297 600.154 639.612C597.951 637.926 595.013 636.241 595.013 636.241C595.013 636.241 620.716 636.241 616.31 631.186C611.904 626.13 587.669 626.13 573.716 622.76C559.763 619.389 496.607 622.76 479.716 621.917C462.826 621.075 389.388 623.602 403.341 627.815" fill="#F3E7D9"/>
<path d="M571.865 503.575L569.853 500.331C569.008 498.966 567.334 498.68 566.181 499.708L486.663 570.157C485.488 571.202 485.319 573.165 486.303 574.446C487.177 575.592 488.668 575.785 489.74 574.892L571.27 507.687C572.416 506.735 572.688 504.898 571.865 503.575Z" fill="#B44C29"/>
<path d="M567.95 499.791L568.971 503.431L486.802 573.619L487.61 569.254L566.173 499.698L567.95 499.791Z" fill="#CC6D3D"/>
<path d="M346.244 541.493C350.745 541.324 394.808 541.324 417.662 537.768C440.515 534.213 454.072 532.654 454.072 532.654C454.072 532.654 508.687 542.209 566.02 529.764L542.006 539.984C542.006 539.984 468.113 540.094 460.755 539.209C460.373 539.167 456.98 538.653 451.362 539.1C445.744 539.546 379.702 551.991 364.596 549.32C364.596 549.329 341.742 541.661 346.244 541.493Z" fill="#A96443"/>
<path d="M355.3 545.772C355.3 545.772 356.46 544.441 358.788 543.548C358.788 543.548 382.237 543.826 405.274 542.216C428.686 540.582 451.701 537.051 453.31 536.883C453.31 536.883 509.474 540.885 524.199 538.661C524.199 538.661 470.354 550.213 437.432 553.768C404.496 557.324 355.3 545.772 355.3 545.772Z" fill="#7A462F"/>
<path d="M478.872 520.882C478.872 528.12 470.228 533.774 457.178 533.774C444.128 533.774 433.546 527.901 433.546 520.663C433.546 513.425 444.128 507.552 457.178 507.552C470.228 507.552 478.872 513.636 478.872 520.882Z" fill="#1D2538"/>
<path d="M454.851 524.876L459.888 558.209L487.002 556.877C487.002 556.877 479.643 521.32 478.483 516.88C477.322 512.431 459.888 515.548 454.851 524.876Z" fill="#1D2538"/>
<path d="M457.516 541.492L459.888 558.217L481.192 555.993C481.192 555.993 472.769 548.435 471.608 543.994C470.441 539.545 463.765 537.658 457.516 541.492Z" fill="#273252"/>
<path d="M448.652 513.771C448.652 513.771 426.188 493.33 417.662 489.774C409.136 486.218 402.556 499.548 403.716 503.55C404.876 507.553 404.149 520.149 418.433 524.438C434.699 529.325 447.389 533.715 452.427 532.83C457.465 531.937 455.24 519.989 448.652 513.771Z" fill="#1D2538"/>
<path d="M470.933 447.551C472.512 445.26 473.452 443.473 477.351 446.768C481.243 450.062 486.134 460.662 486.134 460.662C486.134 460.662 486.582 461.319 488.022 462.162C489.461 463.005 492.567 470.655 493.25 472.164C493.933 473.663 500.513 478.997 495.285 484.668C491.943 488.291 489.27 490.793 484.901 485.856C480.531 480.918 474.37 469.273 471.278 465.136C468.194 460.991 469.317 449.894 470.933 447.551Z" fill="#273252"/>
<path d="M470.932 447.551C472.511 445.26 473.451 443.473 477.35 446.768C477.35 446.768 477.923 451.368 481.338 456.163C485.26 461.665 484.386 463.662 484.386 463.662L484.239 471.161C484.239 471.161 486.773 475.593 487.456 477.093C488.139 478.592 489.82 491.476 489.82 491.476C489.82 491.476 489.269 490.785 484.893 485.847C480.523 480.91 474.362 469.265 471.27 465.128C468.193 460.991 469.316 449.894 470.932 447.551Z" fill="#1D2538"/>
<path d="M488.897 480.16C488.897 480.16 491.658 477.328 495.866 477.16C499.215 477.025 500.948 479.325 503.878 482.578C509.694 489.032 507.388 485.822 512.242 489.049C518.448 493.178 522.487 495.141 519.645 501.191C516.157 508.622 514.592 509.701 512.331 508.69C510.061 507.679 511.442 507.249 509.826 506.499C508.211 505.749 502.02 501.435 498.818 499.548C495.616 497.66 494.243 495.983 494.243 495.983C494.243 495.983 490.755 493.498 489.036 491.964C487.303 490.431 483.514 486.513 488.897 480.16Z" fill="#C94039"/>
<path d="M488.749 479.991C488.749 479.991 492.164 488.678 494.272 490.987C497.246 494.247 513.74 502.429 513.74 502.429C513.74 502.429 518.388 510.206 512.337 508.681C509.965 508.083 511.449 507.24 509.833 506.49C508.217 505.74 502.027 501.426 498.825 499.539C495.623 497.651 494.25 495.975 494.25 495.975C494.25 495.975 490.761 493.489 489.043 491.956C487.302 490.43 483.366 486.344 488.749 479.991Z" fill="#992C29"/>
<path d="M521.968 504.314C522.984 500.94 522.038 497.504 519.856 496.64C517.675 495.776 515.083 497.811 514.068 501.185C513.053 504.559 513.999 507.994 516.18 508.858C518.362 509.722 520.953 507.688 521.968 504.314Z" fill="#F3E7D9"/>
<path d="M521.297 503.82C522.034 501.37 521.432 498.908 519.952 498.322C518.472 497.736 516.674 499.247 515.937 501.697C515.2 504.147 515.802 506.609 517.282 507.195C518.762 507.781 520.559 506.27 521.297 503.82Z" fill="#CC6D3D"/>
<path d="M520.055 498.554C520.055 498.554 516.618 501.705 516.618 504.334C516.618 506.963 518.895 508.041 520.422 509.575C521.95 511.108 528.831 510.822 530.527 510.67C532.995 510.443 531.497 509.364 531.497 509.364C531.497 509.364 533.266 509.6 534.441 508.404C535.095 507.738 534.801 506.82 534.801 506.82C534.801 506.82 536.042 506.609 536.542 506.322C537.122 505.985 537.614 505.042 537.195 504.41C536.777 503.778 535.741 503.576 535.741 503.576C535.741 503.576 537.445 500.458 535.308 500.913C532.547 501.494 529.352 501.25 529.352 501.25C529.352 501.25 528.045 500.669 527.465 500.087C526.54 499.16 527.032 499.169 526.811 499.169C526.238 499.169 528.251 499.093 531.489 497.998C534.728 496.902 531.489 494.282 529.007 495.369C526.525 496.464 522.904 496.245 521.95 496.464C520.995 496.683 520.055 498.554 520.055 498.554Z" fill="#F5894E"/>
<path d="M529.228 501.655C529.228 501.655 528.934 504.098 528.934 504.435C528.934 504.772 526.995 507.216 526.995 507.216L528.06 504.772L529.228 501.655Z" fill="#CC6D3D"/>
<path d="M529.132 502.994C529.132 502.994 530.975 503.465 532.326 503.575C533.685 503.684 535.234 503.407 535.234 503.407C535.234 503.407 532.693 504.24 529.132 503.659C528.258 503.516 529.132 502.994 529.132 502.994Z" fill="#CC6D3D"/>
<path d="M530.439 508.825C530.439 508.825 529.059 508.244 527.972 508.412C526.885 508.581 524.997 507.915 524.997 507.915C524.997 507.915 523.33 505.834 522.677 505.666C522.677 505.666 525.291 506.584 525.651 507.747C525.651 507.747 527.179 508.244 528.119 508.084C529.059 507.907 530.439 508.825 530.439 508.825Z" fill="#CC6D3D"/>
<path d="M528.259 505.572C528.259 505.572 530.073 505.985 530.947 506.238C531.821 506.491 535.162 506.575 535.162 506.575C535.162 506.575 531.6 506.828 531.02 506.659C530.44 506.491 528.259 505.572 528.259 505.572Z" fill="#CC6D3D"/>
<path d="M496.496 493.548L505.213 497.104L511.991 497.77C511.991 497.77 504.824 500.879 501.336 498.882C497.847 496.877 496.496 493.548 496.496 493.548Z" fill="#992C29"/>
<path d="M476.331 516.576C476.331 516.576 474.613 518.658 476.162 518.439C477.712 518.22 481.758 515.97 482.14 514.411C482.522 512.852 479.063 511.774 477.903 513.324C476.742 514.883 476.331 516.576 476.331 516.576Z" fill="#F3E7D9"/>
<path d="M467.166 443.027C470.074 434.112 452.743 429.697 443.578 429.756C437.901 429.79 431.578 433.607 430.021 436.556C429.485 437.567 427.069 443.389 426.731 446.507C426.364 449.911 428.751 464.589 433.877 463.569C440.89 462.17 464.258 451.941 467.166 443.027Z" fill="#C94039"/>
<path d="M460.871 445.798C462.45 439.445 454.769 431.549 446.595 430.606C437.085 429.502 430.769 434.954 430.586 438.602C430.402 442.25 437.313 446.986 443.672 448.907C450.032 450.836 460.174 448.629 460.871 445.798Z" fill="#F3E7D9"/>
<path d="M442.366 445.714C435.184 441.012 431.938 441.796 432.959 437.145C434.325 430.885 448.88 433.395 452.288 433.884C455.695 434.373 463.098 444.509 460.425 451.595C457.744 458.682 449.541 450.407 442.366 445.714Z" fill="#273252"/>
<path d="M443.085 446.363C443.085 446.363 452.045 443.221 461.408 444.223C466.02 444.72 473.408 453.298 475.067 465.507C476.727 477.716 478.232 512.372 478.232 512.372C478.232 512.372 444.973 515.987 439.553 509.322C434.126 502.657 432.114 450.526 443.085 446.363Z" fill="#F7BC4B"/>
<path d="M447.088 431.508L448.704 448.95C448.704 448.95 449.937 452.329 454.461 451.958C458.985 451.579 459.807 447.45 459.807 447.45L458.162 427.919L447.088 431.508Z" fill="#F5894E"/>
<path d="M447.088 431.508C447.088 431.508 451.81 442.934 453.925 445.04C456.04 447.138 460.439 447.459 460.439 447.459L458.713 427.927L447.088 431.508Z" fill="#CC6D3D"/>
<path d="M456.017 499.135L464.403 475.374L461.407 444.223C466.019 444.72 473.407 453.298 475.067 465.507C476.726 477.716 478.232 512.372 478.232 512.372L470.734 517.765L443.812 511.546C443.812 511.546 453.234 507.814 458.55 503.23C462.347 499.961 461.451 495.444 461.451 495.444L456.017 499.135Z" fill="#CE9436"/>
<path d="M461.827 444.24C463.127 441.678 473.908 443.178 476.008 446.852C476.661 447.998 476.544 453.188 477.139 456.137C478.446 462.642 480.179 468.818 479.871 471.397C479.423 475.155 480.473 492.554 482.309 496.641C484.145 500.727 482.962 510.864 482 513.24C481.038 515.616 476.155 516.871 476.155 516.871L473.247 498.646C473.247 498.646 472.681 485.181 471.411 475.635C470.14 466.088 461.328 445.226 461.827 444.24Z" fill="#C94039"/>
<path d="M461.827 444.24C463.127 441.678 470.493 447.222 472.593 450.896C474.693 454.561 474.745 492.006 474.745 492.006C474.745 492.006 475.369 497.694 475.038 498.208C474.708 498.722 477.506 505.1 477.506 505.1L476.346 516.879L473.247 501.772C473.247 501.772 472.681 485.198 471.411 475.651C470.14 466.105 461.328 445.225 461.827 444.24Z" fill="#992C29"/>
<path d="M460.564 444.661C465.851 449.708 460.329 472.433 457.325 472.231C454.314 472.029 443.255 447.61 448.131 444.779" stroke="#992C29" stroke-width="1.08862" stroke-miterlimit="10"/>
<path d="M458.31 474.42C458.394 473.13 457.987 472.043 457.401 471.993C456.814 471.942 456.271 472.947 456.186 474.237C456.102 475.527 456.51 476.614 457.096 476.664C457.683 476.715 458.226 475.71 458.31 474.42Z" fill="#29ABE2"/>
<path d="M460.99 442.749C463.671 442.319 464.669 443.103 466.248 444.181C467.835 445.26 468.745 447.568 470.515 453.5C472.285 459.432 472.138 471.051 470.574 471.33C469.01 471.608 467.827 463.198 465.844 458.033C463.869 452.885 458.31 443.178 460.99 442.749Z" fill="#F3E7D9"/>
<path d="M430.792 507.232C430.792 507.232 430.255 508.462 432.385 508.639C434.515 508.816 442.652 514.47 444.201 513.585C445.751 512.7 444.201 511.099 444.201 511.099L430.792 507.232Z" fill="#F3E7D9"/>
<path d="M444.62 445.967C446.97 447.837 449.731 462.406 450.113 470.275C450.487 478.145 446.617 489.268 446.816 494.23C447.014 499.193 445.743 510.888 444.634 511.933C443.526 512.97 430.784 507.24 430.784 507.24C430.784 507.24 424.432 501.182 430.373 489.183C434.045 481.768 431.82 452.438 433.156 449.404C434.493 446.371 442.27 444.096 444.62 445.967Z" fill="#992C29"/>
<path d="M446.522 452.059C448.872 453.929 449.731 462.406 450.113 470.275C450.487 478.145 446.617 489.267 446.815 494.23C447.014 499.193 445.743 510.888 444.634 511.933C443.525 512.97 439.729 505.31 441.197 492.208C441.388 490.498 447.102 469.45 447.102 469.45C447.102 469.45 444.179 450.188 446.522 452.059Z" fill="#C94039"/>
<path d="M450.399 475.323C451.619 473.747 451.222 470.469 450.539 465.439C449.856 460.417 449.034 452.253 446.816 447.34C444.495 442.209 436.167 444.518 439.068 447.205C442.072 449.986 445.127 454.325 447.109 462.204C449.313 470.983 449.173 476.898 450.399 475.323Z" fill="#F3E7D9"/>
<path d="M441.77 496.767L443.092 497.592C443.092 497.592 440.668 503.608 435.924 503.794L435.748 502.513C435.755 502.513 439.317 502.1 441.77 496.767Z" fill="#F3E7D9"/>
<path d="M447.44 471.776C447.44 471.776 448.343 483.277 441.653 485.535C441.653 485.535 444.965 480.101 447.44 471.776Z" fill="#C94039"/>
<path d="M478.431 500.904L477.704 502.429C477.704 502.429 478.673 507.982 480.803 509.094L481.339 507.982C481.339 507.991 479.232 505.159 478.431 500.904Z" fill="#F3E7D9"/>
<path d="M414.951 471.987C414.951 471.987 424.88 457.579 427.443 453.989C430.057 450.324 432.385 445.993 436.446 448.319C440.507 450.644 444.87 458.649 441.389 463.654C437.908 468.659 430.057 481.323 427.443 483.657C424.829 485.991 422.214 485.654 422.214 483.32C422.214 480.994 414.951 471.987 414.951 471.987Z" fill="#1D2538"/>
<path d="M414.952 471.987C414.952 471.987 424.881 457.578 427.444 453.989C430.058 450.324 434.692 444.341 434.318 449.549C433.737 457.663 422.502 462.996 424.536 474.995C425.99 483.522 414.952 471.987 414.952 471.987Z" fill="#273252"/>
<path d="M431.806 459.322C431.806 459.322 426.283 461.319 423.383 467.318C420.474 473.326 431.806 459.322 431.806 459.322Z" fill="#273252"/>
<path d="M423.668 475.989C423.668 475.989 422.794 471.987 418.293 471.153C416.604 470.133 413.306 471.431 411.852 473.765C410.398 476.099 406.234 476.655 406.234 476.655C406.234 476.655 398.391 481.988 396.65 482.326C394.91 482.663 394.616 485.494 394.91 488.822C395.204 492.159 397.231 497.652 401.299 499.986C405.368 502.32 406.91 499.776 407.982 497.324C408.753 495.546 414.085 493.321 418.733 489.993C423.382 486.656 427.443 482.654 423.668 475.989Z" fill="#C94039"/>
<path d="M423.668 475.989C423.668 475.989 422.795 471.987 418.293 471.153C416.604 470.133 422.214 478.989 420.76 481.323C419.306 483.657 415.532 485.325 415.532 485.325C415.532 485.325 408.849 492.993 407.108 493.321C405.368 493.658 397.231 497.652 401.299 499.986C405.368 502.32 406.91 499.776 407.982 497.324C408.753 495.546 414.085 493.321 418.734 489.993C423.382 486.656 427.443 482.654 423.668 475.989Z" fill="#992C29"/>
<path d="M400.572 500.989C400.572 500.989 405.169 499.961 404.207 495.318C402.753 488.316 397.818 484.482 394.036 485.148C390.261 485.822 392.149 499.321 400.572 500.989Z" fill="#F3E7D9"/>
<path d="M399.228 498.866C399.228 498.866 402.68 497.888 401.564 494.712C400.448 491.535 397.459 486.775 395.028 487.263C392.597 487.752 393.816 497.644 399.228 498.866Z" fill="#CC6D3D"/>
<path d="M395.776 488.99C395.776 488.99 392.001 485.654 386.773 485.325C381.544 484.988 377.475 481.491 376.315 484.828C375.155 488.165 378.158 487.87 380.09 488.662C382.124 489.496 383.96 490.777 383.96 490.777L380.67 495.554C380.67 495.554 376.198 499.573 375.147 502.109C373.84 505.278 374.854 505.775 377.182 505.109C379.502 504.443 379.311 502.666 379.311 502.666C379.311 502.666 377.468 507.334 378.922 507.999C380.376 508.665 382.117 507.662 382.117 507.662C382.117 507.662 383.571 508.665 385.025 507.999C386.479 507.334 388.219 505.775 388.219 505.775C388.219 505.775 388.072 508.277 390.54 507.106C391.913 506.457 395.769 501.992 399.543 497.661C403.333 493.321 395.776 488.99 395.776 488.99Z" fill="#F5894E"/>
<path d="M394.616 491.99C394.616 491.99 392.678 494.88 393.647 497.543L389.292 503.761L392.296 498.428C392.296 498.436 390.937 494.215 394.616 491.99Z" fill="#CC6D3D"/>
<path d="M378.93 503.77L383.769 500.214L385.319 498.655L383.285 501.326L378.93 503.77Z" fill="#CC6D3D"/>
<path d="M383.188 497.324L387.257 500.214L390.745 500.433L387.646 499.321L383.188 497.324Z" fill="#CC6D3D"/>
<path d="M382.124 507.654L386.288 503.988L389.196 500.433L388.322 499.995L385.708 503.55L382.124 507.654Z" fill="#CC6D3D"/>
<path d="M466.57 426.773C462.487 437.811 458.926 440.195 458.926 440.195C443.834 441.981 435.947 429.907 436.674 418.987C437.056 407.663 439.061 403.517 449.856 403.172C464.881 402.7 470.213 416.94 466.57 426.773Z" fill="#1D2538"/>
<path d="M466.572 426.773C462.488 437.811 458.927 440.195 458.927 440.195C443.835 441.982 435.948 429.907 436.675 418.987C437.057 407.663 437.674 402.152 450.188 400.964C467.57 399.304 470.214 416.94 466.572 426.773Z" fill="#1D2538"/>
<path d="M467.584 426.883C464.103 436.294 452.698 429.453 452.698 429.453C450.385 427.835 449.489 418.356 448.968 412.087C448.52 406.677 445.817 401.588 458.808 403.088C470.353 404.419 470.683 418.507 467.584 426.883Z" fill="#3E4C6F"/>
<path d="M449.923 404.495C449.923 404.495 441.838 409.373 440.472 411.109C439.113 412.845 438.063 431.483 440.648 437.373C443.204 443.178 459.779 442.319 463.502 438.072C466.55 434.592 465.8 431.137 466.439 425.399C467.108 419.358 463.48 415.44 463.083 413.097C462.4 409.078 449.923 404.495 449.923 404.495Z" fill="#CC6D3D"/>
<path d="M469.78 422.813C469.119 426.225 467.115 429.141 465.895 428.981C464.669 428.821 464.206 425.914 464.86 422.476C465.521 419.021 467.048 416.376 468.282 416.561C469.494 416.738 470.441 419.392 469.78 422.813Z" fill="#CC6D3D"/>
<path d="M441.668 413.864C439.039 415.836 438.356 435.864 442.924 438.645C447.492 441.426 451.575 440.558 454.74 437.322C457.508 434.491 455.768 420.613 451.927 417.513C447.227 413.721 444.29 411.893 441.668 413.864Z" fill="#F5894E"/>
<path d="M435.852 423.032C436.315 425.939 437.673 428.189 438.892 428.063C440.119 427.936 440.743 425.467 440.288 422.527C439.825 419.586 438.452 417.311 437.225 417.463C435.999 417.623 435.389 420.108 435.852 423.032Z" fill="#F5894E"/>
<path d="M463.685 409.34C463.685 409.34 462.884 418.221 463.802 420.85L465.844 424.742L466.527 412.137L463.685 409.34Z" fill="#3E4C6F"/>
<path d="M438.65 424.717C438.65 424.717 438.503 415.87 438.951 413.215L439.906 409.264L439.92 421.827L438.65 424.717Z" fill="#1D2538"/>
<path d="M463.691 405.161C463.691 405.161 460.901 408.717 451.582 408.843C446.955 408.911 443.019 410.874 440.772 410.36C435.249 409.096 444.517 397.114 454.012 396.626C463.625 396.137 463.691 405.161 463.691 405.161Z" fill="#1D2538"/>
<path d="M454.072 396.499C446.456 397.257 438.525 405.363 442.975 406.365C444.239 406.652 446.251 407.031 448.689 407.334C452.978 406.559 457.435 404.015 457.435 404.015C457.156 406.391 454.77 407.351 452.184 407.68C454.373 407.84 456.745 407.907 459.146 407.789C463.09 407.596 463.501 407.832 463.773 406.323C464.316 403.273 462.304 395.681 454.072 396.499Z" fill="#3E4C6F"/>
<path d="M455.826 416.923C455.9 418.203 455.408 418.802 454.849 418.852C454.291 418.903 453.88 418.364 453.807 417.083C453.733 415.802 454.123 414.732 454.681 414.69C455.239 414.639 455.753 415.642 455.826 416.923Z" fill="#34283A"/>
<path d="M446.493 417.782C446.567 419.063 446.075 419.661 445.517 419.712C444.958 419.763 444.547 419.223 444.474 417.943C444.4 416.662 444.79 415.592 445.348 415.55C445.906 415.508 446.42 416.502 446.493 417.782Z" fill="#34283A"/>
<path d="M457.296 413.072C457.171 413.072 457.054 413.005 456.988 412.87C456.951 412.786 455.989 410.907 454.506 411.438C454.322 411.505 454.131 411.387 454.072 411.176C454.013 410.966 454.116 410.747 454.3 410.679C455.908 410.106 457.157 411.606 457.59 412.483C457.685 412.676 457.627 412.921 457.458 413.022C457.406 413.055 457.348 413.072 457.296 413.072Z" fill="#34283A"/>
<path d="M442.028 414.134C441.999 414.134 441.962 414.125 441.933 414.117C441.749 414.058 441.639 413.839 441.69 413.628C442.131 411.867 443.805 411.505 444.635 411.572C444.826 411.589 444.973 411.775 444.958 411.994C444.944 412.213 444.775 412.373 444.591 412.364C444.51 412.356 442.755 412.263 442.359 413.847C442.315 414.016 442.182 414.134 442.028 414.134Z" fill="#34283A"/>
<path d="M344.753 542.941C345.054 541.854 346.016 541.197 347 541.425C355.408 543.371 393.537 551.89 414.357 551.14C437.857 550.297 508.034 540.607 531.122 533.445C557.31 525.323 604.956 508.656 604.956 508.656C604.956 508.656 603.091 614.334 541.404 626.973C479.716 639.612 429.779 637.927 412.888 631.186C395.997 624.445 361.482 605.908 351.935 562.936L346.39 560.88C346.39 560.88 343.82 546.303 344.753 542.941Z" fill="#A96443"/>
<path d="M346.78 545.326L368.665 549.505L391.717 551.368L371.918 551.991L345.62 548.435L346.78 545.326Z" fill="#7A462F"/>
<path d="M606.028 503.955L599.418 508.168C599.418 508.168 599.499 549.311 586.2 572.205C567.106 605.066 531.636 628.389 522.882 630.158C522.882 630.158 534.059 632.029 557.559 618.547C581.059 605.066 593.543 589.899 605.293 557.038C617.043 524.177 606.028 503.955 606.028 503.955Z" fill="#7A462F"/>
<path d="M523.315 630.327C523.315 630.327 545.075 629.501 567.106 607.593C589.137 585.686 597.95 566.306 601.622 549.455C605.294 532.603 606.028 503.955 606.028 503.955C606.028 503.955 622.317 503.955 624.52 503.955C626.723 503.955 627.083 530.648 622.97 548.882C617.161 574.656 604.618 595.62 585.01 609.767C575.111 616.912 562.142 623.089 552.808 625.819C533.318 631.531 523.315 630.327 523.315 630.327Z" fill="#D77D5B"/>
<path d="M351.935 562.936C351.935 562.936 392.326 570.52 458.419 562.936C524.513 555.353 584.409 533.378 598.347 526.157L598.053 530.741C598.053 530.741 503.216 562.936 459.888 566.307C416.56 569.677 352.589 566.214 352.589 566.214L351.913 562.827" fill="#7A462F"/>
<path d="M596.629 550.879C596.629 550.879 574.451 559.659 563.993 561.993C553.536 564.327 505.405 576.662 481.582 579.99C464.243 582.417 428.516 585.771 428.516 585.771C428.516 585.771 476.235 584.524 506.183 578.659C547.051 570.663 595.373 555.656 595.373 555.656L596.629 550.879Z" fill="#7A462F"/>
<path d="M357.142 574.994C357.142 574.994 383.873 576.991 392.002 576.662C400.139 576.325 442.557 582.662 442.557 582.662L358.596 580.328L357.142 574.994Z" fill="#7A462F"/>
<path d="M575.325 591.988C575.325 591.988 557.891 598.99 532.033 600.659C506.176 602.327 420.761 606.658 420.761 606.658C420.761 606.658 462.598 607.324 472.762 606.658C482.926 605.992 527.671 604.99 536.388 604.324C545.105 603.658 563.986 601.99 569.795 598.653C575.611 595.325 575.325 591.988 575.325 591.988Z" fill="#7A462F"/>
<path d="M551.787 614.992C551.787 614.992 509.083 622.323 495.424 623.991C481.772 625.659 418.146 626.325 418.146 626.325C418.146 626.325 456.201 627.993 466.078 627.656C475.955 627.319 499.198 626.991 499.198 626.991L545.684 619.323L551.787 614.992Z" fill="#7A462F"/>
<path d="M616.09 511.656C616.09 511.656 617.544 518.321 615.51 536.656C618.8 526.207 617.831 522.652 617.831 522.652C617.831 522.652 619.674 542.427 613.278 561.984C605.684 585.206 590.424 601.544 590.424 601.544C590.424 601.544 610.171 584.186 617.155 557.543C622.773 536.099 620.643 518.877 619.865 520.208C619.094 521.539 619.094 507.544 619.094 507.544L616.09 511.656Z" fill="#A96443"/>
<path d="M609.605 517.006C609.605 517.006 611.382 532.889 608.312 541.947C605.243 551.005 605.904 549.522 605.904 549.522C605.904 549.522 609.15 521.826 609.605 517.006Z" fill="#A96443"/>
<path d="M584.812 598.216C584.812 598.216 570.675 612.329 566.607 615.995C562.538 619.66 551.207 625.659 551.207 625.659C551.787 625.322 561.958 617.326 564.859 614.992C567.767 612.658 585.392 591.88 588.006 588.88C588.006 588.88 578.423 602.21 581.037 600.213C583.652 598.216 584.812 598.216 584.812 598.216Z" fill="#A96443"/>
<path d="M604.083 563.155C603.892 563.669 599.706 572.483 598.707 574.825C597.708 577.168 604.332 568.801 604.332 568.801C604.332 568.801 603.561 579.653 596.46 588.863C596.46 588.863 601.975 582.737 608.041 568.438C614.1 554.156 612.528 548.41 612.528 548.41C612.528 548.41 611.412 552.041 610.039 554.948C610.039 554.948 609.569 549.472 609.569 548.098C609.583 546.725 604.083 563.155 604.083 563.155Z" fill="#A96443"/>
<path d="M590.431 565.321C590.431 565.321 579.974 569.324 578.226 570.655C576.485 571.986 562.54 577.32 559.051 577.32C555.563 577.32 534.068 579.982 534.068 579.982L527.679 583.985L538.716 581.988L566.608 579.325L578.813 575.323L588.11 573.326L590.431 565.321Z" fill="#7A462F"/>
<path d="M546.273 586.655C546.273 586.655 523.03 593.986 518.382 593.986C513.733 593.986 496.299 593.986 493.979 593.986C491.658 593.986 468.995 599.32 468.995 599.32L494.559 597.988H519.542L546.273 586.655Z" fill="#7A462F"/>
<path d="M547.433 539.992H519.542L506.176 543.32L504.436 551.991H513.153L513.733 547.988L510.244 549.994L511.405 545.991L519.542 543.994L547.433 539.992Z" fill="#7A462F"/>
<path d="M566.027 540.658L571.256 544.66L572.416 538.661L566.027 540.658Z" fill="#7A462F"/>
<path d="M379.804 560.661L404.787 556.33C404.787 556.33 420.473 558.327 421.641 558.664C422.801 559.001 438.201 557.333 438.201 557.333L444.884 551.662L450.113 557.333L445.464 563.003L447.205 558.007L444.01 555.673L438.488 559.01L421.347 561.344L403.627 558.007L379.804 560.661Z" fill="#7A462F"/>
<path d="M477.814 541.745C480.297 543.792 482.61 543.304 484.203 542.124C485.9 540.86 485.041 532.586 485.041 532.586" stroke="#273252" stroke-width="2.17725" stroke-miterlimit="10" stroke-linecap="round" stroke-linejoin="round"/>
<path d="M513.432 497.5C513.131 495.984 511.89 494.257 511.89 494.257C510.641 492.445 508.24 493.49 506.712 494.99L430.506 601.266C428.957 602.791 428.846 605.504 430.271 607.181C431.542 608.68 433.59 608.824 435.015 607.526L511.331 503.407C512.852 502.017 513.733 499.017 513.432 497.5Z" fill="#B44C29"/>
<path d="M509.151 494.981L509.607 499.775L430.911 606.018L429.912 600.389L506.713 494.989L509.151 494.981Z" fill="#CC6D3D"/>
<path d="M435.155 596.278L426.864 593.506L413.234 608.268C413.234 608.268 394.448 629.754 405.853 633.318C417.677 637.017 420.768 637.321 435.28 617.132C441.588 608.352 445.032 599.901 445.032 599.901L435.155 596.278Z" fill="#CC6D3D"/>
<path d="M446.333 605.992L445.026 599.9C445.026 599.9 426.579 626.661 422.701 630.217C418.824 633.773 403.556 634.472 402.366 629.998C402.366 629.998 403.563 636.326 409.335 637.556C414.564 638.668 421.651 639.081 429.281 629.56C436.911 620.038 446.333 605.992 446.333 605.992Z" fill="#B44C29"/>
<path d="M475.089 533.571C474.509 536.124 475.199 540.059 477.703 542.073C479.158 543.236 482.352 543.32 483.263 542.654" stroke="#273252" stroke-width="2.17725" stroke-miterlimit="10" stroke-linecap="round" stroke-linejoin="round"/>
<path d="M356.268 629.989C356.268 629.989 430.352 616.988 444.298 621.656C458.243 626.324 456.789 625.987 456.789 625.987C456.789 625.987 463.178 621.319 479.452 625.321C495.718 629.324 523.03 630.655 503.855 635.989C484.681 641.322 459.697 638.651 459.697 638.651L345.811 637.32L356.268 629.989Z" fill="#F3E7D9"/>
<path d="M42.5059 842.66C42.5059 842.66 59.7123 857.877 102.644 855.661C150.914 853.167 147.962 845.659 138.379 841.657C129.999 838.16 168.752 834.984 189.337 832.026C209.921 829.069 176.985 828.327 160.52 828.327C144.055 828.327 137.585 831.285 128.178 832.026C118.771 832.768 127.003 844.598 129.353 844.598C130.308 844.598 99.6109 851.035 80.7521 851.035C53.3012 851.035 42.5059 842.66 42.5059 842.66Z" fill="#F3E7D9"/>
<path d="M352.449 854.261C352.449 854.261 329.081 868.291 302.842 852.728C276.595 837.174 322.89 839.912 333.296 840.949C333.296 840.949 310.303 844.681 314.68 847.276C319.049 849.872 316.112 862.072 352.449 854.261Z" fill="#F3E7D9"/>
<path d="M356.084 856.141C356.084 856.141 377.418 853.697 386.656 854.506C395.902 855.323 402.298 851.245 410.832 851.245C419.365 851.245 422.919 852.88 430.741 854.506C438.562 856.141 447.095 856.141 447.095 856.141C447.095 856.141 425.761 863.48 419.365 861.036C412.969 858.593 400.881 861.853 391.635 862.671C382.389 863.488 356.084 856.141 356.084 856.141Z" fill="#F3E7D9"/>
<path d="M435.323 686.156C435.323 686.156 427.362 681.454 415.414 686.678C399.008 693.866 407.593 699.621 407.593 699.621C407.593 699.621 408.819 692.602 414.841 689.661C422.383 685.979 435.323 686.156 435.323 686.156Z" fill="#F3E7D9"/>
<path d="M371.763 712.917C386.451 712.917 410.685 709.547 394.529 713.76C378.372 717.973 395.997 718.815 409.95 718.815C423.904 718.815 473.107 724.713 473.107 724.713C473.107 724.713 464.691 727.443 444.297 725.657C423.904 723.871 391.591 726.398 372.497 724.713C353.404 723.028 330.638 717.973 346.06 713.76C361.482 709.547 357.076 712.917 371.763 712.917Z" fill="#F3E7D9"/>
<path d="M559.763 696.065C559.763 696.065 543.606 691.852 535.528 692.694C527.45 693.537 524.513 695.222 517.903 692.694C511.294 690.166 512.028 691.009 495.872 690.166C479.716 689.324 470.169 690.166 466.497 690.166C462.825 690.166 460.622 694.379 476.044 692.694C491.466 691.009 507.622 691.009 511.294 694.379C514.966 697.75 512.763 696.065 531.122 696.065C549.481 696.065 559.763 696.065 559.763 696.065Z" fill="#F3E7D9"/>
<path d="M526.717 701.963C526.717 701.963 513.498 701.963 496.607 701.963C479.717 701.963 461.357 701.963 456.951 702.805C452.545 703.648 437.123 707.861 432.717 707.018C428.311 706.176 419.498 705.333 419.498 705.333C419.498 705.333 422.436 711.231 435.654 711.231C448.873 711.231 453.279 707.018 458.42 707.018C463.561 707.018 497.342 702.805 505.42 703.648C513.498 704.491 526.717 701.963 526.717 701.963Z" fill="#F3E7D9"/>
<path d="M426.841 696.907C426.841 696.907 430.417 696.318 437.122 695.222C442.263 694.38 448.872 693.537 448.872 693.537C448.872 693.537 444.466 697.75 436.388 698.593C428.31 699.435 426.841 696.907 426.841 696.907Z" fill="#FFFCF3"/>
<path opacity="0.3" d="M62.5098 825.523V862.664C62.5098 862.664 66.9087 865.815 82.0148 866.666C93.8308 867.332 96.3498 863.557 96.3498 863.557L96.1588 821.335L62.5098 825.523Z" fill="#D77D5B"/>
<path opacity="0.3" d="M444.003 676.493V766.844C444.003 766.844 442.263 770.215 436.388 770.215C431.923 770.215 429.044 767.687 429.044 767.687V692.696L444.003 676.493Z" fill="#D77D5B"/>
<path d="M444.004 600.66V691.011C444.004 691.011 442.264 691.854 436.389 691.854C431.924 691.854 429.045 691.854 429.045 691.854L429.779 650.567L431.982 643.826L429.045 616.863L444.004 600.66Z" fill="#B44C29"/>
<path d="M432.967 651.881L431.564 640.329L429.479 620.326L444.298 606.322L444.004 619.323V630.993L440.81 627.657L439.069 634.322L436.455 632.325L432.967 651.881Z" fill="#7A462F"/>
<path d="M429.045 691.854L429.677 671.101L429.772 650.323L432.967 640.995L436.389 691.854H429.045Z" fill="#7A462F"/>
<path d="M96.5407 603.988L95.8871 824.95C95.8871 824.95 91.9655 829.314 78.7468 829.314C68.6932 829.314 62.2234 826.846 62.2234 826.846L63.8757 733.95L68.8327 718.783L59.9395 605.328L72.1448 603.331L96.5407 603.988Z" fill="#B44C29"/>
<path d="M73.0119 768.655L67.886 710.912L59.3525 605.327L80.855 612.658L87.2441 645.991L81.4352 675.987L88.6982 706.16L84.7766 721.158L78.8943 716.659L73.0119 768.655Z" fill="#7A462F"/>
<path d="M62.2236 826.854L62.936 779.88L63.8539 733.411L71.0435 712.413L78.7397 829.323C78.7471 829.323 67.2027 828.885 62.2236 826.854Z" fill="#7A462F"/>
<path opacity="0.3" d="M378.644 676.493V766.844C378.644 766.844 376.903 770.215 371.028 770.215C366.563 770.215 363.685 767.687 363.685 767.687V692.696L378.644 676.493Z" fill="#D77D5B"/>
<path d="M340.919 591.374V597.272L447.881 607.105L448.072 592.882L340.919 591.374Z" fill="#14C7FF"/>
<path d="M340.919 591.374L358.015 586.656L456.216 586.218L448.072 593.321L340.919 591.374Z" fill="#1B9DD5"/>
<path d="M456.216 586.218L455.959 596.995L447.881 607.106V593.102L456.216 586.218Z" fill="#0985F6"/>
<path d="M438.592 619.179L312.279 611.596L311.545 602.327L438.592 603.17V619.179Z" fill="#14C7FF"/>
<path d="M438.592 603.17L446.721 594.879L337.248 593.901L311.545 602.327L438.592 603.17Z" fill="#1B9DD5"/>
<path d="M438.592 603.17V619.179L447.404 607.383L446.721 594.879L438.592 603.17Z" fill="#0985F6"/>
<path d="M423.903 617.705L424.638 637.927L275.56 626.131L274.825 613.492L423.903 617.705Z" fill="#14C7FF"/>
<path d="M274.826 613.492C276.434 613.476 309.731 604.232 309.731 604.232H437.512L423.904 617.705L274.826 613.492Z" fill="#1B9DD5"/>
<path d="M437.122 604.434L423.903 617.704L424.638 637.927L437.122 621.075V604.434Z" fill="#0985F6"/>
<path d="M233.7 627.817L267.481 616.021L422.435 621.076L407.747 636.243L233.7 627.817Z" fill="#1B9DD5"/>
<path d="M233.7 627.817L236.638 639.614L409.95 656.466L407.747 636.243L233.7 627.817Z" fill="#14C7FF"/>
<path d="M422.435 621.076L407.747 636.243L409.95 656.465L423.169 640.456L422.435 621.076Z" fill="#0985F6"/>
<path d="M390.122 680.901L188.903 665.734L186.7 645.512L387.185 658.151L390.122 680.901Z" fill="#14C7FF"/>
<path d="M387.185 658.15L186.7 645.511L225.622 630.345L407.013 636.243L387.185 658.15Z" fill="#1B9DD5"/>
<path d="M407.013 636.243L407.747 660.678L390.122 680.901L387.185 658.151L407.013 636.243Z" fill="#0985F6"/>
<path d="M132.57 667.991L133.092 684.27L368.092 707.02L365.889 674.159L132.57 667.991Z" fill="#14C7FF"/>
<path d="M132.57 668.159L181.56 648.038L385.717 661.52L366.623 683.427L143.373 671.631L132.57 668.159Z" fill="#1B9DD5"/>
<path d="M365.889 684.27L368.092 707.019L387.92 685.112L385.717 661.52L365.889 684.27Z" fill="#0985F6"/>
<path d="M68.5479 701.206L120.608 673.316L363.686 687.641L333.576 717.131L68.5479 701.206Z" fill="#1B9DD5"/>
<path d="M335.779 739.039L333.576 717.131L68.6504 701.324L75.8105 723.029L335.779 739.039Z" fill="#1CC0F3"/>
<path d="M333.576 717.131L363.686 687.641L362.951 709.548L335.779 739.039L333.576 717.131Z" fill="#0985F7"/>
<path opacity="0.3" d="M338.511 828.85V865.991C338.511 865.991 342.895 869.994 358.016 869.994C369.347 869.994 372.351 867.331 372.351 867.331L372.16 824.662L338.511 828.85Z" fill="#D77D5B"/>
<path d="M96.5413 603.988L80.855 612.658L59.3525 605.328L72.138 603.322L96.5413 603.988Z" fill="#D77D5B"/>
<path d="M331.864 696.656C331.864 696.656 306.587 689.654 302.232 689.654C297.877 689.654 254.299 688.651 254.299 688.651L210.722 686.654L264.757 693.656L297.877 695.653L331.864 696.656Z" fill="#14C7FF"/>
<path d="M238.606 664.654L186.311 655.655L164.522 658.655C164.522 658.655 186.311 660.652 194.154 660.652C202.005 660.66 238.606 664.654 238.606 664.654Z" fill="#14C7FF"/>
<path d="M257.781 706.657L213.329 697.658L172.366 695.661L168.885 700.658L194.155 701.66L257.781 706.657Z" fill="#14C7FF"/>
<path d="M417.567 626.663C417.567 626.663 403.915 624.666 401.3 624.666C398.686 624.666 386.48 624.666 386.48 624.666L401.88 627L414.666 627.666L416.12 633.336L417.567 626.663Z" fill="#14C7FF"/>
<path d="M394.617 657.324L393.456 650.659H387.647L376.603 647.988L388.808 648.991H394.91L394.617 657.324Z" fill="#14C7FF"/>
<path d="M312.109 620.992L295.843 620.655L267.951 618.658L284.511 621.995L296.709 622.989L312.109 620.992Z" fill="#14C7FF"/>
<path d="M324.895 608.327L352.786 606.33C352.786 606.33 359.175 608.993 360.343 608.993C361.503 608.993 348.138 607.661 348.138 607.661L324.895 608.327Z" fill="#14C7FF"/>
<path d="M385.9 606.988L396.072 607.325L408.277 607.662L414.372 613.662L405.075 612.659L408.277 610.991L404.789 609.322L395.491 608.994L385.9 606.988Z" fill="#14C7FF"/>
<path d="M351.545 670.325L337.166 666.322L323.661 668.328L297.943 666.828L325.835 671.327L337.6 668.825L351.545 670.325Z" fill="#14C7FF"/>
<path d="M339.127 597.659H359.462L369.339 598.325L359.756 596.328L339.127 597.659Z" fill="#14C7FF"/>
<path d="M442.556 602.328L441.102 600.323L429.771 598.654H443.136V603.659" fill="#14C7FF"/>
<path d="M399.463 579.872C399.463 579.872 390.489 583.613 388.858 586.419C387.228 589.225 386.215 595.586 387.434 596.522C388.653 597.457 400.594 597.491 403.443 597.027C406.3 596.555 416.992 591.095 419.438 588.761C421.883 586.419 421.883 579.4 419.438 578.001C417 576.594 399.463 579.872 399.463 579.872Z" fill="#EE5D4F"/>
<path d="M399.464 577.765C399.464 577.765 390.49 581.507 388.859 584.312C387.229 587.118 386.216 593.48 387.435 594.415C388.654 595.35 400.595 595.384 403.444 594.921C406.301 594.449 416.993 588.989 419.439 586.655C421.884 584.312 421.884 577.294 419.439 575.895C417.001 574.496 399.464 577.765 399.464 577.765Z" fill="#121721"/>
<path d="M401.784 582.661C401.784 582.661 392.876 577.327 394.815 574.665C396.754 572.002 396.365 564.444 396.365 564.444C396.365 564.444 399.074 495.554 406.051 492.445C413.02 489.335 419.218 484.448 423.096 496C426.966 507.552 423.096 525.778 423.096 525.778C423.096 525.778 423.485 542.225 423.485 545.334C423.485 548.443 421.165 552.446 421.165 552.446L421.936 567.115C421.936 567.115 421.164 572.895 419.997 576.889C418.829 580.883 401.784 582.661 401.784 582.661Z" fill="#273252"/>
<path d="M401.783 582.661L410.302 576.99L412.623 558.209L412.233 506.213C412.233 506.213 419.643 484.6 423.513 496.16C427.384 507.712 423.513 525.938 423.513 525.938C423.513 525.938 423.462 542.217 423.462 545.326C423.462 548.435 421.141 552.437 421.141 552.437L421.912 567.107C421.912 567.107 421.141 572.887 419.974 576.881C418.828 580.883 401.783 582.661 401.783 582.661Z" fill="#1D2538"/>
<path d="M224.565 509.431C224.565 509.431 249.938 517.655 259.522 517.655C269.105 517.655 338.541 507.881 334.766 505.766C330.991 503.651 325.079 487.541 264.75 488.653C251.422 488.906 224.565 509.431 224.565 509.431Z" fill="#C94039"/>
<path d="M278.541 562.986C278.541 562.986 266.615 628.767 264.859 636.317C263.104 643.866 257.626 643.597 255.518 641.819C253.41 640.041 252.713 630.149 253.543 622.65C256.062 599.993 253.102 561.874 256.612 555.647C260.13 549.437 274.333 546.993 278.541 562.986Z" fill="#F5894E"/>
<path d="M276.792 562.987C276.792 562.987 266.268 623.873 264.513 631.431C262.758 638.989 259.673 640.008 257.235 639.149C252.499 637.481 252.433 628.802 252.763 618.093C253.468 595.427 253.468 559.204 256.971 552.985C260.481 546.767 272.584 546.995 276.792 562.987Z" fill="#CC6D3D"/>
<path d="M260.438 501.216C260.438 501.216 261.15 518.102 261.15 525.213C261.15 532.324 263.639 544.323 272.54 544.323C281.441 544.323 283.218 549.657 287.132 526.098C290.312 506.962 292.735 480.876 283.842 481.322C274.949 481.769 257.948 474.548 260.438 501.216Z" fill="#1D2538"/>
<path d="M260.438 501.216C260.438 501.216 261.15 518.102 261.15 525.213C261.15 532.325 264.352 542.545 270.051 542.992C275.749 543.438 279.737 548.283 282.865 524.547C285.179 506.988 292.743 480.884 283.842 481.322C274.949 481.769 257.948 474.548 260.438 501.216Z" fill="#121721"/>
<path d="M269.272 519.879C267.238 520.992 260.474 530.058 258.198 539.217C255.752 549.042 255.246 552.993 254.688 563.66C254.688 563.66 267.333 563.214 278.408 568.328C278.408 568.328 288.102 538.77 282.932 527.665C277.762 516.56 271.306 518.767 269.272 519.879Z" fill="#1D2538"/>
<path d="M269.273 519.88C267.239 520.992 260.475 530.058 258.199 539.217C255.753 549.042 254.505 552.994 253.954 563.661C253.954 563.661 266.321 564.217 276.294 567.436C276.294 567.436 277.542 546.994 282.573 525.213C280.274 512.785 271.307 518.767 269.273 519.88Z" fill="#121721"/>
<path d="M253.616 635.853C253.616 635.853 271.733 640.235 276.955 638.996C281.17 637.994 285.466 635.693 282.477 634.328C279.4 632.93 275.831 633.578 265.307 629.551C260.872 627.849 257.824 629.416 253.616 635.853Z" fill="#CC6D3D"/>
<path d="M252.72 629.947C255.356 629.593 256.766 629.787 258.661 630.646C261.576 631.978 267.422 634.581 269.133 635.07C274.031 636.477 272.893 631.32 272.893 631.32C272.893 631.32 283.541 631.969 288.873 633.654C291.451 634.472 290.173 637.294 284.518 639.991C273.649 645.164 272.313 643.327 265.637 645.493C263.948 646.041 261.025 648.661 258.081 648.661C255.143 648.661 251.398 646.993 251.398 646.993C251.398 646.993 250.091 645.189 249.907 637.606C249.797 633.368 248.431 630.52 252.72 629.947Z" fill="#992C29"/>
<path d="M330.991 564.326C330.991 564.326 330.506 616.879 330.895 626.661C331.284 636.436 331.086 646.328 324.888 646.328C318.69 646.328 318.044 647.928 315.011 629.998C309.973 600.221 302.328 567.444 305.427 558.555C308.526 549.657 330.609 544.77 330.991 564.326Z" fill="#F5894E"/>
<path d="M329.345 564.326C329.345 564.326 328.86 616.879 329.25 626.661C329.639 636.436 331.093 646.328 324.895 646.328C318.697 646.328 318.05 647.928 315.017 629.998C309.98 600.221 302.335 567.444 305.434 558.555C308.526 549.657 328.963 544.77 329.345 564.326Z" fill="#CC6D3D"/>
<path d="M326.575 476.275C326.575 476.275 328.088 518.017 326.832 527.277C325.584 536.537 304.985 549.555 301.452 531.49C297.92 513.425 293.8 499.328 291.546 485.367C289.291 471.413 315.354 454.553 326.575 476.275Z" fill="#1D2538"/>
<path d="M323.418 475.61L324.469 497.947L320.826 518.658L323.441 530.656C323.441 530.656 316.383 538.349 306.587 538.99C300.043 539.419 298.222 514.79 298.222 514.79C294.69 496.725 293.794 499.337 291.547 485.375C289.292 471.414 312.197 453.888 323.418 475.61Z" fill="#121721"/>
<path d="M303.584 531.103C303.584 531.103 300.72 532.881 301.101 548.435C301.41 560.998 304.156 571.766 304.156 571.766C304.156 571.766 305.875 570.207 314.842 569.988C323.808 569.769 331.057 569.323 331.057 569.323C331.057 567.435 330.293 540.211 327.238 530.437C324.19 520.655 310.068 521.767 303.584 531.103Z" fill="#1D2538"/>
<path d="M303.584 531.103C303.584 531.103 300.72 532.881 301.101 548.435C301.41 560.998 304.156 571.766 304.156 571.766C304.156 571.766 306.448 570.435 315.414 570.208C324.381 569.989 329.147 569.761 329.147 569.761C329.147 567.874 327.429 538.872 324.381 529.098C321.326 519.323 310.068 521.767 303.584 531.103Z" fill="#121721"/>
<path d="M316.757 637.766C314.818 639.991 314.437 647.212 315.501 650.54C316.566 653.868 318.505 656.371 323.44 655.537C328.434 654.694 342.24 650.085 347.652 644.094C351.824 639.477 346.661 636.09 341.645 636.646C332.737 637.657 318.696 635.542 316.757 637.766Z" fill="#CC6D3D"/>
<path d="M331.283 641.213C328.368 641.019 324.512 640.084 322.956 639.654C320.532 638.988 315.112 637.767 315.112 640.429C315.112 643.092 314.048 654.206 315.788 655.874C317.529 657.542 318.696 657.264 322.757 657.433C326.172 657.576 328.765 656.936 331.665 655.764C334.573 654.602 336.894 653.877 345.949 651.653C353.697 649.748 359.748 641.761 357.86 639.317C355.973 636.874 354.328 636.427 346.485 636.098C340.529 635.846 338.363 636.772 339.317 636.764C342.005 636.747 344.95 636.334 341.447 638.651C335.741 642.435 334.676 641.432 331.283 641.213Z" fill="#992C29"/>
<path d="M251.222 402.844C251.222 402.844 247.991 415.626 251.222 423.462C254.453 431.299 258.412 430.886 261.643 429.234C264.874 427.583 271.704 408.203 271.344 404.909C270.992 401.606 251.222 402.844 251.222 402.844Z" fill="#CC6D3D"/>
<path d="M265.242 365.323C265.242 365.323 260.211 365.323 258.052 372.746C255.893 380.17 251.223 402.844 251.223 402.844L271.344 404.908C271.352 404.908 284.651 367.8 265.242 365.323Z" fill="#992C29"/>
<path d="M262.143 378.324C261.849 370.328 265.242 364.657 278.409 364.657C291.577 364.657 296.034 358.211 303.393 368.432C310.751 378.653 312.69 378.653 312.69 387.989C312.69 397.325 308.82 415.988 308.041 417.319C307.27 418.651 327.51 450.652 332.834 490.65C334.721 504.848 334.773 505.758 334.773 505.758C334.773 505.758 305.721 488.426 298.751 497.762C291.782 507.098 268.73 493.321 255.174 498.646C241.617 503.98 224.572 509.423 224.572 509.423C224.572 509.423 251.685 439.648 264.765 423.647C264.757 423.656 262.451 386.944 262.143 378.324Z" fill="#F7BC4B"/>
<path d="M262.143 378.324C261.85 370.328 265.242 364.657 278.41 364.657C291.577 364.657 296.035 358.211 303.393 368.432C310.752 378.653 308.622 378.653 308.622 387.989C308.622 397.325 304.076 415.727 303.973 417.319C303.782 420.428 313.461 475.989 313.461 475.989L327.216 495.327C327.216 495.327 305.912 491.105 299.325 497.323C292.356 506.659 268.334 493.549 254.778 498.882C241.221 504.216 228.634 502.657 228.634 502.657C228.634 502.657 251.972 438.216 265.044 422.215C265.044 422.215 262.452 386.944 262.143 378.324Z" fill="#CE9436"/>
<path d="M276.669 398.993C276.669 398.993 284.512 371.659 287.126 363.326C290.358 353.038 312.014 370.909 319.086 383.658C327.223 398.327 310.369 427.995 298.171 443.322" stroke="black" stroke-width="3.26587" stroke-miterlimit="10"/>
<path d="M262.43 364.995C262.43 364.995 263.884 383.995 274.048 398.993" stroke="black" stroke-width="3.26587" stroke-miterlimit="10"/>
<path d="M266.586 396.12C266.586 396.12 253.324 395.353 262.503 388.309C271.683 381.265 268.599 390.449 268.599 390.449C268.599 390.449 272.704 385.149 276.199 384.981C279.695 384.812 280.451 383.691 279.159 387.913C277.866 392.134 289.785 383.346 289.895 387.028C290.006 390.71 276.03 399.456 266.586 396.12Z" fill="#34283A"/>
<path d="M266.198 403.23C266.198 403.23 260.822 399.641 258.766 396.911C256.71 394.181 258.215 389.26 261.424 389.134C264.634 389.007 260.492 391.282 260.962 392.9C261.432 394.509 266.837 393.06 267.05 389.664C267.263 386.269 273.461 384.036 272.557 386.513C271.661 388.999 268.489 392.142 273.101 391.476C277.713 390.81 278.065 383.362 280.738 386.336C283.411 389.311 277 392.251 281.642 391.914C286.283 391.577 289.595 384.381 290.146 389.336C290.689 394.299 288.604 399.304 287.957 401.41C287.957 401.41 298.525 412.313 301.852 423.924C305.178 435.535 305.92 439.15 305.134 445.318C304.349 451.486 303.798 453.339 298.04 459.549C292.283 465.759 285.431 464.731 285.431 464.731C285.431 464.731 258.648 475.98 250.644 450.828C247.398 440.633 255.696 422.214 258.244 416.13C260.8 410.055 266.198 403.23 266.198 403.23Z" fill="#665070"/>
<path d="M266.198 403.23C266.198 403.23 260.822 399.641 258.766 396.911C256.71 394.181 258.215 389.26 261.424 389.134C264.634 389.007 260.492 391.282 260.962 392.9C261.432 394.509 266.837 393.06 267.05 389.664C267.263 386.269 273.461 384.036 272.557 386.513C271.661 388.999 268.489 392.142 273.101 391.476C277.713 390.81 278.065 383.362 280.738 386.336C283.411 389.311 277 392.251 281.642 391.914C286.283 391.577 289.595 384.381 290.146 389.336C290.689 394.299 288.604 399.304 287.957 401.41C287.957 401.41 298.525 412.313 301.852 423.924C305.178 435.535 305.92 439.15 305.134 445.318C304.349 451.486 303.798 453.339 298.04 459.549C292.283 465.759 285.431 464.731 285.431 464.731C285.431 464.731 258.648 475.98 250.644 450.828C247.398 440.633 255.696 422.214 258.244 416.13C260.8 410.055 266.198 403.23 266.198 403.23Z" fill="#4B3355"/>
<path d="M284.072 393.491L280.922 406.66L277.051 397.771C277.051 397.771 269.304 411.101 267.365 414.218C265.426 417.328 256.129 433.775 259.617 443.111C263.106 452.447 277.051 464.445 282.082 463.552C287.12 462.668 296.417 460.89 301.447 452.885C306.478 444.88 302.997 431.551 299.509 421.33C296.02 411.109 287.112 405.329 287.112 405.329V401.495" fill="#34283A"/>
<path d="M271.565 402.785C271.565 402.785 269.127 400.619 268.246 400.577C267.365 400.535 267.563 402.355 267.563 402.355C267.563 402.355 268.936 403.223 270.214 403.821C271.705 404.52 272.006 404.074 271.565 402.785Z" fill="#665070"/>
<path d="M272.953 403.425C272.953 403.425 272.064 399.355 273.056 399.043C274.047 398.731 274.084 400.408 273.798 401.79C273.511 403.18 272.953 403.425 272.953 403.425Z" fill="#665070"/>
<path d="M275.62 402.372C275.62 402.372 276.479 399.558 277.581 398.892C278.682 398.226 278.631 400.417 277.441 401.597C276.252 402.785 275.62 402.372 275.62 402.372Z" fill="#665070"/>
<path d="M270.72 404.419C270.72 404.419 270.001 404.521 269.171 406.324C268.348 408.127 268.385 409.804 270.72 404.419Z" fill="#665070"/>
<path d="M272.954 403.425C272.954 403.425 276.398 404.099 275.568 405.902C274.739 407.705 272.954 403.425 272.954 403.425Z" fill="#665070"/>
<path d="M279.167 401.352C279.167 401.352 279.799 400.417 281.311 399.532C282.824 398.639 283.581 401.554 279.167 401.352Z" fill="#665070"/>
<path d="M268.752 419.653L263.45 431.82L269.281 442.765L274.583 429.385L268.752 419.653Z" fill="#665070"/>
<path d="M315.208 376.049C313.805 374.271 320.15 374.102 321.406 374.886C325.959 376.167 329.249 380.498 329.154 382.335C328.089 388.25 327.12 392.227 327.12 392.227C327.12 392.227 335.991 415.448 328.574 423.563C321.157 431.668 317.977 428.424 315.854 417.479C315.854 417.479 314.679 401.377 316.802 394.485C318.924 387.592 320.334 388.401 319.982 383.944C319.857 382.41 318.623 380.927 317.683 379.225C317.676 379.208 316.611 377.827 315.208 376.049Z" fill="#F5894E"/>
<path d="M323.587 393.491C323.587 392.657 324.461 387.323 322.713 387.154C321.479 387.036 318.865 385.478 317.484 383.211C316.809 382.099 316.61 381.77 315.545 380.321C314.473 378.872 312.689 380.658 313.702 383.489C314.716 386.32 317.771 395.319 320.532 395.488C323.293 395.656 323.587 393.491 323.587 393.491Z" fill="#F5894E"/>
<path d="M297.583 395.1C297.583 395.1 313.269 423.765 318.887 427.102C324.505 430.439 331.283 424.439 330.505 416.435C330.035 411.598 313.071 378.653 313.071 378.653C313.071 378.653 297.583 388.208 297.583 395.1Z" fill="#CC6D3D"/>
<path d="M297.599 396.575C297.599 396.575 289.741 382.992 286.833 372.991C283.337 360.967 297.584 354.656 304.428 364.068C310.692 372.67 313.85 379.546 313.85 379.546C313.85 379.546 304.663 396.17 297.599 396.575Z" fill="#C94039"/>
<path d="M297.598 396.575C297.598 396.575 289.74 382.992 286.832 372.991C283.337 360.967 295.035 351.757 297.965 363.545C299.515 369.763 300.286 370.21 300.286 370.21L307.645 381.762L313.843 379.537C313.85 379.546 304.663 396.17 297.598 396.575Z" fill="#992C29"/>
<path d="M327.215 379.655C327.215 379.655 324.549 376.791 323.58 377.465C322.611 378.13 320.239 378.215 320.239 378.215L317.72 376.883L320.819 377.102C320.819 377.102 321.399 376.824 323.58 376.572C324.946 376.42 327.215 379.655 327.215 379.655Z" fill="#CC6D3D"/>
<path d="M261.27 303.402C261.27 303.402 266.917 308.204 271.925 309.519C275.707 310.513 278.483 310.109 278.483 310.109L277.477 308.761L278.828 306.806C278.828 306.806 272.388 307.851 262.386 302.129L261.27 303.402Z" fill="#EE5D4F"/>
<path d="M260.683 302.829C260.683 302.829 264.553 309.553 268.864 312.763C272.124 315.181 274.849 315.889 274.849 315.889L274.305 314.221L276.156 312.915C276.156 312.915 269.789 311.364 262.107 302.062L260.683 302.829Z" fill="#EE5D4F"/>
<path d="M264.281 305.938C265.808 305.154 265.206 294.908 261.343 295.793C257.708 296.627 253.757 298.321 255.108 301.228C256.459 304.135 262.753 306.713 264.281 305.938Z" fill="#992C29"/>
<path d="M264.45 299.955C264.45 299.955 262.944 295.919 261.828 296.34C260.712 296.762 262.122 298.262 263.017 300.949C263.913 303.637 265.044 301.674 264.45 299.955Z" fill="#F7BC4B"/>
<path d="M262.511 304.278C262.511 304.278 261.85 302.407 263.899 299.829C265.948 297.25 267.6 295.692 269.407 296.357C271.213 297.023 272.821 301.758 272.462 304.48C272.102 307.201 266.227 306.89 264.648 306.359C263.069 305.845 262.511 304.278 262.511 304.278Z" fill="#992C29"/>
<path d="M271.103 300.082C271.103 300.082 272.469 303.857 271.081 304.935C269.017 306.536 268.834 298.7 268.709 297.478C268.584 296.273 270.905 297.15 271.103 300.082Z" fill="#F7BC4B"/>
<path d="M285.02 310.319C285.02 310.319 298.753 302.348 303.556 324.66C308.322 346.812 298.782 360.318 283.28 356.535C267.769 352.752 274.577 313.293 285.02 310.319Z" fill="#F5894E"/>
<path d="M282.809 312.459C282.809 312.459 296.542 304.488 301.345 326.8C306.111 348.952 296.571 362.458 281.069 358.675C265.559 354.892 272.366 315.433 282.809 312.459Z" fill="#CC6D3D"/>
<path d="M293.26 330.794C293.26 330.794 297.424 311.263 292.658 308.095L285.49 305.854C285.498 305.862 294.707 319.006 293.26 330.794Z" fill="#F7BC4B"/>
<path d="M288.434 315.004C288.434 315.004 295.337 312.468 296.556 303.047C297.783 293.627 295.235 292.903 292.371 293.636C289.506 294.369 287.546 299.087 287.546 299.087C287.546 299.087 290.204 292.397 285.078 290.476C279.96 288.555 275.803 312.805 288.434 315.004Z" fill="#3E4C6F"/>
<path d="M290.608 306.215C285.129 300.797 266.395 298.269 258.06 303.628C249.725 308.987 246.501 323.219 249.718 328.965C249.718 328.965 244.137 329.521 243.116 338.326C242.095 347.131 246.046 346.778 246.046 346.778C246.046 346.778 243.674 355.692 250.518 359.829C266.138 369.266 289.47 366.621 296.446 360.15C305.222 352.002 301.969 339.278 291.783 334.476C291.783 334.467 296.086 311.633 290.608 306.215Z" fill="#3E4C6F"/>
<path d="M287.252 315.341C287.252 315.341 294.25 312.906 295.359 303.368C296.468 293.838 293.861 293.054 290.953 293.745C288.045 294.436 286.114 299.18 286.114 299.18C286.114 299.18 288.728 292.448 283.47 290.4C278.212 288.353 274.334 312.872 287.252 315.341Z" fill="#273252"/>
<path d="M289.161 307.328C283.984 301.969 266.616 298.076 258.641 303.511C250.665 308.946 247.5 323.186 250.511 328.89C250.511 328.89 243.219 327.803 242.183 336.6C241.148 345.397 245.811 346.736 245.811 346.736C245.811 346.736 243.483 355.659 249.975 359.729C264.765 368.998 283.639 367.86 290.322 361.322C298.737 353.106 301.139 339.026 291.482 334.325C291.482 334.325 294.331 312.687 289.161 307.328Z" fill="#273252"/>
<path d="M297.871 332.269C297.871 332.269 296.27 323.792 291.761 324.669C289.044 325.199 288.824 329.438 290.557 333.701C292.29 337.973 298.723 342.228 297.871 332.269Z" fill="#CC6D3D"/>
<path d="M302.352 325.328C302.84 325.17 302.978 323.996 302.659 322.706C302.341 321.417 301.688 320.5 301.2 320.658C300.712 320.817 300.574 321.991 300.893 323.28C301.211 324.57 301.865 325.487 302.352 325.328Z" fill="#273252"/>
<path d="M299.766 315.754C299.766 315.754 298.466 315.88 298.312 317.422" stroke="#273252" stroke-width="0.816467" stroke-miterlimit="10"/>
<path d="M499.545 665.732C499.545 665.732 509.092 662.361 516.436 663.204C523.779 664.047 525.982 666.574 536.998 664.047C548.014 661.519 552.42 662.361 556.826 662.361C561.233 662.361 545.076 666.574 529.654 667.417C520.005 667.948 506.889 668.259 506.889 668.259L499.545 665.732Z" fill="#F3E7D9"/>
<path d="M515.7 653.936C515.7 653.936 545.075 652.251 559.763 652.251C574.45 652.251 599.419 654.779 608.966 653.936C618.513 653.094 632.466 653.936 633.2 653.936C633.935 653.936 617.044 658.149 615.575 658.149C614.106 658.149 567.841 654.779 556.825 654.779C545.81 654.779 515.7 653.936 515.7 653.936Z" fill="#F3E7D9"/>
<path d="M454.013 645.51C454.013 645.51 451.076 648.88 465.029 648.038C478.982 647.195 494.404 648.88 501.013 649.723C501.013 649.723 485.591 649.723 475.31 650.565C465.029 651.408 458.419 653.093 454.013 651.408C449.607 649.723 454.013 645.51 454.013 645.51Z" fill="#F3E7D9"/>
<path d="M372.174 611.242V826.954C372.174 826.954 368.253 830.653 355.034 830.653C344.981 830.653 338.511 828.85 338.511 828.85L340.163 735.954L345.12 720.788L338.511 610.197L361.497 607.324L372.174 611.242Z" fill="#B44C29"/>
<path d="M338.511 828.851L339.928 782.163L340.141 735.416L347.338 714.41L355.034 830.663L338.511 828.851Z" fill="#7A462F"/>
<path d="M338.511 610.197L360.917 615.994L372.733 611.992L361.497 607.324L338.511 610.197Z" fill="#D77D5B"/>
<path d="M360.916 615.994L353.367 659.32L360.916 753.994L344.07 736.654L338.511 610.197L360.916 615.994Z" fill="#7A462F"/>
</svg>
