<?xml version="1.0" encoding="utf-8"?>
<!-- Generator: Adobe Illustrator 23.1.0, SVG Export Plug-In . SVG Version: 6.00 Build 0)  -->
<svg version="1.1" xmlns="http://www.w3.org/2000/svg" xmlns:xlink="http://www.w3.org/1999/xlink" x="0px" y="0px"
	 viewBox="0 0 960 1080" style="enable-background:new 0 0 960 1080;" xml:space="preserve">
<style type="text/css">
	.st0{fill:#856792;}
	.st1{fill:#665070;}
	.st2{fill:#33A86D;}
	.st3{fill:#F3E7D9;}
	.st4{fill:#FFACFF;}
	.st5{fill:#7A462F;}
	.st6{fill:#A96443;}
	.st7{fill:#CC6D3D;}
	.st8{fill:#F5894E;}
	.st9{fill:#FFFCF3;}
	.st10{fill:#288453;}
	.st11{fill:#C94039;}
	.st12{fill:#EE5D4F;}
	.st13{fill:none;stroke:#288453;stroke-miterlimit:10;}
	.st14{opacity:0.8;}
	.st15{fill:#29ABE2;}
	.st16{fill:#1D2538;}
	.st17{fill:#3E4C6F;}
	.st18{fill:#273252;}
	.st19{fill:#121721;}
	.st20{fill:none;stroke:#48598B;stroke-miterlimit:10;}
	.st21{fill:#B44C29;}
	.st22{fill:none;stroke:#F3E7D9;stroke-miterlimit:10;}
	.st23{fill:#F7BC4B;}
	.st24{fill:#D77D5B;}
	.st25{clip-path:url(#SVGID_2_);}
	.st26{fill:#48598B;}
	.st27{fill:#992C29;}
	.st28{fill:#FFFFFF;}
	.st29{fill:url(#SVGID_3_);}
	.st30{fill:#1689CB;}
	.st31{fill:#FEED7F;}
	.st32{fill:none;stroke:#EE5D4F;stroke-width:2;stroke-linecap:round;stroke-linejoin:round;stroke-miterlimit:10;}
	.st33{fill:#34283A;}
	.st34{fill:none;stroke:#34283A;stroke-linecap:round;stroke-linejoin:round;stroke-miterlimit:10;}
</style>
<g id="ground">
	<path class="st0" d="M744.44,937.36c0,0-152.13,0.18-283.25,0c-10.55-0.01,18.46-7.38-31.66-6.73
		c-48.64,0.36-92.02,1.83-120.26,5.15c-107.6,12.66-182.37,17.8-197.8,30.86c-15.43,13.05,29.67,20.18,29.67,20.18
		s-34.42,18.59,22.55,24.92s256.82,12.57,308.57,3.16c52.22-9.49,12.66-17.41,12.66-17.41s261.1-7.91,316.48-14.24
		c55.38-6.33,12.66-15.82,12.66-15.82S882.11,954.77,744.44,937.36z"/>
	<path class="st1" d="M589.76,939.34c0,0-67.65,0-71.21,9.49s10.68,7.12,10.68,7.12s-68.84,8.31-55.78,13.05
		c13.05,4.75,123.43,3.56,179.21,1.19c55.78-2.37,22.55-24.92-5.93-28.48S589.76,939.34,589.76,939.34z"/>
	<path class="st1" d="M684.24,945.98c0,0-38.77,2.11-24.77,10.18C673.47,964.24,732.71,955.21,684.24,945.98z"/>
	<path class="st1" d="M744.04,967.82c0,0-32.04,9.49,10.68,13.05C797.45,984.44,772.53,967.82,744.04,967.82z"/>
	<path class="st1" d="M345.14,970.59c-49.85,0-73.32,5.8-111.3,10.02c-29.49,3.28-76.35,10.55-49.05,15.3s139.12,7.52,165.23,2.77
		S394.99,970.59,345.14,970.59z"/>
	<path class="st2" d="M643.96,939.74c0,0,11.87-38.77,19.78-42.73s5.54,8.7,2.37,13.45c-3.16,4.75,15.03-5.54,23.74,3.16
		c8.7,8.7-19.78,16.62-19.78,16.62s25.32-3.16,28.48,4.75C701.71,942.9,643.96,939.74,643.96,939.74z"/>
	<path class="st1" d="M444.21,938.42c-18.59-0.13-31.16,5.56-9.53,6.55C456.32,945.96,462.81,938.55,444.21,938.42z"/>
	<path class="st1" d="M499.16,942.24c0,0-67.65,3.56-28.48,8.31S531.21,942.24,499.16,942.24z"/>
	<path class="st1" d="M719.12,971.38c22.55-4.75-15.43-18.99-27.3-7.12C685.89,969.01,696.57,976.13,719.12,971.38z"/>
	<path class="st1" d="M397.49,996.31c0,0-17.8-8.31-24.92,0S410.55,1001.05,397.49,996.31z"/>
	<path class="st1" d="M328.44,1008.77c-10.86-4.6,37.02-11.64,44.99-4.6C381.42,1011.21,339.3,1013.37,328.44,1008.77z"/>
</g>
<g id="clouds">
	<path class="st3" d="M150.24,395.38c23.74-8.7,466.02-179.6,508.75-208.09s-23.74-22.15-23.74-22.15s34.81-7.91,18.99-37.98
		s-113.93-9.49-140.84,12.66c0,0,18.99-56.97-34.81-56.97c0,0-68.04-33.23-128.18-12.66s-121.85,94.95-82.29,155.08
		c0,0-7.38-4.22-10.02,2.11s1.58,15.82,1.58,15.82s-71.47,20.04-74.64,42.99c-2.76,19.98,29.3,33.97,40.23,36.2
		c1.62,0.33,2.78,0.4,3.29,0.2c3.96-1.58-50.64,18.2-66.46,32.44s-3.96,22.15,2.37,22.15c0,0-19.78,7.91-26.9,12.66
		S126.51,404.09,150.24,395.38z"/>
	<path class="st3" d="M521.32,418.33c0,0-136.09,82.29-147.16,98.11c-11.08,15.82,18.99,14.24,77.54-15.82
		S834.64,374.02,897.93,294.9c0,0,16.88-22.68,3.16-40.62c-13.71-17.93-37.98-1.58-37.98-1.58s26.9-45.36-3.69-87.03
		c-30.59-41.67-67.52-6.33-75.96,2.11c-8.44,8.44-18.46,25.85-8.97,41.67c0,0-48.53,14.24-68.57,36.92c0,0-25.85-5.27-41.14,7.91
		s-24.79,41.67-19.52,54.33c0,0-24.26-12.13-51.69,7.38c-27.43,19.52-50.64,53.27-51.69,79.65
		C541.89,395.65,521.85,401.45,521.32,418.33z"/>
</g>
<g id="screen-sewing">
	<g>
		<polygon class="st4" points="621.8,451.56 800.69,455.12 797,563.12 621.77,559.69 		"/>
		<path class="st5" d="M644.41,560.13c0,0,13.52-7.88,11.39-11.51c-3.87-6.61-10.06-18.84-11.05-22.15
			c-1.55-5.14-3.64-25.45-0.18-32.57c3.45-7.12,24.3-25.71,29.87-25.32c5.57,0.4,24.33,53.41,24.63,68.84
			c0.3,15.43-1.65,23.76-1.65,23.76L644.41,560.13z"/>
		<path class="st6" d="M651.48,530.29c-1.55-5.14-2.52-24.53,0.94-31.65s16.88-24.26,22.45-23.87c5.57,0.4,23.9,47.21,24.19,62.64
			c0.3,15.43-8.44,20.57-8.44,20.57s-7.77,1.98-14.89-3.56C668.61,548.88,653.03,535.43,651.48,530.29z"/>
		<g>
			
				<ellipse transform="matrix(0.9509 -0.3094 0.3094 0.9509 -122.2151 249.062)" class="st7" cx="724.08" cy="509.82" rx="54.06" ry="49.26"/>
			
				<ellipse transform="matrix(0.9509 -0.3094 0.3094 0.9509 -121.0258 247.4465)" class="st8" cx="719.58" cy="505.27" rx="54.06" ry="49.26"/>
			
				<ellipse transform="matrix(0.9509 -0.3094 0.3094 0.9509 -121.0258 247.4465)" class="st3" cx="719.58" cy="505.27" rx="49.94" ry="45.5"/>
			
				<ellipse transform="matrix(0.9509 -0.3094 0.3094 0.9509 -121.1892 247.5836)" class="st9" cx="719.93" cy="505.85" rx="48.54" ry="44.23"/>
		</g>
		<g>
			<path class="st10" d="M709.32,537.01c0,0-7.54-5.93-5.19-11.87C706.48,519.21,714.21,527.91,709.32,537.01z"/>
			<path class="st10" d="M705.39,537.41c0,0-12.38-1.58-12.37-7.12C693.02,524.75,704.18,531.47,705.39,537.41z"/>
			<path class="st10" d="M700.37,527.91c0,0-7.14-5.93-3.47-9.89C700.58,514.07,704.47,524.35,700.37,527.91z"/>
			<path class="st10" d="M694.72,526.33c0,0,0.32-6.73-6.83-7.12C680.74,518.81,687.96,525.93,694.72,526.33z"/>
			<path class="st10" d="M693.76,518.42c0,0-6.24-9.89,0.01-11.08C700.02,506.15,697.3,518.02,693.76,518.42z"/>
			<path class="st10" d="M690.15,517.63c0,0-2.17-8.31-6.15-8.7C680.01,508.53,680.6,516.84,690.15,517.63z"/>
			<path class="st10" d="M710.22,538.59c-1.13,0.79-10.79-1.58-8.06,3.56C704.9,547.3,710.22,538.59,710.22,538.59z"/>
			<path class="st10" d="M687.58,509.32c0,0-4.32-5.14-0.16-7.91S691.51,508.92,687.58,509.32z"/>
			<g>
				<path class="st11" d="M716.38,536.22c0,0-7.14-5.93-3.86-9.89s11.22-3.56,11.61,1.98S719.6,537.01,716.38,536.22z"/>
				<path class="st11" d="M731.62,527.91c2.68,2.51,2.68,15.56-2.48,13.45c-5.16-2.11-7.15-4.22-6.66-8.44
					C722.97,528.7,728.94,525.41,731.62,527.91z"/>
				<path class="st11" d="M720.19,539.78c0,0-0.25-9.1-6.69-5.14c-6.45,3.96-2.04,10.29,3.07,9.89S720.19,539.78,720.19,539.78z"/>
				<path class="st11" d="M719.4,539.78c0,0,2.4,7.23,8.21,4.22c5.34-2.77-3.09-8.31-4.83-8.7
					C721.03,534.9,719.4,539.78,719.4,539.78z"/>
				<path class="st12" d="M727.53,540.97c4.83-0.19,1.61-12.08-3.42-11.44S719.62,541.28,727.53,540.97z"/>
				<path class="st12" d="M721.89,535.82c0,0,3.88-6.73-2.51-7.52c-6.39-0.79-4.58,4.22-1.67,6.2
					C720.62,536.48,721.89,535.82,721.89,535.82z"/>
				<path class="st12" d="M719.71,540.44c0,0-2.49,2.11-4.63-0.26c-2.15-2.37,0.66-7.52,5.18-5.14
					C724.77,537.41,719.71,540.44,719.71,540.44z"/>
				<path class="st11" d="M721.4,534.56c0,0-0.32-2.13,0.46-3.03c0.35-0.41,0.94-0.57,1.88-0.15
					C726.75,532.7,724.96,536.15,721.4,534.56z"/>
				<path class="st11" d="M721.54,536.48c0,0,1.09-3.3-2.15-4.35C716.15,531.08,715.51,537.01,721.54,536.48z"/>
				<path class="st11" d="M721.68,534.77c-2.15,1.32-2.66,5.27,0.91,3.56C726.17,536.62,723.83,533.45,721.68,534.77z"/>
			</g>
		</g>
		<line class="st13" x1="690.16" y1="506.55" x2="744.64" y2="456.31"/>
		<path class="st6" d="M797,563.12l1.88-55.78c0,0-2.5-9.1-3.37-10.29c-0.87-1.19,0.03-5.14-2.11-7.52s3.93-34.02,3.93-34.02
			l-53.12-1.58c-3.05,1.58,0.27,15.03,0.27,15.03l12.84,19.38l17.1,74.33L797,563.12z"/>
		<path class="st5" d="M797,563.12l1.92-55.8l-2.75-10.37c0,0-0.62-5.04-2.76-7.42s3.93-34.02,3.93-34.02l-53.12-1.58
			c-3.05,1.58,30.55,1.32,35.52,11.87c4.96,10.55,11.88,63.82,11.53,73.85c-0.35,10.02-16.85,23.04-16.85,23.04L797,563.12z"/>
		<path class="st6" d="M652.85,529.1c0,0,0.06-17.8,0.35-19.38c0.28-1.58,5.15-11.08,6.71-17.01c1.56-5.93,9.23-8.51,12.26,0
			c2.96,8.31,0.72,15.82-0.36,17.41c-1.08,1.58,2.28,21.1,2.28,21.1s12.77,18.46,3.22,23.21
			C667.75,559.16,652.49,546.51,652.85,529.1z"/>
		<path class="st5" d="M652.85,529.1c0,0,0.06-17.8,0.35-19.38c0.28-1.58,5.15-11.08,6.71-17.01c1-3.82,6.2-1.58,5.01,2.77
			c-1.19,4.35-0.89,33.34,2.99,37.85c10.91,12.66,14.82,25.05,4.79,23.08S652.49,546.51,652.85,529.1z"/>
	</g>
	<g>
		<g class="st14">
			<ellipse class="st3" cx="710.25" cy="505.53" rx="15.97" ry="15.82"/>
		</g>
		<path class="st12" d="M708,495.12l9.94,9.85c0.46,0.45,0.46,1.19,0,1.65l-9.94,9.85c-0.74,0.73-2.01,0.21-2.01-0.82v-19.69
			C705.99,494.91,707.26,494.39,708,495.12z"/>
	</g>
</g>
<g id="screen-speaker">
	<polygon class="st15" points="423.6,449.19 566.15,448.19 568.53,548.22 427.8,543.2 	"/>
	<g>
		<path class="st3" d="M513.8,514.66c0,0,4.35-3.76,7.91-0.99c3.56,2.77,16.67,33.37,16.67,33.37l-14.27-0.39
			c0,0-6.22-8.6-9.52-17.95C512.56,522.95,513.35,517.97,513.8,514.66z"/>
		<path class="st9" d="M513.8,514.66c0,0,4.35-3.76,7.91-0.99c3.56,2.77,16.73,33.48,16.73,33.48l-14.33-0.52l11.58-0.65
			c0,0-11.31-23.79-13.05-28.75C520.61,511.48,513.35,517.97,513.8,514.66z"/>
		<path class="st3" d="M485.32,515.85c-1.58-2.77-2.37-7.32-7.91-2.97c-5.54,4.35-14.5,16.51-16.62,19.58
			c-3.49,5.08,0.4,14.44,6.73,9.56c4.96-3.82,8.7-9.76,12.66-14.51C484.13,522.77,486.9,518.62,485.32,515.85z"/>
		<path class="st9" d="M477.41,512.88c-5.54,4.35-14.5,16.51-16.62,19.58c-3.49,5.08,7.25-5.74,11.21-10.48
			S482.95,508.53,477.41,512.88z"/>
		<g>
			<polygon class="st3" points="507.27,512.29 498.77,540.18 490.26,511.1 			"/>
			<polygon class="st5" points="503.32,498.24 502.33,508.33 498.57,518.02 493.03,508.92 491.05,497.25 			"/>
			<g>
				<path class="st5" d="M508.94,485.74c0,0,1.07-3.92,3.53-1.88c2.46,2.04-2.05,10.66-4.2,8.65S508.94,485.74,508.94,485.74z"/>
				<path class="st5" d="M483.48,486.93c0,0-0.43-2.21-2.46-1.58c-2.03,0.64-0.67,9.01,3.5,8.93
					C488.7,494.21,483.48,486.93,483.48,486.93z"/>
				<path class="st6" d="M495.73,466.51c-7.55,0.22-14.08,8.07-12.98,19.66c1.1,11.59,11.27,17.01,14.24,16.62
					c3.53-0.47,8.51-0.79,12.1-13.83C512.78,475.55,503.28,466.3,495.73,466.51z"/>
				<path class="st5" d="M495.73,466.51c-7.55,0.22-14.08,8.07-12.98,19.66c0,0,6.46-9.63,16.42-6.13c7.32,2.57,9.92,8.92,9.92,8.92
					C512.78,475.55,503.28,466.3,495.73,466.51z"/>
				<path class="st16" d="M505.23,472c0,0-1.18,5.07-9.74,7.98l-0.4-5.19c0,0-4.73,10.4-12.74,11.38c0,0-5.43-18.79,11.47-20.6
					C504.62,464.42,505.23,472,505.23,472z"/>
				<path class="st16" d="M502.56,470.61c0,0,3.74,13.88,7.68,14.18c0,0,3.96-18.4-10.08-19.13
					C487.52,465,502.56,470.61,502.56,470.61z"/>
			</g>
			<path class="st17" d="M489.27,507.54l-11.67,4.55l1.98,12.26l1.19,20.57l18.2,0.79c0,0,1.38-18-0.2-21.36
				C497.19,520.99,489.27,507.54,489.27,507.54z"/>
			<path class="st18" d="M489.27,507.54l-11.67,4.55l1.98,12.26l0.99,20.72l18.4,0.64c0,0-9.1-7.71-11.14-13.45
				C485.78,526.53,489.27,507.54,489.27,507.54z"/>
			<polygon class="st17" points="504.51,513.47 498.37,524.35 498.97,545.71 515.38,546.23 518.35,512.29 506.09,507.74 			"/>
			<path class="st18" d="M504.51,513.47l-6.13,10.88l0.59,21.36c0,0,2.94,0.05,7.85-6.86c6.07-8.55,11.54-26.57,11.54-26.57
				l-12.26-4.55L504.51,513.47z"/>
			<polygon class="st3" points="498.57,516.64 492.04,504.37 489.67,504.37 485.91,510.31 498.97,519.21 			"/>
			<polygon class="st3" points="502.92,504.77 498.37,516.64 498.97,519.21 509.85,510.9 508.46,505.76 			"/>
		</g>
		<circle class="st3" cx="498.57" cy="529.49" r="1.29"/>
		<circle class="st3" cx="498.57" cy="536.42" r="1.29"/>
		<circle class="st3" cx="498.57" cy="543.54" r="1.29"/>
		<ellipse class="st19" cx="490.64" cy="487.16" rx="1.23" ry="1.98"/>
		<ellipse class="st19" cx="501.98" cy="486.9" rx="1.23" ry="1.98"/>
	</g>
	<g>
		<g class="st14">
			<circle class="st3" cx="496.24" cy="509.85" r="15.82"/>
		</g>
		<path class="st12" d="M494.01,499.44l9.85,9.85c0.45,0.45,0.45,1.19,0,1.65l-9.85,9.85c-0.73,0.73-1.99,0.21-1.99-0.82v-19.69
			C492.02,499.23,493.28,498.71,494.01,499.44z"/>
	</g>
</g>
<g id="screen-speaker_hand">
	<path class="st6" d="M455.12,509.44l-5.11,3.66l-2.41-2.71c0,0-3.65-1.14-5.26-3.13c-1.61-2-4.84-5.99-5.1-7.3s1.26-1.2,2.27,0.07
		c1.01,1.27,1.79,1.8,1.79,1.8s-3.26-4.56-4.06-5.46s0.05-2.65,1.03-1.94c0.98,0.71,3.94,3.2,3.94,3.2s-4.4-4.69-3.89-5.85
		c0.51-1.16,1.81-1.6,2.42-0.69s3.85,5.1,3.85,5.1s-3.77-7.18-2.09-7.64c1.68-0.46,2.13,1.03,2.56,1.95c0.21,0.45,2.68,4.4,2.68,4.4
		l2.64,3.65l1.05-1.57c0,0-0.03-4.35,1.29-4.41c1.32-0.07,1.6,1.81,1.67,3.13c0.07,1.32,1.28,6.55,1.28,6.55L455.12,509.44z"/>
	<path class="st5" d="M455.12,509.44l-5.11,3.66l-2.41-2.71c0,0-3.65-1.14-5.26-3.13c-1.61-2-4.84-5.99-5.1-7.3s3.38,3.3,3.38,3.3
		s3.43,3.3,5.8,4.09c2.37,0.79,9.1-2.37,9.1-2.37L455.12,509.44z"/>
	<path class="st3" d="M464.35,542.75c2.57-1.15,3.17-7.83,1.85-11.54c-2.64-7.38-9.96-24.24-9.96-24.24l-9.89,4.58
		c0,0,8.44,23.61,10.7,27.14C459.3,542.22,461.78,543.9,464.35,542.75z"/>
	<path class="st9" d="M466.2,531.21c-2.64-7.38-9.96-24.24-9.96-24.24l-2.17,5.78c0,0,4.86,7.02,7.12,10.55
		C463.45,526.83,467.52,534.92,466.2,531.21z"/>
	<path class="st5" d="M446.42,497.05c0,0-3.03,2.51-4.35,5.01C442.07,502.07,441.67,498.11,446.42,497.05z"/>
</g>
<g id="screen-ukulele">
	<polygon class="st15" points="684.7,300.84 846.11,300.84 846.11,433.76 691.82,427.82 	"/>
	<g>
		<path class="st16" d="M794.29,311.12c0,0,0.79,11.47-0.79,20.18c-1.58,8.7-3.16,18.2-12.26,16.22S772.92,303.21,794.29,311.12z"/>
		<g>
			<polyline class="st20" points="836.1,358.01 835.2,361.6 833.58,359.18 			"/>
			<polyline class="st20" points="826.03,360.25 825.13,363.85 823.52,361.42 			"/>
			
				<ellipse transform="matrix(0.982 -0.1891 0.1891 0.982 -50.1543 161.8723)" class="st3" cx="823.18" cy="343.76" rx="2.65" ry="1.82"/>
			
				<ellipse transform="matrix(0.982 -0.1891 0.1891 0.982 -49.266 163.7539)" class="st3" cx="833.49" cy="340.05" rx="2.65" ry="1.82"/>
			<path class="st5" d="M724.39,357.47c0,0-1.89,2.73-4.19,6.04c-3.01,4.32-6.73,9.61-7.85,11.04c-1.98,2.52-11.14,9.71-12.94,12.58
				s16.36,5.39,16.36,5.39s19.05-22.65,19.59-23.19S737.16,352.44,724.39,357.47z"/>
			<path class="st6" d="M720.02,363.77c-2.98,4.27-6.57,9.37-7.66,10.77c-1.98,2.52-11.14,9.71-12.94,12.58s16.36,5.39,16.36,5.39
				S722.4,360.35,720.02,363.77z"/>
			<path class="st3" d="M724.21,361.06c0,0-1.26-5.39-3.06-5.75s-1.8-0.9-1.8-0.9s8-4.56,11.23-6.9c3.24-2.34,13.76-5.48,18.79-4.95
				c5.03,0.54,15.43-2.97,15.43-2.97s22.18-0.29,30.26,2.77c8.09,3.06,18.79,8.7,22.15,17.01c2.57,6.35,7.91,10.48,7.91,10.48
				s-1.84-3.53-4.35-1.38s-8.18,4.67-10.88,3.95c-1.51-0.4-5.34,35.87-5.34,35.87l8.04,24.2l-85.19-3.3l16.22-23.54l-12.42-32.39
				L724.21,361.06z"/>
			<path class="st16" d="M791.62,300.84c0,0,3.46,1.19,5.04,7.52c1.58,6.33-4.35,17.01-1.98,20.97c2.37,3.96,9.89,11.87,0,16.62
				c-9.89,4.75-9.49,21.36-6.73,27.3c2.77,5.93-9.89,26.9-9.89,26.9s10.29-20.97,3.96-33.63s0.79-20.57,5.93-24.92
				c5.14-4.35,3.56-12.26,5.93-16.62c2.37-4.35-5.93-16.22-5.93-16.22L791.62,300.84z"/>
			<path class="st16" d="M748.99,300.84c0,0-10.62,1.19-11.67,14.37c-0.67,8.42,1.86,18.64,5.27,27.16c0,0-3.69,5.14,3.03,15.03
				c6.73,9.89,7.91,24.53,4.75,38.77c-3.16,14.24,3.16,20.97,3.16,20.97s-6.33-7.12,3.16-13.85c9.49-6.73,7.91-50.64,3.96-61.32
				C756.7,331.3,767.58,300.84,748.99,300.84z"/>
			<path class="st21" d="M761.6,361.66c0,0,12.04,6.05,14.02,11.62s3.06,20.31-4.31,27.68c-6.47,5.39-9.71,1.08-16.36,5.93
				c0,0-8.81,8.27-10.96,10.42c-2.16,2.16-8.45,6.65-15.28,4.31c-6.83-2.34-13.84-8.27-13.84-8.27L761.6,361.66z"/>
			<path class="st8" d="M765.91,381.19c0.36-5.75,0.54-14.02-1.26-16.54s-3.24-3.95-6.65-3.06c-3.41,0.9-9.35,6.83-13.12,7.55
				c-3.77,0.72-8.63-2.52-14.38-0.72c-5.75,1.8-15.64,9.35-17.97,21.03s-2.16,27.14,9.35,25.88c11.5-1.26,16.71-13.3,21.39-15.82
				s9.89-1.44,14.74-4.67C762.86,391.62,765.55,386.94,765.91,381.19z"/>
			<path class="st7" d="M730.51,368.43c-5.75,1.8-15.64,9.35-17.97,21.03s-2.16,27.14,9.35,25.88c11.5-1.26,16.71-13.3,21.39-15.82
				s9.89-1.44,14.74-4.67C762.86,391.62,736.26,366.63,730.51,368.43z"/>
			
				<ellipse transform="matrix(0.6252 -0.7805 0.7805 0.6252 -17.4643 727.4574)" class="st16" cx="748.66" cy="381.91" rx="7.35" ry="5.93"/>
			<polygon class="st8" points="761.06,370.05 759.08,376.16 760.88,381.73 809.65,360.34 808.15,350.64 			"/>
			<path class="st5" d="M821.03,366.45c0,0,0.6,21.21,0.72,25.52s-16.65,25.28-17.37,22.05c-0.72-3.24-2.28-16.54-2.04-20.25
				c0.24-3.71-0.96-11.5-0.84-14.5c0.12-3,12.58-10.3,16.77-11.62C822.47,366.34,821.03,366.45,821.03,366.45z"/>
			<path class="st3" d="M811.68,370.77c0,0,4.79-3.83,8.51-4.31s4.95,3.81,4.95,3.81s-3.42-0.77-5.34,0.79
				C817.89,372.61,811.68,370.77,811.68,370.77z"/>
			<path class="st8" d="M844.99,346.86c0,0,1.2,1.5,1.2,1.98s-2.28,2.88-2.76,4.67c-0.48,1.8-1.02,4.04-1.86,4.4
				s-17.19,3.38-19.47,3.98c-2.28,0.6-9.83-1.56-12.7-0.84v-0.48L844.99,346.86z"/>
			<path class="st7" d="M808.15,350.64l1.26,9.95c0,0,3.95-0.42,8.81,0.12c4.12,0.46,17.19-2.8,21.03-3.79
				c0.67-0.17,1.2-0.68,1.41-1.33l1.22-3.86c0,0,3.01-4.2,3.12-4.85c0.12-0.78-3.06-3.06-4.13-5.21s-2.88-3.24-4.31-2.52
				c-1.44,0.72-21.39,6.83-22.65,7.91C812.64,348.12,813.18,348.48,808.15,350.64z"/>
			<polyline class="st22" points="735.6,390.9 810.13,358.31 820.67,356.87 			"/>
			<polyline class="st22" points="732,389.22 808.69,355.91 833.58,353.15 			"/>
			<line class="st22" x1="831.45" y1="345.13" x2="732.24" y2="386.34"/>
			<polyline class="st22" points="817.55,348.48 808.21,351.84 729.13,384.67 			"/>
			<circle class="st3" cx="819.05" cy="347.94" r="1.5"/>
			<circle class="st3" cx="831.27" cy="345.07" r="1.5"/>
			<circle class="st3" cx="833.1" cy="352.56" r="1.5"/>
			<circle class="st3" cx="820.73" cy="357.17" r="1.5"/>
			
				<ellipse transform="matrix(0.982 -0.1891 0.1891 0.982 -53.5577 164.6447)" class="st3" cx="836.01" cy="362.98" rx="3.02" ry="2.08"/>
			
				<ellipse transform="matrix(0.982 -0.1891 0.1891 0.982 -53.4176 164.5667)" class="st9" cx="835.67" cy="362.21" rx="3.02" ry="1.87"/>
			
				<ellipse transform="matrix(0.982 -0.1891 0.1891 0.982 -54.259 162.6469)" class="st3" cx="825.19" cy="365.66" rx="2.65" ry="1.82"/>
			
				<ellipse transform="matrix(0.982 -0.1891 0.1891 0.982 -54.1077 162.6154)" class="st9" cx="825.1" cy="364.85" rx="2.65" ry="1.82"/>
			<path class="st5" d="M760.07,341.3c0,0,1.89,16.07,12.32,17.24s12.58-17.27,12.58-17.27S766.9,337.2,760.07,341.3z"/>
		</g>
		<path class="st5" d="M793.1,321.41c0.4,5.93,1.58,27.69-17.6,27.3c-10.61-0.22-14.96-5.82-18.2-11.08
			c-8.89-14.42-6.53-36.4-6.53-36.4c1.38,0,32.44,1.19,32.44,1.19S792.7,315.47,793.1,321.41z"/>
		<path class="st6" d="M793.1,321.41c0.4,5.93,1.78,28.88-17.41,28.48c-10.61-0.22-12.46-5.34-14.64-12.66
			c-2.18-7.32-0.59-16.81,2.77-19.38c3.36-2.57,19.38-10.29,19.38-10.29S792.7,315.47,793.1,321.41z"/>
		<ellipse class="st16" cx="769.76" cy="329.22" rx="1.98" ry="2.67"/>
		<ellipse class="st16" cx="787.16" cy="326.45" rx="1.98" ry="2.67"/>
		<path class="st16" d="M791.64,300.84c0,0-0.91,9.49-8.04,15.82c-7.12,6.33-11.08,3.56-11.08,3.56l2.37-5.93
			c0,0-16.22,13.05-22.55,11.87c-6.33-1.19-2.44-25.25-2.44-25.25L791.64,300.84z"/>
		<path class="st5" d="M757.49,329.62c0,0-5.93-7.59-7.91-2.37s0.4,11.86,5.54,12.34C760.26,340.06,757.49,329.62,757.49,329.62z"/>
		<circle class="st3" cx="755.32" cy="339.6" r="1.78"/>
	</g>
	<g>
		<g class="st14">
			<circle class="st3" cx="765.01" cy="376.92" r="15.82"/>
		</g>
		<path class="st12" d="M762.78,366.51l9.85,9.85c0.45,0.45,0.45,1.19,0,1.65l-9.85,9.85c-0.73,0.73-1.99,0.21-1.99-0.82v-19.69
			C760.79,366.3,762.05,365.78,762.78,366.51z"/>
	</g>
</g>
<g id="screen-ukulele_L_HAND">
	<g>
		<path class="st5" d="M808.21,386.94c0,0-0.36,10.78-1.68,14.14c-1.32,3.35-3,11.5-1.92,14.14c1.08,2.64,7.55,9.95,10.3,9.83
			c2.76-0.12,7.79-5.75,10.3-13.42c2.52-7.67-1.56-11.62-2.16-15.94c-0.6-4.31-3.12-14.98-4.67-16.42
			C816.84,377.84,807.37,382.15,808.21,386.94z"/>
		<path class="st6" d="M808.21,386.94c0,0-0.36,10.78-1.68,14.14c-1.32,3.35-3,11.5-1.92,14.14c1.08,2.64,6.7,3.23,9.45,3.11
			c2.76-0.12,3.02-6.57,5.54-14.24c2.52-7.67-1.38-19.42-1.98-23.74C817.03,376.04,807.37,382.15,808.21,386.94z"/>
	</g>
	<g>
		<path class="st6" d="M819.59,381.43c0,0-5.03-12.34-5.39-12.82s-3.83-6.47-4.07-6.83c-0.24-0.36-5.15-5.27-6.59-6.35
			c-1.44-1.08-2.04-1.68-3.47-0.84c-1.44,0.84,0.12,2.28,1.32,3c1.2,0.72,3.59,3.35,3.59,3.35l1.68,5.15l-3.24-1.92
			c0,0-4.31-3.24-4.55-3.83c-0.24-0.6-2.04-1.92-3.24-0.84c-1.2,1.08-0.36,2.16-0.36,2.16s2.64,4.19,3.35,4.43
			c0.72,0.24,4.67,5.15,4.67,5.15l-5.63-3.47c0,0-1.68-2.76-2.76-2.88c-1.08-0.12-2.4,0.24-2.28,1.2s3.12,5.51,3.12,5.51l0.84,1.08
			c0,0-1.56-0.84-0.96,2.04c0.6,2.88,4.79,6.47,4.79,6.47s6.35,7.43,8.15,8.27C810.37,390.3,821.15,393.77,819.59,381.43z"/>
		<path class="st5" d="M812.68,369.27l-2.77,2.77l-5.74,2.37l-0.9,4.66l4.46,2.26C807.74,381.34,812.88,372.64,812.68,369.27z"/>
	</g>
</g>
<g id="screen-ukulele_R_HAND">
	<path class="st5" d="M696.36,394.85c0,0-0.18-7.55,4.67-9.17c4.85-1.62,8.09-2.34,11.5-2.88c3.41-0.54,12.22-3.95,15.46-4.85
		c3.24-0.9,7.73-2.16,8.99-4.13c1.26-1.98,1.8-2.34,3.06-1.44s0.54,3.95-2.34,6.29s-6.29,3.59-6.29,3.59s4.13,4.31,5.75,4.85
		s9.17,2.34,10.06,3.77c0.9,1.44,0.72,2.52-0.9,2.88c-1.62,0.36-11.32-2.16-12.04-2.52c-0.72-0.36,2.52,2.7,3.77,3.59
		c1.26,0.9,9.71,3.95,10.78,5.57s0,3.59-1.62,3.77s-8.63-2.7-8.63-2.7s7.01,2.88,7.19,4.13c0.18,1.26-0.18,2.52-2.34,2.16
		c-2.16-0.36-10.24-3.59-10.24-3.59l-4.85-3.06l1.62,3.41c0,0,5.21,3.41,5.75,4.13c0.54,0.72-0.72,2.16-1.98,1.98
		c-1.26-0.18-6.47-2.88-6.47-2.88l-3.95-4.49c0,0-5.75-3.06-7.73-6.29c0,0-3.24,6.83-7.19,7.55
		C704.44,405.28,696.54,406.35,696.36,394.85z"/>
	<path class="st6" d="M696.36,394.85c0,0-0.18-7.55,4.67-9.17c4.85-1.62,8.09-2.34,11.5-2.88c3.41-0.54,12.22-3.95,15.46-4.85
		c3.24-0.9-1.75,8.72-1.75,8.72s0,7.91-0.79,8.31s-7.52,1.65-9.49-1.58C715.96,393.41,696.54,406.35,696.36,394.85z"/>
</g>
<g id="screen-pottery">
	<g>
		<polygon class="st23" points="507.08,421.89 506.29,342.37 660.57,341.19 659.75,423.08 		"/>
		<path class="st5" d="M574.33,370.13c2.18-0.99,18.89-28.25,18.89-28.25l20.27-0.3l-17.8,35.08L574.33,370.13z"/>
		<polygon class="st12" points="603.41,341.68 609.93,351.08 618.9,366.37 608.91,422.71 659.75,423.08 660.57,341.19 		"/>
		<polygon class="st11" points="603.7,341.88 641.98,351.87 649.49,364.13 648.31,415.16 608.91,422.71 659.78,423.08 
			660.57,341.19 		"/>
		<path class="st5" d="M578.68,371.12l-18.2,4.75c0,0-8.04-0.26-9.49,0.4s-2.37,3.16,0,3.96c2.37,0.79,8.7,2.37,8.7,2.37l-7.52,6.33
			c0,0-8.7,4.35-11.08,5.54c-2.37,1.19-0.79,3.16-0.79,3.16l2.77,1.58l-0.79,2.77l2.77,1.58l6.33-3.16c0,0-6.33,6.73-5.14,7.52
			c1.19,0.79,2.77,1.58,4.75,0.79c1.98-0.79,5.93-1.58,5.93-1.58s-3.96,2.77-1.58,3.96c2.37,1.19,5.34-0.59,7.71-2.97
			c2.37-2.37,21.96-14.84,24.33-20.77C589.76,381.41,585.41,369.93,578.68,371.12z"/>
		<path class="st24" d="M594.64,361.36c0,0-27.96-1.05-34.81,1.05c-7.17,2.2,0,8.97,0,8.97s-11.08,13.19-12.13,23.21
			s16.75,27.3,16.75,27.3l33.36,0.66c0,0,17.93-17.93,17.93-27.96s-16.88-26.37-16.88-26.37S604.13,361.89,594.64,361.36z"/>
		<path class="st6" d="M590.95,413.58c-26.9,14.64-34.14-0.15-34.14-0.15c3.93,4.86,7.63,8.46,7.63,8.46l33.36,0.66
			c0,0,17.93-17.93,17.93-27.96s-16.88-26.37-16.88-26.37S617.85,398.95,590.95,413.58z"/>
		<path class="st5" d="M660.44,353.19l-34.15,26.9l-10.81-3.96c0,0-5.54,0-8.18-1.05c-2.64-1.05-4.44,2.98-2.11,4.22
			c1.69,0.9,6.59,2.64,6.59,2.64l5.27,3.69l-4.48,3.43c0,0-9.9,1.35-13.98,1.32c-3.64-0.02-6.16-1.24-7.65,0
			c-3.16,2.64,5.14,4.35,5.14,4.35s-7.65-0.79-8.18,2.9s7.65,4.09,9.23,4.09c1.58,0,7.25,0.26,7.25,0.26s-1.05,0-5.8,0.53
			s-5.54,1.05-5.54,3.69c0,2.64,8.97,1.58,8.97,1.58s-2.64,2.64-1.05,3.69c1.58,1.05,8.97,0,11.6,0c2.64,0,17.41-7.91,17.41-7.91
			l7.91-5.8l22.29-18.73L660.44,353.19z"/>
	</g>
	<g>
		<g class="st14">
			<circle class="st3" cx="589.36" cy="375.8" r="15.82"/>
		</g>
		<path class="st12" d="M587.13,365.39l9.85,9.85c0.45,0.45,0.45,1.19,0,1.65l-9.85,9.85c-0.73,0.73-1.99,0.21-1.99-0.82v-19.69
			C585.14,365.18,586.4,364.66,587.13,365.39z"/>
	</g>
</g>
<g id="screen-baking">
	<polygon class="st23" points="424.79,215.38 547.03,209.98 550.59,332.88 431.91,334.07 	"/>
	<polygon class="st23" points="424.79,215.38 547.03,209.98 550.59,332.88 431.91,334.07 	"/>
	<g>
		<defs>
			<polygon id="SVGID_1_" points="424.79,215.38 547.03,209.98 550.59,332.88 431.91,334.07 			"/>
		</defs>
		<clipPath id="SVGID_2_">
			<use xlink:href="#SVGID_1_"  style="overflow:visible;"/>
		</clipPath>
		<g class="st25">
			<g>
				<g>
					<path class="st26" d="M431.91,334.07l98.8-0.99c1.53-2.01,2.81-4.12,3.81-6.33c10.58-23.52-7.39-54.53-40.13-69.25
						c-24.89-11.19-51.14-9.74-66.95,1.93L431.91,334.07z"/>
					<path class="st17" d="M429.46,293.18l2.45,40.89l98.59-0.99c1.47-1.95,2.71-4,3.67-6.13c-4.26,1.04-19.98,5.54-57.56-9.1
						c-30.86-15.43-11.55-0.07-11.55-0.07C446.58,310.91,435.82,301.79,429.46,293.18z"/>
					
						<ellipse transform="matrix(0.4101 -0.9121 0.9121 0.4101 27.6551 606.3152)" class="st9" cx="482.52" cy="281.78" rx="23.15" ry="48.05"/>
				</g>
				<path class="st24" d="M449.32,288.18c0,0-9.49-9.1,0-18.59s26.11,1.58,26.11,1.58s-1.58-7.12,9.49-4.75
					c11.08,2.37,44.35,27.09,34.81,39.56C509.45,319.43,466.73,304,449.32,288.18z"/>
				<path class="st6" d="M502.33,295.69c0,0-3.16-14.64-11.47-18.2c-8.31-3.56-14.64-0.79-14.64-0.79s13.05-0.79,14.24,5.54
					c1.19,6.33-18.2-1.58-20.18-7.91c0,0-15.43-5.54-19.38,4.75c-3.96,10.29,28.88,32.04,47.87,26.9c0,0-33.63-3.96-39.56-18.99
					C453.27,271.96,502.33,295.69,502.33,295.69z"/>
				<path class="st6" d="M509.45,288.18c0,0,4.75,18.2-6.73,19.38C502.73,307.56,520.53,309.14,509.45,288.18z"/>
			</g>
		</g>
	</g>
</g>
<g id="screen-baking_hand">
	<g>
		<path class="st27" d="M504.34,268.8l-7.22-3.75l21.45-47.2c1.72-3.32,5.82-4.62,9.14-2.89l0,0c3.32,1.72,4.62,5.82,2.89,9.14
			L504.34,268.8z"/>
		<path class="st22" d="M497.13,265.05c0,0-33.38,26.65-13.17,37.14c20.21,10.49,20.39-33.4,20.39-33.4L497.13,265.05z"/>
		<path class="st22" d="M499.26,266.16c0,0-25.96,30.5-15.49,35.94s19.23-34,19.23-34L499.26,266.16z"/>
	</g>
	<path class="st7" d="M513.41,233.45c0.87-1.36,2.9-7.38,2.9-7.38l6.33-4.35l0,15.16c0,0-11.34,12.4-8.18,15.3
		c3.16,2.9,9.23-5.27,12.4-6.07c3.16-0.79,5.27-3.43,7.65-3.43s4.35-1.98,5.93-5.93s2.77-15.03,4.75-19.38
		c0.59-1.3,0.9-4.44,0.51-7.32l-32.87,1.45c-1.64,2.21-3.73,4.75-4.43,5.87c-1.98,3.16-0.4,15.43-1.58,17.8
		C505.63,237.54,511.03,237.14,513.41,233.45z"/>
	<path class="st6" d="M504.66,283.85c0,0-4.46,7.91-5.9,14.03s-2.4-7.65-4.31-7.05c-1.91,0.6-9.18,6.24-9.18,6.24
		s1.26-13.42-3.61-14.21c-4.87-0.79-15.1,0.74-9.67,12.06c5.44,11.32,15.31,12.01,24.38,12.11
		C505.44,307.13,511.24,288.09,504.66,283.85z"/>
</g>
<g id="play_button">
	<g>
		<g class="st14">
			<ellipse class="st3" cx="492.31" cy="269.05" rx="16.35" ry="15.82"/>
		</g>
		<path class="st12" d="M490,258.65l10.17,9.85c0.47,0.45,0.47,1.19,0,1.65L490,279.99c-0.76,0.73-2.05,0.21-2.05-0.82v-19.69
			C487.95,258.43,489.24,257.91,490,258.65z"/>
	</g>
</g>
<g id="screen-plants">
	<polygon class="st4" points="587.78,244.26 587.78,159.6 742.86,157.23 742.86,245.05 	"/>
	<g>
		<path class="st10" d="M675.87,207.87c6.33-4.75,8.44-19.38-14.24-28.48c-6.01-2.41-33.23-8.44-21.1,12.13
			C652.66,212.09,669.54,212.62,675.87,207.87z"/>
		<g>
			<path class="st2" d="M666.1,205.46c0,0-9.65-17.56-26.47-15.99l-6.7,10.72l2.91-9.78c0,0-22.03,7.11-24.36,14.44
				c-2.32,7.32,3.16,13.08,8.88,14.64l3.47-5.2l0.52,7.11c0,0,7.74,3.5,19.33,1l4.02-9.65l-0.21,10.69
				C647.5,223.44,661.31,221.22,666.1,205.46z"/>
			<path class="st10" d="M663.32,205.12c0,0-33.52-7.01-51.84-0.27C611.49,204.84,652.29,203.18,663.32,205.12z"/>
			
				<ellipse transform="matrix(0.7893 -0.614 0.614 0.7893 12.9335 435.27)" class="st10" cx="640.69" cy="198.79" rx="3.16" ry="2.01"/>
			<polygon class="st10" points="654.44,204.01 637.16,217.45 651.06,203.96 			"/>
			<polygon class="st10" points="632.42,202.76 627.98,202.21 625.46,196.82 			"/>
			<polygon class="st10" points="637.23,203.36 628.21,215.39 640.4,203.57 			"/>
		</g>
		<g>
			<path class="st10" d="M666.9,223.69c0,0-2.64-15.56,4.22-27.43c6.86-11.87,15.03-13.71,15.03-13.71l5.8,1.05l-4.22-2.64
				c0,0,16.09-5.27,21.1-2.11c5.01,3.16,3.43,16.35,3.43,16.35l-7.38-3.43l6.59,6.07c0,0-2.64,9.23-7.12,13.98l-6.33-2.37l5.27,4.75
				C703.3,214.2,685.1,228.44,666.9,223.69z"/>
			<path class="st2" d="M708.04,181.23c2.04-1.18-24.79,19.98-35.67,33.03C672.37,214.26,682.46,196,708.04,181.23z"/>
		</g>
		<polygon class="st5" points="688.92,210.11 685.36,244.79 649.49,243.74 644.62,215.65 		"/>
		<polygon class="st6" points="686.47,233.96 685.36,244.79 649.49,243.74 673.23,234.77 671.9,227.58 		"/>
		<g>
			<path class="st2" d="M664.53,209.45c0.79-4.48,1.58-11.08,15.03-10.81s21.36,4.75,24.53,12.92l-2.64,3.43l3.96-0.79
				c0,0,5.01,8.97,1.32,16.35c0,0-16.35,2.64-22.95-1.32c-6.59-3.96-7.12-4.75-7.12-4.75l5.27-6.07l-7.65,4.22
				C674.29,222.64,663.74,213.93,664.53,209.45z"/>
			<path class="st10" d="M703.3,227.12c0,0-20.84-24-37.45-22.42C665.85,204.7,685.89,200.48,703.3,227.12z"/>
			<path class="st10" d="M671.65,204.97l4.48,9.76C676.13,214.73,677.45,208.92,671.65,204.97z"/>
			<path class="st10" d="M682.86,208.53l2.64,0.79c0,0,5.54,10.81,4.48,16.09L682.86,208.53z"/>
			<path class="st10" d="M686.68,210.24c0,0,10.02,0.53,11.6,1.32c0,0-5.27-2.11-14.77-2.11L686.68,210.24z"/>
			<path class="st10" d="M671.91,204.7c0,0,9.49-3.43,15.03-2.64l-13.19,3.43L671.91,204.7z"/>
		</g>
		<g>
			<path class="st10" d="M664.79,211.82c0,0-9.23-3.96-18.46,1.05s-9.23,11.34-9.23,11.34l1.85,3.16l-4.22-1.05
				c0,0,1.32,10.81,7.38,15.3c6.07,4.48,18.46-5.27,18.46-5.27s3.16-2.9,10.02-10.81l-5.8-2.64l6.86,0.79
				C671.65,223.69,674.81,214.2,664.79,211.82z"/>
			<path class="st2" d="M660.57,213.14c0,0-11.6,13.19-13.19,24.79l-1.58-3.96C645.8,233.98,646.07,221.32,660.57,213.14z"/>
		</g>
	</g>
	<g>
		<g class="st14">
			<circle class="st3" cx="664.26" cy="202.33" r="15.82"/>
		</g>
		<path class="st12" d="M662.03,191.92l9.85,9.85c0.45,0.45,0.45,1.19,0,1.65l-9.85,9.85c-0.73,0.73-1.99,0.21-1.99-0.82v-19.69
			C660.04,191.71,661.3,191.19,662.03,191.92z"/>
	</g>
</g>
<g id="online">
	<path class="st11" d="M850.68,284.22H730.99c-4.55,0-8.27-3.62-8.39-8.17l-0.28-10.51c-0.13-4.72,3.67-8.62,8.39-8.62H850.4
		c4.55,0,8.27,3.62,8.39,8.17l0.28,10.51C859.19,280.33,855.4,284.22,850.68,284.22z"/>
	<path class="st12" d="M771.61,281.86h-37.27c-3.76,0-6.84-3-6.94-6.76l-0.23-8.69c-0.1-3.9,3.03-7.13,6.94-7.13
		C734.1,259.28,775.51,281.86,771.61,281.86z"/>
	<g>
		<path class="st28" d="M762.24,273.32c-0.05,1.91-0.7,3.49-1.94,4.75s-2.8,1.88-4.67,1.87c-1.88-0.01-3.42-0.65-4.6-1.93
			c-1.19-1.27-1.76-2.87-1.71-4.77c0.05-1.9,0.7-3.48,1.96-4.75c1.26-1.27,2.82-1.9,4.69-1.88c1.87,0.01,3.4,0.65,4.58,1.92
			C761.72,269.79,762.29,271.39,762.24,273.32z M758.82,273.28c0.03-1.01-0.23-1.82-0.76-2.43c-0.54-0.61-1.27-0.91-2.2-0.92
			c-0.93-0.01-1.67,0.29-2.23,0.89c-0.56,0.6-0.85,1.41-0.88,2.43c-0.03,1.01,0.23,1.83,0.75,2.44c0.53,0.61,1.25,0.92,2.18,0.93
			c0.92,0.01,1.67-0.29,2.24-0.9C758.5,275.1,758.79,274.29,758.82,273.28z"/>
		<path class="st28" d="M764.62,279.51l0.32-12.43l3.29,0.02l-0.05,1.95c0.63-0.81,1.29-1.4,2-1.78c0.71-0.38,1.48-0.57,2.33-0.56
			c0.9,0.01,1.65,0.17,2.25,0.5c0.6,0.33,1.07,0.83,1.41,1.5c0.16,0.35,0.28,0.74,0.34,1.17c0.06,0.44,0.08,1.12,0.06,2.05
			l-0.01,0.39l-0.18,7.26l-3.36-0.02l0.16-6.14c0.04-1.53-0.1-2.54-0.42-3.03c-0.32-0.49-0.88-0.74-1.68-0.75
			c-0.46,0-0.89,0.1-1.29,0.3c-0.39,0.2-0.73,0.5-1,0.87c-0.21,0.29-0.37,0.63-0.47,1.01c-0.1,0.38-0.16,0.96-0.18,1.73l-0.01,0.49
			l-0.14,5.47L764.62,279.51z"/>
		<path class="st28" d="M779.69,279.6l0.5-19.63l3.35,0.02l-0.5,19.63L779.69,279.6z"/>
		<path class="st28" d="M786.58,279.64l0.32-12.43l3.35,0.02l-0.32,12.43L786.58,279.64z M786.73,262.11
			c0.01-0.57,0.22-1.07,0.62-1.48c0.39-0.41,0.86-0.61,1.4-0.61c0.54,0,1,0.21,1.38,0.62c0.38,0.41,0.56,0.91,0.55,1.49
			c-0.01,0.58-0.22,1.08-0.62,1.49c-0.4,0.41-0.87,0.62-1.41,0.61c-0.54,0-0.99-0.22-1.36-0.64
			C786.9,263.17,786.72,262.68,786.73,262.11z"/>
		<path class="st28" d="M793.34,279.68l0.32-12.43l3.29,0.02l-0.05,1.95c0.63-0.81,1.29-1.4,2-1.78c0.71-0.38,1.48-0.57,2.33-0.56
			c0.9,0.01,1.65,0.17,2.25,0.5c0.6,0.33,1.07,0.83,1.41,1.5c0.16,0.35,0.28,0.74,0.34,1.17c0.06,0.44,0.08,1.12,0.06,2.05
			l-0.01,0.39l-0.18,7.26l-3.36-0.02l0.16-6.14c0.04-1.53-0.1-2.54-0.42-3.03s-0.88-0.74-1.68-0.75c-0.46,0-0.89,0.1-1.29,0.3
			c-0.39,0.2-0.73,0.5-1,0.87c-0.21,0.29-0.37,0.63-0.47,1.01c-0.1,0.38-0.16,0.96-0.18,1.73l-0.01,0.49l-0.14,5.47L793.34,279.68z"
			/>
		<path class="st28" d="M819.73,274.52l-8.7-0.05c0.11,0.9,0.4,1.57,0.86,2.01c0.46,0.45,1.1,0.67,1.91,0.68
			c0.61,0,1.15-0.12,1.6-0.37c0.45-0.25,0.83-0.63,1.14-1.15l2.68,1.47c-0.66,1.09-1.44,1.89-2.35,2.41
			c-0.91,0.52-1.98,0.78-3.22,0.77c-1.87-0.01-3.34-0.62-4.4-1.83s-1.57-2.82-1.52-4.85c0.05-1.95,0.66-3.55,1.84-4.8
			c1.18-1.25,2.66-1.87,4.44-1.86c1.84,0.01,3.28,0.61,4.32,1.79c1.04,1.18,1.53,2.79,1.48,4.83c0,0.11-0.01,0.23-0.02,0.36
			C819.78,274.08,819.76,274.27,819.73,274.52z M816.45,272.32c-0.08-0.79-0.32-1.38-0.75-1.78c-0.43-0.4-1.02-0.61-1.77-0.61
			c-0.76,0-1.36,0.19-1.83,0.59c-0.46,0.4-0.77,0.99-0.91,1.77L816.45,272.32z"/>
	</g>
</g>
<g id="start">
	<path class="st11" d="M472.32,433.76h-70.15c-4.14,0-7.53-3.3-7.64-7.44l-0.38-14.38c-0.11-4.3,3.34-7.85,7.64-7.85h70.15
		c4.14,0,7.53,3.3,7.64,7.44l0.38,14.38C480.08,430.21,476.63,433.76,472.32,433.76z"/>
	<path class="st12" d="M438.51,432.7h-34.12c-3.85,0-7-3.07-7.1-6.91l-0.36-13.36c-0.11-4,3.1-7.29,7.1-7.29
		C404.03,405.14,442.5,432.7,438.51,432.7z"/>
	<g>
		<path class="st28" d="M410.72,424.4l2.62-1.42c0.08,0.48,0.3,0.86,0.67,1.14c0.37,0.28,0.84,0.42,1.39,0.43
			c0.55,0,0.99-0.1,1.31-0.31c0.32-0.21,0.48-0.51,0.49-0.89c0.02-0.6-0.53-1.1-1.64-1.52c-0.34-0.13-0.62-0.24-0.82-0.32
			c-1.35-0.56-2.28-1.12-2.78-1.68c-0.51-0.56-0.75-1.25-0.73-2.07c0.03-1.22,0.5-2.2,1.41-2.94c0.91-0.75,2.09-1.12,3.54-1.11
			c1.04,0.01,1.93,0.24,2.68,0.69c0.75,0.45,1.28,1.09,1.61,1.91l-2.5,1.3c-0.12-0.47-0.35-0.82-0.67-1.06
			c-0.32-0.24-0.73-0.37-1.23-0.37c-0.5,0-0.9,0.1-1.21,0.32c-0.31,0.22-0.47,0.5-0.48,0.86c-0.02,0.62,0.73,1.2,2.25,1.74
			c0.18,0.06,0.32,0.11,0.41,0.14c1.25,0.46,2.14,0.98,2.66,1.58c0.52,0.6,0.77,1.36,0.74,2.28c-0.03,1.23-0.5,2.21-1.41,2.93
			c-0.91,0.72-2.12,1.08-3.63,1.07c-1.2-0.01-2.21-0.25-3.04-0.73S410.98,425.23,410.72,424.4z"/>
		<path class="st28" d="M423.23,426.65l0.24-9.6l-1.62-0.01l0.07-2.82l1.62,0.01l0.1-4.13l3.36,0.02l-0.1,4.13l1.62,0.01l-0.07,2.82
			l-1.62-0.01l-0.24,9.6L423.23,426.65z"/>
		<path class="st28" d="M441.89,426.77l-3.26-0.02l0.09-1.79c-0.48,0.78-1.04,1.36-1.69,1.72c-0.65,0.36-1.44,0.54-2.36,0.54
			c-1.53-0.01-2.76-0.63-3.67-1.86c-0.91-1.23-1.34-2.85-1.29-4.86c0.05-2.09,0.56-3.72,1.51-4.89c0.95-1.16,2.25-1.74,3.9-1.73
			c0.86,0.01,1.61,0.22,2.25,0.63c0.64,0.42,1.17,1.04,1.59,1.86l0.05-2.05l3.19,0.02L441.89,426.77z M438.98,420.52
			c0.03-1.11-0.21-2-0.72-2.65c-0.51-0.65-1.2-0.98-2.09-0.99c-0.91-0.01-1.64,0.31-2.18,0.96c-0.54,0.64-0.82,1.53-0.85,2.65
			c-0.03,1.12,0.21,2,0.71,2.63c0.5,0.63,1.21,0.94,2.12,0.95c0.93,0.01,1.66-0.3,2.18-0.92
			C438.67,422.51,438.95,421.64,438.98,420.52z"/>
		<path class="st28" d="M448.53,417.57c0.37-1.2,0.88-2.11,1.53-2.7s1.44-0.89,2.38-0.89c0.21,0,0.56,0.05,1.05,0.13
			c0.09,0.02,0.17,0.03,0.21,0.04l-0.61,3.87c-0.25-0.11-0.5-0.2-0.76-0.25c-0.25-0.06-0.52-0.09-0.81-0.09
			c-1.02-0.01-1.77,0.27-2.23,0.83c-0.46,0.56-0.71,1.5-0.74,2.81l-0.14,5.47l-3.36-0.02l0.32-12.43l3.32,0.02L448.53,417.57z"/>
		<path class="st28" d="M455.31,426.85l0.24-9.6l-1.62-0.01l0.07-2.82l1.62,0.01l0.1-4.13l3.36,0.02l-0.1,4.13l1.62,0.01l-0.07,2.82
			l-1.62-0.01l-0.24,9.6L455.31,426.85z"/>
	</g>
</g>
<g id="sign_up">
	<path class="st11" d="M508.07,184.83l-0.39-10.27c-0.49-12.9-10.56-22.99-22.58-22.65l-90.67,2.54
		c-12.95,0.36-23.7,11.78-23.73,25.43l-0.02,8.23c-0.03,13.23,9.93,23.55,22.55,23.33l92.94-1.65
		C498.72,209.58,508.57,198.23,508.07,184.83z"/>
	<path class="st12" d="M396.28,157.3c-11.86,0.33-21.67,10.51-21.65,22.66l0.01,7.32c0.02,11.75,9.14,20.92,20.66,20.73l62.95-1.42
		C469.91,206.41,396.28,157.3,396.28,157.3z"/>
	<g>
		<path class="st28" d="M390.86,191.58l2.12-2.69c0.26,0.71,0.67,1.27,1.25,1.67c0.58,0.4,1.23,0.59,1.96,0.57
			c0.88-0.02,1.58-0.27,2.09-0.75c0.51-0.48,0.77-1.1,0.78-1.88c0.01-0.92-0.83-1.81-2.52-2.68c-0.55-0.28-0.98-0.51-1.3-0.68
			c-1.52-0.85-2.57-1.68-3.16-2.51c-0.58-0.83-0.86-1.82-0.85-2.99c0.02-1.59,0.6-2.91,1.76-3.96c1.15-1.05,2.63-1.59,4.45-1.63
			c1.05-0.02,1.96,0.16,2.72,0.55c0.76,0.39,1.43,1.01,2.01,1.86l-2.21,2.38c-0.26-0.56-0.6-0.97-1.03-1.23
			c-0.43-0.27-0.95-0.39-1.56-0.38c-0.74,0.02-1.34,0.24-1.79,0.66c-0.46,0.42-0.69,0.95-0.69,1.61c-0.01,1.02,0.88,1.93,2.67,2.73
			c0.36,0.16,0.63,0.28,0.82,0.38c1.47,0.71,2.56,1.53,3.27,2.46c0.71,0.93,1.05,2,1.05,3.21c-0.01,1.83-0.58,3.3-1.7,4.42
			c-1.13,1.12-2.64,1.71-4.53,1.76c-1.34,0.04-2.5-0.19-3.45-0.68C392.03,193.27,391.32,192.54,390.86,191.58z"/>
		<path class="st28" d="M405.78,193.65l0.08-19.35l3.7-0.08l-0.05,19.32L405.78,193.65z"/>
		<path class="st28" d="M422.07,182.99l7.84-0.2c0.02,0.11,0.03,0.24,0.03,0.37c0,0.13,0.01,0.33,0.01,0.6
			c0.02,2.88-0.7,5.24-2.17,7.08c-1.47,1.84-3.38,2.8-5.73,2.86c-2.69,0.08-4.91-0.82-6.66-2.7c-1.75-1.88-2.62-4.29-2.61-7.24
			c0-2.92,0.88-5.34,2.63-7.28c1.74-1.93,3.94-2.93,6.59-2.99c1.4-0.03,2.68,0.26,3.85,0.89c1.17,0.62,2.21,1.57,3.13,2.85
			l-2.46,2.1c-0.62-0.84-1.27-1.44-1.96-1.8c-0.68-0.36-1.47-0.53-2.36-0.51c-1.7,0.04-3.06,0.66-4.08,1.86
			c-1.02,1.21-1.53,2.8-1.53,4.78c0,1.95,0.52,3.52,1.55,4.69c1.03,1.18,2.37,1.74,4.03,1.7c1.21-0.03,2.19-0.38,2.95-1.04
			c0.75-0.66,1.12-1.5,1.12-2.53l0-0.21l-4.15,0.11L422.07,182.99z"/>
		<path class="st28" d="M432.93,192.89l-0.15-19.2l3.78-0.09l7.67,10.92c0.22,0.31,0.47,0.75,0.73,1.31c0.27,0.57,0.55,1.23,0.84,2
			c-0.09-0.57-0.16-1.13-0.21-1.69c-0.05-0.56-0.08-1.26-0.09-2.09l-0.15-10.66l3.46-0.08l0.29,19.11l-3.58,0.1l-7.91-11.19
			c-0.22-0.31-0.46-0.74-0.73-1.31c-0.26-0.56-0.54-1.24-0.84-2.02c0.09,0.55,0.16,1.1,0.2,1.66c0.04,0.56,0.07,1.27,0.08,2.12
			l0.11,10.99L432.93,192.89z"/>
		<path class="st28" d="M474.21,172.74l0.32,11.76c0.07,2.58-0.48,4.53-1.65,5.84c-1.17,1.31-2.97,2.01-5.4,2.08
			c-2.47,0.07-4.33-0.52-5.56-1.77c-1.24-1.25-1.88-3.17-1.93-5.77l-0.24-11.81l3.57-0.08l0.25,11.16c0.03,1.57,0.37,2.75,1,3.53
			c0.63,0.78,1.56,1.15,2.78,1.12c1.23-0.03,2.15-0.46,2.76-1.28c0.61-0.82,0.89-2,0.85-3.56l-0.28-11.14L474.21,172.74z"/>
		<path class="st28" d="M478.44,191.6l-0.54-18.94l4.09-0.09c2.18-0.05,3.8,0.38,4.87,1.3c1.07,0.92,1.63,2.36,1.7,4.33
			c0.06,1.83-0.41,3.28-1.43,4.34c-1.02,1.07-2.45,1.63-4.31,1.68l-0.98,0.03l0.22,7.27L478.44,191.6z M481.73,181.08l0.51-0.01
			c0.97-0.02,1.67-0.27,2.09-0.74c0.43-0.47,0.62-1.2,0.59-2.21c-0.03-0.93-0.27-1.6-0.72-2.01c-0.45-0.41-1.16-0.61-2.13-0.59
			l-0.51,0.01L481.73,181.08z"/>
	</g>
</g>
<g id="light">
	<linearGradient id="SVGID_3_" gradientUnits="userSpaceOnUse" x1="614.2161" y1="522.3846" x2="620.9498" y2="766.1431">
		<stop  offset="0.2271" style="stop-color:#FFFFFF"/>
		<stop  offset="1" style="stop-color:#FEED7F"/>
	</linearGradient>
	<polyline class="st29" points="788.75,563.91 627.34,726.9 614.68,734.81 442.2,571.82 	"/>
</g>
<g id="stand">
	<g>
		<polygon class="st24" points="595.23,952.3 588.88,806.89 580.17,778.16 582.39,754.47 619.2,739.64 647.2,757.82 648.42,946.23 
			630.72,956.83 		"/>
		<polygon class="st21" points="629.55,956.4 635.59,855.12 629.92,869.74 620.99,829.4 619.2,739.64 647.2,757.82 648.42,946.23 
			630.72,956.83 		"/>
		<polygon class="st21" points="596.19,749.31 600.65,747.47 604.43,788.05 605.58,833.2 		"/>
		<polygon class="st21" points="601,827.01 601.73,858.69 603.33,877.46 606.49,858.02 		"/>
		<path class="st21" d="M610.8,786.91c-0.11,3.95-1.86,39.52-1.86,39.52l2.22,34.89L610.8,786.91z"/>
		<polygon class="st21" points="630.59,956.69 626.04,954.52 630.08,951.27 		"/>
		<path class="st21" d="M626.05,856.97c5.06,8.05,4.25,96.15,4.25,96.15L626.05,856.97z"/>
		<polygon class="st24" points="632.68,748.45 638.4,751.77 639.76,779.25 634.98,819.22 		"/>
		<path class="st21" d="M599.28,948.85l-0.22-50.27c0,0,2.8,13.53,3.86,18.31C603.97,921.67,599.28,948.85,599.28,948.85z"/>
		<path class="st21" d="M595.23,952.3c-0.46,1.92-2.88-68.94-2.88-68.94S600.59,929.89,595.23,952.3z"/>
	</g>
	<g>
		<path class="st2" d="M536.75,938.95c0,0-4.75-20.18-22.55-24.92c-17.8-4.75-3.56,9.49-3.56,9.49s-22.55-8.31-29.67-7.12
			c-7.12,1.19,15.43,13.05,15.43,13.05s-36.79,0-23.74,5.93C485.71,941.32,536.75,938.95,536.75,938.95z"/>
		<path class="st2" d="M532.4,938.95c-10.29-1.98-9.89-39.16,5.54-47.47c15.43-8.31,5.93,14.24,5.93,14.24s26.11-9.49,24.92,2.37
			c-1.19,11.87-14.24,14.24-14.24,14.24s16.62-5.93,12.26,4.35C562.46,936.97,542.68,940.92,532.4,938.95z"/>
	</g>
	<path class="st10" d="M581.45,943.69c0,0-12.66-39.61-4.75-46.37c7.91-6.76,17.41,28.98,18.99,32.85
		c1.58,3.86,7.91-24.15,17.41-22.22s-14.24,36.71-14.24,36.71s17.41-18.36,22.15-14.49c4.75,3.86-34.81,28.02-34.81,28.02
		s-50.64-24.15-47.47-31.88s28.48,18.36,28.48,18.36s-23.74-24.15-12.66-31.88C565.63,905.05,581.45,943.69,581.45,943.69z"/>
	<g>
		<path class="st10" d="M187.93,953.18c21.42-0.48,0.67-37.99-8.86-48.02c-9.54-10.03-1.76,24.14-1.76,24.14
			s-3.83-30.62-20.92-26.73c-17.09,3.89,11.52,33.98,11.52,33.98s-32.53-11.48-42.13-7.98s28.47,12.81,28.47,12.81
			s-18.3-5.07-19.69,4.4S166.51,953.66,187.93,953.18z"/>
		<path class="st10" d="M184.21,953.21c0,0,52.79-3.85,48.66-11.15c-4.13-7.3-33.83,0.58-33.83,0.58s27.9-28.08,20.21-31.45
			C211.56,907.83,184.21,953.21,184.21,953.21z"/>
	</g>
	<path class="st2" d="M158.02,965.58c0,0,10.85-29.58-5.12-33.21s-0.88,28.07-0.88,28.07s-18.11-28.07-29.19-14.79
		C111.74,958.94,158.02,965.58,158.02,965.58z"/>
	<g>
		<path class="st2" d="M789.13,954.77c0,0,1.47-3.85,3.67-8.98c4.91-11.44,13.46-29.22,17.43-24.59c5.75,6.71-8.63,19.18-8.63,19.18
			s24.93-23.98,23.98-8.63C824.61,947.1,789.13,954.77,789.13,954.77z"/>
		<path class="st2" d="M781.45,915.45c-10.55,3.84,7.67,39.32,7.67,39.32S792,911.61,781.45,915.45z"/>
	</g>
	<path class="st1" d="M193.76,962.68c-38.77,2.37-47.47,15.82-7.91,15.82S232.53,960.31,193.76,962.68z"/>
	<path class="st1" d="M229.97,956.35c-7.43,0-22.29,8.49,1.06,7.43C254.38,962.72,237.4,956.35,229.97,956.35z"/>
</g>
<g id="STONE">
	<polygon class="st15" points="604.13,723.21 602.55,689.45 613.1,677.32 626.29,688.92 627.34,722.68 616.79,734.29 	"/>
	<polygon class="st30" points="604.13,723.21 602.55,689.45 613.89,697.23 626.29,688.92 627.34,722.68 616.79,734.29 	"/>
	<polygon class="st15" points="614.68,718.2 604.13,707.65 613.89,697.23 	"/>
</g>
<g id="shine">
	<polygon class="st31" points="589.85,731.98 586.26,724.95 589.85,718.98 593.44,724.95 	"/>
	<polygon class="st31" points="590.3,692.75 588.25,688.75 590.3,685.35 592.34,688.75 	"/>
	<polygon class="st31" points="637.6,743.41 635.56,739.41 637.6,736.01 639.64,739.41 	"/>
	<polygon class="st31" points="622.61,674 620.56,670 622.61,666.6 624.65,670 	"/>
	<polygon class="st31" points="580.44,719.98 578.39,715.99 580.44,712.59 582.48,715.99 	"/>
	<polygon class="st31" points="637.63,677.81 633.6,669.93 637.63,663.24 641.65,669.93 	"/>
</g>
<g id="legs">
	<g>
		<g>
			<path class="st12" d="M326.07,949.21c0,0,7.27-1.5,18.01,1.49c10.7,2.98,8.89,11.85,8.08,14.06c-0.81,2.2-10.26,6.58-30.92,5.13
				c-20.69-1.46-21.2-2.76-32.84-2.19c-12.65,0.61-7.1-20.73-3.46-27.49C288.6,933.38,326.07,949.21,326.07,949.21z"/>
			<path class="st19" d="M324.83,938.72c0,0,6.24-1.66,17.04,1.37c10.77,3.01,11.29,17.56,10.48,19.77
				c-0.81,2.21-10.29,6.62-31.01,5.15c-20.75-1.47-26.8-0.38-38.33-2.15c-6.36-0.98-1.72-20.9,1.93-27.7
				C288.63,928.31,324.83,938.72,324.83,938.72z"/>
			<path class="st16" d="M324.83,938.72c0,0,6.24-1.66,17.04,1.37c10.77,3.01,11.29,17.56,10.48,19.77
				c-0.81,2.21-10.29,6.62-31.01,5.15c-20.75-1.47,33.03-3,26.7-15.26C341.71,937.49,324.83,938.72,324.83,938.72z"/>
			<path class="st32" d="M321.88,937.45c0,0,4.28-0.26,3.13,8.26"/>
			<path class="st32" d="M328.71,937.66c0,0,5.16,0,3.65,7.97"/>
		</g>
		<g>
			<path class="st16" d="M322.56,688.92c0,0,5.1,40.18,5.89,57.73s-2.85,57.74-2.85,57.74s-1.66,123.96-4.16,134.06
				c0,0-15,3.52-31.62,2.81c0,0-5.02-54.77-5.97-88.22c-0.94-33.45-9.78-128.79-7.14-149.21S312.8,656.26,322.56,688.92z"/>
			<path class="st18" d="M328.45,746.66c0.79,17.55-2.85,57.74-2.85,57.74s-1.58,90.96-3.6,124.3c-0.09,1.51,0.52,6.91,0.43,8.17
				c-0.27,3.61-11.15-2.39-10.62-10.99c1.15-18.4,2.85-50.91,2.21-73.7C313.08,818.72,327.65,729.11,328.45,746.66z"/>
		</g>
	</g>
	<g>
		<path class="st12" d="M266.98,985.13c0,0-8.42-0.79-8.56,3.96c-0.25,8.36,0.93,9.07,10.51,9.98c12.23,1.17,17.51-3.93,30.07-1.98
			c22.95,3.56,28.52,1.32,40.35-2.37c2.1-0.66,5.73-11.83,1.98-13.05C323.39,975.83,266.98,985.13,266.98,985.13z"/>
		<path class="st19" d="M261.62,961.75c0,0-8.37,10.76-3.71,26.54c1.35,4.55,3.66,5.98,13.28,5.68c12.94-0.4,16.72-2.39,29.37-1.22
			c21.36,1.98,26.9,2.77,37.98-1.58c8.91-3.5,4.45-25.44-9.1-26.9c-5.52-0.6-21.21-0.55-29.14,0.51
			c-14.31,1.92-19.05-0.38-19.05-0.38L261.62,961.75z"/>
		<path class="st32" d="M309.69,961.93c0,0,5.13,1.9,3.98,9.39"/>
		<path class="st32" d="M316.81,962.15c0,0,6.05,2.13,4.52,9.15"/>
	</g>
	<path class="st16" d="M249.49,704.75c-1.9,1.47-14.83,25.32,12.6,33.23s74.88,7.91,74.88-27.69
		C336.97,674.68,273.95,685.76,249.49,704.75z"/>
	<g>
		<path class="st16" d="M243.34,704.22c0,0,3.16,25.45,7.91,41.67c4.76,16.22,3.08,62.51,3.08,64.09s-2.36,78.33,4.3,112.35
			c0.79,9.86,0.93,19.55,1.13,30c0.04,2.07-1.42,6.57-1.39,8.31c0.08,5.33,1.58,6.26,1.58,6.26s21.3-3.89,46.88-1.38
			c0,0,0.72-89.94,2.84-107.27c3.33-27.3,2.77-96.13,7.52-135.3C321.93,683.78,261.41,664.26,243.34,704.22z"/>
		<path class="st18" d="M281.85,782.81c-5.63,15.94,5.47,83.08,12.13,117.1c1.43,17.8-34.02,66.99-34.02,66.99
			s19.71-2.31,44.31-0.79c0,0,4.79,0.01,4.75-5.54c-0.02-2.16-2.32-5.29-2.37-8.11c-0.49-28.27,1.47-81.44,3.03-94.22
			c2.62-21.52,3.89-68.55,5.14-106.81C315.15,741.15,291.34,755.91,281.85,782.81z"/>
	</g>
</g>
<g id="torso">
	<polygon class="st7" points="298.53,513.05 296.09,543.87 262.85,537.35 264.4,511.05 	"/>
	<path class="st23" d="M302.15,542.15c0,0,14.24,8.31,23.74,47.08c2.22,9.06,2.28,23.78,4.75,34.02
		c8.11,33.6,18.73,65.35,18.73,82.02l-49.58,5.8C299.78,711.08,328.66,617.71,302.15,542.15z"/>
	<path class="st3" d="M346.46,711.87c7.12,1.19,5.67,13.38-1.19,16.62c-6.85,3.24-27.69,9.49-58.15,5.54s-45.39-9.88-51.43-12.66
		c-6.23-0.84-8.1-14.38-3.56-16.22c4.54-1.84,34.59,13.1,65.67,14.24C329.04,720.53,339.34,710.68,346.46,711.87z"/>
	<path class="st11" d="M307.69,547.3c-8.7-7.12-11.36-13.12-36-11.47c-33.04,2.2-30.77,20.12-30.77,20.12s-17.1,19.57-10.77,55.44
		c7.67,43.45,1.36,43.62-1.11,64.98s-0.08,24.03-0.08,24.03s71.45,24.71,79.25,24.92s35.44-1.61,40.22-7.52
		c5.28-6.52,7.65-25.98-2.24-41.01c-4.48-6.81-9.31-12.23-10.42-19.12c-0.7-4.35-16.22-44.7-16.22-44.7l-2.37-41.93
		C317.19,571.03,312.11,550.91,307.69,547.3z"/>
	<path class="st27" d="M305.71,567.87c1.45-18.73-26.51-31.25-34.02-32.04c-32.93-3.47-30.77,20.12-30.77,20.12
		s-17.1,19.57-10.77,55.44c7.67,43.45,1.36,43.62-1.11,64.98s-0.08,24.03-0.08,24.03s-0.35,15.13,27.3,19.38
		c30.86,4.75,42.05,4.79,49.85,5.01c4.14,0.11-39.56-7.38-43.91-18.07c-4.35-10.68,42.33,1.98,58.68-52.62
		c1.03-3.97,1.92-8.22,2.69-12.63c0.69-3.92-29.77-19.29-28.54-23.23C306.11,582.9,304.74,580.47,305.71,567.87z"/>
	<path class="st3" d="M269.05,527.71c-14.08,0.69-8.55,12.05,3.43,11.87c17.14-0.26,37.19,9.69,41.54,18.4
		S312.18,525.6,269.05,527.71z"/>
</g>
<g id="head">
	<path class="st7" d="M250.03,461.07c0,0,33.19-25.47,47.68-7.01c14.49,18.45,17.4,44.06,18.07,51.02
		c0.67,6.97-9.62,10.17-23.21,14.08c-13.59,3.91-23.49,4.19-31.06-9.44S237.51,467.18,250.03,461.07z"/>
	<path class="st8" d="M266.71,470.78c0,0,21.2-26.15,31.82-12.64c10.61,13.51,16.39,33.59,16.39,46.7c0,3.28-3.98,6.15-13.93,9.01
		c-9.95,2.86-13.3-1.49-18.85-11.47C276.6,492.42,257.55,475.26,266.71,470.78z"/>
	<path class="st18" d="M252.12,476.76c0,0,30.08-3.92,43.01-17.69c12.41-13.22,6-17.14-7.31-18.99
		c-13.31-1.85-24.43,2.76-34.84,14.53C242.58,466.38,242.39,479.85,252.12,476.76z"/>
	<path class="st17" d="M286.12,448.43c0,0-4.14,24.25,7.91,10.12c12.06-14.13,6.62-15.97-6.38-17.1
		C278.01,441.39,278.97,442.25,286.12,448.43z"/>
	<path class="st18" d="M287.88,463.06l4.92,21.3l-6.55,4.1c0,0-0.08,27.97-6.55,35.23c-2.5,3.26-12.89,4.89-19.66,4.1
		s-19.18-14.93-22.94-27.04c-3.76-12.11-7.03-18.7,9.42-35.25C270.33,441.55,287.88,463.06,287.88,463.06z"/>
	<path class="st8" d="M288.73,486.27c0,0-0.06-7.89-10.68-6s-2.14,12.86,2.46,17.21s10.58,3.3,11.43,0.42
		C292.79,495.02,288.73,486.27,288.73,486.27z"/>
	<path class="st33" d="M300.38,475.48c0.24,1.98,1.28,2.73,2.27,2.6s1.55-1.07,1.31-3.04c-0.24-1.98-1.24-3.48-2.23-3.36
		S300.13,473.51,300.38,475.48z"/>
	<path class="st34" d="M296.57,469.51c0,0,1.28-3.8,4.57-3.44"/>
</g>
<g id="hoodie">
	<g>
		<path class="st11" d="M270.51,531.47c0,0-8.31-2.64-36.4,4.48c-30.76,7.8-37.71,10.55-34.55,15.3s0.53,21.1,4.48,28.75
			c3.96,7.65,13.98,17.67,25.05,17.67c11.08,0,49.05-31.65,58.55-43.78C297.14,541.76,298.2,540.18,270.51,531.47z"/>
		<path class="st27" d="M225.93,589.76c-8.97-15.3-2.64-39.56,8.18-53.8c-30.76,7.8-37.71,10.55-34.55,15.3s0.53,21.1,4.48,28.75
			c3.96,7.65,13.98,17.67,25.05,17.67c11.08,0,49.05-31.65,58.55-43.78C297.14,541.76,234.9,605.05,225.93,589.76z"/>
		<path class="st3" d="M292.79,543.08c6.2,0.92,4.75-13.98-16.88-15.03s-21.63,3.82-51.03,5.01c-19.24,0.78-27.69,9.23-27.69,16.35
			c0,7.12,20.18-0.92,34.55-3.43c27.16-4.75,27.16-6.59,42.46-6.07C289.49,540.44,286.59,542.15,292.79,543.08z"/>
	</g>
</g>
<g id="right_arm">
	<g>
		<path class="st18" d="M226.99,635.52l22.85-54.59c0,0,5.48-20.6,9.57-24.59c8.81-8.6,33.96-19.05,44.84-6.36
			c7.77,9.06,2.94,24.58-10.09,42.23c-13.03,17.65-21.26,47.54-41.45,58.74C232.51,662.14,227.05,646.28,226.99,635.52z"/>
		<path class="st16" d="M226.99,635.52c0,0,2.6-24.49,17.27-46.31c6.44-9.57,11.06-28.88,15.14-32.87
			c8.81-8.6,34.63-19.59,44.84-6.36c0,0-16.78-2.62-24.25,3.9c-4.1,3.58-6.7,28.7-6.7,28.7s-18.86,19.93-19.93,33.56
			c-0.64,8.16,16.83,10.62,15.82,14.77c-3.76,15.48-8.68,15.72-16.48,20.04C232.51,662.14,227.05,646.28,226.99,635.52z"/>
	</g>
</g>
<g id="right_forearm">
	<g>
		<path class="st7" d="M317.98,695.45c0,0,0,5.47,3.96,6.66c3.96,1.19,11.47-17.74,9.89-20.51c-1.58-2.77-12.66-7.91-13.85-7.91
			C316.79,673.69,308.48,687.14,317.98,695.45z"/>
		<path class="st3" d="M315.29,669.7c-0.29-1.77,7.93,1.44,8.78,6.74c0.86,5.3-1.88,14.8-6.45,18.26
			c-4.57,3.46-15.16-3.89-15.16-3.89S316.14,675,315.29,669.7z"/>
		<path class="st11" d="M318.88,677.68c0,0,3.17-5.72-1.12-11.97s-4.86-6.84-22.01-14.66c-19.91-9.09-17.96-8.73-17.67-8.9
			c0,0-3.34-4.97-13.69-11.15c-10.35-6.18-35.06-12.04-37.4,2.15c-2.34,14.18,3.77,17.7,18.99,30.86
			c15.22,13.16,33.98,26.04,33.98,26.04s10.94,6.91,22.37,6.8S318.88,677.68,318.88,677.68z"/>
		<path class="st11" d="M318.88,677.68c0,0,3.17-5.72-1.12-11.97s-5.34-5.87-22.01-14.66c-12.19-6.43-16.54-5.64-16.54-5.64
			s-9.49-11.47-14.82-14.41c-10.56-5.82-35.06-12.04-37.4,2.15c-2.34,14.18,3.77,17.7,18.99,30.86
			c15.22,13.16,33.98,26.04,33.98,26.04s10.94,6.91,22.37,6.8S318.88,677.68,318.88,677.68z"/>
		<path class="st27" d="M318.88,677.68c0,0-4.13,4.04-8.42-2.2s-17.8,8.09-34.95,0.26c-12.85-5.86-33.8-29.96-33.76-41.14
			c0.02-6.15,19.86-4.05,18.07-5.6c-8.51-5.34-30.5-10.03-32.84,4.15c-2.34,14.18,3.77,17.7,18.99,30.86
			c15.22,13.16,33.98,26.04,33.98,26.04s10.94,6.91,22.37,6.8S318.88,677.68,318.88,677.68z"/>
	</g>
</g>
<g id="pocket">
	<path class="st3" d="M329.2,672.26l6.29,2.93c0,0-4.56,28.89-20.09,33.16l-5.72-1.12C309.68,707.23,331.43,691.04,329.2,672.26z"/>
	<path class="st27" d="M308.75,707.38c0,0,11.6,20.04,34.81,10.55L308.75,707.38z"/>
</g>
</svg>
