<svg width="1600" height="1200" viewBox="0 0 1600 1200" fill="none" xmlns="http://www.w3.org/2000/svg">
<path d="M574.699 173.2C574.799 181.1 574.999 192.9 575.299 207.2C576.099 253.2 576.799 286.6 577.799 317.2C578.599 342.6 580.199 378 583.099 421C600.599 421.7 667.699 426.3 714.499 479.1C729.499 496 738.699 513.6 744.299 528.1C744.999 529.5 761.599 564.1 799.999 567.7C825.099 570 849.499 558.2 863.399 537C877.599 533.7 898.399 527.1 919.899 512.6C929.699 506 949.999 492.1 965.199 467.1C978.499 445.2 981.999 424.7 984.299 408.1C993.499 341.1 990.599 287.5 990.199 232.3C989.999 210.7 990.199 177.9 991.999 137.3C962.199 121 875.699 78.7 761.699 93.4C666.699 105.8 601.899 151.4 574.699 173.2Z" fill="white"/>
<path d="M991.4 145.6C991 178.9 990.4 220.3 989.5 267.8C987 401.4 985.2 424.4 974.4 449.3C965.6 469.7 939.9 516.5 863.3 537C863.3 564.2 863.3 591.4 863.3 618.6C878.4 627.9 899.6 641.8 923.6 660.5C962.5 690.8 989.7 718.8 995.8 725.6C1063.5 800.4 1028.2 999 1025.7 1012.9C1000.6 1035 966.9 1058.1 923.7 1072.9C761.9 1128.6 609.5 1020.4 588.5 1005" fill="white"/>
<path d="M991.4 145.6C991 178.9 990.4 220.3 989.5 267.8C987 401.4 985.2 424.4 974.4 449.3C965.6 469.7 939.9 516.5 863.3 537C863.3 564.2 863.3 591.4 863.3 618.6C878.4 627.9 899.6 641.8 923.6 660.5C962.5 690.8 989.7 718.8 995.8 725.6C1063.5 800.4 1028.2 999 1025.7 1012.9C1000.6 1035 966.9 1058.1 923.7 1072.9C761.9 1128.6 609.5 1020.4 588.5 1005" stroke="black" stroke-width="3" stroke-miterlimit="10"/>
<path d="M574.7 173.2C575.2 205.3 576 245.2 577.1 291C580.2 419.7 582.5 441.9 596.1 465.9C607.3 485.6 639.7 530.6 736.5 550.4C736.5 576.6 736.5 602.8 736.5 629C717 637.4 690.2 650.3 660.3 669.4C660.3 669.4 625.6 691.6 601.1 713.3C555 754.2 532.9 871.3 544.9 1013.3C571 1029.5 610 1050.5 660.3 1066.8C710.1 1083 785 1107.3 874.7 1087.1C904.6 1080.4 958.5 1063.7 1014.9 1017.2" fill="white"/>
<path d="M574.7 173.2C575.2 205.3 576 245.2 577.1 291C580.2 419.7 582.5 441.9 596.1 465.9C607.3 485.6 639.7 530.6 736.5 550.4C736.5 576.6 736.5 602.8 736.5 629C717 637.4 690.2 650.3 660.3 669.4C660.3 669.4 625.6 691.6 601.1 713.3C555 754.2 532.9 871.3 544.9 1013.3C571 1029.5 610 1050.5 660.3 1066.8C710.1 1083 785 1107.3 874.7 1087.1C904.6 1080.4 958.5 1063.7 1014.9 1017.2" stroke="black" stroke-width="3" stroke-miterlimit="10"/>
<path d="M574.699 173.2C585.199 166.1 601.599 156 622.799 146.3C715.299 104 804.699 113.7 864.399 121C895.899 124.8 939.999 132.6 991.399 150C991.799 141.3 992.099 132.7 992.499 124C930.699 104.4 877.799 97.7 840.999 95.3C785.699 91.7 711.099 87.6 629.099 122.8C605.199 133.1 586.699 144.1 574.799 151.8C574.699 158.9 574.699 166 574.699 173.2Z" fill="black" stroke="black" stroke-width="3" stroke-miterlimit="10"/>
<path d="M544.9 1013.3C544.6 1022.6 544.3 1031.9 544 1041.2C557.9 1052.4 577.9 1066.8 603.6 1080.6C694.1 1129.1 779.6 1128.4 804.9 1127.5C917.5 1123.3 995.9 1071.5 1024.9 1050.1C1025.4 1036.1 1026 1022 1026.5 1008C1007.6 1025.4 988.4 1038.7 970 1049C799.7 1143.7 586.9 1035.6 544.9 1013.3Z" fill="black" stroke="black" stroke-width="3" stroke-miterlimit="10"/>
<path d="M631.401 504.3C634.401 495.6 645.301 501.3 650.301 504.1C655.801 507.1 661.101 508.7 667.301 508.5C673.701 508.3 680.001 506.7 686.501 506.3C690.001 506.1 693.601 506.1 697.001 507C700.401 507.9 703.301 509.7 706.601 510.9C717.301 514.8 725.301 507.4 733.801 502C739.901 498.2 746.001 496.6 753.101 498.8C760.201 501 766.001 505.8 772.601 509.1C780.601 513.2 791.601 516.2 799.301 510C802.901 507.1 804.701 502.8 806.801 498.8C807.901 496.6 809.001 494.2 810.801 492.5C814.301 489.1 818.501 490.4 822.801 490.6C832.901 491.1 839.101 482.9 847.201 478.4C858.201 472.3 865.901 481.3 873.101 488.7C878.901 494.6 886.101 500.5 894.701 496.1C901.201 492.8 905.101 486.7 913.101 486.9C920.201 487.1 926.501 491.2 929.401 497.6C930.201 499.4 932.801 497.8 932.001 496.1C928.101 487.3 917.901 482.3 908.501 484.3C902.501 485.6 899.101 490.3 893.901 493.1C888.201 496.1 883.201 493.9 878.801 489.9C872.301 484.2 866.901 475.3 857.801 473.4C847.401 471.2 840.301 480.6 832.201 485.2C829.501 486.7 826.801 487.6 823.801 487.6C820.301 487.6 816.901 486.5 813.501 487.5C809.501 488.7 807.001 492.2 805.101 495.7C802.101 501.2 800.001 507.9 793.301 509.9C786.501 511.9 778.901 509.1 773.001 505.9C762.401 500.1 751.401 491.3 738.701 496.2C733.301 498.3 728.801 502.1 723.901 505.2C721.501 506.7 718.901 508.1 716.101 508.8C711.501 509.9 707.601 508.2 703.401 506.3C696.601 503.2 690.001 502.8 682.601 503.8C674.701 504.8 666.401 506.9 658.601 504.6C651.901 502.6 646.501 496.8 639.301 496.8C634.601 496.8 630.301 499 628.701 503.5C627.901 505.4 630.801 506.1 631.401 504.3Z" fill="black"/>
<path d="M736.401 553.5C742.701 553.7 749.001 554 755.301 554.2C759.401 554.4 764.201 553.9 767.101 557.5C769.101 559.9 769.001 564.8 769.501 567.8C771.501 581.3 773.301 594.8 775.101 608.4C778.001 630.6 780.601 652.9 782.701 675.2C785.701 706.3 788.001 737.5 788.401 768.8C788.701 791.1 787.901 813.1 783.801 835C783.501 836.8 783.501 838.6 783.401 840.5C783.001 851.1 782.601 861.8 782.401 872.4C781.801 899.6 781.901 926.8 782.601 954C782.601 955.9 785.601 955.9 785.601 954C785.001 928.8 784.901 903.6 785.301 878.4C785.501 868.2 785.801 858 786.101 847.8C786.201 844 786.001 839.9 786.601 836.1C787.401 830.8 788.801 825.7 789.401 820.3C791.301 804.1 791.601 787.6 791.401 771.3C791.101 739.7 788.801 708.1 785.801 676.7C783.301 650.9 780.301 625.2 776.801 599.6C775.901 592.7 774.901 585.7 773.901 578.8C773.001 572.2 773.001 563.7 770.301 557.6C768.301 553.1 764.501 551.9 759.801 551.6C752.001 551.1 744.101 551 736.301 550.7C734.501 550.5 734.501 553.5 736.401 553.5Z" fill="black"/>
<path d="M861.201 535.9C853.801 539.7 846.401 543.6 839.001 547.4C833.101 550.4 825.901 553 821.101 557.7C816.401 562.3 816.501 568.4 815.301 574.4C814.301 579.4 810.901 582.7 808.801 587.1C806.201 592.6 805.801 599.4 805.101 605.3C802.001 631.8 801.301 658.7 800.501 685.4C799.401 720.2 798.801 755 798.401 789.7C798.101 818.4 797.901 847.1 797.801 875.9C797.801 893.2 798.001 910.5 798.001 927.8C798.001 935.5 797.901 943.3 797.801 951C797.801 952.9 800.801 952.9 800.801 951C801.201 928.6 800.801 906.3 800.801 883.9C800.801 857.6 801.001 831.3 801.201 805C801.501 770.9 802.001 736.8 802.901 702.7C803.701 673.9 804.501 645.1 807.001 616.4C807.701 608.3 808.301 600.1 810.201 592.2C811.301 587.9 814.001 584.8 816.101 580.8C819.101 575.1 817.801 568.1 821.001 562.6C824.701 556.1 835.001 552.9 841.301 549.6C848.401 545.9 855.601 542.2 862.701 538.5C864.501 537.6 862.901 535 861.201 535.9Z" fill="black"/>
<path d="M585 1033.4C590.3 1035.3 594.7 1032.2 598.7 1029C604.7 1024.4 610.8 1021.5 618.2 1020C630.8 1017.5 644 1018.4 656.5 1015.2C669.7 1011.8 678.2 1002.8 687.5 993.5C699 982 712.3 976.8 727.5 972.2C746.5 966.6 765.5 960.9 784.6 955.3C786.4 954.8 785.7 951.9 783.8 952.4C767.6 957.2 751.5 962 735.3 966.8C721.6 970.9 706.9 974.2 695.1 982.8C684.3 990.6 676.9 1002.7 664.9 1008.9C652.9 1015.1 638.8 1014.4 625.8 1015.8C619.5 1016.5 613.1 1017.6 607.2 1020.1C604.4 1021.3 601.8 1022.9 599.3 1024.7C595.4 1027.6 591.1 1032.3 585.8 1030.4C583.9 1029.9 583.1 1032.8 585 1033.4Z" fill="black"/>
<path d="M799.3 952.5C815.8 952.4 827.9 967.8 841.6 975C855.7 982.4 871.4 986.1 887.2 988.1C904.4 990.3 923.6 988.9 939.2 997.7C947.3 1002.3 954.1 1008.9 961.1 1014.9C968.4 1021.2 975.6 1027.5 982.9 1033.8C984.4 1035.1 986.5 1032.9 985 1031.7C977.2 1025 969.5 1018.3 961.7 1011.6C955.4 1006.2 949.2 1000.4 942.1 996.1C927.1 987 909.1 987.6 892.3 985.8C874 983.8 855.5 979.8 839.4 970.4C826.5 962.8 815.4 949.5 799.3 949.6C797.4 949.5 797.4 952.5 799.3 952.5Z" fill="black"/>
<path d="M611.898 468.7C613.198 470.6 615.298 473.4 618.098 476.3C622.998 481.4 627.398 484.1 636.698 489.8C639.698 491.6 645.398 495.1 654.198 500.6C657.398 498.8 660.698 496.7 664.098 494.3C673.498 487.7 680.798 480.6 686.398 474.1C681.198 469.3 675.998 464.5 670.698 459.6C668.998 463.2 664.998 470.5 656.898 473.8C653.298 475.3 649.598 475.7 640.298 474.6C633.398 473.8 623.598 472.2 611.898 468.7Z" fill="black"/>
<path d="M666.199 449.8C667.799 452.5 669.699 455.2 671.799 458C679.899 468.5 688.999 475.7 696.599 480.6C706.099 476.2 713.599 472.3 718.699 469.6C742.199 457.2 753.899 451 755.799 449.8C761.899 445.9 767.199 442.2 774.999 442.1C781.099 442 785.599 444.2 788.199 445.4C800.399 451.3 812.999 456.5 825.199 462.6C840.199 470.2 849.999 475 864.099 478.1C880.299 481.7 887.699 479.8 889.799 479.2C902.399 475.7 909.899 466.5 913.099 462C907.199 454 897.799 442.8 884.199 431.9C876.399 425.7 875.699 426.3 848.499 409.6C825.199 395.4 816.099 389 799.299 383.2C787.399 379.1 781.399 378.6 775.699 379.3C770.699 380 765.999 381.6 749.399 391.2C740.299 396.5 735.599 399.2 727.199 404.7C712.399 414.5 701.199 423 679.799 439.3C673.899 443.8 669.199 447.5 666.199 449.8Z" fill="white"/>
<path opacity="0.31" d="M684.898 475.6C691.298 470.6 700.898 463.3 713.098 455.3C742.198 436.1 756.798 426.4 773.698 425.9C779.298 425.7 794.098 431.7 823.498 443.5C848.798 453.7 859.998 459.3 878.698 461.6C889.998 463 899.398 462.6 905.398 462.1C907.698 468.8 905.798 472.6 905.198 473.6C901.698 479.6 892.398 479.9 885.498 480.1C878.298 480.3 872.798 479 871.998 478.8C847.398 472.8 834.498 469.7 818.598 460.2C805.798 452.6 798.698 445.4 783.798 443.5C780.398 443.1 777.498 443 775.698 443C770.998 444.3 764.098 446.4 755.998 449.8C744.998 454.4 738.298 458.8 729.198 464C721.698 468.3 710.698 474.2 696.798 480.6C692.698 478.9 688.798 477.3 684.898 475.6Z" fill="#A5A4A4"/>
<path d="M664.899 450.6C673.099 463 682.299 475.1 695.799 481.9C697.499 482.8 698.999 480.2 697.299 479.3C684.199 472.7 675.299 461.1 667.399 449C666.399 447.5 663.799 449 664.899 450.6Z" fill="#161616"/>
<path d="M668.399 449.9C693.499 428.8 720.399 409.8 748.899 393.3C755.799 389.3 762.699 385 770.299 382.4C778.899 379.4 787.199 380 795.599 383.3C811.099 389.4 825.999 398.5 840.399 406.8C856.999 416.2 873.199 426.3 889.099 436.8C890.699 437.9 892.199 435.3 890.599 434.2C875.799 424.4 860.599 415 845.199 406.1C829.999 397.4 814.499 388.2 798.399 381.3C791.599 378.4 784.499 376.6 776.999 377.7C769.499 378.8 762.499 382.2 755.899 385.9C740.799 394.2 726.199 403.4 711.999 413.1C696.199 423.9 680.899 435.6 666.199 447.9C664.799 449 666.899 451.2 668.399 449.9Z" fill="#161616"/>
<path d="M699.1 482.4C713 474.4 727 466.6 741.2 459.1C748.3 455.3 755.4 451.6 762.5 448C766 446.2 769.5 444.3 773.5 443.8C778.5 443.1 783.1 444.8 787.5 446.8C802.8 453.6 817.8 461 833 468C845.7 473.9 858.8 479.7 872.8 481.2C886.4 482.7 900.3 479.9 910.9 471C912.4 469.8 910.3 467.7 908.8 468.9C893.6 481.5 872.7 480 855.1 474C835.7 467.4 817.2 457.3 798.6 448.7C791.3 445.3 783.1 440.1 774.8 440.5C766.6 440.9 758.6 446.5 751.5 450.2C733.3 459.6 715.3 469.5 697.5 479.7C695.9 480.8 697.4 483.4 699.1 482.4Z" fill="#161616"/>
<path d="M671.399 458.4C667.699 461.8 663.999 465.3 660.299 468.7C657.199 471.6 654.999 474.5 650.099 474.5C647.699 474.5 644.899 473.5 642.599 473C632.599 471.1 622.499 469.1 612.499 467.2C611.299 467 609.999 468.2 610.799 469.4C619.799 483.3 635.999 491 649.699 499.4C651.599 500.5 654.199 503.1 656.599 502.6C659.799 502 663.399 497.1 665.699 495C673.299 488.1 680.899 481.3 688.499 474.4C689.899 473.1 687.799 471 686.399 472.3C680.199 477.9 674.099 483.5 667.899 489C665.099 491.6 662.299 494.3 659.399 496.7C658.299 498 656.899 498.8 655.199 499.3C654.699 499 654.099 498.6 653.599 498.3C651.699 497.7 649.699 495.9 647.999 494.9C635.699 487.3 621.499 480.3 613.399 467.9C612.799 468.6 612.299 469.4 611.699 470.1C624.199 472.5 636.799 475.2 649.399 477.4C653.699 478.1 655.999 476.9 659.099 474.1C663.999 469.6 668.799 465.1 673.699 460.6C674.899 459.2 672.799 457.1 671.399 458.4Z" fill="#161616"/>
<path d="M674.9 479.4C677.1 482.2 679.7 485.2 682.9 488.1C695.3 499.2 709.3 502.7 717.3 503.9C721 501 726.6 496.1 733.1 489.6C743 479.5 746.6 473.4 757.3 461.4C761.1 457.1 767 450.7 774.6 443.3C777.8 446.7 782.5 451.6 788.3 457.2C807.1 475.5 821.5 489.5 842.8 500.5C855.4 507 869.7 514.2 887.5 512.3C889.7 512.1 898 511 907.6 506.5C915.6 502.7 923.4 499.1 927 491.2C931.8 480.8 926.2 469.4 924.3 465.5C913.8 443.9 887.6 439.1 883.4 438.4C873.2 433.5 859.2 426.2 843.3 416.3C834.2 410.6 832.4 409.1 820.6 401.8C820.6 401.8 801.4 390.1 777.9 381.5C774.3 380.2 768.8 378.3 762 379.4C760.3 379.7 755.7 380.6 749.4 384.9C740.3 391.1 735.4 398.9 734 401.2C723.4 418.1 723.1 411.6 695.6 449.5C690.3 457 683.1 467.1 674.9 479.4Z" fill="white"/>
<path d="M644.699 500.5C647.699 503.3 650.999 506.1 654.699 508.9C669.199 519.9 683.999 526.1 695.899 529.8C699.799 521.5 703.699 513.2 707.599 504.9C701.699 501.6 695.799 498.2 689.999 494.9C689.299 497.8 687.699 501.9 684.099 503.8C679.099 506.4 673.699 502.8 664.199 501C659.799 500 653.199 499.3 644.699 500.5Z" fill="#070707"/>
<path d="M673.899 480.5C680.299 488.7 688.499 495.5 697.999 499.9C704.999 503.2 717.299 509 723.899 502.7C728.599 498.2 732.599 492.7 736.799 487.7C741.199 482.5 745.699 477.3 750.099 472.1C759.199 461.5 768.299 450.8 777.399 440.2C778.599 438.7 776.499 436.6 775.299 438.1C759.899 456.1 744.399 474.2 728.999 492.2C727.099 494.4 725.299 496.7 723.299 498.9C720.399 502.1 717.299 502.7 712.999 501.8C708.099 500.8 703.299 499.1 698.799 497C689.799 492.6 682.099 486.3 675.999 478.4C674.799 476.9 672.699 479 673.899 480.5Z" fill="#161616"/>
<path d="M773.6 444.4C795.6 467.4 819.1 489.9 847.5 504.8C854.2 508.3 861.4 511.9 868.8 514C876.3 516.1 883.2 514.9 890.6 513.1C904.2 509.7 918.2 505.8 928.1 495.3C929.4 493.9 927.3 491.8 926 493.2C916.1 503.7 901.6 507.4 888 510.7C879 512.8 871.7 512.3 863.1 508.9C856.2 506.1 849.5 502.8 843.1 499.1C817.5 484.3 796 463.6 775.7 442.4C774.3 440.9 772.2 443.1 773.6 444.4Z" fill="#161616"/>
<path d="M676.6 479.2C687.5 463.1 698.9 447.3 710.9 432C722.2 417.6 733.5 402.3 746.7 389.5C754.6 381.8 763.4 379.5 774.1 382.1C782.3 384.1 790.4 387.4 798 391C812.8 398.1 826.4 407.2 840.2 416C855.4 425.8 870.9 435.3 887.9 441.7C889.7 442.4 890.5 439.5 888.7 438.8C855.5 426.2 828.8 401.7 796.6 387C783 380.8 764.9 372.8 750.9 382C743.8 386.7 738.4 393.8 732.9 400.2C726.2 408 719.7 415.9 713.3 423.9C699.5 441.3 686.4 459.2 673.9 477.5C672.9 479.2 675.5 480.7 676.6 479.2Z" fill="#161616"/>
<path d="M688.6 494.4C688.2 496 687.8 497.7 687 499.2C685.4 502.2 682.4 502 679.4 501.7C675.8 501.4 672.2 500.3 668.6 499.9C660.7 498.9 652.7 498.6 644.7 499C643.7 499 642.7 500.3 643.4 501.3C648.8 508.7 658.8 513.8 666.7 518.2C675.9 523.4 685.6 527.7 695.6 531.3C696.2 531.5 697 531.2 697.3 530.6C701.2 521.7 705.3 512.9 709.7 504.2C710.6 502.5 708 501 707.1 502.7C702.7 511.4 698.6 520.2 694.7 529.1C695.3 528.9 695.8 528.6 696.4 528.4C687.2 525.1 678.3 521.2 669.8 516.5C665.7 514.3 661.8 511.8 657.9 509.3C653.8 506.6 649 503.9 646.1 499.8C645.7 500.6 645.2 501.3 644.8 502.1C656.6 501.6 667.9 502.8 679.4 504.9C686.7 506.2 689.9 502.1 691.5 495.4C691.9 493.3 689 492.5 688.6 494.4Z" fill="#161616"/>
<path opacity="0.23" d="M695.4 496.8C701.1 491.7 709.1 484.3 718.6 475.2C763.2 432.4 768.5 419.8 782.1 419.6C801.9 419.4 806 446.2 836.3 467.2C864.1 486.5 895.9 488.4 917.1 487.4C920.5 489.7 923.8 491.9 927.2 494.2C924.4 496.9 920 500.6 913.9 503.9C907.6 507.3 902.3 508.6 896.7 510C888.3 512.1 881 513.9 873.2 513.4C861.5 512.7 852.9 507.1 846 502.2C816.8 481.7 780.5 448.4 775 443.4C767.1 450.8 761.1 457.1 757.3 461.4C747.9 471.8 744 477.6 733.1 489.6C727.5 495.8 722.7 500.7 719.8 503.6C711.6 501.4 703.5 499.1 695.4 496.8Z" fill="#A5A4A4"/>
<path d="M941.298 341.7C937.798 340.9 934.598 343.6 928.198 349.2C925.698 351.4 923.698 353.3 915.298 362.3C908.798 369.3 905.998 372.2 901.298 373C900.298 373.2 897.798 373.6 894.898 372.7C889.798 371.1 888.098 366.7 884.198 361.9C880.498 357.4 880.498 359.3 870.998 350.9C864.998 345.6 865.098 345 854.198 334.6C848.498 329.2 846.598 327.6 844.898 326.3C843.698 325.3 839.098 321.8 832.198 317.8C822.598 312.3 817.398 311.1 814.998 310.7C812.498 310.3 808.698 309.6 808.198 310.8C807.398 312.6 814.698 317.8 820.998 321.9C814.798 323.1 811.198 326 809.498 327.6C807.798 329.2 804.198 332.6 805.198 335.6C805.898 337.9 808.898 338.7 809.498 338.9C814.798 340.4 819.598 335.7 819.998 335.3C814.398 342.8 813.798 344.8 814.298 345.3C815.198 346.1 819.098 341.4 823.998 342.2C827.498 342.7 828.398 345.6 831.898 347.6C834.698 349.3 839.398 350.6 847.398 348.4C850.498 354.9 853.598 360.6 856.598 365.5C862.798 375.5 869.098 385.6 880.498 394.3C886.798 399.1 890.498 401.8 896.198 402.4C904.398 403.3 910.698 399.1 920.998 392.3C927.198 388.2 934.798 383.1 941.398 373.6C945.498 367.6 949.898 361.1 948.698 353.1C947.898 349.1 945.698 342.8 941.298 341.7Z" fill="white"/>
<path opacity="0.11" d="M814.1 345.3C816.1 343.7 819.4 341.4 823.9 340.2C825.8 339.7 827.4 339.5 829.1 339.4C832.6 339.1 838.8 339 847.6 340.2C850 344.6 853.5 350.9 858.5 357.9C866.4 369.2 870.5 375 878.2 380C882.1 382.5 891.7 388.7 903.5 387.2C906.5 386.8 911.5 385.7 925.2 375.5C931.7 370.6 940.7 363.4 950.5 353.4C950.1 356 949.4 359.8 947.5 364C946.3 366.8 944.2 370.6 938.8 376.6C934.5 381.3 925.7 390.1 911.3 397.5C905.1 400.7 901.9 402.3 898.2 402.4C889.6 402.7 883.2 397 876.5 391C867.5 382.9 862.3 374.4 855.2 362.5C851.3 356 848.3 350.4 846.4 346.4C844.7 347.7 841.5 349.5 837.6 349.3C835 349.2 832.9 348.1 831.1 347.2C827.1 345.2 826.6 343.6 824.3 342.8C822.3 342.3 819.1 342.1 814.1 345.3Z" fill="#A0A0A0"/>
<path d="M941.299 340.2C932.799 340.6 927.199 348 921.699 353.6C915.799 359.6 902.799 377.7 893.299 369.8C889.499 366.7 886.499 362.3 883.199 358.7C879.699 355 876.099 351.4 872.399 348C865.099 341.2 857.399 335 849.299 329.2C847.699 328.1 846.199 330.7 847.799 331.8C856.899 338.3 865.499 345.4 873.599 353.2C877.399 356.9 881.199 360.8 884.699 364.8C887.499 368 890.199 372.2 894.199 374C901.599 377.3 908.799 370.8 913.599 365.9C917.699 361.8 921.699 357.7 925.799 353.6C930.099 349.2 934.599 343.4 941.199 343.1C943.199 343.2 943.199 340.2 941.299 340.2Z" fill="black"/>
<path d="M841.298 327.9C838.098 327.3 834.898 327.5 831.898 328.8C829.498 329.8 825.798 331.9 824.898 334.6C822.698 340.9 838.698 337.4 841.298 337.1C843.198 336.8 842.398 333.9 840.498 334.2C838.198 334.5 835.798 334.8 833.398 335C832.298 335.1 831.298 335.2 830.198 335.2C828.998 335.3 827.698 335.9 828.598 334.5C830.898 331.1 836.798 330.2 840.498 330.8C842.398 331.1 843.198 328.3 841.298 327.9Z" fill="black"/>
<path d="M850.298 330.1C841.698 319.5 826.998 312.2 813.898 308.9C810.298 308 804.998 308.8 807.098 313.7C809.398 319 818.298 320.6 822.998 322.4C824.798 323.1 825.598 320.2 823.798 319.5C821.598 318.6 819.298 317.8 817.098 316.9C815.998 316.5 814.198 316.1 813.298 315.3C812.898 315.1 812.498 314.9 812.098 314.6C812.398 313.6 812.798 312.7 813.098 311.7C814.098 311.3 817.998 313.4 818.998 313.8C821.398 314.7 823.798 315.6 826.098 316.6C834.498 320.2 842.298 324.9 848.198 332C849.398 333.7 851.498 331.5 850.298 330.1Z" fill="black"/>
<path d="M820.899 320.5C816.699 320.4 812.999 322.1 809.999 324.9C807.699 327 803.699 331.3 803.499 334.6C803.299 337.2 805.999 338.5 808.199 337.6C810.199 336.8 811.599 334.8 813.399 333.7C815.499 332.3 817.899 331.4 820.299 330.7C822.199 330.2 821.399 327.3 819.499 327.8C817.099 328.4 814.799 329.3 812.699 330.6C811.699 331.2 810.799 331.8 809.899 332.5C809.399 332.9 807.499 335.3 806.899 333.8C806.699 333.4 808.799 330.9 809.099 330.5C809.999 329.3 810.999 328.1 812.099 327.1C814.599 324.8 817.499 323.5 820.899 323.6C822.799 323.6 822.799 320.6 820.899 320.5Z" fill="black"/>
<path d="M807.098 336.7C806.298 338.7 808.198 340.5 810.098 340.5C811.598 340.4 813.098 339.6 814.398 339.1C816.298 338.4 818.198 337.7 820.098 336.9C821.898 336.2 821.098 333.3 819.298 334C817.698 334.6 816.098 335.2 814.398 335.9C813.598 336.2 812.798 336.5 811.998 336.8C811.698 336.9 809.998 337.3 809.898 337.5C810.698 335.7 807.798 334.9 807.098 336.7Z" fill="black"/>
<path d="M818.699 335.1C815.899 337.1 811.499 341.5 812.599 345.5C813.299 347.9 815.999 348.3 818.099 347.3C821.599 345.7 821.299 342.2 826.899 346C828.699 347.2 829.699 348.5 831.799 349.3C836.799 351.1 842.199 349.6 847.099 348.2C848.899 347.7 848.199 344.8 846.299 345.3C842.699 346.3 838.999 347.4 835.199 346.9C830.899 346.3 829.199 342.9 825.599 341.3C824.199 340.7 822.499 340.5 821.099 341.1C820.399 341.4 819.499 342.5 818.899 342.7C817.999 344.2 817.299 343.9 816.699 341.6C817.599 340 818.799 338.7 820.299 337.8C821.799 336.6 820.299 334 818.699 335.1Z" fill="black"/>
<path d="M845.899 349.1C851.299 360.9 858.299 371.9 866.599 381.9C873.399 390 883.099 402.5 894.399 403.7C899.999 404.3 905.499 401.8 910.499 399.6C916.099 397.1 921.299 393.9 926.199 390.3C935.399 383.4 942.999 374.7 948.799 364.8C949.799 363.1 947.199 361.6 946.199 363.3C940.699 372.8 933.399 381.1 924.599 387.7C920.499 390.8 916.199 393.5 911.599 395.7C906.199 398.4 899.199 402 893.099 400.5C886.899 399 881.999 394 877.699 389.7C873.899 386 870.399 382 866.999 377.9C859.499 368.6 853.299 358.4 848.399 347.6C847.699 345.9 845.099 347.4 845.899 349.1Z" fill="black"/>
<path d="M937.4 342.4C934.1 346.4 930.7 352 923.9 363.3C915.8 376.6 910.4 386.6 906.5 393.4C901.3 402.8 893.7 415.9 884 432C885.2 438.7 887.4 447 891.6 455.7C901.9 477.1 918.1 489.2 926.8 494.7C936.3 488.7 951.1 477.7 964.1 459.5C985.7 429.2 987.9 398.7 988.7 385.4C989.9 364.4 988.1 321.5 972.5 317.5C960.1 314.3 942.3 336.4 937.4 342.4Z" fill="#EC615B"/>
<path d="M913.7 258.2C911.8 259.8 906.5 264.5 904.8 272.5C903.4 279.1 905.2 284.6 906.1 286.9C905.5 290.8 905 295.2 904.8 299.8C904.3 310.1 905.3 319.2 906.6 326.7C908.3 324.5 909.9 322.3 911.6 320.1C912.6 322.2 913.9 324.4 915.4 326.6C921.3 335.3 928.6 340.7 934.1 344C936.8 342.9 940 341.2 943.4 338.8C946 336.9 948.1 335.1 949.8 333.3C952.2 335.8 954.5 338.3 956.9 340.9C960 337.7 964 333 967.7 326.8C970 322.9 974.3 315.7 976.3 306.1C977.7 299.5 980.9 283.9 971.5 269.8C963.8 258.2 952 254.4 948.6 253.4C945.3 252.5 926.6 247.3 913.7 258.2Z" fill="white"/>
<path opacity="0.33" d="M942.6 277.4C939.4 282.2 943 287.9 945 296.9C947.2 307.1 947.2 322 937.5 342.5C941.6 339.5 945.7 336.4 949.8 333.4C952.2 335.9 954.5 338.4 956.9 341C960.7 338.2 966.1 333.4 969.9 325.8C972.8 319.9 973.5 313.3 974.6 300.3C975.7 287.6 976.2 281.2 973.9 278.1C967.2 269.3 947.7 269.6 942.6 277.4Z" fill="#A5A4A4"/>
<path d="M904.8 299.8C904.2 296.8 902.2 284.9 909.4 273.1C914.2 265.2 920.8 261.3 924 259.6C923.8 261.2 923 270.7 930 278.8C937.6 287.4 948.1 287.3 949.6 287.2C950.2 286.2 952 283.2 955.3 282.3C960.2 281.1 964.8 285.3 966.8 288.9C967.2 289.7 969.1 293.4 967.9 298C966.6 302.9 962 306.7 956.4 307.5C957 309.6 958.1 312.8 960 316.2C966 327.3 978.5 338.6 985.4 335.9C987.1 335.2 989.6 333.2 991.8 317.1C994.9 294.7 996.4 283.6 991.1 271.7C984.7 257.3 973 249.9 967 246.1C958.8 241 947.4 233.8 932.6 235.8C915.8 238.1 906.1 250.5 901.7 256C899.9 258.3 882.7 280.2 891 292.6C894 297.2 899.8 299.1 904.8 299.8Z" fill="#5222D0"/>
<path d="M915 329.5C914.3 331.3 913.2 335 913.9 339.4C914.3 341.8 915.3 348.1 920.6 350.8C925.1 353 929.8 351.2 930.9 350.8C931.9 348.1 932.8 345.4 933.8 342.7C931 340.9 928.1 339 925.2 337C921.7 334.5 918.3 332 915 329.5Z" fill="#5222D0"/>
<path d="M905.901 278.8C902.801 295 902.301 311.4 904.401 327.8C904.601 329.2 906.401 329.9 907.201 328.6C909.201 325.3 911.201 322.1 913.101 318.8C914.101 317.1 911.501 315.6 910.501 317.3C908.501 320.6 906.501 323.8 904.601 327.1C905.501 327.4 906.501 327.6 907.401 327.9C905.301 311.8 905.801 295.6 908.801 279.7C909.201 277.7 906.301 276.9 905.901 278.8Z" fill="#161616"/>
<path d="M910.2 320.8C915.2 330.8 923.1 338.8 933.1 343.9C934.8 344.8 936.3 342.2 934.6 341.3C925 336.4 917.6 328.9 912.8 319.3C912 317.6 909.4 319.1 910.2 320.8Z" fill="#161616"/>
<path d="M918.299 328.7C923.499 325.6 926.899 320.4 927.799 314.5C928.099 312.6 925.199 311.8 924.899 313.7C924.199 318.9 921.399 323.4 916.799 326.1C915.199 327.1 916.699 329.7 918.299 328.7Z" fill="#161616"/>
<path d="M926.3 304.4C928.2 304.4 928.2 301.4 926.3 301.4C924.4 301.4 924.4 304.4 926.3 304.4Z" fill="#161616"/>
<path d="M931.499 301.6C933.399 301.6 933.399 298.6 931.499 298.6C929.599 298.6 929.599 301.6 931.499 301.6Z" fill="#161616"/>
<path d="M930.3 308C932.2 308 932.2 305 930.3 305C928.4 305 928.4 308 930.3 308Z" fill="#161616"/>
<path d="M919.8 300.1C921.015 300.1 922 297.593 922 294.5C922 291.407 921.015 288.9 919.8 288.9C918.585 288.9 917.6 291.407 917.6 294.5C917.6 297.593 918.585 300.1 919.8 300.1Z" fill="#161616"/>
<path d="M915.8 281.9C918.7 278.5 924.1 278.8 926 283.2C926.7 285 929.6 284.2 928.9 282.4C926.3 276.1 918.3 274.4 913.7 279.7C912.4 281.3 914.5 283.4 915.8 281.9Z" fill="#161616"/>
<path d="M950.8 288C954.1 280.4 963.1 284.1 965.6 290.2C968.4 297.2 964.8 306.3 956.4 306.1C954.5 306 954.5 309 956.4 309.1C967.3 309.4 972.3 297.3 968.1 288.2C964.4 280.4 952.4 277.1 948.3 286.5C947.4 288.2 950 289.7 950.8 288Z" fill="#161616"/>
<path d="M935.299 344.4C941.699 343.5 946.399 338.5 950.499 333.9C954.899 329.1 960.499 323.3 961.399 316.6C961.699 314.7 958.799 313.9 958.499 315.8C957.599 321.9 952.399 327.3 948.299 331.8C944.499 336 940.299 340.7 934.399 341.5C932.599 341.8 933.399 344.6 935.299 344.4Z" fill="#161616"/>
<path d="M948.7 334.4C950.8 336.5 952.9 338.5 955 340.6C956.4 342 958.5 339.8 957.1 338.5C955 336.4 952.9 334.4 950.8 332.3C949.4 330.9 947.3 333.1 948.7 334.4Z" fill="#161616"/>
<path d="M956.601 309.6C958.401 315.3 960.701 320.8 963.301 326.2C964.101 327.9 966.701 326.4 965.901 324.7C963.401 319.5 961.301 314.3 959.501 308.8C959.001 307 956.101 307.8 956.601 309.6Z" fill="#161616"/>
<path d="M756 388.3C778.9 391.1 801.8 393.9 824.8 396.7C830.5 381.6 836.1 366.6 841.8 351.5C823.7 350.6 805.7 349.8 787.6 348.9C777 362 766.5 375.2 756 388.3Z" fill="white" stroke="black" stroke-width="3" stroke-miterlimit="10"/>
<path d="M787.5 348.9C777 362 766.5 375.2 756 388.3C745.2 364.5 734.3 340.7 723.5 317C737.6 307.6 751.7 298.3 765.7 288.9C773 308.9 780.3 328.9 787.5 348.9Z" fill="white" stroke="black" stroke-width="3" stroke-miterlimit="10"/>
<path d="M730.7 320.1C739 338.6 747.3 357.1 755.6 375.6C756.4 377.4 759 375.8 758.2 374.1C749.9 355.6 741.6 337.1 733.3 318.6C732.5 316.8 729.9 318.4 730.7 320.1Z" fill="black"/>
<path d="M734.199 320.9C744.099 314 753.799 306.7 763.099 299C764.599 297.8 762.499 295.7 760.999 296.9C751.899 304.4 742.399 311.6 732.699 318.3C731.199 319.4 732.699 322 734.199 320.9Z" fill="black"/>
<path d="M761.8 298.5C767.7 314.5 773.7 330.5 780 346.4C780.7 348.2 783.6 347.4 782.9 345.6C776.7 329.7 770.6 313.8 764.7 297.7C764.1 295.9 761.2 296.6 761.8 298.5Z" fill="black"/>
<path d="M758.4 375.4C766.9 366.9 774.7 357.8 782 348.2C783.2 346.7 780.6 345.2 779.4 346.7C772.3 356.1 764.6 364.9 756.3 373.3C754.9 374.6 757 376.7 758.4 375.4Z" fill="black"/>
<path d="M744 331.1C746.5 329.4 749.1 327.7 751.6 326C753.2 324.9 751.7 322.3 750.1 323.4C747.6 325.1 745 326.8 742.5 328.5C740.9 329.6 742.4 332.2 744 331.1Z" fill="black"/>
<path d="M747 336.2C752.6 332.3 758.2 328.3 763.9 324.4C765.5 323.3 764 320.7 762.4 321.8C756.8 325.7 751.2 329.7 745.5 333.6C743.9 334.7 745.4 337.3 747 336.2Z" fill="black"/>
<path d="M754.8 341.4C757.6 339.1 760.4 336.9 763.2 334.6C764.7 333.4 762.6 331.3 761.1 332.5C758.3 334.8 755.5 337 752.7 339.3C751.2 340.4 753.3 342.6 754.8 341.4Z" fill="black"/>
<path d="M754.799 349C759.399 345.7 763.999 342.5 768.599 339.2C770.199 338.1 768.699 335.5 767.099 336.6C762.499 339.9 757.899 343.1 753.299 346.4C751.799 347.6 753.299 350.2 754.799 349Z" fill="black"/>
<path d="M791.2 357C784.6 365.4 778.2 374 772.1 382.8C771 384.4 773.6 385.9 774.7 384.3C780.6 375.7 786.8 367.3 793.3 359.2C794.5 357.6 792.4 355.5 791.2 357Z" fill="black"/>
<path d="M803.099 357.3C796.899 365.7 790.699 374.2 784.699 382.8C783.599 384.4 786.199 385.9 787.299 384.3C793.299 375.8 799.499 367.3 805.699 358.8C806.799 357.2 804.199 355.7 803.099 357.3Z" fill="black"/>
<path d="M814.999 357.3C808.899 366.3 802.799 375.3 796.699 384.3C795.599 385.9 798.199 387.4 799.299 385.8C805.399 376.8 811.499 367.8 817.599 358.8C818.599 357.2 815.999 355.7 814.999 357.3Z" fill="black"/>
<path d="M776.101 380.7C784.301 381.8 792.401 382.5 800.601 383C802.501 383.1 802.501 380.1 800.601 380C792.401 379.5 784.201 378.8 776.101 377.7C774.201 377.4 774.201 380.4 776.101 380.7Z" fill="black"/>
<path d="M780.401 373.8C788.001 374.9 795.601 375.6 803.201 376C805.101 376.1 805.101 373.1 803.201 373C795.801 372.6 788.501 371.9 781.201 370.9C779.301 370.6 778.501 373.5 780.401 373.8Z" fill="black"/>
<path d="M786.301 366.7C789.101 367.9 792.101 367.8 795.001 368.1C799.301 368.4 803.601 368.8 807.801 369.1C809.701 369.3 809.701 366.3 807.801 366.1C804.601 365.8 801.401 365.6 798.201 365.3C795.101 365 790.701 365.4 787.801 364.1C786.001 363.4 784.501 365.9 786.301 366.7Z" fill="black"/>
<path d="M793.101 362.1C799.601 362.7 806.001 363.3 812.501 363.8C814.401 364 814.401 361 812.501 360.8C806.001 360.2 799.601 359.6 793.101 359.1C791.201 358.9 791.201 361.9 793.101 362.1Z" fill="black"/>
<path d="M804.401 378.4C807.501 379.2 810.601 379.2 813.701 378.3C815.601 377.8 814.801 374.9 812.901 375.4C810.301 376.1 807.801 376.2 805.201 375.5C803.301 375 802.501 377.9 804.401 378.4Z" fill="black"/>
<path d="M813.799 364.7C815.899 365.1 817.999 365.3 820.099 365.1C821.999 364.9 821.999 361.9 820.099 362.1C818.199 362.3 816.399 362.2 814.599 361.8C812.699 361.4 811.899 364.3 813.799 364.7Z" fill="black"/>
<path d="M818.899 363.3C815.999 367.3 813.699 371.7 811.899 376.3C811.199 378.1 814.099 378.9 814.799 377.1C816.499 372.7 818.799 368.7 821.499 364.9C822.599 363.2 819.999 361.7 818.899 363.3Z" fill="black"/>
<path d="M820.801 367.4C819.701 370.4 818.601 373.4 817.601 376.5C817.201 377.5 818.201 378.3 819.001 378.4C820.901 378.6 822.801 378.7 824.801 378.6C826.701 378.5 826.701 375.5 824.801 375.6C822.901 375.7 821.001 375.7 819.001 375.4C819.501 376 820.001 376.7 820.401 377.3C821.501 374.3 822.601 371.3 823.601 368.2C824.301 366.4 821.401 365.6 820.801 367.4Z" fill="black"/>
<path d="M822.199 368.6C823.399 368.6 824.699 368.7 825.899 368.9C826.299 369 827.099 369 827.399 369.3C827.799 369.6 827.599 369.4 827.099 370.2C826.099 372.1 825.299 374.2 824.499 376.2C823.699 378 826.299 379.5 827.099 377.7C827.899 375.9 828.699 374.2 829.399 372.4C829.899 371.2 830.999 369.6 830.599 368.3C829.799 365.6 824.399 365.6 822.199 365.6C820.199 365.6 820.199 368.6 822.199 368.6Z" fill="black"/>
<path d="M918.098 386.4C919.798 381.5 922.198 374.7 925.098 366.6C931.798 347.9 933.998 342.8 937.898 337C942.298 330.5 947.098 323.6 955.698 321C957.498 320.5 964.598 318.4 968.698 322C972.398 325.3 971.798 331.6 970.998 336.9C968.098 356 961.798 371 959.998 375.2C950.698 396.8 945.898 407.8 936.898 418.6C931.698 424.9 926.698 429.6 923.098 432.7C919.698 432.1 915.298 430.9 910.198 428.8C908.698 428.2 902.398 425.5 895.698 420.4C884.898 412.2 878.398 401.9 872.298 393.1C866.798 385.2 858.598 374.1 847.298 361.2C841.998 363 838.998 362.1 837.298 361.1C834.398 359.3 834.598 356.4 830.598 349.4C827.798 344.6 826.398 342.3 824.198 341.8C820.698 341 818.798 345 811.398 346.8C809.998 347.1 805.398 348.3 804.698 347C803.998 345.8 806.498 342.3 820.598 331.9C818.998 331.5 816.598 331.1 813.798 331.7C809.798 332.6 808.698 334.9 805.098 335.6C802.498 336.1 798.198 335.7 797.298 333.6C795.598 330 804.098 321.3 813.498 317.1C817.498 315.3 821.198 314.6 823.698 314.3C808.098 309 804.698 306.5 804.998 305.2C805.398 303.4 812.598 302.9 818.598 304C826.298 305.5 831.398 309.7 835.898 313.5C839.498 316.5 844.598 321.5 849.298 329.1C848.898 324.3 850.198 320.7 852.198 320.2C854.398 319.7 856.998 323.1 857.498 323.8C859.998 327.1 860.298 330.6 860.498 332C861.098 337.7 861.998 344.2 863.098 352.1C868.798 355.2 874.498 358.5 880.298 362C893.598 370.2 906.198 378.3 918.098 386.4Z" fill="white"/>
<path opacity="0.14" d="M963.198 319C959.198 319.8 960.298 330.5 956.398 347.3C951.698 367.8 943.198 381.7 937.998 390.2C928.198 406.2 922.098 416.2 913.098 416.6C907.298 416.9 903.698 412.9 884.698 390.5C880.898 386 859.398 363.7 843.698 346.8C837.398 340 832.198 334.4 824.898 334.5C814.598 334.7 805.598 346.3 806.498 347.6C806.998 348.4 811.598 346.3 814.198 345.2C819.898 342.7 820.498 341.2 822.598 341.4C823.898 341.5 825.198 342.3 831.498 351.6C835.298 357.3 836.098 359 838.498 360.3C841.498 362 844.798 361.8 847.198 361.4C850.098 364.8 854.598 370.1 859.898 376.8C879.498 401.6 883.198 411.2 895.698 420.4C901.198 424.5 909.998 429.7 922.998 432.7C926.298 430 930.698 426.1 935.298 420.7C937.898 417.6 942.598 411.8 949.798 397.8C961.098 376 956.698 376.9 968.198 351.8C971.298 345 974.298 339 972.798 331.7C971.498 325.1 966.598 318.4 963.198 319Z" fill="#A5A4A4"/>
<path d="M921.299 384.7C925.499 368.2 930.799 350.4 940.299 336C944.599 329.4 952.799 319.7 961.699 320.3C973.499 321.2 971.799 335.9 969.399 343.7C959.999 374.6 947.999 406 925.599 430C924.299 431.4 926.399 433.5 927.699 432.1C948.399 409.9 959.999 381.7 969.399 353.3C972.799 343 979.399 327 967.599 319.3C956.399 312 943.699 325.4 938.099 333.8C928.199 348.5 922.699 366.9 918.399 383.9C917.899 385.8 920.799 386.6 921.299 384.7Z" fill="#161616"/>
<path d="M862.599 354C881.099 365.2 899.499 376.3 917.999 387.5C919.699 388.5 921.199 385.9 919.499 384.9C900.999 373.7 882.599 362.6 864.099 351.4C862.399 350.4 860.899 353 862.599 354Z" fill="#161616"/>
<path d="M864.499 353C863.999 347.3 863.199 341.7 862.099 336.2C861.099 331.5 860.399 324.6 857.599 320.7C856.099 318.7 853.199 317.1 850.899 318.9C848.199 321 848.799 326.7 848.599 329.6C848.399 331.5 851.399 331.5 851.599 329.6C851.699 328.2 851.799 326.9 851.999 325.5C852.099 324.7 852.099 323.9 852.199 323.1C853.499 323.6 854.799 324 856.099 324.5C857.499 325.8 858.099 331.5 858.499 333.4C859.999 339.9 860.999 346.4 861.599 353.1C861.699 354.9 864.699 354.9 864.499 353Z" fill="#161616"/>
<path d="M850.499 327.4C845.099 318.2 838.099 309.6 828.099 305.3C822.299 302.8 808.299 299.5 804.399 306.6C803.899 307.4 804.299 308.6 805.299 308.8C811.999 310.6 818.299 313.1 824.399 316.4C826.099 317.3 827.599 314.7 825.899 313.8C819.599 310.4 812.999 307.8 806.099 305.9C806.399 306.6 806.699 307.4 806.999 308.1C809.099 304.4 817.499 305.5 820.899 306.2C824.699 307 828.299 308.5 831.599 310.6C838.699 315.1 843.799 321.9 847.999 329.1C848.899 330.6 851.499 329.1 850.499 327.4Z" fill="#161616"/>
<path d="M823.599 313C816.799 313.7 810.599 316.2 805.499 320.8C801.399 324.5 796.299 331.1 796.599 337.1C796.599 337.8 797.099 338.3 797.699 338.5C800.699 339.8 803.999 338 806.699 336.6C811.699 333.9 816.499 331.5 822.399 332C824.299 332.2 824.299 329.2 822.399 329C818.599 328.7 815.099 329.4 811.499 330.8C808.099 332.2 802.199 337.1 798.499 335.6C798.899 336.1 799.199 336.6 799.599 337C799.299 331.9 804.099 326 807.599 322.9C812.099 318.9 817.599 316.6 823.599 316C825.499 315.9 825.499 312.9 823.599 313Z" fill="#161616"/>
<path d="M801.798 335.5C807.298 328.7 814.998 324.7 823.698 324.1C825.598 324 825.598 321 823.698 321.1C814.298 321.8 805.698 326 799.698 333.4C798.498 334.9 800.598 337 801.798 335.5Z" fill="#161616"/>
<path d="M820.198 330.6C813.698 333.1 807.798 337.4 804.498 343.6C802.398 347.5 803.198 351.7 808.398 350C812.198 348.8 815.398 346.2 818.998 344.5C826.898 340.7 828.598 349.3 831.198 354.3C834.198 360 839.298 364 845.998 363C847.898 362.7 847.098 359.8 845.198 360.1C830.998 362.3 834.898 339.3 822.398 340.2C820.698 340.3 818.998 341.2 817.498 341.9C815.598 342.9 811.798 346.1 809.698 346.1C804.198 346.2 810.498 340.2 811.998 338.9C814.698 336.5 817.698 334.7 820.998 333.4C822.798 332.8 821.998 329.9 820.198 330.6Z" fill="#161616"/>
<path d="M846.298 362.4C859.598 377.6 870.398 394.8 884.098 409.6C889.898 415.9 896.298 421.7 903.398 426.5C909.798 430.9 917.498 435.8 925.598 433.8C927.498 433.3 926.698 430.4 924.798 430.9C915.698 433.2 904.998 424.5 898.498 419.1C892.398 414.1 886.898 408.4 881.698 402.4C869.998 388.8 860.198 373.8 848.398 360.3C847.098 358.8 844.998 360.9 846.298 362.4Z" fill="#161616"/>
</svg>
