<?xml version="1.0" encoding="utf-8"?>
<!-- Generator: Adobe Illustrator 23.1.0, SVG Export Plug-In . SVG Version: 6.00 Build 0)  -->
<svg version="1.1" xmlns="http://www.w3.org/2000/svg" xmlns:xlink="http://www.w3.org/1999/xlink" x="0px" y="0px"
	 viewBox="0 0 1920 1080" style="enable-background:new 0 0 1920 1080;" xml:space="preserve">
<style type="text/css">
	.st0{fill:#F4E8D8;}
	.st1{fill:#48598B;}
	.st2{fill:#273150;}
	.st3{fill:#CE6D3E;}
	.st4{fill:#C93F37;}
	.st5{fill:#F6874E;}
	.st6{fill:#D09435;}
	.st7{fill:#F6BE4A;}
	.st8{fill:#263052;}
	.st9{fill:none;stroke:#273150;stroke-width:2;stroke-miterlimit:10;}
	.st10{fill:#F7BC4B;}
	.st11{fill:#EE5D4F;}
	.st12{fill:#634874;}
	.st13{fill:#29ACE4;}
	.st14{fill:none;stroke:#29ACE4;stroke-miterlimit:10;}
	.st15{fill:#866694;}
</style>
<g id="bg">
	<path class="st0" d="M793.44,514.27c0,0-199.38,164.57-248.44,193.05s-93.36-37.98-68.04-94.95
		c25.32-56.97,58.55-61.71,58.55-61.71s-69.63-117.1,23.74-208.88s193.05-107.6,208.88-61.71c0,0,69.51-90.13,207.3-125.01
		c125.01-31.65,121.85,25.32,52.22,94.95c0,0,47.47-23.74,69.63-15.82C1119.42,242.1,793.44,514.27,793.44,514.27z"/>
	<path class="st0" d="M1375.77,503.2c0,0-403.52,199.38-435.16,219.96c-31.65,20.57-41.14,25.32-39.56,39.56
		c1.58,14.24,61.71-15.82,61.71-15.82s-44.31,49.05,75.96,26.9c120.26-22.15,267.43-60.13,405.1-145.58s169.32-101.27,151.91-132.92
		c-17.41-31.65-71.21-25.32-101.27-11.08s49.05-34.81,17.41-39.56C1480.21,439.9,1375.77,503.2,1375.77,503.2z"/>
</g>
<g id="hair">
	<path class="st1" d="M1134.45,350.49c0,0,0-35.6-66.46-49.85s-66.46,16.62-61.71,42.73s42.73,42.73,49.85,42.73
		S1134.45,350.49,1134.45,350.49z"/>
	<path class="st2" d="M1048.21,533.26c0,0-18.99,44.31,12.66,71.21c31.65,26.9,87.03,37.98,137.67,0S1125.75,443.07,1048.21,533.26z
		"/>
	<path class="st1" d="M1084.6,361.57c0,0,59.53-70.37,131.34-53.8c82.29,18.99,111.56,65.67,125.8,136.88c0,0,45.1-21.36,59.34,45.1
		c14.24,66.46-71.21,97.32-121.05,94.95C1230.19,582.32,1084.6,361.57,1084.6,361.57z"/>
	<path class="st2" d="M1068.78,371.86c0,0,59.53-70.37,131.34-53.8c82.29,18.99,111.56,65.67,125.8,136.88
		c0,0,45.1-21.36,59.34,45.1c14.24,66.46-71.21,97.32-121.06,94.95C1214.36,592.6,1068.78,371.86,1068.78,371.86z"/>
	<path class="st2" d="M1026.85,457.31c0,0-35.6,23.74-49.85-11.87s40.35-66.46,61.71-64.09
		C1060.08,383.73,1052.96,426.45,1026.85,457.31z"/>
	<path class="st2" d="M1126.54,357.62c0,0,0-35.6-66.46-49.85s-66.46,16.62-61.71,42.73s42.73,42.73,49.85,42.73
		C1055.33,393.22,1126.54,357.62,1126.54,357.62z"/>
</g>
<g id="right_arm">
	<path class="st3" d="M1113.09,639.29c0,0-46.68,48.26-72.79,79.12c-24.03,28.39-78.33,53.01-86.24,90.99
		c-7.91,37.98,75.16,49.85,100.48,24.53c25.32-25.32,109.19-126.59,121.85-153.49C1189.04,653.53,1155.81,598.14,1113.09,639.29z"/>
	<path class="st4" d="M1198.54,623.46c0,0-25.32-18.99-41.14-17.41c-15.82,1.58-61.71,51.43-61.71,51.43s18.2,0.79,30.07,11.87
		c11.87,11.08,26.9,45.1,26.9,45.1S1215.95,642.45,1198.54,623.46z"/>
	<path class="st5" d="M1146.32,835.51c0,0-51.43-37.71-97.05-48.53c-39.63-9.39-58.81-11.08-79.38,0
		c-20.57,11.08-36.4,43.52-18.2,50.64C969.88,844.74,1146.32,835.51,1146.32,835.51z"/>
</g>
<g id="torso">
	<path class="st6" d="M1385.26,862.41c0,0,6.33-101.27-3.16-164.57s-23.74-110.77-53.8-129.76
		c-30.07-18.99-85.45,11.08-126.59,28.48c-33.55,14.19-47.47,80.7-69.63,118.68c-18.95,32.49-33.23,63.3,14.24,120.26
		S1358.36,965.26,1385.26,862.41z"/>
	<path class="st7" d="M1385.26,862.41c0,0,6.33-101.27-3.16-164.57s-23.74-110.77-53.8-129.76
		c-30.07-18.99,4.75,126.59-25.32,186.73c-19.52,39.04-36.4,80.7,7.91,113.93C1370.21,913.23,1358.36,965.26,1385.26,862.41z"/>
</g>
<g id="neck">
	<path class="st5" d="M1130.49,558.58c55.1,64.42,69.63,90.2,69.63,90.2s56.97-1.58,55.38-39.56s-21.72-44.21-45.89-79.12
		C1181.13,488.96,1112.09,537.07,1130.49,558.58z"/>
	<path class="st3" d="M1130.49,558.58c26.9,34.02,67.25,31.65,67.25,31.65s73.58,13.05,11.87-60.13
		C1177.36,491.84,1112.09,537.07,1130.49,558.58z"/>
</g>
<g id="head">
	<g>
		<path class="st5" d="M1088.96,354.85c0,0-55.81-4.91-69.23,81.1c-17.41,111.56,9.49,154.29,118.68,142.42
			c109.19-11.87,111.56-82.29,104.44-132.13C1235.73,396.38,1153.04,338.23,1088.96,354.85z"/>
		<path class="st3" d="M1088.96,354.85c0,0-55.81-4.91-69.23,81.1c-17.41,111.56,9.49,154.29,118.68,142.42
			c0,0-49.85-53.8-56.97-103.65S1163.73,353.4,1088.96,354.85z"/>
		<path class="st7" d="M1030.01,400.54c0,0,21.85-47.15,89.41-35.8c49.45,8.31,102.46,58.55,102.46,58.55l20.97-18.2
			c0,0-45.91-70.97-140.84-59.74C1050.19,351.48,1035.75,381.55,1030.01,400.54z"/>
		<path class="st6" d="M1030.01,400.54c0,0,21.85-47.15,89.41-35.8l-17.41-19.38C1050.19,351.48,1035.75,381.55,1030.01,400.54z"/>
		<path class="st2" d="M1261.84,457.31c-26.11,0-45.89,28.48-52.22,61.71c-5.63,29.58-11.87,66.46,75.96,64.09
			C1373.4,580.74,1311.68,457.31,1261.84,457.31z"/>
		<ellipse class="st5" cx="1222.27" cy="449.59" rx="28.88" ry="40.95"/>
	</g>
	
		<ellipse transform="matrix(0.9696 -0.2447 0.2447 0.9696 -69.0632 283.9389)" class="st8" cx="1107.95" cy="419.86" rx="9.89" ry="16.62"/>
	
		<ellipse transform="matrix(0.0707 -0.9975 0.9975 0.0707 521.1473 1462.364)" class="st8" cx="1045.38" cy="451.5" rx="13.63" ry="8.11"/>
	<line class="st9" x1="1032.91" y1="435.15" x2="1051.11" y2="436.47"/>
	<path class="st9" d="M1077.75,405.88c0,0,5.01-11.87,13.98-12.4"/>
	<g>
		<path class="st4" d="M1196.78,389.27c0,0,27.7,33.66,56.11,48.08c21.48,10.91,38.69,12.92,38.69,12.92l-4.3-8.6l10.7-8.25
			c0,0-40.15-4.2-92.83-49.2L1196.78,389.27z"/>
		<path class="st4" d="M1193.97,385.34c0,0,14.5,41.11,36.25,64.39c16.45,17.6,31.93,25.39,31.93,25.39l-1.09-9.55l12.87-4.08
			c0,0-36.28-17.7-70.37-78.02L1193.97,385.34z"/>
		<path class="st4" d="M1211.58,407.06c10.24-1.8,19.98-56.46-4.4-57.61c-22.95-1.09-48.97,1.84-44.65,19.14
			C1166.86,385.89,1201.35,408.86,1211.58,407.06z"/>
		<path class="st10" d="M1220.42,375.97c0,0-3.77-23.44-11.04-22.92c-7.28,0.52-0.77,10.53,1.11,25.97
			C1212.37,394.46,1221.74,385.86,1220.42,375.97z"/>
		<g>
			<path class="st4" d="M1203.08,395.73c0,0-1.54-10.79,14.18-21.23s27.68-16.13,37.68-9.93s13.46,33.47,7.75,47.22
				c-5.71,13.74-40.69,3.3-49.5-1.87C1204.38,404.75,1203.08,395.73,1203.08,395.73z"/>
			<path class="st10" d="M1260.3,386.6c0,0,3.29,21.87-6.49,25.45c-14.53,5.31-5.37-36.11-4.52-42.66
				C1250.14,362.84,1262.92,370.93,1260.3,386.6z"/>
		</g>
	</g>
</g>
<g id="left_arm">
	<path class="st5" d="M947.33,625.84c0,0,9.49-34.42,4.75-52.22c-4.75-17.8-7.12-23.74-23.74-33.23
		c-16.62-9.49-34.42-8.31-32.04-27.3c2.37-18.99,7.12-9.49,29.67-5.93c22.55,3.56,22.19,17.48,41.54,24.92
		c15.43,5.93,35.6,15.43,46.29,40.35c10.68,24.92,40.35,45.1,14.24,62.9C1001.92,653.13,949.7,644.82,947.33,625.84z"/>
	<path class="st5" d="M1208.03,602.89c0,0-36.4,77.54-47.47,109.19c-11.08,31.65,3.16,49.05,28.48,63.3
		c25.32,14.24,55.38,19.78,80.7-30.86c25.32-50.64,47.47-84.66,37.98-109.98S1239.68,558.58,1208.03,602.89z"/>
	<path class="st3" d="M1208.03,602.89c0,0-36.4,77.54-47.47,109.19c-11.08,31.65,3.16,49.05,28.48,63.3
		c25.32,14.24,25.32-6.33,50.64-56.97c25.32-50.64,77.54-58.55,68.04-83.87S1239.68,558.58,1208.03,602.89z"/>
	<path class="st4" d="M1206.45,607.64c0,0,30.07-71.21,39.56-85.45s30.07-23.74,52.22-15.82c22.15,7.91,33.23,61.71,33.23,82.29
		c0,20.57-30.07,82.29-31.65,94.95c-1.58,12.66-4.75-45.89-36.4-64.88S1206.45,607.64,1206.45,607.64z"/>
	<path class="st11" d="M1246.01,522.19c9.49-14.24,30.07-23.74,52.22-15.82c22.15,7.91,33.23,61.71,33.23,82.29
		c0,20.57-30.07,82.29-31.65,94.95c-1.58,12.66,9.49-117.1-3.16-134.51C1278.67,524.37,1246.01,522.19,1246.01,522.19z"/>
	<path class="st3" d="M1251.37,724.24c0,0-17.34-64.19-76.59-61.67s-33.24,98.17,26.01,105.72
		C1260.04,775.84,1251.37,724.24,1251.37,724.24z"/>
	<path class="st5" d="M1252.34,735.81c0,0-18.99-76.48-83.87-73.32s-101.27-24.79-128.18-34.29c-20.73-7.32-56.57,23.74-24.92,47.47
		c31.65,23.74,116.7,106.02,181.58,115.52S1252.34,735.81,1252.34,735.81z"/>
	<path class="st5" d="M967.51,610.41c0,0-39.16-15.43-43.91-18.99c-4.75-3.56-7.12-20.18-22.55-20.18s-2.37,16.62-1.19,26.11
		c1.19,9.49,12.57,18.44,20.97,30.07c5.14,7.12,10.68,20.18,26.51,26.9c26.6,11.3,55.78,21.36,77.14,14.24
		C1045.84,661.44,1004.3,602.1,967.51,610.41z"/>
	<path class="st3" d="M989.66,570.71c0,0,3.96,48,11.08,51.56c7.12,3.56,24.92,5.93,24.92,5.93s-22.55,14.24-33.23,0
		C981.75,613.97,989.66,570.71,989.66,570.71z"/>
	<path class="st5" d="M963.31,545.66c-2.46-2.95-11.32-6.4-20.68-1.97c-9.35,4.43-9.35,5.42-8.86,14.77
		c0.49,9.35,0,28.55,2.95,31.51c2.95,2.95,12.31,6.4,17.72,0s7.88-17.72,7.88-27.08C962.33,553.53,965.77,548.61,963.31,545.66z"/>
	<path class="st3" d="M974.23,539.86c-2.64-3.16-12.13-6.86-22.15-2.11s-10.02,5.8-9.49,15.82s0,30.59,3.16,33.76
		c3.16,3.16,13.19,6.86,18.99,0c5.8-6.86,8.44-18.99,8.44-29.01S976.87,543.02,974.23,539.86z"/>
	<path class="st5" d="M977.4,539.86c-2.64-3.16-12.13-6.86-22.15-2.11s-10.02,5.8-9.49,15.82s0,30.59,3.16,33.76
		c3.16,3.16,13.19,6.86,18.99,0c5.8-6.86,8.44-18.99,8.44-29.01S980.03,543.02,977.4,539.86z"/>
	<path class="st3" d="M970.01,542.76c-8.31,2.37-16.62,28.48-16.62,35.6c0,7.12,6.86,14.64,21.49,15.03
		c13.46,0.36,7.65-21.1,7.65-21.1S978.32,540.38,970.01,542.76z"/>
	<path class="st5" d="M1041.09,630.58c0,0-1.58-37.98-5.14-47.47s-17.8-18.99-34.42-28.48c-16.62-9.49-18.99-14.24-27.3-11.87
		c-8.31,2.37-16.62,28.48-16.62,35.6c0,7.12,3.16,10.29,17.8,10.68c13.46,0.36,11.34-16.75,11.34-16.75s5.27,6.07,6.46,25.05
		S998.76,644.82,1041.09,630.58z"/>
</g>
<g id="bricks">
	<g>
		<polygon class="st12" points="673.97,788.69 736.47,786.45 830.23,786.05 852.78,780.91 723.81,773.79 		"/>
		<g>
			<polygon class="st12" points="695.86,505.97 760.74,513.48 877.04,466.8 877.91,461.17 820.87,445.84 			"/>
			<polygon class="st13" points="594.05,362.96 628.7,343.73 629.7,343.71 673.26,319.3 674.26,319.3 717.48,294.45 874.93,352.08 
				874.93,405.88 719.07,356.69 594.05,420.32 			"/>
			<polyline class="st1" points="719.07,356.16 594.05,420.32 594.05,362.96 628.71,343.71 629.7,343.71 673.26,319.3 674.26,319.3 
				717.48,294.45 			"/>
			<polygon class="st12" points="594.05,420.32 772.87,450.58 874.93,405.88 719.07,356.16 674.33,379.11 673.29,379.08 
				629.72,401.84 628.69,401.83 			"/>
			<polygon class="st12" points="636.78,671.71 725.08,683.34 868.6,650.15 814.6,633.43 			"/>
			<polygon class="st12" points="728.56,520.21 671.33,492.38 712.74,464.03 877.31,509.4 			"/>
			<polygon class="st12" points="592.47,564.52 592.47,619.11 727.51,629.79 865.44,598.93 833.4,567.29 874.14,557.79 
				785.53,502.01 718.27,509.92 			"/>
			<polygon class="st13" points="594.05,423.29 717.48,358.8 775.7,377.19 776.03,411.95 829.87,394.29 877.84,409.44 
				877.84,463.24 719.07,420.52 594.05,480.65 			"/>
			<polyline class="st1" points="719.07,420.52 594.05,480.65 594.05,423.29 717.48,358.8 			"/>
			<polygon class="st1" points="776.07,411.95 829.84,394.41 829.84,450.58 776.03,461.53 			"/>
			<polygon class="st12" points="594.05,480.65 649.97,483.15 776.1,435.85 719.07,420.52 			"/>
			<polygon class="st1" points="671.33,447.42 671.33,492.38 718.8,472.47 718.8,424.47 			"/>
			<polygon class="st13" points="877.31,464.3 877.31,509.4 718.8,472.74 718.8,424.47 			"/>
			<polygon class="st1" points="592.47,526.54 592.47,567.02 718.27,519.55 718.27,474.32 			"/>
			<polygon class="st13" points="718.27,474.32 718.27,519.55 770.1,532.08 770.1,486.98 			"/>
			<polygon class="st13" points="823.64,499.37 822.45,546.05 874.14,557.79 874.14,511.51 			"/>
			<polygon class="st1" points="592.6,570.45 592.6,619.11 637.7,598.93 637.7,552.65 			"/>
			<polygon class="st1" points="672.12,541.57 672.12,586.67 718.27,570.45 718.27,522.98 			"/>
			<polygon class="st13" points="718.27,522.98 865.44,559.77 865.44,598.93 718.27,570.45 			"/>
			<polygon class="st1" points="682.15,679.31 682.15,634.35 814.1,591.84 814.1,641.61 			"/>
			<polygon class="st13" points="813.93,591.86 813.93,641.51 868.6,650.22 868.6,602.65 			"/>
		</g>
		<g>
			<polygon class="st12" points="587,702.67 735.96,726.79 822.88,702.89 682.77,670.03 			"/>
			<g>
				<polygon class="st13" points="628.64,633.3 627.58,691.97 721.03,706.24 722.03,647.36 				"/>
				<polygon class="st12" points="631.22,690.17 671.4,679.61 745.05,686.99 693.38,697.66 				"/>
				<polygon class="st1" points="587.99,647.87 587,702.67 628.15,692.17 629.21,633.25 				"/>
				<polygon class="st1" points="632.46,633.57 631.22,690.17 671.41,679.83 672.21,620.88 				"/>
			</g>
			<polygon class="st13" points="672.09,620.94 671.19,680.24 823.18,702.89 824,652.96 			"/>
		</g>
		<g>
			<polygon class="st12" points="875.46,747.68 809.26,766.27 706.88,760.21 827.59,740.69 			"/>
			<polygon class="st13" points="827.59,692.36 875.46,698.97 875.46,747.68 827.59,740.69 			"/>
			<polygon class="st1" points="827.79,692.43 827.79,740.69 748.87,756.12 748.87,711.55 			"/>
		</g>
		<g>
			<polygon class="st12" points="775.3,734.8 654.19,760.08 595.64,755.99 704.49,723.78 			"/>
			<polygon class="st1" points="721.7,677.98 721.7,726.47 595.64,755.99 595.64,710.49 			"/>
			<polygon class="st13" points="721.7,677.98 721.7,726.47 775.1,735.1 775.1,686.76 			"/>
		</g>
		<g>
			<polygon class="st12" points="868.08,793.57 763.11,815.2 691.11,795.29 823.24,768.52 			"/>
			<polygon class="st1" points="673.97,742.27 673.97,788.69 724.04,777.09 724.04,728.96 			"/>
			<polygon class="st13" points="868.08,752.16 868.08,793.57 716.96,779.46 716.96,731.33 			"/>
		</g>
		<polygon class="st1" points="600.65,799.51 600.65,846.45 721.7,846.45 781.18,835.37 780.91,790.01 723.02,783.29 		"/>
		<g>
			<polygon class="st1" points="707.99,807.15 707.99,850.06 818.62,850.06 872.98,839.93 872.74,798.47 819.83,792.33 			"/>
			<polygon class="st13" points="820.91,792.21 820.91,841.02 873.22,840.1 873.22,796.91 			"/>
		</g>
		<polygon class="st13" points="724.21,783.15 724.21,836.56 781.44,835.55 781.44,788.3 		"/>
		<line class="st14" x1="629.2" y1="343.71" x2="629.2" y2="401.82"/>
		<line class="st14" x1="673.77" y1="319.3" x2="673.77" y2="379.08"/>
		<polygon class="st1" points="823.64,499.37 770.23,512.16 770.23,535.84 813.42,546.71 822.45,546.05 		"/>
	</g>
</g>
<g id="table">
	<path class="st15" d="M1508.69,941.53c-2.91-4.96-113.93-109.19-378.2-112.35c-214.14-2.56-536.44,6.33-607.65,30.07
		c0,0,212.84-11.87,345.76,19.78s221.08,49.69,285.63,57.76c50.64,6.33,142.95,14.77,165.1,16.35
		c104.32,7.45-10.43-38.72,105.1-17.54C1495.64,948.65,1512.05,947.26,1508.69,941.53z"/>
	<path class="st15" d="M842.49,889.31c0,0-71.21-26.9-191.47-18.99c-143.54,9.44-180.09-9.8-180.09-9.8s39.56,57.92,132.39,41.8
		C729.28,880.46,842.49,889.31,842.49,889.31z"/>
</g>
</svg>
