<?xml version="1.0" encoding="utf-8"?>
<!-- Generator: Adobe Illustrator 23.1.0, SVG Export Plug-In . SVG Version: 6.00 Build 0)  -->
<svg version="1.1" xmlns="http://www.w3.org/2000/svg" xmlns:xlink="http://www.w3.org/1999/xlink" x="0px" y="0px"
	 viewBox="0 0 960 1080" style="enable-background:new 0 0 960 1080;" xml:space="preserve">
<style type="text/css">
	.st0{fill:#F3E7D9;}
	.st1{fill:#BB83C3;}
	.st2{fill:#288453;}
	.st3{fill:#FFACFF;}
	.st4{fill:#273252;}
	.st5{fill:#1D2538;}
	.st6{fill:#C94039;}
	.st7{fill:#992C29;}
	.st8{fill:#CC6D3D;}
	.st9{fill:#F5894E;}
	.st10{fill:#7A462F;}
	.st11{fill:#A96443;}
	.st12{opacity:0.9;fill:#F7BC4B;}
	.st13{fill:#EE5D4F;}
	.st14{fill:#F7BC4B;}
	.st15{opacity:0.4;fill:#FEED7F;}
	.st16{fill:#CE9436;}
	.st17{fill:none;stroke:#992C29;stroke-miterlimit:10;}
	.st18{fill:#29ABE2;}
	.st19{fill:#665070;}
	.st20{fill:#4B3355;}
	.st21{fill:#856792;}
	.st22{fill:#33A86D;}
	.st23{fill:#3E4C6F;}
	.st24{fill:#34283A;}
	.st25{fill:none;stroke:#34283A;stroke-width:2;stroke-linecap:round;stroke-linejoin:round;stroke-miterlimit:10;}
</style>
<g id="bg">
	<path class="st0" d="M211.88,631.66c0,0,467.34-152.74,517.49-173.26s68.39-31.92,45.59-52.43s-61.55-4.56-61.55-4.56
		s61.55-34.2,38.76-75.23s-82.07-25.08-79.79,13.68c0,0,56.99-207.45-75.23-225.69S401.09,214.48,437.57,276.03
		c0,0-45.59,13.68-43.31,70.67c0,0-52.43,6.84-86.63,41.03s-13.68,66.11-13.68,66.11s-45.59-9.12-77.51,38.76s2.28,93.47,2.28,93.47
		s-63.83,38.76-63.83,52.43C154.88,652.18,211.88,631.66,211.88,631.66z"/>
</g>
<g id="ground">
	<path class="st1" d="M508.87,929.66c0,0-111.58-9.24-131.34-3.16c-19.76,6.08-130.29,6.59-131.87,9.76
		c-1.58,3.16,8.44,6.86,8.44,6.86s-74.11,15.56-68.31,18.73c5.8,3.16,39.21,3.99,62.77,4.75c7.38,4.22,19.52,5.8,44.31,5.8
		s213.29,10.62,235.52,8.18c48-5.27,50.22-5.98,45.89-9.49s-26.92-6.16-33.76-8.44c-6.84-2.28,20.72-7.72,3.24-8.48
		c-17.48-0.76,154.64-22.88,107.53-22.12S508.87,929.66,508.87,929.66z"/>
	<path class="st1" d="M417.48,992.56c0,0-65.78-14.85-79.46-11.81c-13.68,3.04-32.68,9.12-30.4,9.12c2.28,0,22.8,3.8,27.36,3.8
		s-2.28,6.08-17.48,7.6c-15.2,1.52-53.19,12.16-63.83,15.2c-10.64,3.04-7.6,4.56,9.88,3.8c17.48-0.76,87.39-3.8,123.1-7.6
		s110.19-3.04,123.86-3.8s24.32-0.76,37.24,5.32s54.71,1.52,82.07-1.52c27.36-3.04,54.71-10.64,69.91-7.6
		c15.2,3.04,56.99,7.6,63.83,2.28c6.84-5.32-12.92-5.32-19-6.84c-6.08-1.52,88.02-13.98,81.18-16.26s-60.53-9.49-60.53-9.49
		s23.74-8.31-18.99-7.12c-42.73,1.19-92.57,2.37-92.57,2.37s-38.27,6.18-69.43,4.66C553.07,973.15,417.48,992.56,417.48,992.56z"/>
	<path class="st1" d="M540.92,1035.47c0,0-43.31-11.4-50.15-15.2c-6.84-3.8-52.43,7.6-56.23,8.36c-3.8,0.76-17.48,6.84-20.52,6.84
		s-12.92,2.28-16.72,3.04c-3.8,0.76,0.76,2.28,31.92,2.28s39.51-1.52,45.59,0.76s29.64,0.76,42.55,0.76
		C530.28,1042.31,554.59,1043.07,540.92,1035.47z"/>
	<path class="st2" d="M418.32,993.67c1.43-1.76-11.15-13.68-19.25-4.56C390.96,998.23,409.71,1004.31,418.32,993.67z"/>
	<path class="st3" d="M701.13,941.53c0,0,54.99-2.77,67.65-4.35c12.66-1.58,64.88-3.16,42.73,3.16
		c-22.15,6.33-15.82,7.91-15.82,7.91s52.22,6.33,69.63,6.33c17.41,0-37.98,6.33-58.55,4.75c-20.57-1.58-34.81,1.58-55.38,1.58
		C730.8,960.91,701.13,941.53,701.13,941.53z"/>
</g>
<g id="right_arm">
	<path class="st4" d="M487.22,421.42c-3.04-7.09-4.56-12.41-18.24-7.09c-13.68,5.32-28.12,20.26-33.44,21.78
		c-5.32,1.52-5.32,9.88-5.32,9.88s-0.25,0.25-5.07,1.27c-4.81,1.01-7.85,4.81-10.39,7.6c-2.53,2.79-9.63,4.81-12.67,8.11
		c-3.04,3.29-23.3,17.73-8.61,47.11c6.24,12.48,10.13,7.09,26.34-2.03c16.21-9.12,42.3-33.94,54.21-42.05
		C485.95,457.9,490.33,428.7,487.22,421.42z"/>
	<path class="st5" d="M487.22,421.42c-3.04-7.09-4.56-12.41-18.24-7.09c0,0-2.04,10.8-7.85,26.1c-5.8,15.3-14.77,22.15-14.77,22.15
		l-11.08,15.82c0,0,0.95-7.01-1.58-4.22c-2.53,2.79-12.26,6.2-15.3,9.49c-3.04,3.29-16.88,34.81-16.88,34.81s2.1-1.32,18.31-10.44
		c16.21-9.12,42.3-33.94,54.21-42.05C485.95,457.9,490.33,428.7,487.22,421.42z"/>
</g>
<g id="right_forearm">
	<g>
		<path class="st6" d="M408.19,514.64c0,0,4.05,1.01,4.05-21.78c0-19.5-10.09-20.66-13.17-28.37c-9.12-22.8-7.56-11.39-14.69-26.85
			c-9.12-19.76-13.17-32.42-29.89-25.33c-20.54,8.71-23.81,13.17-21.78,20.26c2.03,7.09,3.55,3.04,5.07,8.11
			c1.52,5.07,11.15,24.82,15.2,34.96c4.05,10.13,8.11,14.69,8.11,14.69s5.57,11.15,9.12,16.72
			C373.74,512.61,389.95,529.33,408.19,514.64z"/>
		<path class="st7" d="M408.19,514.64c0,0,4.05,1.01,4.05-21.78c0,0-12.29,3.49-20.73,0.85c-8.44-2.64-12.91-16.19-20.04-31.65
			c-9.12-19.76-18.46-6.33-18.46-6.33s-22.32-30.25-20.3-23.16c2.03,7.09,3.55,3.04,5.07,8.11c1.52,5.07,11.15,24.82,15.2,34.96
			c4.05,10.13,8.11,14.69,8.11,14.69s5.57,11.15,9.12,16.72C373.74,512.61,389.95,529.33,408.19,514.64z"/>
		
			<ellipse transform="matrix(0.9714 -0.2375 0.2375 0.9714 -88.981 94.9965)" class="st0" cx="349.85" cy="416.87" rx="17.09" ry="12.67"/>
		
			<ellipse transform="matrix(0.9714 -0.2375 0.2375 0.9714 -88.5483 94.9806)" class="st8" cx="350" cy="415.07" rx="12.41" ry="8.6"/>
	</g>
</g>
<g id="right_hand">
	<path class="st9" d="M356.51,414.33c0,0,6.59-8.36,8.11-15.96s-1.77-21.78-3.29-25.58s0-16.21,1.01-20.01
		c1.01-3.8-0.76-6.08-4.81-7.6c-4.05-1.52-5.83,0.51-6.08,6.08c-0.25,5.57-5.57,24.32-2.79,41.54
		C351.45,410.02,356.51,414.33,356.51,414.33z"/>
	<g>
		<path class="st10" d="M335.72,440.72c0,0,0.16,9.23,3.71,9.72l17.04-5.78l-13.66-166.03l-8.82-3.34l-3.54-3.97
			c0,0-6.5-0.43-5.95,3.93L335.72,440.72z"/>
		<polygon class="st11" points="336.51,299.51 338.8,311.2 341.53,320.34 342.74,376.65 334.62,314.81 331.66,311.99 		"/>
		<polygon class="st11" points="341.42,383.87 345.69,404.46 347.52,436.91 338.23,390.98 		"/>
	</g>
	<path class="st8" d="M333.52,411.52c-0.1,1.88,0.69,9.79,0.69,9.79c-1.52-4.56-20.54-32.31-21.56-34.33
		c-1.01-2.03,0-7.85,1.77-10.77s1.77-2.91,1.77-2.91s-1.01-1.77-1.14-5.7c-0.13-3.93,1.9-6.08,1.9-6.08s-1.01-0.89-1.39-4.31
		c-0.38-3.42-0.38-6.97,0.25-8.87c0.63-1.9,4.94-2.15,10.51-4.43c5.57-2.28,9.88-3.8,11.91-3.29c2.03,0.51,8.87,10.39,8.87,10.39
		s2.53,3.8,0.76,5.83c0,0,2.53,3.04,1.77,5.57l4.81,6.08c0,0,0.51,9.63-0.51,11.4c-1.01,1.77-5.07,8.11-5.07,8.11
		s-3.8,0.25-4.31-3.55c-0.24-1.77-2.15-7.35-2.15-7.35s-8.87,5.07-8.74,7.6C333.8,387.23,333.85,405.14,333.52,411.52z"/>
	<g>
		<path class="st12" d="M350.94,297.69c-20.82,6.94-45.59-1.14-67.13-24.01c-18.37-19.5-8.86-66.08-8.86-66.08s3.37,13.21,11.31,22
			c7.94,8.79,13.34-11.26,2.4-31.96c-10.94-20.7-1.01-35.25-1.01-35.25l12.46,19.79c0,0,11.57-47.42,29.87-66.22
			s-1.16,5.51,11.29,26.4s17.37-1.94,21.62,7.63c15.41,21.18,10.85,53.1,10.85,53.1l22.8-14.82
			C396.53,188.26,405.65,279.45,350.94,297.69z"/>
		<path class="st13" d="M348.66,279.45c-7.6,9.5-27.36,3.42-31.92-11.4c-4.56-14.82,11.4-64.97,11.4-64.97l-3.04,42.55
			c0,0,0.76,9.12,9.12,3.04s-0.33-22.04,5.32-22.04C356.26,226.63,360.9,260.89,348.66,279.45z"/>
		<g>
			<path class="st14" d="M312.82,110.12c0,0-4.05,13.68-6.08,20.77C306.74,130.89,293.06,111.13,312.82,110.12z"/>
			<path class="st14" d="M352.46,117.46c0,0,5.57,3.55,5.07,11.65C357.53,129.11,366.14,117.46,352.46,117.46z"/>
			<path class="st13" d="M369.87,131.97c0.79-3.42,5.8-3.09,6.11,0.41c0.4,4.54-0.23,8.9-3.76,9.91
				C368.15,143.45,368.53,137.79,369.87,131.97z"/>
			<path class="st13" d="M336.12,176.86c0,0,0,7.98-6.84,7.98C322.44,184.84,329.28,173.44,336.12,176.86z"/>
			<path class="st14" d="M324.72,71.99c0,0,14.82,10.26,12.54,21.66C337.26,93.65,347.52,69.72,324.72,71.99z"/>
		</g>
		<path class="st15" d="M369.18,305.66c-15.96,7.98-93.47,20.52-120.82-61.55S300.91,71.67,398.81,77.69
			c74.09,4.56,77.51-53.57,77.51-53.57s22.8,62.69-9.12,86.63c-64.07,48.05-53.57,71.81-55.85,115.13
			C409.07,269.19,385.14,297.69,369.18,305.66z"/>
	</g>
</g>
<g id="hood">
	<g>
		<path class="st7" d="M498.61,404.33c-10.37-18.43,31.78-34.94,54.89-38.41c14.31-2.15,31.55,3.75,36.5,9.6
			c1.69,2.01,9.78,13.85,11.7,20.57c2.1,7.34,1.11,40.51-12.16,40.27C571.37,436.04,508.99,422.75,498.61,404.33z"/>
		<path class="st0" d="M516.05,408.18c-5.76-12.49,9.84-31.55,28.81-36.5c22.09-5.76,38.74,3.13,40.34,10.56
			c1.6,7.44-13.19,19.72-27.57,26.01S518.62,413.74,516.05,408.18z"/>
		<path class="st4" d="M552.69,399.89c13.16-10.49,16.92-9.47,16.59-17.98c-0.53-13.75-33.07-1.58-39.79,0.34
			c-6.72,1.92-18.85,22.02-11.53,33.62C525.29,427.46,539.53,410.38,552.69,399.89z"/>
	</g>
</g>
<g id="torso">
	<path class="st14" d="M557,402.43c0,0-28.13-4.03-55.79,2.98c-13.63,3.45-32.27,29.32-32.27,61.97s9.6,123.9,9.6,123.9l117.17-1.92
		C595.71,589.35,591.58,408.19,557,402.43z"/>
	<path class="st16" d="M539.73,546.32l-34.81-58.15l-3.7-82.76c-13.63,3.45-32.27,29.32-32.27,61.97s9.6,123.9,9.6,123.9
		l117.17-1.92c0,0-44.12-21.67-61.92-31.16c-12.71-6.78-11.87-18.99-11.87-18.99L539.73,546.32z"/>
	<path class="st9" d="M542.81,407.49c0,9.86-9.38,28.5-18.62,28.5c-9.23,0-18.43-12.74-18.43-22.61c0-9.86,9.32-11.72,18.55-11.72
		C533.56,401.67,542.81,399.77,542.81,407.49z"/>
	<path class="st6" d="M505.2,404.83c-4.94-6.08-36.63,2.88-41.43,13.44c-1.5,3.3,0.97,16.79,0.4,24.79
		c-1.27,17.6-3.96,34.54-1.98,41.14c2.88,9.6,6.8,55.55,2.96,67.07c-3.84,11.53,3.84,37.46,7.68,43.22s34.58-0.96,34.58-0.96
		l-4.87-42.87c0,0-13.21-33.81-13.3-59.34C489.16,465.8,507.09,407.16,505.2,404.83z"/>
	<path class="st7" d="M505.2,404.83c-4.94-6.08-24.76,11.85-29.56,22.41s10.29,108.4,10.29,108.4s7.12,13.45,8.31,14.64
		c1.19,1.19-6.33,0.4-6.33,0.4l19.5,42.87l-4.87-42.87c0,0-13.21-33.81-13.3-59.34C489.16,465.8,507.09,407.16,505.2,404.83z"/>
	<g>
		<path class="st17" d="M510.14,403.88c-11.9,13.51,5.97,63.71,13.68,62.05c7.71-1.67,27.74-61.18,14.13-65.59"/>
		
			<ellipse transform="matrix(0.9738 -0.2272 0.2272 0.9738 -93.2001 131.5592)" class="st18" cx="524.78" cy="470.56" rx="2.79" ry="5.35"/>
	</g>
	<path class="st0" d="M507.09,400.54c-8.22,0.12-10.88,2.65-15.19,6.19c-4.31,3.55-6.11,10.02-8.99,26.34
		c-2.88,16.33,2.29,46.61,7.09,46.61c4.8,0,4.92-22.52,8.76-36.93C502.6,428.35,515.3,400.42,507.09,400.54z"/>
	<path class="st7" d="M552.31,402.55c-6.08,7.22-6.94,56.18-4.06,82.11c2.88,25.93,20.17,60.51,22.09,76.83
		c1.92,16.33,2.88,31.69,6.72,34.58s47.95,0.51,47.95,0.51s15.96-22.8-7.98-59.27c-14.79-22.54-9.44-122.67-21.92-127.47
		C582.62,405.03,558.39,395.33,552.31,402.55z"/>
	<path class="st6" d="M555.55,441.48c-6.08,7.22-10.18,17.25-7.3,43.18c2.88,25.93,20.17,60.51,22.09,76.83
		c1.92,16.33,2.88,31.69,6.72,34.58s20.16-1.62,9.08-43.82c-1.45-5.52-13.19-61.45-10.02-83.08
		C578.06,455.94,561.63,434.26,555.55,441.48z"/>
	<path class="st0" d="M547.37,476.64c-4.31-3.55-4.94-7.45-4.94-20.9s1.46-34.59,3.8-49.01c2.28-14.06,29.38-12.79,24.32-2.66
		c-6.67,13.34-10.19,19.52-12.92,41.03C554.59,469.04,551.68,480.19,547.37,476.64z"/>
	<path class="st0" d="M592.4,557.94l-3.62,2.76c0,0,9.72,14.57,24,12.86v-3.43C612.78,570.13,601.92,570.7,592.4,557.94z"/>
	<path class="st6" d="M562.67,482.63c0,0,1.98,30.46,22.95,33.23C585.62,515.86,573.48,503.2,562.67,482.63z"/>
</g>
<g id="left_arm">
	<path class="st4" d="M610.32,491.33c-4.81-10.13-5.27-12.56-19.25-29.13c-20.52-24.32-27.35-38.52-15.2-54.71
		c6.43-8.57,18.24-11.4,32.68,0.76c5.81,4.89,16.19,23.29,22.04,31.92c8.57,12.64,19.03,27.52,21.78,33.94
		c2.75,6.42,1.52,8.11-4.8,8.59c-9.33,0.72-20.61,0.96-23.85,5.5C619.13,494.63,614.5,500.14,610.32,491.33z"/>
	<path class="st5" d="M652.37,474.11c-2.75-6.42-13.22-21.3-21.78-33.94c-5.85-8.63-16.23-27.02-22.04-31.92
		c-14.44-12.16-26.25-9.33-32.68-0.76l17.13,4.98c0,0,6.87,5.78,14.58,13.85c3.1,2.11,7.32,5.14,11.8,8.83
		c8.97,7.38,9.49,13.19,9.49,13.19l-5.27-2.11c3.37,4.21-0.62-1.11,1.58,3.16c8.85,17.18,0.58,21.03-2.64,25.85
		c-4.22,6.33-3.41,19.39,1.18,12.96c3.24-4.54,14.52-4.79,23.85-5.5C653.89,482.22,655.12,480.53,652.37,474.11z"/>
</g>
<g id="stone">
	<path class="st19" d="M381.72,648.78l12.98,120.6l10.76,6.32l-6.72,4.23c0,0,0.49,7.47,3.19,14.29c2.71,6.83,6.57,24.23,5.55,33.23
		c-1.02,9.02,5.96,45.7,8.66,54.19c2.71,8.51,4.59,20.08,4.5,23.15c-0.09,3.07-3.9,6-3.25,9.1c0.65,3.11-0.05,1.54,5.38,19.5
		c5.45,18.04,3.92,45.26,5.35,47.67c1.43,2.4,15.16,11.09,15.16,11.09l142.48,5.7l54.71-2.28l11.4-12.54l2.54-130.73l1.58-61.87
		c0,0,5.19-10.3,4.45-12.57c-0.74-2.27-3.67-17.28-3.67-17.28l11.06-103.77L381.72,648.78z"/>
	<path class="st20" d="M381.72,648.78l12.98,120.6l10.76,6.32l-6.72,4.23c0,0,0.49,7.47,3.19,14.29c2.71,6.83,6.57,24.23,5.55,33.23
		c-1.02,9.02,5.96,45.7,8.66,54.19c2.71,8.51,4.59,20.08,4.5,23.15c-0.09,3.07-3.9,6-3.25,9.1c0.65,3.11-0.05,1.54,5.38,19.5
		c5.45,18.04,3.92,45.26,5.35,47.67c1.43,2.4,15.16,11.09,15.16,11.09l142.48,5.7l54.71-2.28l11.4-12.54l-94.61-21.66l-49.01-6.84
		l-11.4-36.75l22.31-63.3l8.46-27.62l-20.52-29.64l17.1-31.92l96.12-23.64l42.94-10.56l4.56-74.32L381.72,648.78z"/>
	<path class="st1" d="M342.01,598.42l3.36-2.22c0,0,59.78-6.59,71.94-9.12c12.16-2.53,52.18-9.12,55.22-10.64
		c3.04-1.52,147.42,0.51,150.97-0.51c0,0,30.9,12.16,43.06,15.7s27.86,11.15,27.86,11.15l2.53,4.81l-208.47,2.22L342.01,598.42z"/>
	<path class="st21" d="M341.82,598.43c0,0,44.07-0.8,61.55,0.8s63.07,0.8,63.07,0.8l11.4,2.41l12.16,4.82l11.4-5.62l119.3,1.61
		l5.32,4.82l10.64-6.42l52.43,1.61l7.6,4.01l-3.8,21.67l-11.65,5.89l4.56,3.21l-5.83,19.8l-3.04,5.62l3.04,2.41l-9.12,9.63
		l-63.83-2.41l-127.28,1.9l-7.98,5.32l-76.75-1.61l-26.6-0.8l-7.6-20.07l8.36-4.01l-13.68-4.01L341.82,598.43z"/>
	<path class="st19" d="M341.82,598.43c0,0,44.07-0.8,61.55,0.8s63.07,0.8,63.07,0.8l11.4,2.41l12.16,4.82l11.4-5.62l119.3,1.61
		l5.32,4.82l10.64-6.42l-10.96,16.55l-26.9,3.16l8.44,13.71l-21.1,12.66l11.08,10.02l18.46-1.05l3.04,2.41l52.14,16.38l-63.83-2.41
		l-127.28,1.9l-7.98,5.32l-76.75-1.61l-26.6-0.8l-7.6-20.07l8.36-4.01l-13.68-4.01L341.82,598.43z"/>
	<g>
		<path class="st2" d="M538.89,999.24c0,0-9.63-7.6-1.01-10.64s11.65,4.56,11.65,4.56s-6.59-12.67,3.04-15.7
			c9.63-3.04,10.64,12.67,10.64,12.67s-6.59-12.67,3.55-19.25s16.72,7.09,16.72,7.09s-0.51-10.13,9.63-8.61
			c10.13,1.52,13.68,31.92-4.56,30.4c-18.24-1.52-13.68-4.05-13.68-4.05s-6.59,7.6-12.66,5.57c-6.08-2.03-8.11-3.04-8.11-3.04
			S540.41,1000.76,538.89,999.24z"/>
		<path class="st2" d="M534.84,998.74c0,0-9.12-17.22-16.72-18.74c-7.6-1.52-7.6-1.52-7.6-1.52S529.77,997.72,534.84,998.74z"/>
		<path class="st2" d="M627.54,963.78c0,0-6.59-11.15-16.21-7.09c-9.63,4.05-8.61,17.22-2.03,20.77c0,0-11.65-4.56-16.21,8.11
			c-4.56,12.67,9.12,18.24,16.21,14.18c7.09-4.05,8.61-6.08,8.61-6.08s0.51,5.57,12.16,3.55c11.65-2.03,10.13-13.68,10.13-13.68
			S653.38,961.25,627.54,963.78z"/>
		<path class="st22" d="M617.41,950.61c0,0-10.64-9.12-3.04-17.73s22.29-4.56,17.22,7.6C626.53,952.64,620.45,953.65,617.41,950.61z
			"/>
		<path class="st22" d="M641.73,914.64c0,0-6.59-8.11-11.65-3.55c-5.07,4.56,0.51,12.16,8.61,11.15
			C646.79,921.23,641.73,914.64,641.73,914.64z"/>
		<path class="st22" d="M645.28,890.83c0,0-6.59-0.51-5.57,4.56c1.01,5.07,7.6,13.68,10.13,7.6S645.28,890.83,645.28,890.83z"/>
		<path class="st22" d="M645.28,878.67c0,0,7.09-9.12,0.51-17.22c-6.59-8.11-12.16-0.51-11.65,4.05
			C634.64,870.06,639.2,881.71,645.28,878.67z"/>
		<path class="st22" d="M650.85,883.74c0,0,3.55-8.61,7.09-2.53C661.49,887.29,660.98,897.42,650.85,883.74z"/>
		<path class="st22" d="M635.14,887.79c0,0-7.09-10.13-9.63-4.05C622.98,889.82,632.61,894.38,635.14,887.79z"/>
		<path class="st2" d="M648.82,912.11c0,0,4.05-7.09,7.6-4.05s8.61,12.67,0.51,16.72c0,0,7.6,1.01,2.53,8.11s-14.18,2.53-13.17-3.55
			l2.03-4.56C648.31,924.77,643.76,913.12,648.82,912.11z"/>
		<path class="st2" d="M651.35,931.87c0,0,10.13-0.51,10.13,6.59c0,0,7.09-1.52,9.12,3.04c2.03,4.56,1.01,5.57,1.01,5.57
			s10.64-8.11,15.7-4.56c5.07,3.55,8.11,21.28-2.53,22.8c0,0,12.16-5.07,19.25-0.51c7.09,4.56,8.61,22.29-2.53,20.77
			c-11.15-1.52-15.2-6.08-15.2-6.08s3.04,6.59-3.55,5.07c-6.59-1.52-5.57-4.05-5.57-4.05s-8.11,5.07-10.64,2.03
			s-2.53-3.04-2.53-3.04s-13.17,9.12-16.21,0.51s2.53-11.15,2.53-11.15s-4.56-1.01-5.07-6.59c-0.51-5.57,7.09-7.6,7.09-7.6
			S638.18,943.52,651.35,931.87z"/>
		<path class="st22" d="M641.22,951.12c0,0,0.51-9.63-6.08-7.6c-6.59,2.03-7.6,9.12,0,11.65
			C642.74,957.7,641.22,951.12,641.22,951.12z"/>
		<path class="st22" d="M640.46,928.32c0,0,9.12-8.36,12.16-0.76c3.04,7.6-5.32,5.32-5.32,5.32s9.12,6.84,3.04,9.12
			s-8.36-5.32-8.36-5.32S635.14,930.6,640.46,928.32z"/>
		<path class="st22" d="M573.59,982.27c0,0-4.56-9.88-7.6-5.32c-3.04,4.56,2.28,8.36,2.28,8.36s-12.92-2.28-10.64,3.8
			s8.36,0.76,8.36,0.76s-1.52,9.12,4.56,3.04S573.59,982.27,573.59,982.27z"/>
		<path class="st22" d="M618.43,964.8c0,0-9.12-5.32-2.28-8.36c6.84-3.04,17.48,1.01,11.4,7.35S618.43,964.8,618.43,964.8z"/>
		<path class="st22" d="M629.06,973.15c0,0-2.28-6.84,3.04-6.08C637.42,967.84,633.62,975.43,629.06,973.15z"/>
		<path class="st22" d="M641.73,914.64c0.06-2.85,2.53-10.64,7.85-5.32c5.32,5.32,6.52,16.21-1.33,12.92
			C642.93,921.67,641.67,917.49,641.73,914.64z"/>
	</g>
	<path class="st22" d="M641.22,639.26c0,0-9.12,1.52,0,6.84S649.58,650.66,641.22,639.26z"/>
	<path class="st22" d="M651.1,635.46c0,0-9.12,10.64,2.28,10.64C664.78,646.1,660.98,636.22,651.1,635.46z"/>
	<path class="st22" d="M649.58,651.42c0,0-6.08,18.24,6.84,12.92c12.92-5.32,2.28-9.12,2.28-9.12S657.94,644.58,649.58,651.42z"/>
	<g>
		<path class="st2" d="M421.86,993.67c0,0-1.01-10.13-11.65-17.73c-10.64-7.6-12.67-6.08-12.67-1.52
			C397.55,978.98,413.25,991.65,421.86,993.67z"/>
		<path class="st22" d="M407.79,994.85c0,0,1.27-8.26,8.86-4.13C424.24,994.85,415.39,998.16,407.79,994.85z"/>
	</g>
	<path class="st22" d="M381.72,671.56c0,0-3.42-19.38,11.4-11.4c14.82,7.98,1.9,18.53,1.9,18.53L381.72,671.56z"/>
	<path class="st2" d="M389.69,687.52c0,0,4.56-22.8-7.98-15.96S379.44,690.94,389.69,687.52z"/>
	<path class="st22" d="M370.61,669.3c0.69-4.49-4.43-7.63-8.26-5.18c-5,3.2-4.88,9.2,4.3,10.61
		C372.94,675.69,370.18,672.05,370.61,669.3z"/>
	<polygon class="st21" points="376.02,622.54 412.49,624.82 445.93,617.22 466.44,621.02 447.45,620.26 411.73,630.14 
		394.25,627.86 	"/>
	<polygon class="st21" points="564.47,608.87 582.2,611.91 589.3,609.12 607.79,611.91 587.27,612.67 581.19,624.06 576.63,613.43 	
		"/>
	<polygon class="st21" points="482.76,640.08 479.74,674.98 478.01,631.77 	"/>
	<polygon class="st19" points="601.18,686.36 606.19,758.49 601.18,776.56 596.43,681.62 	"/>
	<polygon class="st20" points="604.87,747.29 602.08,758.31 603.99,789.72 606.09,826.41 610.27,789.72 	"/>
	<polygon class="st19" points="460.6,753.22 485.13,744.59 531.02,748.08 578.23,743.73 527.07,755.99 483.95,750.01 	"/>
	<g>
		<path class="st22" d="M607.77,708.37c1.9-2.09,5.7-3.42,7.6,2.28s-3.04,9.5-5.89,6.84C606.63,714.82,605.87,710.46,607.77,708.37z
			"/>
		<path class="st22" d="M589.15,761.56c0,0-4.37-4.37-7.98,0.19c-3.61,4.56-3.42,9.5,1.9,11.02
			C588.39,774.29,591.24,766.88,589.15,761.56z"/>
		<path class="st22" d="M578.89,762.32c0,0-1.33-4.75-5.89-2.47c-4.56,2.28-4.94,5.7-0.57,7.22
			C576.8,768.59,579.27,762.7,578.89,762.32z"/>
		<path class="st22" d="M583.07,748.07c0,0-1.14-12.92-8.55-12.92s-11.59,10.26-6.08,13.68
			C573.95,752.25,583.07,748.07,583.07,748.07z"/>
		<path class="st2" d="M584.02,756.05c0,0,0-9.12-6.08-7.6c-6.08,1.52-13.68,8.36-4.94,11.4S584.02,756.05,584.02,756.05z"/>
	</g>
	<polygon class="st20" points="550.41,784.87 555.15,830.81 562.27,843.68 561.09,930.05 556.34,849.19 546.85,830.81 	"/>
	<polygon class="st20" points="557.13,827.59 606.19,826.01 639.42,832.34 598.27,833.92 548.43,835.51 	"/>
</g>
<g id="data">
	<g>
		<g>
			<polygon class="st20" points="398.18,595.69 659.21,596.45 646.03,591.13 421.99,591.13 			"/>
			<polygon class="st1" points="618.93,588.1 630.84,597.47 625.26,597.72 615.39,588.1 			"/>
			<polygon class="st1" points="607.47,589.36 612.28,597.72 607.03,596.96 604.18,589.61 			"/>
			<polygon class="st1" points="576,590.44 577.77,597.53 573.08,597.09 572.2,590.44 			"/>
			<polygon class="st1" points="423.13,598.23 444.79,589.87 448.21,589.87 432.82,598.23 			"/>
			<polygon class="st1" points="464.92,588.73 455.43,597.85 464.92,597.85 467.96,589.49 			"/>
			<polygon class="st1" points="518.88,589.49 517.36,597.85 520.4,598.23 520.4,589.49 			"/>
			<polygon class="st1" points="552.31,589.49 552.69,597.85 556.11,597.85 554.59,589.11 			"/>
		</g>
		<polygon class="st20" points="614.88,585.11 590.06,585.11 591.32,587.84 618.68,587.84 		"/>
		<polygon class="st20" points="527.24,585.11 504.95,585.11 502.67,587.84 527.24,587.84 		"/>
		<path class="st20" d="M587.15,585.86c0.49,0.99-0.61,1.95-2.55,1.95c-1.94,0-3.43-0.96-3.34-1.95c0.08-0.83,1.26-1.41,2.66-1.41
			S586.74,585.03,587.15,585.86z"/>
		<path class="st20" d="M561.07,581.64c0.41,0.82-0.51,1.62-2.11,1.62s-2.84-0.8-2.77-1.62c0.06-0.69,1.05-1.17,2.21-1.17
			C559.55,580.47,560.73,580.95,561.07,581.64z"/>
		<path class="st20" d="M465.65,587.56c-0.42,1.06-3.74,1.84-7.33,1.55c-3.59-0.3-5.06-1.48-3.56-2.45c1.25-0.81,4.22-1.2,6.81-0.99
			C464.15,585.88,466,586.67,465.65,587.56z"/>
		<polygon class="st20" points="500.39,587.59 496.33,584.8 490.51,587.59 		"/>
		<polygon class="st20" points="461.13,583.79 479.36,583.79 482.15,581.76 465.43,581.76 		"/>
		<polygon class="st20" points="484.3,582.11 481.9,584.04 490,584.04 492.28,582.3 		"/>
		<path class="st20" d="M514.32,580.5l-2.28,2.28h25.08l-2.03-2.28C535.09,580.5,513.94,580.12,514.32,580.5z"/>
		<polygon class="st20" points="544.71,585.06 542.69,587.84 566.25,587.84 564.6,585.06 		"/>
		<polygon class="st20" points="563.97,583.03 594.36,583.03 592.08,581 564.73,581 		"/>
	</g>
</g>
<g id="left_forearm">
	<path class="st6" d="M614.88,494.63c1.01,5.57,2.69,5.68,5.57,7.6s8.93,16.4,12.77,29.85s7.68,17.29,6.72,21.13s0,7.68,2.88,8.64
		c2.88,0.96,15.37-3.84,21.13,0s8.64,13.45,13.45,13.45s3.84-6.72,1.92-9.6c-1.92-2.88-2.88-15.37-4.8-28.81
		c-1.92-13.45-16.07-48.58-18.61-52.63c-4.23-6.77-9.62-6.71-21.53-5.83C627.54,478.92,613.87,489.05,614.88,494.63z"/>
	<path class="st7" d="M614.88,494.63c1.01,5.57,2.69,5.68,5.57,7.6s8.93,16.4,12.77,29.85s7.68,17.29,6.72,21.13s0,7.68,2.88,8.64
		c2.88,0.96,15.37-3.84,21.13,0s8.64,13.45,13.45,13.45s3.84-6.72,1.92-9.6c-1.92-2.88-2.88-15.37-4.8-28.81
		c-1.92-13.45-16.07-48.58-18.61-52.63c-4.23-6.77-9.62-6.71-21.53-5.83C627.54,478.92,613.87,489.05,614.88,494.63z"/>
	<path class="st6" d="M614.88,494.63c1.01,5.57,2.69,5.68,5.57,7.6s8.93,16.4,12.77,29.85s7.68,17.29,6.72,21.13s0,7.68,2.88,8.64
		c2.88,0.96,2.53-17.51-0.44-29.77c-2.97-12.26-1.71-18.92-11.41-34.15c-2-3.15-6.84-15.43-11.14-11.74
		C616.23,489.28,614.42,492.09,614.88,494.63z"/>
	<path class="st0" d="M640.91,564.73c0,0,0-10.56,14.41-8.64c14.41,1.92,25.93,11.53,22.09,19.21
		C673.56,582.98,643.79,582.98,640.91,564.73z"/>
	<path class="st8" d="M654.81,560c0,0-7.18-0.83-15.48,1.38c-4.4,1.17-11.65,8.93-11.65,11.69s-3.32,9.4-4.42,12.16
		c-1.11,2.76,6.08,6.63,8.84,3.87c7.32-8.29,8.36-14.82,8.36-14.82s2.58,2.3,3.42,5.32s-0.92,7.96-0.82,10.65
		c0.21,5.39,1.52,7.67,6.63,8.08c5.11,0.41,4.84-5.18,4.84-5.18s-1.11,3.32,5.53,3.87s7.25,1.93,11.19,2.14
		c3.94,0.21,5.18-1.87,8.15-0.48c3.36,1.56,4.97-4.42,4.97-9.95c0-5.53,1.11-6.63-3.32-11.61c-4.42-4.97-8.84-9.4-13.26-12.71
		S654.81,560,654.81,560z"/>
	<path class="st9" d="M643.37,570.71l-8.11-7.19c0,0-7.58,6.79-7.58,9.55s-3.32,9.4-4.42,12.16c-1.11,2.76,6.08,6.63,8.84,3.87
		c7.32-8.29,8.36-14.82,8.36-14.82s2.58,2.3,3.42,5.32s-0.92,7.96-0.82,10.65c0.21,5.39,1.5,7.99,6.63,8.08
		c3.44,0.06,4.84-5.18,4.84-5.18s-1.11,3.32,5.53,3.87s7.25,1.93,11.19,2.14c3.94,0.21,5.18-1.87,8.15-0.48
		c3.36,1.56,4.97-4.42,4.97-9.95c0,0,1.63-1.15-4.08-4.58c-9.23-5.54-21.49-6.2-21.49-6.2l-6.86-5.41L643.37,570.71z"/>
</g>
<g id="head">
	<path class="st9" d="M505.7,371.75l4.35,41.01c0,0,3.33,7.95,15.54,7.06c12.21-0.88,14.43-10.59,14.43-10.59l-4.44-45.91
		L505.7,371.75z"/>
	<path class="st8" d="M505.7,371.75c0,0,12.73,26.86,18.44,31.8c5.71,4.94,17.56,5.68,17.56,5.68l-4.66-45.91L505.7,371.75z"/>
	<g>
		<g>
			<path class="st5" d="M560.77,358.26c-11.77,27.71-22.02,33.69-22.02,33.69c-43.46,4.49-66.18-25.81-64.09-53.24
				c1.11-28.42,6.87-38.84,37.95-39.69C555.9,297.84,571.25,333.58,560.77,358.26z"/>
			<path class="st5" d="M560.77,358.26c-11.77,27.71-22.02,33.69-22.02,33.69c-43.46,4.49-66.18-25.81-64.09-53.24
				c1.11-28.42,2.87-42.25,38.92-45.24C563.64,289.32,571.25,333.58,560.77,358.26z"/>
			<path class="st23" d="M563.69,358.55c-10.03,23.63-42.87,6.46-42.87,6.46c-6.66-4.06-9.24-27.86-10.73-43.6
				c-1.29-13.57-9.07-26.35,28.33-22.6C571.66,302.15,572.62,337.52,563.69,358.55z"/>
		</g>
		<g>
			<path class="st8" d="M512.82,302.35c0,0-23.29,12.24-27.21,16.6c-3.92,4.36-6.95,51.14,0.51,65.91
				c7.35,14.57,55.09,12.42,65.81,1.76c8.78-8.73,6.61-17.42,8.45-31.82c1.94-15.17-8.52-25-9.67-30.88
				C548.75,313.86,512.82,302.35,512.82,302.35z"/>
		</g>
		<path class="st8" d="M565.98,349.04c-1.89,8.56-6.26,15.16-9.78,14.76c-3.53-0.4-4.87-7.7-2.99-16.34
			c1.89-8.66,6.31-15.32,9.85-14.85C566.58,333.08,567.88,340.45,565.98,349.04z"/>
		<g>
			<path class="st9" d="M489.51,343.64c-7.56,4.94-10.01,37.45,3.15,44.42c13.16,6.97,24.92,4.8,34.03-3.32
				c7.97-7.1,3.43-24.17-7.63-31.94C505.52,343.29,497.07,338.7,489.51,343.64z"/>
		</g>
		<path class="st9" d="M472.3,348.87c1.33,7.3,5.24,12.95,8.76,12.63c3.53-0.32,5.34-6.52,4.02-13.88
			c-1.32-7.38-5.28-13.08-8.82-12.71C472.73,335.29,470.96,341.55,472.3,348.87z"/>
		<path class="st23" d="M552.46,314.51c0,0-2.3,22.29,0.33,28.89l5.88,9.77l1.98-31.63L552.46,314.51z"/>
		<path class="st5" d="M480.35,353.11c0,0-0.42-22.2,0.87-28.86l2.75-9.92l0.04,31.54L480.35,353.11z"/>
		<g>
			<g>
				<path class="st5" d="M551.96,310.3c0,0-8.03,8.92-34.88,9.24c-13.33,0.16-24.65,5.1-31.13,3.82
					c-15.91-3.16,10.78-33.24,38.14-34.48C551.77,287.63,551.96,310.3,551.96,310.3z"/>
			</g>
			<path class="st23" d="M524.25,288.54c-21.94,1.9-44.77,22.24-31.96,24.77c3.64,0.72,9.43,1.68,16.46,2.44
				c12.35-1.94,25.19-8.33,25.19-8.33c-0.81,5.97-7.68,8.38-15.13,9.2c6.31,0.4,13.14,0.57,20.05,0.27
				c11.36-0.49,12.55,0.1,13.33-3.68C553.75,305.54,547.96,286.48,524.25,288.54z"/>
		</g>
	</g>
	<g>
		<path class="st24" d="M535.48,352.61c0.19,3.21-1.24,4.71-2.85,4.81s-2.78-1.25-2.97-4.46s0.95-5.9,2.56-5.99
			S535.28,349.39,535.48,352.61z"/>
		<path class="st24" d="M508.58,354.53c0.19,3.21-1.24,4.71-2.85,4.81s-2.78-1.25-2.97-4.46c-0.19-3.21,0.95-5.9,2.56-5.99
			C506.93,348.79,508.39,351.31,508.58,354.53z"/>
		<path class="st25" d="M539.78,341.99c0,0-3.15-5.67-8.27-4.13"/>
		<path class="st25" d="M503.29,339.87c0,0-6.07-0.44-7.49,4.38"/>
	</g>
</g>
</svg>
