<svg id="Layer_1" enable-background="new 0 0 512 512" height="512" viewBox="0 0 512 512" width="512" xmlns="http://www.w3.org/2000/svg"><g><g><g><g id="XMLID_881_"><g id="XMLID_882_"><g id="XMLID_883_"><g id="XMLID_884_"><g id="XMLID_885_"><g id="XMLID_886_"><g id="XMLID_887_"><g id="XMLID_888_"><g id="XMLID_969_"><g id="XMLID_970_"><g id="XMLID_971_"><g id="XMLID_972_"><g id="XMLID_973_"><g id="XMLID_974_"><circle id="XMLID_975_" cx="256" cy="256" fill="#ed2f54" r="256"/></g></g></g></g></g></g></g></g></g></g></g></g></g></g></g></g><path d="m512 256c0-31.066-5.538-60.837-15.673-88.386l-73.987-73.987-34.16 3.526-36.602-36.195-32.412 56.042-77.652-8.514-47.387-47.528-104.702 366.166 63.072 63.071c31.65 14.009 66.664 21.805 103.503 21.805 141.385 0 256-114.615 256-256z" fill="#a5003c"/><g><g><path d="m89.425 162.96h333.15v252.164h-333.15z" fill="#f5f5f7"/><path d="m256 162.96h166.57v252.16h-166.57z" fill="#e0e3ee"/><path d="m89.425 376.527h333.15v50.596h-333.15z" fill="#e0e3ee"/><path d="m256 376.53h166.57v50.59h-166.57z" fill="#c3cadd"/><path d="m89.66 93.627h332.68v82.594h-332.68z" fill="#fed940"/><path d="m256 93.63h166.34v82.59h-166.34z" fill="#fdbf2d"/><g><g><path d="m315.007 115.97v-44.686c0-10.903 8.839-19.743 19.743-19.743 10.904 0 19.743 8.839 19.743 19.743v44.687c0 10.904-8.839 19.743-19.743 19.743-10.904-.001-19.743-8.84-19.743-19.744z" fill="#ef7a06"/></g><g><g><g><path d="m157.507 115.97v-44.686c0-10.903 8.839-19.743 19.743-19.743 10.904 0 19.743 8.839 19.743 19.743v44.687c0 10.904-8.839 19.743-19.743 19.743-10.904-.001-19.743-8.84-19.743-19.744z" fill="#fd9827"/></g></g></g></g></g><g><g><g><path d="m234.5 325.633h-15v-85.261h-18.224v-15h33.224z" fill="#726565"/></g></g><g><g><path d="m319.119 325.256-58.617-.18.047-13.315 2.061-2.162c.077-.083 9.108-9.728 29.788-39.275 4.079-5.828 6.709-11.06 7.821-15.56l.304-2.375c-.228-7.697-6.56-13.89-14.311-13.89-6.827 0-12.735 4.851-14.048 11.533l-1.445 7.359-14.719-2.889 1.445-7.359c2.69-13.699 14.788-23.643 28.767-23.643 16.165 0 29.316 13.151 29.316 29.317v.477l-.614 4.515c-1.497 6.456-4.939 13.56-10.228 21.117-10.389 14.844-17.932 24.82-22.999 31.216l37.478.115z" fill="#514747"/></g></g></g></g></g></svg>