<svg id="Layer_1" enable-background="new 0 0 511.971 511.971" height="512" viewBox="0 0 511.971 511.971" width="512" xmlns="http://www.w3.org/2000/svg"><g><path d="m418.736 168.802h-325.501l-93.166 49.118v28.207l255.916 171.249 255.917-171.249v-28.207z" fill="#ffbe46"/><path d="m511.902 217.92-93.166-49.118h-162.738v248.566l255.904-171.241z" fill="#ffa725"/><path d="m81.947 0v289.77l174.039 116.459 174.038-116.459v-289.77z" fill="#ad2666"/><path d="m430.024 0h-174.026v406.221l174.026-116.451z" fill="#5b3364"/><path d="m352.508 148.313-66.636-9.76-29.874-60.359-29.874 60.359-66.635 9.76 48.172 47.063-11.309 66.39 59.646-31.27 59.646 31.27-11.308-66.39z" fill="#ffd567"/><path d="m343.388 326.016-87.403 55.263-87.396-55.259-168.52 144.038v41.913h511.833v-41.913z" fill="#ffe7ad"/><g fill="#ffd567"><path d="m511.902 470.058-168.514-144.042-87.39 55.255v130.7h255.904z"/><path d="m.069 217.92v294.05l196.683-168.143z"/><path d="m315.195 343.842 196.707 168.129v-294.051z"/></g><path d="m315.195 343.842 196.707 168.129v-294.051z" fill="#ffbe46"/><path d="m352.508 148.313-66.636-9.76-29.874-60.359v152.302l59.646 31.27-11.308-66.39z" fill="#ffbe46"/></g></svg>